M48
; DRILL file {KiCad 7.0.9} date Wed Jan 17 13:02:19 2024
; FORMAT={-:-/ absolute / inch / decimal}
; #@! TF.CreationDate,2024-01-17T13:02:19-08:00
; #@! TF.GenerationSoftware,Kicad,Pcbnew,7.0.9
; #@! TF.FileFunction,Plated,1,2,PTH
FMAT,2
INCH
; #@! TA.AperFunction,Plated,PTH,ViaDrill
T1C0.0157
; #@! TA.AperFunction,Plated,PTH,ComponentDrill
T2C0.0290
; #@! TA.AperFunction,Plated,PTH,ComponentDrill
T3C0.0339
; #@! TA.AperFunction,Plated,PTH,ComponentDrill
T4C0.0354
; #@! TA.AperFunction,Plated,PTH,ComponentDrill
T5C0.0394
%
G90
G05
T1
X5.3445Y-4.1634
X5.3937Y-4.3898
X5.3937Y-4.4291
X5.4232Y-4.1437
X5.4626Y-4.1437
X5.502Y-4.1437
X5.502Y-4.4707
X5.502Y-4.8207
X5.5807Y-4.1437
X5.629Y-3.6122
X5.6693Y-3.7992
X5.6693Y-3.878
X5.6693Y-3.9567
X5.6693Y-4.0354
X5.6693Y-4.9409
X5.6693Y-4.9803
X5.6693Y-5.1378
X5.6693Y-5.1772
X5.7087Y-4.4685
X5.7087Y-4.5866
X5.7087Y-4.626
X5.7087Y-4.9409
X5.7087Y-4.9803
X5.7087Y-5.1378
X5.7087Y-5.1772
X5.7382Y-3.6122
X5.748Y-3.7992
X5.748Y-3.878
X5.748Y-3.9567
X5.748Y-4.0354
X5.748Y-4.4685
X5.748Y-4.5079
X5.748Y-4.626
X5.748Y-4.6654
X5.7874Y-4.5079
X5.7874Y-4.5472
X5.7874Y-4.6654
X5.7874Y-4.7047
X5.8268Y-3.7992
X5.8268Y-3.878
X5.8268Y-3.9567
X5.8268Y-4.0354
X5.8268Y-4.5472
X5.8268Y-4.5866
X5.8268Y-4.7047
X5.876Y-4.4685
X5.876Y-4.7638
X5.8858Y-4.252
X5.8957Y-5.0787
X5.9055Y-3.7992
X5.9055Y-3.878
X5.9055Y-3.9567
X5.9055Y-4.0354
X5.9547Y-5.2308
X6.0335Y-4.1437
X6.0583Y-3.706
X6.0827Y-4.312
X6.0925Y-4.872
X6.1024Y-3.9213
X6.1024Y-3.9606
X6.1417Y-3.9213
X6.1417Y-3.9606
T2
X6.1024Y-5.0197
X6.1024Y-5.0787
X6.1024Y-5.1378
X6.1024Y-5.1969
X6.1024Y-5.2559
X6.1024Y-5.315
X6.3189Y-5.187
X6.3189Y-5.2461
X6.3189Y-5.3051
X6.3189Y-5.3642
X6.3189Y-5.4232
X6.3189Y-5.4823
T3
X5.2461Y-5.2579
X5.2461Y-5.4646
X5.3248Y-5.2579
X5.3248Y-5.4646
T4
X5.561Y-5.3051
X5.6594Y-5.3051
X5.7579Y-5.3051
T5
X4.999Y-3.65
X4.999Y-3.75
X5.0Y-2.5486
X5.0Y-2.6486
X5.2766Y-2.3888
X5.2766Y-2.4888
X5.2766Y-2.5888
X5.2766Y-2.6888
X5.2766Y-2.7888
X5.2766Y-2.8888
X5.3622Y-3.1486
X5.4622Y-3.1486
X5.4874Y-5.4734
X5.5364Y-2.6388
X5.5622Y-3.1486
X5.5862Y-2.875
X5.5874Y-5.4734
X5.6364Y-2.6388
X5.6378Y-2.3219
X5.6378Y-2.4219
X5.6378Y-3.4236
X5.6378Y-3.5236
X5.6622Y-3.1486
X5.6862Y-2.875
X5.6874Y-5.4734
X5.7364Y-2.6388
X5.7378Y-2.3219
X5.7378Y-2.4219
X5.7378Y-3.4236
X5.7378Y-3.5236
X5.7862Y-2.875
X5.7874Y-5.4734
X5.8364Y-2.6388
X5.8378Y-2.3219
X5.8378Y-2.4219
X5.8378Y-3.4236
X5.8378Y-3.5236
X5.8862Y-2.875
X5.9364Y-2.6388
X5.9378Y-2.3219
X5.9378Y-2.4219
X5.9378Y-3.4236
X5.9378Y-3.5236
X5.9862Y-2.875
X6.0364Y-2.6388
X6.2982Y-2.3868
X6.2982Y-2.4868
X6.2982Y-2.5868
X6.2982Y-2.6868
X6.2982Y-2.7868
X6.2982Y-2.8868
X6.4856Y-2.4793
X6.4856Y-2.5793
X6.4856Y-2.6793
X6.4862Y-3.5817
X6.4862Y-3.6817
X6.4862Y-3.7817
X6.5856Y-2.4793
X6.5856Y-2.5793
X6.5856Y-2.6793
X6.5862Y-3.5817
X6.5862Y-3.6817
X6.5862Y-3.7817
T0
M30
