%TF.GenerationSoftware,KiCad,Pcbnew,7.0.9*%
%TF.CreationDate,2024-02-01T16:25:34-08:00*%
%TF.ProjectId,micromouse,6d696372-6f6d-46f7-9573-652e6b696361,rev?*%
%TF.SameCoordinates,Original*%
%TF.FileFunction,Profile,NP*%
%FSLAX46Y46*%
G04 Gerber Fmt 4.6, Leading zero omitted, Abs format (unit mm)*
G04 Created by KiCad (PCBNEW 7.0.9) date 2024-02-01 16:25:34*
%MOMM*%
%LPD*%
G01*
G04 APERTURE LIST*
%TA.AperFunction,Profile*%
%ADD10C,0.100000*%
%TD*%
G04 APERTURE END LIST*
D10*
X169999999Y-64000001D02*
G75*
G03*
X163000001Y-57000001I-6999999J1D01*
G01*
X130999999Y-56999999D02*
X163000001Y-57000001D01*
X124000000Y-71000001D02*
X123999999Y-63999999D01*
X132000000Y-84000000D02*
X132000000Y-84999998D01*
X162000000Y-84000000D02*
X132000000Y-84000000D01*
X130999998Y-84999998D02*
G75*
G03*
X123999998Y-91999998I2J-7000002D01*
G01*
X163000000Y-85000000D02*
X163000000Y-71000001D01*
X124000000Y-99000000D02*
X131000000Y-99000000D01*
X124000000Y-71000001D02*
X131000000Y-71000001D01*
X131000000Y-141000000D02*
X163000000Y-141000000D01*
X162000000Y-84000000D02*
X162000000Y-85000000D01*
X131000000Y-141000000D02*
X131000000Y-99000000D01*
X170000000Y-99000000D02*
X170000000Y-92000000D01*
X170000000Y-71000001D02*
X170000001Y-64000001D01*
X131000000Y-71000001D02*
X130999998Y-84999998D01*
X170000000Y-99000000D02*
X163000000Y-99000000D01*
X163000000Y-99000000D02*
X163000000Y-141000000D01*
X124000000Y-99000000D02*
X123999998Y-91999998D01*
X170000000Y-92000000D02*
G75*
G03*
X163000000Y-85000000I-7000000J0D01*
G01*
X170000000Y-71000001D02*
X163000000Y-71000001D01*
X130999999Y-56999999D02*
G75*
G03*
X123999999Y-63999999I1J-7000001D01*
G01*
X132000000Y-84999998D02*
X162000000Y-85000000D01*
M02*
