%TF.GenerationSoftware,KiCad,Pcbnew,7.0.9*%
%TF.CreationDate,2024-02-01T16:25:34-08:00*%
%TF.ProjectId,micromouse,6d696372-6f6d-46f7-9573-652e6b696361,rev?*%
%TF.SameCoordinates,Original*%
%TF.FileFunction,Soldermask,Top*%
%TF.FilePolarity,Negative*%
%FSLAX46Y46*%
G04 Gerber Fmt 4.6, Leading zero omitted, Abs format (unit mm)*
G04 Created by KiCad (PCBNEW 7.0.9) date 2024-02-01 16:25:34*
%MOMM*%
%LPD*%
G01*
G04 APERTURE LIST*
G04 Aperture macros list*
%AMRoundRect*
0 Rectangle with rounded corners*
0 $1 Rounding radius*
0 $2 $3 $4 $5 $6 $7 $8 $9 X,Y pos of 4 corners*
0 Add a 4 corners polygon primitive as box body*
4,1,4,$2,$3,$4,$5,$6,$7,$8,$9,$2,$3,0*
0 Add four circle primitives for the rounded corners*
1,1,$1+$1,$2,$3*
1,1,$1+$1,$4,$5*
1,1,$1+$1,$6,$7*
1,1,$1+$1,$8,$9*
0 Add four rect primitives between the rounded corners*
20,1,$1+$1,$2,$3,$4,$5,0*
20,1,$1+$1,$4,$5,$6,$7,0*
20,1,$1+$1,$6,$7,$8,$9,0*
20,1,$1+$1,$8,$9,$2,$3,0*%
G04 Aperture macros list end*
%ADD10C,0.010000*%
%ADD11RoundRect,0.225000X-0.250000X0.225000X-0.250000X-0.225000X0.250000X-0.225000X0.250000X0.225000X0*%
%ADD12RoundRect,0.225000X0.225000X0.250000X-0.225000X0.250000X-0.225000X-0.250000X0.225000X-0.250000X0*%
%ADD13RoundRect,0.225000X0.250000X-0.225000X0.250000X0.225000X-0.250000X0.225000X-0.250000X-0.225000X0*%
%ADD14R,2.000000X1.500000*%
%ADD15R,2.000000X3.800000*%
%ADD16RoundRect,0.225000X-0.225000X-0.250000X0.225000X-0.250000X0.225000X0.250000X-0.225000X0.250000X0*%
%ADD17R,1.092200X1.397000*%
%ADD18R,1.700000X1.700000*%
%ADD19O,1.700000X1.700000*%
%ADD20RoundRect,0.200000X0.275000X-0.200000X0.275000X0.200000X-0.275000X0.200000X-0.275000X-0.200000X0*%
%ADD21C,2.200000*%
%ADD22R,1.900000X1.900000*%
%ADD23C,1.900000*%
%ADD24R,1.000000X1.500000*%
%ADD25RoundRect,0.102000X-0.684000X-0.684000X0.684000X-0.684000X0.684000X0.684000X-0.684000X0.684000X0*%
%ADD26C,1.572000*%
%ADD27RoundRect,0.200000X-0.275000X0.200000X-0.275000X-0.200000X0.275000X-0.200000X0.275000X0.200000X0*%
%ADD28R,1.600200X1.168400*%
%ADD29R,1.219200X0.508000*%
%ADD30RoundRect,0.200000X-0.200000X-0.275000X0.200000X-0.275000X0.200000X0.275000X-0.200000X0.275000X0*%
%ADD31RoundRect,0.200000X0.200000X0.275000X-0.200000X0.275000X-0.200000X-0.275000X0.200000X-0.275000X0*%
%ADD32RoundRect,0.075000X-0.700000X-0.075000X0.700000X-0.075000X0.700000X0.075000X-0.700000X0.075000X0*%
%ADD33RoundRect,0.075000X-0.075000X-0.700000X0.075000X-0.700000X0.075000X0.700000X-0.075000X0.700000X0*%
%ADD34RoundRect,0.218750X0.256250X-0.218750X0.256250X0.218750X-0.256250X0.218750X-0.256250X-0.218750X0*%
%ADD35C,1.244600*%
%ADD36RoundRect,0.218750X-0.218750X-0.256250X0.218750X-0.256250X0.218750X0.256250X-0.218750X0.256250X0*%
%ADD37RoundRect,0.218750X0.218750X0.256250X-0.218750X0.256250X-0.218750X-0.256250X0.218750X-0.256250X0*%
%ADD38RoundRect,0.402000X-0.725000X0.000000X-0.725000X0.000000X0.725000X0.000000X0.725000X0.000000X0*%
G04 APERTURE END LIST*
%TO.C,U2*%
D10*
X146068000Y-108276000D02*
X146075000Y-108277000D01*
X146081000Y-108278000D01*
X146087000Y-108279000D01*
X146094000Y-108281000D01*
X146100000Y-108283000D01*
X146106000Y-108286000D01*
X146112000Y-108289000D01*
X146118000Y-108292000D01*
X146123000Y-108295000D01*
X146128000Y-108299000D01*
X146134000Y-108303000D01*
X146139000Y-108307000D01*
X146143000Y-108312000D01*
X146148000Y-108316000D01*
X146152000Y-108321000D01*
X146156000Y-108327000D01*
X146160000Y-108332000D01*
X146163000Y-108338000D01*
X146166000Y-108343000D01*
X146169000Y-108349000D01*
X146172000Y-108355000D01*
X146174000Y-108361000D01*
X146176000Y-108368000D01*
X146177000Y-108374000D01*
X146178000Y-108380000D01*
X146179000Y-108387000D01*
X146180000Y-108393000D01*
X146180000Y-108400000D01*
X146180000Y-108600000D01*
X146180000Y-108607000D01*
X146179000Y-108613000D01*
X146178000Y-108620000D01*
X146177000Y-108626000D01*
X146176000Y-108632000D01*
X146174000Y-108639000D01*
X146172000Y-108645000D01*
X146169000Y-108651000D01*
X146166000Y-108657000D01*
X146163000Y-108662000D01*
X146160000Y-108668000D01*
X146156000Y-108673000D01*
X146152000Y-108679000D01*
X146148000Y-108684000D01*
X146143000Y-108688000D01*
X146139000Y-108693000D01*
X146134000Y-108697000D01*
X146128000Y-108701000D01*
X146123000Y-108705000D01*
X146118000Y-108708000D01*
X146112000Y-108711000D01*
X146106000Y-108714000D01*
X146100000Y-108717000D01*
X146094000Y-108719000D01*
X146087000Y-108721000D01*
X146081000Y-108722000D01*
X146075000Y-108723000D01*
X146068000Y-108724000D01*
X146062000Y-108725000D01*
X146055000Y-108725000D01*
X145615000Y-108725000D01*
X145608000Y-108725000D01*
X145602000Y-108724000D01*
X145595000Y-108723000D01*
X145589000Y-108722000D01*
X145583000Y-108721000D01*
X145576000Y-108719000D01*
X145570000Y-108717000D01*
X145564000Y-108714000D01*
X145558000Y-108711000D01*
X145552000Y-108708000D01*
X145547000Y-108705000D01*
X145542000Y-108701000D01*
X145536000Y-108697000D01*
X145531000Y-108693000D01*
X145527000Y-108688000D01*
X145522000Y-108684000D01*
X145518000Y-108679000D01*
X145514000Y-108673000D01*
X145510000Y-108668000D01*
X145507000Y-108662000D01*
X145504000Y-108657000D01*
X145501000Y-108651000D01*
X145498000Y-108645000D01*
X145496000Y-108639000D01*
X145494000Y-108632000D01*
X145493000Y-108626000D01*
X145492000Y-108620000D01*
X145491000Y-108613000D01*
X145490000Y-108607000D01*
X145490000Y-108600000D01*
X145490000Y-108400000D01*
X145490000Y-108393000D01*
X145491000Y-108387000D01*
X145492000Y-108380000D01*
X145493000Y-108374000D01*
X145494000Y-108368000D01*
X145496000Y-108361000D01*
X145498000Y-108355000D01*
X145501000Y-108349000D01*
X145504000Y-108343000D01*
X145507000Y-108338000D01*
X145510000Y-108332000D01*
X145514000Y-108327000D01*
X145518000Y-108321000D01*
X145522000Y-108316000D01*
X145527000Y-108312000D01*
X145531000Y-108307000D01*
X145536000Y-108303000D01*
X145542000Y-108299000D01*
X145547000Y-108295000D01*
X145552000Y-108292000D01*
X145558000Y-108289000D01*
X145564000Y-108286000D01*
X145570000Y-108283000D01*
X145576000Y-108281000D01*
X145583000Y-108279000D01*
X145589000Y-108278000D01*
X145595000Y-108277000D01*
X145602000Y-108276000D01*
X145608000Y-108275000D01*
X145615000Y-108275000D01*
X146055000Y-108275000D01*
X146062000Y-108275000D01*
X146068000Y-108276000D01*
G36*
X146068000Y-108276000D02*
G01*
X146075000Y-108277000D01*
X146081000Y-108278000D01*
X146087000Y-108279000D01*
X146094000Y-108281000D01*
X146100000Y-108283000D01*
X146106000Y-108286000D01*
X146112000Y-108289000D01*
X146118000Y-108292000D01*
X146123000Y-108295000D01*
X146128000Y-108299000D01*
X146134000Y-108303000D01*
X146139000Y-108307000D01*
X146143000Y-108312000D01*
X146148000Y-108316000D01*
X146152000Y-108321000D01*
X146156000Y-108327000D01*
X146160000Y-108332000D01*
X146163000Y-108338000D01*
X146166000Y-108343000D01*
X146169000Y-108349000D01*
X146172000Y-108355000D01*
X146174000Y-108361000D01*
X146176000Y-108368000D01*
X146177000Y-108374000D01*
X146178000Y-108380000D01*
X146179000Y-108387000D01*
X146180000Y-108393000D01*
X146180000Y-108400000D01*
X146180000Y-108600000D01*
X146180000Y-108607000D01*
X146179000Y-108613000D01*
X146178000Y-108620000D01*
X146177000Y-108626000D01*
X146176000Y-108632000D01*
X146174000Y-108639000D01*
X146172000Y-108645000D01*
X146169000Y-108651000D01*
X146166000Y-108657000D01*
X146163000Y-108662000D01*
X146160000Y-108668000D01*
X146156000Y-108673000D01*
X146152000Y-108679000D01*
X146148000Y-108684000D01*
X146143000Y-108688000D01*
X146139000Y-108693000D01*
X146134000Y-108697000D01*
X146128000Y-108701000D01*
X146123000Y-108705000D01*
X146118000Y-108708000D01*
X146112000Y-108711000D01*
X146106000Y-108714000D01*
X146100000Y-108717000D01*
X146094000Y-108719000D01*
X146087000Y-108721000D01*
X146081000Y-108722000D01*
X146075000Y-108723000D01*
X146068000Y-108724000D01*
X146062000Y-108725000D01*
X146055000Y-108725000D01*
X145615000Y-108725000D01*
X145608000Y-108725000D01*
X145602000Y-108724000D01*
X145595000Y-108723000D01*
X145589000Y-108722000D01*
X145583000Y-108721000D01*
X145576000Y-108719000D01*
X145570000Y-108717000D01*
X145564000Y-108714000D01*
X145558000Y-108711000D01*
X145552000Y-108708000D01*
X145547000Y-108705000D01*
X145542000Y-108701000D01*
X145536000Y-108697000D01*
X145531000Y-108693000D01*
X145527000Y-108688000D01*
X145522000Y-108684000D01*
X145518000Y-108679000D01*
X145514000Y-108673000D01*
X145510000Y-108668000D01*
X145507000Y-108662000D01*
X145504000Y-108657000D01*
X145501000Y-108651000D01*
X145498000Y-108645000D01*
X145496000Y-108639000D01*
X145494000Y-108632000D01*
X145493000Y-108626000D01*
X145492000Y-108620000D01*
X145491000Y-108613000D01*
X145490000Y-108607000D01*
X145490000Y-108600000D01*
X145490000Y-108400000D01*
X145490000Y-108393000D01*
X145491000Y-108387000D01*
X145492000Y-108380000D01*
X145493000Y-108374000D01*
X145494000Y-108368000D01*
X145496000Y-108361000D01*
X145498000Y-108355000D01*
X145501000Y-108349000D01*
X145504000Y-108343000D01*
X145507000Y-108338000D01*
X145510000Y-108332000D01*
X145514000Y-108327000D01*
X145518000Y-108321000D01*
X145522000Y-108316000D01*
X145527000Y-108312000D01*
X145531000Y-108307000D01*
X145536000Y-108303000D01*
X145542000Y-108299000D01*
X145547000Y-108295000D01*
X145552000Y-108292000D01*
X145558000Y-108289000D01*
X145564000Y-108286000D01*
X145570000Y-108283000D01*
X145576000Y-108281000D01*
X145583000Y-108279000D01*
X145589000Y-108278000D01*
X145595000Y-108277000D01*
X145602000Y-108276000D01*
X145608000Y-108275000D01*
X145615000Y-108275000D01*
X146055000Y-108275000D01*
X146062000Y-108275000D01*
X146068000Y-108276000D01*
G37*
X146068000Y-108776000D02*
X146075000Y-108777000D01*
X146081000Y-108778000D01*
X146087000Y-108779000D01*
X146094000Y-108781000D01*
X146100000Y-108783000D01*
X146106000Y-108786000D01*
X146112000Y-108789000D01*
X146118000Y-108792000D01*
X146123000Y-108795000D01*
X146128000Y-108799000D01*
X146134000Y-108803000D01*
X146139000Y-108807000D01*
X146143000Y-108812000D01*
X146148000Y-108816000D01*
X146152000Y-108821000D01*
X146156000Y-108827000D01*
X146160000Y-108832000D01*
X146163000Y-108838000D01*
X146166000Y-108843000D01*
X146169000Y-108849000D01*
X146172000Y-108855000D01*
X146174000Y-108861000D01*
X146176000Y-108868000D01*
X146177000Y-108874000D01*
X146178000Y-108880000D01*
X146179000Y-108887000D01*
X146180000Y-108893000D01*
X146180000Y-108900000D01*
X146180000Y-109100000D01*
X146180000Y-109107000D01*
X146179000Y-109113000D01*
X146178000Y-109120000D01*
X146177000Y-109126000D01*
X146176000Y-109132000D01*
X146174000Y-109139000D01*
X146172000Y-109145000D01*
X146169000Y-109151000D01*
X146166000Y-109157000D01*
X146163000Y-109162000D01*
X146160000Y-109168000D01*
X146156000Y-109173000D01*
X146152000Y-109179000D01*
X146148000Y-109184000D01*
X146143000Y-109188000D01*
X146139000Y-109193000D01*
X146134000Y-109197000D01*
X146128000Y-109201000D01*
X146123000Y-109205000D01*
X146118000Y-109208000D01*
X146112000Y-109211000D01*
X146106000Y-109214000D01*
X146100000Y-109217000D01*
X146094000Y-109219000D01*
X146087000Y-109221000D01*
X146081000Y-109222000D01*
X146075000Y-109223000D01*
X146068000Y-109224000D01*
X146062000Y-109225000D01*
X146055000Y-109225000D01*
X145615000Y-109225000D01*
X145608000Y-109225000D01*
X145602000Y-109224000D01*
X145595000Y-109223000D01*
X145589000Y-109222000D01*
X145583000Y-109221000D01*
X145576000Y-109219000D01*
X145570000Y-109217000D01*
X145564000Y-109214000D01*
X145558000Y-109211000D01*
X145552000Y-109208000D01*
X145547000Y-109205000D01*
X145542000Y-109201000D01*
X145536000Y-109197000D01*
X145531000Y-109193000D01*
X145527000Y-109188000D01*
X145522000Y-109184000D01*
X145518000Y-109179000D01*
X145514000Y-109173000D01*
X145510000Y-109168000D01*
X145507000Y-109162000D01*
X145504000Y-109157000D01*
X145501000Y-109151000D01*
X145498000Y-109145000D01*
X145496000Y-109139000D01*
X145494000Y-109132000D01*
X145493000Y-109126000D01*
X145492000Y-109120000D01*
X145491000Y-109113000D01*
X145490000Y-109107000D01*
X145490000Y-109100000D01*
X145490000Y-108900000D01*
X145490000Y-108893000D01*
X145491000Y-108887000D01*
X145492000Y-108880000D01*
X145493000Y-108874000D01*
X145494000Y-108868000D01*
X145496000Y-108861000D01*
X145498000Y-108855000D01*
X145501000Y-108849000D01*
X145504000Y-108843000D01*
X145507000Y-108838000D01*
X145510000Y-108832000D01*
X145514000Y-108827000D01*
X145518000Y-108821000D01*
X145522000Y-108816000D01*
X145527000Y-108812000D01*
X145531000Y-108807000D01*
X145536000Y-108803000D01*
X145542000Y-108799000D01*
X145547000Y-108795000D01*
X145552000Y-108792000D01*
X145558000Y-108789000D01*
X145564000Y-108786000D01*
X145570000Y-108783000D01*
X145576000Y-108781000D01*
X145583000Y-108779000D01*
X145589000Y-108778000D01*
X145595000Y-108777000D01*
X145602000Y-108776000D01*
X145608000Y-108775000D01*
X145615000Y-108775000D01*
X146055000Y-108775000D01*
X146062000Y-108775000D01*
X146068000Y-108776000D01*
G36*
X146068000Y-108776000D02*
G01*
X146075000Y-108777000D01*
X146081000Y-108778000D01*
X146087000Y-108779000D01*
X146094000Y-108781000D01*
X146100000Y-108783000D01*
X146106000Y-108786000D01*
X146112000Y-108789000D01*
X146118000Y-108792000D01*
X146123000Y-108795000D01*
X146128000Y-108799000D01*
X146134000Y-108803000D01*
X146139000Y-108807000D01*
X146143000Y-108812000D01*
X146148000Y-108816000D01*
X146152000Y-108821000D01*
X146156000Y-108827000D01*
X146160000Y-108832000D01*
X146163000Y-108838000D01*
X146166000Y-108843000D01*
X146169000Y-108849000D01*
X146172000Y-108855000D01*
X146174000Y-108861000D01*
X146176000Y-108868000D01*
X146177000Y-108874000D01*
X146178000Y-108880000D01*
X146179000Y-108887000D01*
X146180000Y-108893000D01*
X146180000Y-108900000D01*
X146180000Y-109100000D01*
X146180000Y-109107000D01*
X146179000Y-109113000D01*
X146178000Y-109120000D01*
X146177000Y-109126000D01*
X146176000Y-109132000D01*
X146174000Y-109139000D01*
X146172000Y-109145000D01*
X146169000Y-109151000D01*
X146166000Y-109157000D01*
X146163000Y-109162000D01*
X146160000Y-109168000D01*
X146156000Y-109173000D01*
X146152000Y-109179000D01*
X146148000Y-109184000D01*
X146143000Y-109188000D01*
X146139000Y-109193000D01*
X146134000Y-109197000D01*
X146128000Y-109201000D01*
X146123000Y-109205000D01*
X146118000Y-109208000D01*
X146112000Y-109211000D01*
X146106000Y-109214000D01*
X146100000Y-109217000D01*
X146094000Y-109219000D01*
X146087000Y-109221000D01*
X146081000Y-109222000D01*
X146075000Y-109223000D01*
X146068000Y-109224000D01*
X146062000Y-109225000D01*
X146055000Y-109225000D01*
X145615000Y-109225000D01*
X145608000Y-109225000D01*
X145602000Y-109224000D01*
X145595000Y-109223000D01*
X145589000Y-109222000D01*
X145583000Y-109221000D01*
X145576000Y-109219000D01*
X145570000Y-109217000D01*
X145564000Y-109214000D01*
X145558000Y-109211000D01*
X145552000Y-109208000D01*
X145547000Y-109205000D01*
X145542000Y-109201000D01*
X145536000Y-109197000D01*
X145531000Y-109193000D01*
X145527000Y-109188000D01*
X145522000Y-109184000D01*
X145518000Y-109179000D01*
X145514000Y-109173000D01*
X145510000Y-109168000D01*
X145507000Y-109162000D01*
X145504000Y-109157000D01*
X145501000Y-109151000D01*
X145498000Y-109145000D01*
X145496000Y-109139000D01*
X145494000Y-109132000D01*
X145493000Y-109126000D01*
X145492000Y-109120000D01*
X145491000Y-109113000D01*
X145490000Y-109107000D01*
X145490000Y-109100000D01*
X145490000Y-108900000D01*
X145490000Y-108893000D01*
X145491000Y-108887000D01*
X145492000Y-108880000D01*
X145493000Y-108874000D01*
X145494000Y-108868000D01*
X145496000Y-108861000D01*
X145498000Y-108855000D01*
X145501000Y-108849000D01*
X145504000Y-108843000D01*
X145507000Y-108838000D01*
X145510000Y-108832000D01*
X145514000Y-108827000D01*
X145518000Y-108821000D01*
X145522000Y-108816000D01*
X145527000Y-108812000D01*
X145531000Y-108807000D01*
X145536000Y-108803000D01*
X145542000Y-108799000D01*
X145547000Y-108795000D01*
X145552000Y-108792000D01*
X145558000Y-108789000D01*
X145564000Y-108786000D01*
X145570000Y-108783000D01*
X145576000Y-108781000D01*
X145583000Y-108779000D01*
X145589000Y-108778000D01*
X145595000Y-108777000D01*
X145602000Y-108776000D01*
X145608000Y-108775000D01*
X145615000Y-108775000D01*
X146055000Y-108775000D01*
X146062000Y-108775000D01*
X146068000Y-108776000D01*
G37*
X146068000Y-109276000D02*
X146075000Y-109277000D01*
X146081000Y-109278000D01*
X146087000Y-109279000D01*
X146094000Y-109281000D01*
X146100000Y-109283000D01*
X146106000Y-109286000D01*
X146112000Y-109289000D01*
X146118000Y-109292000D01*
X146123000Y-109295000D01*
X146128000Y-109299000D01*
X146134000Y-109303000D01*
X146139000Y-109307000D01*
X146143000Y-109312000D01*
X146148000Y-109316000D01*
X146152000Y-109321000D01*
X146156000Y-109327000D01*
X146160000Y-109332000D01*
X146163000Y-109338000D01*
X146166000Y-109343000D01*
X146169000Y-109349000D01*
X146172000Y-109355000D01*
X146174000Y-109361000D01*
X146176000Y-109368000D01*
X146177000Y-109374000D01*
X146178000Y-109380000D01*
X146179000Y-109387000D01*
X146180000Y-109393000D01*
X146180000Y-109400000D01*
X146180000Y-109600000D01*
X146180000Y-109607000D01*
X146179000Y-109613000D01*
X146178000Y-109620000D01*
X146177000Y-109626000D01*
X146176000Y-109632000D01*
X146174000Y-109639000D01*
X146172000Y-109645000D01*
X146169000Y-109651000D01*
X146166000Y-109657000D01*
X146163000Y-109662000D01*
X146160000Y-109668000D01*
X146156000Y-109673000D01*
X146152000Y-109679000D01*
X146148000Y-109684000D01*
X146143000Y-109688000D01*
X146139000Y-109693000D01*
X146134000Y-109697000D01*
X146128000Y-109701000D01*
X146123000Y-109705000D01*
X146118000Y-109708000D01*
X146112000Y-109711000D01*
X146106000Y-109714000D01*
X146100000Y-109717000D01*
X146094000Y-109719000D01*
X146087000Y-109721000D01*
X146081000Y-109722000D01*
X146075000Y-109723000D01*
X146068000Y-109724000D01*
X146062000Y-109725000D01*
X146055000Y-109725000D01*
X145615000Y-109725000D01*
X145608000Y-109725000D01*
X145602000Y-109724000D01*
X145595000Y-109723000D01*
X145589000Y-109722000D01*
X145583000Y-109721000D01*
X145576000Y-109719000D01*
X145570000Y-109717000D01*
X145564000Y-109714000D01*
X145558000Y-109711000D01*
X145552000Y-109708000D01*
X145547000Y-109705000D01*
X145542000Y-109701000D01*
X145536000Y-109697000D01*
X145531000Y-109693000D01*
X145527000Y-109688000D01*
X145522000Y-109684000D01*
X145518000Y-109679000D01*
X145514000Y-109673000D01*
X145510000Y-109668000D01*
X145507000Y-109662000D01*
X145504000Y-109657000D01*
X145501000Y-109651000D01*
X145498000Y-109645000D01*
X145496000Y-109639000D01*
X145494000Y-109632000D01*
X145493000Y-109626000D01*
X145492000Y-109620000D01*
X145491000Y-109613000D01*
X145490000Y-109607000D01*
X145490000Y-109600000D01*
X145490000Y-109400000D01*
X145490000Y-109393000D01*
X145491000Y-109387000D01*
X145492000Y-109380000D01*
X145493000Y-109374000D01*
X145494000Y-109368000D01*
X145496000Y-109361000D01*
X145498000Y-109355000D01*
X145501000Y-109349000D01*
X145504000Y-109343000D01*
X145507000Y-109338000D01*
X145510000Y-109332000D01*
X145514000Y-109327000D01*
X145518000Y-109321000D01*
X145522000Y-109316000D01*
X145527000Y-109312000D01*
X145531000Y-109307000D01*
X145536000Y-109303000D01*
X145542000Y-109299000D01*
X145547000Y-109295000D01*
X145552000Y-109292000D01*
X145558000Y-109289000D01*
X145564000Y-109286000D01*
X145570000Y-109283000D01*
X145576000Y-109281000D01*
X145583000Y-109279000D01*
X145589000Y-109278000D01*
X145595000Y-109277000D01*
X145602000Y-109276000D01*
X145608000Y-109275000D01*
X145615000Y-109275000D01*
X146055000Y-109275000D01*
X146062000Y-109275000D01*
X146068000Y-109276000D01*
G36*
X146068000Y-109276000D02*
G01*
X146075000Y-109277000D01*
X146081000Y-109278000D01*
X146087000Y-109279000D01*
X146094000Y-109281000D01*
X146100000Y-109283000D01*
X146106000Y-109286000D01*
X146112000Y-109289000D01*
X146118000Y-109292000D01*
X146123000Y-109295000D01*
X146128000Y-109299000D01*
X146134000Y-109303000D01*
X146139000Y-109307000D01*
X146143000Y-109312000D01*
X146148000Y-109316000D01*
X146152000Y-109321000D01*
X146156000Y-109327000D01*
X146160000Y-109332000D01*
X146163000Y-109338000D01*
X146166000Y-109343000D01*
X146169000Y-109349000D01*
X146172000Y-109355000D01*
X146174000Y-109361000D01*
X146176000Y-109368000D01*
X146177000Y-109374000D01*
X146178000Y-109380000D01*
X146179000Y-109387000D01*
X146180000Y-109393000D01*
X146180000Y-109400000D01*
X146180000Y-109600000D01*
X146180000Y-109607000D01*
X146179000Y-109613000D01*
X146178000Y-109620000D01*
X146177000Y-109626000D01*
X146176000Y-109632000D01*
X146174000Y-109639000D01*
X146172000Y-109645000D01*
X146169000Y-109651000D01*
X146166000Y-109657000D01*
X146163000Y-109662000D01*
X146160000Y-109668000D01*
X146156000Y-109673000D01*
X146152000Y-109679000D01*
X146148000Y-109684000D01*
X146143000Y-109688000D01*
X146139000Y-109693000D01*
X146134000Y-109697000D01*
X146128000Y-109701000D01*
X146123000Y-109705000D01*
X146118000Y-109708000D01*
X146112000Y-109711000D01*
X146106000Y-109714000D01*
X146100000Y-109717000D01*
X146094000Y-109719000D01*
X146087000Y-109721000D01*
X146081000Y-109722000D01*
X146075000Y-109723000D01*
X146068000Y-109724000D01*
X146062000Y-109725000D01*
X146055000Y-109725000D01*
X145615000Y-109725000D01*
X145608000Y-109725000D01*
X145602000Y-109724000D01*
X145595000Y-109723000D01*
X145589000Y-109722000D01*
X145583000Y-109721000D01*
X145576000Y-109719000D01*
X145570000Y-109717000D01*
X145564000Y-109714000D01*
X145558000Y-109711000D01*
X145552000Y-109708000D01*
X145547000Y-109705000D01*
X145542000Y-109701000D01*
X145536000Y-109697000D01*
X145531000Y-109693000D01*
X145527000Y-109688000D01*
X145522000Y-109684000D01*
X145518000Y-109679000D01*
X145514000Y-109673000D01*
X145510000Y-109668000D01*
X145507000Y-109662000D01*
X145504000Y-109657000D01*
X145501000Y-109651000D01*
X145498000Y-109645000D01*
X145496000Y-109639000D01*
X145494000Y-109632000D01*
X145493000Y-109626000D01*
X145492000Y-109620000D01*
X145491000Y-109613000D01*
X145490000Y-109607000D01*
X145490000Y-109600000D01*
X145490000Y-109400000D01*
X145490000Y-109393000D01*
X145491000Y-109387000D01*
X145492000Y-109380000D01*
X145493000Y-109374000D01*
X145494000Y-109368000D01*
X145496000Y-109361000D01*
X145498000Y-109355000D01*
X145501000Y-109349000D01*
X145504000Y-109343000D01*
X145507000Y-109338000D01*
X145510000Y-109332000D01*
X145514000Y-109327000D01*
X145518000Y-109321000D01*
X145522000Y-109316000D01*
X145527000Y-109312000D01*
X145531000Y-109307000D01*
X145536000Y-109303000D01*
X145542000Y-109299000D01*
X145547000Y-109295000D01*
X145552000Y-109292000D01*
X145558000Y-109289000D01*
X145564000Y-109286000D01*
X145570000Y-109283000D01*
X145576000Y-109281000D01*
X145583000Y-109279000D01*
X145589000Y-109278000D01*
X145595000Y-109277000D01*
X145602000Y-109276000D01*
X145608000Y-109275000D01*
X145615000Y-109275000D01*
X146055000Y-109275000D01*
X146062000Y-109275000D01*
X146068000Y-109276000D01*
G37*
X146068000Y-109776000D02*
X146075000Y-109777000D01*
X146081000Y-109778000D01*
X146087000Y-109779000D01*
X146094000Y-109781000D01*
X146100000Y-109783000D01*
X146106000Y-109786000D01*
X146112000Y-109789000D01*
X146118000Y-109792000D01*
X146123000Y-109795000D01*
X146128000Y-109799000D01*
X146134000Y-109803000D01*
X146139000Y-109807000D01*
X146143000Y-109812000D01*
X146148000Y-109816000D01*
X146152000Y-109821000D01*
X146156000Y-109827000D01*
X146160000Y-109832000D01*
X146163000Y-109838000D01*
X146166000Y-109843000D01*
X146169000Y-109849000D01*
X146172000Y-109855000D01*
X146174000Y-109861000D01*
X146176000Y-109868000D01*
X146177000Y-109874000D01*
X146178000Y-109880000D01*
X146179000Y-109887000D01*
X146180000Y-109893000D01*
X146180000Y-109900000D01*
X146180000Y-110100000D01*
X146180000Y-110107000D01*
X146179000Y-110113000D01*
X146178000Y-110120000D01*
X146177000Y-110126000D01*
X146176000Y-110132000D01*
X146174000Y-110139000D01*
X146172000Y-110145000D01*
X146169000Y-110151000D01*
X146166000Y-110157000D01*
X146163000Y-110162000D01*
X146160000Y-110168000D01*
X146156000Y-110173000D01*
X146152000Y-110179000D01*
X146148000Y-110184000D01*
X146143000Y-110188000D01*
X146139000Y-110193000D01*
X146134000Y-110197000D01*
X146128000Y-110201000D01*
X146123000Y-110205000D01*
X146118000Y-110208000D01*
X146112000Y-110211000D01*
X146106000Y-110214000D01*
X146100000Y-110217000D01*
X146094000Y-110219000D01*
X146087000Y-110221000D01*
X146081000Y-110222000D01*
X146075000Y-110223000D01*
X146068000Y-110224000D01*
X146062000Y-110225000D01*
X146055000Y-110225000D01*
X145615000Y-110225000D01*
X145608000Y-110225000D01*
X145602000Y-110224000D01*
X145595000Y-110223000D01*
X145589000Y-110222000D01*
X145583000Y-110221000D01*
X145576000Y-110219000D01*
X145570000Y-110217000D01*
X145564000Y-110214000D01*
X145558000Y-110211000D01*
X145552000Y-110208000D01*
X145547000Y-110205000D01*
X145542000Y-110201000D01*
X145536000Y-110197000D01*
X145531000Y-110193000D01*
X145527000Y-110188000D01*
X145522000Y-110184000D01*
X145518000Y-110179000D01*
X145514000Y-110173000D01*
X145510000Y-110168000D01*
X145507000Y-110162000D01*
X145504000Y-110157000D01*
X145501000Y-110151000D01*
X145498000Y-110145000D01*
X145496000Y-110139000D01*
X145494000Y-110132000D01*
X145493000Y-110126000D01*
X145492000Y-110120000D01*
X145491000Y-110113000D01*
X145490000Y-110107000D01*
X145490000Y-110100000D01*
X145490000Y-109900000D01*
X145490000Y-109893000D01*
X145491000Y-109887000D01*
X145492000Y-109880000D01*
X145493000Y-109874000D01*
X145494000Y-109868000D01*
X145496000Y-109861000D01*
X145498000Y-109855000D01*
X145501000Y-109849000D01*
X145504000Y-109843000D01*
X145507000Y-109838000D01*
X145510000Y-109832000D01*
X145514000Y-109827000D01*
X145518000Y-109821000D01*
X145522000Y-109816000D01*
X145527000Y-109812000D01*
X145531000Y-109807000D01*
X145536000Y-109803000D01*
X145542000Y-109799000D01*
X145547000Y-109795000D01*
X145552000Y-109792000D01*
X145558000Y-109789000D01*
X145564000Y-109786000D01*
X145570000Y-109783000D01*
X145576000Y-109781000D01*
X145583000Y-109779000D01*
X145589000Y-109778000D01*
X145595000Y-109777000D01*
X145602000Y-109776000D01*
X145608000Y-109775000D01*
X145615000Y-109775000D01*
X146055000Y-109775000D01*
X146062000Y-109775000D01*
X146068000Y-109776000D01*
G36*
X146068000Y-109776000D02*
G01*
X146075000Y-109777000D01*
X146081000Y-109778000D01*
X146087000Y-109779000D01*
X146094000Y-109781000D01*
X146100000Y-109783000D01*
X146106000Y-109786000D01*
X146112000Y-109789000D01*
X146118000Y-109792000D01*
X146123000Y-109795000D01*
X146128000Y-109799000D01*
X146134000Y-109803000D01*
X146139000Y-109807000D01*
X146143000Y-109812000D01*
X146148000Y-109816000D01*
X146152000Y-109821000D01*
X146156000Y-109827000D01*
X146160000Y-109832000D01*
X146163000Y-109838000D01*
X146166000Y-109843000D01*
X146169000Y-109849000D01*
X146172000Y-109855000D01*
X146174000Y-109861000D01*
X146176000Y-109868000D01*
X146177000Y-109874000D01*
X146178000Y-109880000D01*
X146179000Y-109887000D01*
X146180000Y-109893000D01*
X146180000Y-109900000D01*
X146180000Y-110100000D01*
X146180000Y-110107000D01*
X146179000Y-110113000D01*
X146178000Y-110120000D01*
X146177000Y-110126000D01*
X146176000Y-110132000D01*
X146174000Y-110139000D01*
X146172000Y-110145000D01*
X146169000Y-110151000D01*
X146166000Y-110157000D01*
X146163000Y-110162000D01*
X146160000Y-110168000D01*
X146156000Y-110173000D01*
X146152000Y-110179000D01*
X146148000Y-110184000D01*
X146143000Y-110188000D01*
X146139000Y-110193000D01*
X146134000Y-110197000D01*
X146128000Y-110201000D01*
X146123000Y-110205000D01*
X146118000Y-110208000D01*
X146112000Y-110211000D01*
X146106000Y-110214000D01*
X146100000Y-110217000D01*
X146094000Y-110219000D01*
X146087000Y-110221000D01*
X146081000Y-110222000D01*
X146075000Y-110223000D01*
X146068000Y-110224000D01*
X146062000Y-110225000D01*
X146055000Y-110225000D01*
X145615000Y-110225000D01*
X145608000Y-110225000D01*
X145602000Y-110224000D01*
X145595000Y-110223000D01*
X145589000Y-110222000D01*
X145583000Y-110221000D01*
X145576000Y-110219000D01*
X145570000Y-110217000D01*
X145564000Y-110214000D01*
X145558000Y-110211000D01*
X145552000Y-110208000D01*
X145547000Y-110205000D01*
X145542000Y-110201000D01*
X145536000Y-110197000D01*
X145531000Y-110193000D01*
X145527000Y-110188000D01*
X145522000Y-110184000D01*
X145518000Y-110179000D01*
X145514000Y-110173000D01*
X145510000Y-110168000D01*
X145507000Y-110162000D01*
X145504000Y-110157000D01*
X145501000Y-110151000D01*
X145498000Y-110145000D01*
X145496000Y-110139000D01*
X145494000Y-110132000D01*
X145493000Y-110126000D01*
X145492000Y-110120000D01*
X145491000Y-110113000D01*
X145490000Y-110107000D01*
X145490000Y-110100000D01*
X145490000Y-109900000D01*
X145490000Y-109893000D01*
X145491000Y-109887000D01*
X145492000Y-109880000D01*
X145493000Y-109874000D01*
X145494000Y-109868000D01*
X145496000Y-109861000D01*
X145498000Y-109855000D01*
X145501000Y-109849000D01*
X145504000Y-109843000D01*
X145507000Y-109838000D01*
X145510000Y-109832000D01*
X145514000Y-109827000D01*
X145518000Y-109821000D01*
X145522000Y-109816000D01*
X145527000Y-109812000D01*
X145531000Y-109807000D01*
X145536000Y-109803000D01*
X145542000Y-109799000D01*
X145547000Y-109795000D01*
X145552000Y-109792000D01*
X145558000Y-109789000D01*
X145564000Y-109786000D01*
X145570000Y-109783000D01*
X145576000Y-109781000D01*
X145583000Y-109779000D01*
X145589000Y-109778000D01*
X145595000Y-109777000D01*
X145602000Y-109776000D01*
X145608000Y-109775000D01*
X145615000Y-109775000D01*
X146055000Y-109775000D01*
X146062000Y-109775000D01*
X146068000Y-109776000D01*
G37*
X146613000Y-107991000D02*
X146620000Y-107992000D01*
X146626000Y-107993000D01*
X146632000Y-107994000D01*
X146639000Y-107996000D01*
X146645000Y-107998000D01*
X146651000Y-108001000D01*
X146657000Y-108004000D01*
X146662000Y-108007000D01*
X146668000Y-108010000D01*
X146673000Y-108014000D01*
X146679000Y-108018000D01*
X146684000Y-108022000D01*
X146688000Y-108027000D01*
X146693000Y-108031000D01*
X146697000Y-108036000D01*
X146701000Y-108042000D01*
X146705000Y-108047000D01*
X146708000Y-108052000D01*
X146711000Y-108058000D01*
X146714000Y-108064000D01*
X146717000Y-108070000D01*
X146719000Y-108076000D01*
X146721000Y-108083000D01*
X146722000Y-108089000D01*
X146723000Y-108095000D01*
X146724000Y-108102000D01*
X146725000Y-108108000D01*
X146725000Y-108115000D01*
X146725000Y-108555000D01*
X146725000Y-108562000D01*
X146724000Y-108568000D01*
X146723000Y-108575000D01*
X146722000Y-108581000D01*
X146721000Y-108587000D01*
X146719000Y-108594000D01*
X146717000Y-108600000D01*
X146714000Y-108606000D01*
X146711000Y-108612000D01*
X146708000Y-108618000D01*
X146705000Y-108623000D01*
X146701000Y-108628000D01*
X146697000Y-108634000D01*
X146693000Y-108639000D01*
X146688000Y-108643000D01*
X146684000Y-108648000D01*
X146679000Y-108652000D01*
X146673000Y-108656000D01*
X146668000Y-108660000D01*
X146662000Y-108663000D01*
X146657000Y-108666000D01*
X146651000Y-108669000D01*
X146645000Y-108672000D01*
X146639000Y-108674000D01*
X146632000Y-108676000D01*
X146626000Y-108677000D01*
X146620000Y-108678000D01*
X146613000Y-108679000D01*
X146607000Y-108680000D01*
X146600000Y-108680000D01*
X146400000Y-108680000D01*
X146393000Y-108680000D01*
X146387000Y-108679000D01*
X146380000Y-108678000D01*
X146374000Y-108677000D01*
X146368000Y-108676000D01*
X146361000Y-108674000D01*
X146355000Y-108672000D01*
X146349000Y-108669000D01*
X146343000Y-108666000D01*
X146337000Y-108663000D01*
X146332000Y-108660000D01*
X146327000Y-108656000D01*
X146321000Y-108652000D01*
X146316000Y-108648000D01*
X146312000Y-108643000D01*
X146307000Y-108639000D01*
X146303000Y-108634000D01*
X146299000Y-108628000D01*
X146295000Y-108623000D01*
X146292000Y-108618000D01*
X146289000Y-108612000D01*
X146286000Y-108606000D01*
X146283000Y-108600000D01*
X146281000Y-108594000D01*
X146279000Y-108587000D01*
X146278000Y-108581000D01*
X146277000Y-108575000D01*
X146276000Y-108568000D01*
X146275000Y-108562000D01*
X146275000Y-108555000D01*
X146275000Y-108115000D01*
X146275000Y-108108000D01*
X146276000Y-108102000D01*
X146277000Y-108095000D01*
X146278000Y-108089000D01*
X146279000Y-108083000D01*
X146281000Y-108076000D01*
X146283000Y-108070000D01*
X146286000Y-108064000D01*
X146289000Y-108058000D01*
X146292000Y-108052000D01*
X146295000Y-108047000D01*
X146299000Y-108042000D01*
X146303000Y-108036000D01*
X146307000Y-108031000D01*
X146312000Y-108027000D01*
X146316000Y-108022000D01*
X146321000Y-108018000D01*
X146327000Y-108014000D01*
X146332000Y-108010000D01*
X146338000Y-108007000D01*
X146343000Y-108004000D01*
X146349000Y-108001000D01*
X146355000Y-107998000D01*
X146361000Y-107996000D01*
X146368000Y-107994000D01*
X146374000Y-107993000D01*
X146380000Y-107992000D01*
X146387000Y-107991000D01*
X146393000Y-107990000D01*
X146400000Y-107990000D01*
X146600000Y-107990000D01*
X146607000Y-107990000D01*
X146613000Y-107991000D01*
G36*
X146613000Y-107991000D02*
G01*
X146620000Y-107992000D01*
X146626000Y-107993000D01*
X146632000Y-107994000D01*
X146639000Y-107996000D01*
X146645000Y-107998000D01*
X146651000Y-108001000D01*
X146657000Y-108004000D01*
X146662000Y-108007000D01*
X146668000Y-108010000D01*
X146673000Y-108014000D01*
X146679000Y-108018000D01*
X146684000Y-108022000D01*
X146688000Y-108027000D01*
X146693000Y-108031000D01*
X146697000Y-108036000D01*
X146701000Y-108042000D01*
X146705000Y-108047000D01*
X146708000Y-108052000D01*
X146711000Y-108058000D01*
X146714000Y-108064000D01*
X146717000Y-108070000D01*
X146719000Y-108076000D01*
X146721000Y-108083000D01*
X146722000Y-108089000D01*
X146723000Y-108095000D01*
X146724000Y-108102000D01*
X146725000Y-108108000D01*
X146725000Y-108115000D01*
X146725000Y-108555000D01*
X146725000Y-108562000D01*
X146724000Y-108568000D01*
X146723000Y-108575000D01*
X146722000Y-108581000D01*
X146721000Y-108587000D01*
X146719000Y-108594000D01*
X146717000Y-108600000D01*
X146714000Y-108606000D01*
X146711000Y-108612000D01*
X146708000Y-108618000D01*
X146705000Y-108623000D01*
X146701000Y-108628000D01*
X146697000Y-108634000D01*
X146693000Y-108639000D01*
X146688000Y-108643000D01*
X146684000Y-108648000D01*
X146679000Y-108652000D01*
X146673000Y-108656000D01*
X146668000Y-108660000D01*
X146662000Y-108663000D01*
X146657000Y-108666000D01*
X146651000Y-108669000D01*
X146645000Y-108672000D01*
X146639000Y-108674000D01*
X146632000Y-108676000D01*
X146626000Y-108677000D01*
X146620000Y-108678000D01*
X146613000Y-108679000D01*
X146607000Y-108680000D01*
X146600000Y-108680000D01*
X146400000Y-108680000D01*
X146393000Y-108680000D01*
X146387000Y-108679000D01*
X146380000Y-108678000D01*
X146374000Y-108677000D01*
X146368000Y-108676000D01*
X146361000Y-108674000D01*
X146355000Y-108672000D01*
X146349000Y-108669000D01*
X146343000Y-108666000D01*
X146337000Y-108663000D01*
X146332000Y-108660000D01*
X146327000Y-108656000D01*
X146321000Y-108652000D01*
X146316000Y-108648000D01*
X146312000Y-108643000D01*
X146307000Y-108639000D01*
X146303000Y-108634000D01*
X146299000Y-108628000D01*
X146295000Y-108623000D01*
X146292000Y-108618000D01*
X146289000Y-108612000D01*
X146286000Y-108606000D01*
X146283000Y-108600000D01*
X146281000Y-108594000D01*
X146279000Y-108587000D01*
X146278000Y-108581000D01*
X146277000Y-108575000D01*
X146276000Y-108568000D01*
X146275000Y-108562000D01*
X146275000Y-108555000D01*
X146275000Y-108115000D01*
X146275000Y-108108000D01*
X146276000Y-108102000D01*
X146277000Y-108095000D01*
X146278000Y-108089000D01*
X146279000Y-108083000D01*
X146281000Y-108076000D01*
X146283000Y-108070000D01*
X146286000Y-108064000D01*
X146289000Y-108058000D01*
X146292000Y-108052000D01*
X146295000Y-108047000D01*
X146299000Y-108042000D01*
X146303000Y-108036000D01*
X146307000Y-108031000D01*
X146312000Y-108027000D01*
X146316000Y-108022000D01*
X146321000Y-108018000D01*
X146327000Y-108014000D01*
X146332000Y-108010000D01*
X146338000Y-108007000D01*
X146343000Y-108004000D01*
X146349000Y-108001000D01*
X146355000Y-107998000D01*
X146361000Y-107996000D01*
X146368000Y-107994000D01*
X146374000Y-107993000D01*
X146380000Y-107992000D01*
X146387000Y-107991000D01*
X146393000Y-107990000D01*
X146400000Y-107990000D01*
X146600000Y-107990000D01*
X146607000Y-107990000D01*
X146613000Y-107991000D01*
G37*
X146613000Y-109821000D02*
X146620000Y-109822000D01*
X146626000Y-109823000D01*
X146632000Y-109824000D01*
X146639000Y-109826000D01*
X146645000Y-109828000D01*
X146651000Y-109831000D01*
X146657000Y-109834000D01*
X146662000Y-109837000D01*
X146668000Y-109840000D01*
X146673000Y-109844000D01*
X146679000Y-109848000D01*
X146684000Y-109852000D01*
X146688000Y-109857000D01*
X146693000Y-109861000D01*
X146697000Y-109866000D01*
X146701000Y-109872000D01*
X146705000Y-109877000D01*
X146708000Y-109882000D01*
X146711000Y-109888000D01*
X146714000Y-109894000D01*
X146717000Y-109900000D01*
X146719000Y-109906000D01*
X146721000Y-109913000D01*
X146722000Y-109919000D01*
X146723000Y-109925000D01*
X146724000Y-109932000D01*
X146725000Y-109938000D01*
X146725000Y-109945000D01*
X146725000Y-110385000D01*
X146725000Y-110392000D01*
X146724000Y-110398000D01*
X146723000Y-110405000D01*
X146722000Y-110411000D01*
X146721000Y-110417000D01*
X146719000Y-110424000D01*
X146717000Y-110430000D01*
X146714000Y-110436000D01*
X146711000Y-110442000D01*
X146708000Y-110448000D01*
X146705000Y-110453000D01*
X146701000Y-110458000D01*
X146697000Y-110464000D01*
X146693000Y-110469000D01*
X146688000Y-110473000D01*
X146684000Y-110478000D01*
X146679000Y-110482000D01*
X146673000Y-110486000D01*
X146668000Y-110490000D01*
X146662000Y-110493000D01*
X146657000Y-110496000D01*
X146651000Y-110499000D01*
X146645000Y-110502000D01*
X146639000Y-110504000D01*
X146632000Y-110506000D01*
X146626000Y-110507000D01*
X146620000Y-110508000D01*
X146613000Y-110509000D01*
X146607000Y-110510000D01*
X146600000Y-110510000D01*
X146400000Y-110510000D01*
X146393000Y-110510000D01*
X146387000Y-110509000D01*
X146380000Y-110508000D01*
X146374000Y-110507000D01*
X146368000Y-110506000D01*
X146361000Y-110504000D01*
X146355000Y-110502000D01*
X146349000Y-110499000D01*
X146343000Y-110496000D01*
X146337000Y-110493000D01*
X146332000Y-110490000D01*
X146327000Y-110486000D01*
X146321000Y-110482000D01*
X146316000Y-110478000D01*
X146312000Y-110473000D01*
X146307000Y-110469000D01*
X146303000Y-110464000D01*
X146299000Y-110458000D01*
X146295000Y-110453000D01*
X146292000Y-110448000D01*
X146289000Y-110442000D01*
X146286000Y-110436000D01*
X146283000Y-110430000D01*
X146281000Y-110424000D01*
X146279000Y-110417000D01*
X146278000Y-110411000D01*
X146277000Y-110405000D01*
X146276000Y-110398000D01*
X146275000Y-110392000D01*
X146275000Y-110385000D01*
X146275000Y-109945000D01*
X146275000Y-109938000D01*
X146276000Y-109932000D01*
X146277000Y-109925000D01*
X146278000Y-109919000D01*
X146279000Y-109913000D01*
X146281000Y-109906000D01*
X146283000Y-109900000D01*
X146286000Y-109894000D01*
X146289000Y-109888000D01*
X146292000Y-109882000D01*
X146295000Y-109877000D01*
X146299000Y-109872000D01*
X146303000Y-109866000D01*
X146307000Y-109861000D01*
X146312000Y-109857000D01*
X146316000Y-109852000D01*
X146321000Y-109848000D01*
X146327000Y-109844000D01*
X146332000Y-109840000D01*
X146338000Y-109837000D01*
X146343000Y-109834000D01*
X146349000Y-109831000D01*
X146355000Y-109828000D01*
X146361000Y-109826000D01*
X146368000Y-109824000D01*
X146374000Y-109823000D01*
X146380000Y-109822000D01*
X146387000Y-109821000D01*
X146393000Y-109820000D01*
X146400000Y-109820000D01*
X146600000Y-109820000D01*
X146607000Y-109820000D01*
X146613000Y-109821000D01*
G36*
X146613000Y-109821000D02*
G01*
X146620000Y-109822000D01*
X146626000Y-109823000D01*
X146632000Y-109824000D01*
X146639000Y-109826000D01*
X146645000Y-109828000D01*
X146651000Y-109831000D01*
X146657000Y-109834000D01*
X146662000Y-109837000D01*
X146668000Y-109840000D01*
X146673000Y-109844000D01*
X146679000Y-109848000D01*
X146684000Y-109852000D01*
X146688000Y-109857000D01*
X146693000Y-109861000D01*
X146697000Y-109866000D01*
X146701000Y-109872000D01*
X146705000Y-109877000D01*
X146708000Y-109882000D01*
X146711000Y-109888000D01*
X146714000Y-109894000D01*
X146717000Y-109900000D01*
X146719000Y-109906000D01*
X146721000Y-109913000D01*
X146722000Y-109919000D01*
X146723000Y-109925000D01*
X146724000Y-109932000D01*
X146725000Y-109938000D01*
X146725000Y-109945000D01*
X146725000Y-110385000D01*
X146725000Y-110392000D01*
X146724000Y-110398000D01*
X146723000Y-110405000D01*
X146722000Y-110411000D01*
X146721000Y-110417000D01*
X146719000Y-110424000D01*
X146717000Y-110430000D01*
X146714000Y-110436000D01*
X146711000Y-110442000D01*
X146708000Y-110448000D01*
X146705000Y-110453000D01*
X146701000Y-110458000D01*
X146697000Y-110464000D01*
X146693000Y-110469000D01*
X146688000Y-110473000D01*
X146684000Y-110478000D01*
X146679000Y-110482000D01*
X146673000Y-110486000D01*
X146668000Y-110490000D01*
X146662000Y-110493000D01*
X146657000Y-110496000D01*
X146651000Y-110499000D01*
X146645000Y-110502000D01*
X146639000Y-110504000D01*
X146632000Y-110506000D01*
X146626000Y-110507000D01*
X146620000Y-110508000D01*
X146613000Y-110509000D01*
X146607000Y-110510000D01*
X146600000Y-110510000D01*
X146400000Y-110510000D01*
X146393000Y-110510000D01*
X146387000Y-110509000D01*
X146380000Y-110508000D01*
X146374000Y-110507000D01*
X146368000Y-110506000D01*
X146361000Y-110504000D01*
X146355000Y-110502000D01*
X146349000Y-110499000D01*
X146343000Y-110496000D01*
X146337000Y-110493000D01*
X146332000Y-110490000D01*
X146327000Y-110486000D01*
X146321000Y-110482000D01*
X146316000Y-110478000D01*
X146312000Y-110473000D01*
X146307000Y-110469000D01*
X146303000Y-110464000D01*
X146299000Y-110458000D01*
X146295000Y-110453000D01*
X146292000Y-110448000D01*
X146289000Y-110442000D01*
X146286000Y-110436000D01*
X146283000Y-110430000D01*
X146281000Y-110424000D01*
X146279000Y-110417000D01*
X146278000Y-110411000D01*
X146277000Y-110405000D01*
X146276000Y-110398000D01*
X146275000Y-110392000D01*
X146275000Y-110385000D01*
X146275000Y-109945000D01*
X146275000Y-109938000D01*
X146276000Y-109932000D01*
X146277000Y-109925000D01*
X146278000Y-109919000D01*
X146279000Y-109913000D01*
X146281000Y-109906000D01*
X146283000Y-109900000D01*
X146286000Y-109894000D01*
X146289000Y-109888000D01*
X146292000Y-109882000D01*
X146295000Y-109877000D01*
X146299000Y-109872000D01*
X146303000Y-109866000D01*
X146307000Y-109861000D01*
X146312000Y-109857000D01*
X146316000Y-109852000D01*
X146321000Y-109848000D01*
X146327000Y-109844000D01*
X146332000Y-109840000D01*
X146338000Y-109837000D01*
X146343000Y-109834000D01*
X146349000Y-109831000D01*
X146355000Y-109828000D01*
X146361000Y-109826000D01*
X146368000Y-109824000D01*
X146374000Y-109823000D01*
X146380000Y-109822000D01*
X146387000Y-109821000D01*
X146393000Y-109820000D01*
X146400000Y-109820000D01*
X146600000Y-109820000D01*
X146607000Y-109820000D01*
X146613000Y-109821000D01*
G37*
X147113000Y-107991000D02*
X147120000Y-107992000D01*
X147126000Y-107993000D01*
X147132000Y-107994000D01*
X147139000Y-107996000D01*
X147145000Y-107998000D01*
X147151000Y-108001000D01*
X147157000Y-108004000D01*
X147163000Y-108007000D01*
X147168000Y-108010000D01*
X147173000Y-108014000D01*
X147179000Y-108018000D01*
X147184000Y-108022000D01*
X147188000Y-108027000D01*
X147193000Y-108031000D01*
X147197000Y-108036000D01*
X147201000Y-108042000D01*
X147205000Y-108047000D01*
X147208000Y-108052000D01*
X147211000Y-108058000D01*
X147214000Y-108064000D01*
X147217000Y-108070000D01*
X147219000Y-108076000D01*
X147221000Y-108083000D01*
X147222000Y-108089000D01*
X147223000Y-108095000D01*
X147224000Y-108102000D01*
X147225000Y-108108000D01*
X147225000Y-108115000D01*
X147225000Y-108555000D01*
X147225000Y-108562000D01*
X147224000Y-108568000D01*
X147223000Y-108575000D01*
X147222000Y-108581000D01*
X147221000Y-108587000D01*
X147219000Y-108594000D01*
X147217000Y-108600000D01*
X147214000Y-108606000D01*
X147211000Y-108612000D01*
X147208000Y-108618000D01*
X147205000Y-108623000D01*
X147201000Y-108628000D01*
X147197000Y-108634000D01*
X147193000Y-108639000D01*
X147188000Y-108643000D01*
X147184000Y-108648000D01*
X147179000Y-108652000D01*
X147173000Y-108656000D01*
X147168000Y-108660000D01*
X147163000Y-108663000D01*
X147157000Y-108666000D01*
X147151000Y-108669000D01*
X147145000Y-108672000D01*
X147139000Y-108674000D01*
X147132000Y-108676000D01*
X147126000Y-108677000D01*
X147120000Y-108678000D01*
X147113000Y-108679000D01*
X147107000Y-108680000D01*
X147100000Y-108680000D01*
X146900000Y-108680000D01*
X146893000Y-108680000D01*
X146887000Y-108679000D01*
X146880000Y-108678000D01*
X146874000Y-108677000D01*
X146868000Y-108676000D01*
X146861000Y-108674000D01*
X146855000Y-108672000D01*
X146849000Y-108669000D01*
X146843000Y-108666000D01*
X146837000Y-108663000D01*
X146832000Y-108660000D01*
X146827000Y-108656000D01*
X146821000Y-108652000D01*
X146816000Y-108648000D01*
X146812000Y-108643000D01*
X146807000Y-108639000D01*
X146803000Y-108634000D01*
X146799000Y-108628000D01*
X146795000Y-108623000D01*
X146792000Y-108618000D01*
X146789000Y-108612000D01*
X146786000Y-108606000D01*
X146783000Y-108600000D01*
X146781000Y-108594000D01*
X146779000Y-108587000D01*
X146778000Y-108581000D01*
X146777000Y-108575000D01*
X146776000Y-108568000D01*
X146775000Y-108562000D01*
X146775000Y-108555000D01*
X146775000Y-108115000D01*
X146775000Y-108108000D01*
X146776000Y-108102000D01*
X146777000Y-108095000D01*
X146778000Y-108089000D01*
X146779000Y-108083000D01*
X146781000Y-108076000D01*
X146783000Y-108070000D01*
X146786000Y-108064000D01*
X146789000Y-108058000D01*
X146792000Y-108052000D01*
X146795000Y-108047000D01*
X146799000Y-108042000D01*
X146803000Y-108036000D01*
X146807000Y-108031000D01*
X146812000Y-108027000D01*
X146816000Y-108022000D01*
X146821000Y-108018000D01*
X146827000Y-108014000D01*
X146832000Y-108010000D01*
X146838000Y-108007000D01*
X146843000Y-108004000D01*
X146849000Y-108001000D01*
X146855000Y-107998000D01*
X146861000Y-107996000D01*
X146868000Y-107994000D01*
X146874000Y-107993000D01*
X146880000Y-107992000D01*
X146887000Y-107991000D01*
X146893000Y-107990000D01*
X146900000Y-107990000D01*
X147100000Y-107990000D01*
X147107000Y-107990000D01*
X147113000Y-107991000D01*
G36*
X147113000Y-107991000D02*
G01*
X147120000Y-107992000D01*
X147126000Y-107993000D01*
X147132000Y-107994000D01*
X147139000Y-107996000D01*
X147145000Y-107998000D01*
X147151000Y-108001000D01*
X147157000Y-108004000D01*
X147163000Y-108007000D01*
X147168000Y-108010000D01*
X147173000Y-108014000D01*
X147179000Y-108018000D01*
X147184000Y-108022000D01*
X147188000Y-108027000D01*
X147193000Y-108031000D01*
X147197000Y-108036000D01*
X147201000Y-108042000D01*
X147205000Y-108047000D01*
X147208000Y-108052000D01*
X147211000Y-108058000D01*
X147214000Y-108064000D01*
X147217000Y-108070000D01*
X147219000Y-108076000D01*
X147221000Y-108083000D01*
X147222000Y-108089000D01*
X147223000Y-108095000D01*
X147224000Y-108102000D01*
X147225000Y-108108000D01*
X147225000Y-108115000D01*
X147225000Y-108555000D01*
X147225000Y-108562000D01*
X147224000Y-108568000D01*
X147223000Y-108575000D01*
X147222000Y-108581000D01*
X147221000Y-108587000D01*
X147219000Y-108594000D01*
X147217000Y-108600000D01*
X147214000Y-108606000D01*
X147211000Y-108612000D01*
X147208000Y-108618000D01*
X147205000Y-108623000D01*
X147201000Y-108628000D01*
X147197000Y-108634000D01*
X147193000Y-108639000D01*
X147188000Y-108643000D01*
X147184000Y-108648000D01*
X147179000Y-108652000D01*
X147173000Y-108656000D01*
X147168000Y-108660000D01*
X147163000Y-108663000D01*
X147157000Y-108666000D01*
X147151000Y-108669000D01*
X147145000Y-108672000D01*
X147139000Y-108674000D01*
X147132000Y-108676000D01*
X147126000Y-108677000D01*
X147120000Y-108678000D01*
X147113000Y-108679000D01*
X147107000Y-108680000D01*
X147100000Y-108680000D01*
X146900000Y-108680000D01*
X146893000Y-108680000D01*
X146887000Y-108679000D01*
X146880000Y-108678000D01*
X146874000Y-108677000D01*
X146868000Y-108676000D01*
X146861000Y-108674000D01*
X146855000Y-108672000D01*
X146849000Y-108669000D01*
X146843000Y-108666000D01*
X146837000Y-108663000D01*
X146832000Y-108660000D01*
X146827000Y-108656000D01*
X146821000Y-108652000D01*
X146816000Y-108648000D01*
X146812000Y-108643000D01*
X146807000Y-108639000D01*
X146803000Y-108634000D01*
X146799000Y-108628000D01*
X146795000Y-108623000D01*
X146792000Y-108618000D01*
X146789000Y-108612000D01*
X146786000Y-108606000D01*
X146783000Y-108600000D01*
X146781000Y-108594000D01*
X146779000Y-108587000D01*
X146778000Y-108581000D01*
X146777000Y-108575000D01*
X146776000Y-108568000D01*
X146775000Y-108562000D01*
X146775000Y-108555000D01*
X146775000Y-108115000D01*
X146775000Y-108108000D01*
X146776000Y-108102000D01*
X146777000Y-108095000D01*
X146778000Y-108089000D01*
X146779000Y-108083000D01*
X146781000Y-108076000D01*
X146783000Y-108070000D01*
X146786000Y-108064000D01*
X146789000Y-108058000D01*
X146792000Y-108052000D01*
X146795000Y-108047000D01*
X146799000Y-108042000D01*
X146803000Y-108036000D01*
X146807000Y-108031000D01*
X146812000Y-108027000D01*
X146816000Y-108022000D01*
X146821000Y-108018000D01*
X146827000Y-108014000D01*
X146832000Y-108010000D01*
X146838000Y-108007000D01*
X146843000Y-108004000D01*
X146849000Y-108001000D01*
X146855000Y-107998000D01*
X146861000Y-107996000D01*
X146868000Y-107994000D01*
X146874000Y-107993000D01*
X146880000Y-107992000D01*
X146887000Y-107991000D01*
X146893000Y-107990000D01*
X146900000Y-107990000D01*
X147100000Y-107990000D01*
X147107000Y-107990000D01*
X147113000Y-107991000D01*
G37*
X147113000Y-109821000D02*
X147120000Y-109822000D01*
X147126000Y-109823000D01*
X147132000Y-109824000D01*
X147139000Y-109826000D01*
X147145000Y-109828000D01*
X147151000Y-109831000D01*
X147157000Y-109834000D01*
X147163000Y-109837000D01*
X147168000Y-109840000D01*
X147173000Y-109844000D01*
X147179000Y-109848000D01*
X147184000Y-109852000D01*
X147188000Y-109857000D01*
X147193000Y-109861000D01*
X147197000Y-109866000D01*
X147201000Y-109872000D01*
X147205000Y-109877000D01*
X147208000Y-109882000D01*
X147211000Y-109888000D01*
X147214000Y-109894000D01*
X147217000Y-109900000D01*
X147219000Y-109906000D01*
X147221000Y-109913000D01*
X147222000Y-109919000D01*
X147223000Y-109925000D01*
X147224000Y-109932000D01*
X147225000Y-109938000D01*
X147225000Y-109945000D01*
X147225000Y-110385000D01*
X147225000Y-110392000D01*
X147224000Y-110398000D01*
X147223000Y-110405000D01*
X147222000Y-110411000D01*
X147221000Y-110417000D01*
X147219000Y-110424000D01*
X147217000Y-110430000D01*
X147214000Y-110436000D01*
X147211000Y-110442000D01*
X147208000Y-110448000D01*
X147205000Y-110453000D01*
X147201000Y-110458000D01*
X147197000Y-110464000D01*
X147193000Y-110469000D01*
X147188000Y-110473000D01*
X147184000Y-110478000D01*
X147179000Y-110482000D01*
X147173000Y-110486000D01*
X147168000Y-110490000D01*
X147163000Y-110493000D01*
X147157000Y-110496000D01*
X147151000Y-110499000D01*
X147145000Y-110502000D01*
X147139000Y-110504000D01*
X147132000Y-110506000D01*
X147126000Y-110507000D01*
X147120000Y-110508000D01*
X147113000Y-110509000D01*
X147107000Y-110510000D01*
X147100000Y-110510000D01*
X146900000Y-110510000D01*
X146893000Y-110510000D01*
X146887000Y-110509000D01*
X146880000Y-110508000D01*
X146874000Y-110507000D01*
X146868000Y-110506000D01*
X146861000Y-110504000D01*
X146855000Y-110502000D01*
X146849000Y-110499000D01*
X146843000Y-110496000D01*
X146837000Y-110493000D01*
X146832000Y-110490000D01*
X146827000Y-110486000D01*
X146821000Y-110482000D01*
X146816000Y-110478000D01*
X146812000Y-110473000D01*
X146807000Y-110469000D01*
X146803000Y-110464000D01*
X146799000Y-110458000D01*
X146795000Y-110453000D01*
X146792000Y-110448000D01*
X146789000Y-110442000D01*
X146786000Y-110436000D01*
X146783000Y-110430000D01*
X146781000Y-110424000D01*
X146779000Y-110417000D01*
X146778000Y-110411000D01*
X146777000Y-110405000D01*
X146776000Y-110398000D01*
X146775000Y-110392000D01*
X146775000Y-110385000D01*
X146775000Y-109945000D01*
X146775000Y-109938000D01*
X146776000Y-109932000D01*
X146777000Y-109925000D01*
X146778000Y-109919000D01*
X146779000Y-109913000D01*
X146781000Y-109906000D01*
X146783000Y-109900000D01*
X146786000Y-109894000D01*
X146789000Y-109888000D01*
X146792000Y-109882000D01*
X146795000Y-109877000D01*
X146799000Y-109872000D01*
X146803000Y-109866000D01*
X146807000Y-109861000D01*
X146812000Y-109857000D01*
X146816000Y-109852000D01*
X146821000Y-109848000D01*
X146827000Y-109844000D01*
X146832000Y-109840000D01*
X146838000Y-109837000D01*
X146843000Y-109834000D01*
X146849000Y-109831000D01*
X146855000Y-109828000D01*
X146861000Y-109826000D01*
X146868000Y-109824000D01*
X146874000Y-109823000D01*
X146880000Y-109822000D01*
X146887000Y-109821000D01*
X146893000Y-109820000D01*
X146900000Y-109820000D01*
X147100000Y-109820000D01*
X147107000Y-109820000D01*
X147113000Y-109821000D01*
G36*
X147113000Y-109821000D02*
G01*
X147120000Y-109822000D01*
X147126000Y-109823000D01*
X147132000Y-109824000D01*
X147139000Y-109826000D01*
X147145000Y-109828000D01*
X147151000Y-109831000D01*
X147157000Y-109834000D01*
X147163000Y-109837000D01*
X147168000Y-109840000D01*
X147173000Y-109844000D01*
X147179000Y-109848000D01*
X147184000Y-109852000D01*
X147188000Y-109857000D01*
X147193000Y-109861000D01*
X147197000Y-109866000D01*
X147201000Y-109872000D01*
X147205000Y-109877000D01*
X147208000Y-109882000D01*
X147211000Y-109888000D01*
X147214000Y-109894000D01*
X147217000Y-109900000D01*
X147219000Y-109906000D01*
X147221000Y-109913000D01*
X147222000Y-109919000D01*
X147223000Y-109925000D01*
X147224000Y-109932000D01*
X147225000Y-109938000D01*
X147225000Y-109945000D01*
X147225000Y-110385000D01*
X147225000Y-110392000D01*
X147224000Y-110398000D01*
X147223000Y-110405000D01*
X147222000Y-110411000D01*
X147221000Y-110417000D01*
X147219000Y-110424000D01*
X147217000Y-110430000D01*
X147214000Y-110436000D01*
X147211000Y-110442000D01*
X147208000Y-110448000D01*
X147205000Y-110453000D01*
X147201000Y-110458000D01*
X147197000Y-110464000D01*
X147193000Y-110469000D01*
X147188000Y-110473000D01*
X147184000Y-110478000D01*
X147179000Y-110482000D01*
X147173000Y-110486000D01*
X147168000Y-110490000D01*
X147163000Y-110493000D01*
X147157000Y-110496000D01*
X147151000Y-110499000D01*
X147145000Y-110502000D01*
X147139000Y-110504000D01*
X147132000Y-110506000D01*
X147126000Y-110507000D01*
X147120000Y-110508000D01*
X147113000Y-110509000D01*
X147107000Y-110510000D01*
X147100000Y-110510000D01*
X146900000Y-110510000D01*
X146893000Y-110510000D01*
X146887000Y-110509000D01*
X146880000Y-110508000D01*
X146874000Y-110507000D01*
X146868000Y-110506000D01*
X146861000Y-110504000D01*
X146855000Y-110502000D01*
X146849000Y-110499000D01*
X146843000Y-110496000D01*
X146837000Y-110493000D01*
X146832000Y-110490000D01*
X146827000Y-110486000D01*
X146821000Y-110482000D01*
X146816000Y-110478000D01*
X146812000Y-110473000D01*
X146807000Y-110469000D01*
X146803000Y-110464000D01*
X146799000Y-110458000D01*
X146795000Y-110453000D01*
X146792000Y-110448000D01*
X146789000Y-110442000D01*
X146786000Y-110436000D01*
X146783000Y-110430000D01*
X146781000Y-110424000D01*
X146779000Y-110417000D01*
X146778000Y-110411000D01*
X146777000Y-110405000D01*
X146776000Y-110398000D01*
X146775000Y-110392000D01*
X146775000Y-110385000D01*
X146775000Y-109945000D01*
X146775000Y-109938000D01*
X146776000Y-109932000D01*
X146777000Y-109925000D01*
X146778000Y-109919000D01*
X146779000Y-109913000D01*
X146781000Y-109906000D01*
X146783000Y-109900000D01*
X146786000Y-109894000D01*
X146789000Y-109888000D01*
X146792000Y-109882000D01*
X146795000Y-109877000D01*
X146799000Y-109872000D01*
X146803000Y-109866000D01*
X146807000Y-109861000D01*
X146812000Y-109857000D01*
X146816000Y-109852000D01*
X146821000Y-109848000D01*
X146827000Y-109844000D01*
X146832000Y-109840000D01*
X146838000Y-109837000D01*
X146843000Y-109834000D01*
X146849000Y-109831000D01*
X146855000Y-109828000D01*
X146861000Y-109826000D01*
X146868000Y-109824000D01*
X146874000Y-109823000D01*
X146880000Y-109822000D01*
X146887000Y-109821000D01*
X146893000Y-109820000D01*
X146900000Y-109820000D01*
X147100000Y-109820000D01*
X147107000Y-109820000D01*
X147113000Y-109821000D01*
G37*
X147613000Y-107991000D02*
X147620000Y-107992000D01*
X147626000Y-107993000D01*
X147632000Y-107994000D01*
X147639000Y-107996000D01*
X147645000Y-107998000D01*
X147651000Y-108001000D01*
X147657000Y-108004000D01*
X147662000Y-108007000D01*
X147668000Y-108010000D01*
X147673000Y-108014000D01*
X147679000Y-108018000D01*
X147684000Y-108022000D01*
X147688000Y-108027000D01*
X147693000Y-108031000D01*
X147697000Y-108036000D01*
X147701000Y-108042000D01*
X147705000Y-108047000D01*
X147708000Y-108052000D01*
X147711000Y-108058000D01*
X147714000Y-108064000D01*
X147717000Y-108070000D01*
X147719000Y-108076000D01*
X147721000Y-108083000D01*
X147722000Y-108089000D01*
X147723000Y-108095000D01*
X147724000Y-108102000D01*
X147725000Y-108108000D01*
X147725000Y-108115000D01*
X147725000Y-108555000D01*
X147725000Y-108562000D01*
X147724000Y-108568000D01*
X147723000Y-108575000D01*
X147722000Y-108581000D01*
X147721000Y-108587000D01*
X147719000Y-108594000D01*
X147717000Y-108600000D01*
X147714000Y-108606000D01*
X147711000Y-108612000D01*
X147708000Y-108618000D01*
X147705000Y-108623000D01*
X147701000Y-108628000D01*
X147697000Y-108634000D01*
X147693000Y-108639000D01*
X147688000Y-108643000D01*
X147684000Y-108648000D01*
X147679000Y-108652000D01*
X147673000Y-108656000D01*
X147668000Y-108660000D01*
X147662000Y-108663000D01*
X147657000Y-108666000D01*
X147651000Y-108669000D01*
X147645000Y-108672000D01*
X147639000Y-108674000D01*
X147632000Y-108676000D01*
X147626000Y-108677000D01*
X147620000Y-108678000D01*
X147613000Y-108679000D01*
X147607000Y-108680000D01*
X147600000Y-108680000D01*
X147400000Y-108680000D01*
X147393000Y-108680000D01*
X147387000Y-108679000D01*
X147380000Y-108678000D01*
X147374000Y-108677000D01*
X147368000Y-108676000D01*
X147361000Y-108674000D01*
X147355000Y-108672000D01*
X147349000Y-108669000D01*
X147343000Y-108666000D01*
X147337000Y-108663000D01*
X147332000Y-108660000D01*
X147327000Y-108656000D01*
X147321000Y-108652000D01*
X147316000Y-108648000D01*
X147312000Y-108643000D01*
X147307000Y-108639000D01*
X147303000Y-108634000D01*
X147299000Y-108628000D01*
X147295000Y-108623000D01*
X147292000Y-108618000D01*
X147289000Y-108612000D01*
X147286000Y-108606000D01*
X147283000Y-108600000D01*
X147281000Y-108594000D01*
X147279000Y-108587000D01*
X147278000Y-108581000D01*
X147277000Y-108575000D01*
X147276000Y-108568000D01*
X147275000Y-108562000D01*
X147275000Y-108555000D01*
X147275000Y-108115000D01*
X147275000Y-108108000D01*
X147276000Y-108102000D01*
X147277000Y-108095000D01*
X147278000Y-108089000D01*
X147279000Y-108083000D01*
X147281000Y-108076000D01*
X147283000Y-108070000D01*
X147286000Y-108064000D01*
X147289000Y-108058000D01*
X147292000Y-108052000D01*
X147295000Y-108047000D01*
X147299000Y-108042000D01*
X147303000Y-108036000D01*
X147307000Y-108031000D01*
X147312000Y-108027000D01*
X147316000Y-108022000D01*
X147321000Y-108018000D01*
X147327000Y-108014000D01*
X147332000Y-108010000D01*
X147338000Y-108007000D01*
X147343000Y-108004000D01*
X147349000Y-108001000D01*
X147355000Y-107998000D01*
X147361000Y-107996000D01*
X147368000Y-107994000D01*
X147374000Y-107993000D01*
X147380000Y-107992000D01*
X147387000Y-107991000D01*
X147393000Y-107990000D01*
X147400000Y-107990000D01*
X147600000Y-107990000D01*
X147607000Y-107990000D01*
X147613000Y-107991000D01*
G36*
X147613000Y-107991000D02*
G01*
X147620000Y-107992000D01*
X147626000Y-107993000D01*
X147632000Y-107994000D01*
X147639000Y-107996000D01*
X147645000Y-107998000D01*
X147651000Y-108001000D01*
X147657000Y-108004000D01*
X147662000Y-108007000D01*
X147668000Y-108010000D01*
X147673000Y-108014000D01*
X147679000Y-108018000D01*
X147684000Y-108022000D01*
X147688000Y-108027000D01*
X147693000Y-108031000D01*
X147697000Y-108036000D01*
X147701000Y-108042000D01*
X147705000Y-108047000D01*
X147708000Y-108052000D01*
X147711000Y-108058000D01*
X147714000Y-108064000D01*
X147717000Y-108070000D01*
X147719000Y-108076000D01*
X147721000Y-108083000D01*
X147722000Y-108089000D01*
X147723000Y-108095000D01*
X147724000Y-108102000D01*
X147725000Y-108108000D01*
X147725000Y-108115000D01*
X147725000Y-108555000D01*
X147725000Y-108562000D01*
X147724000Y-108568000D01*
X147723000Y-108575000D01*
X147722000Y-108581000D01*
X147721000Y-108587000D01*
X147719000Y-108594000D01*
X147717000Y-108600000D01*
X147714000Y-108606000D01*
X147711000Y-108612000D01*
X147708000Y-108618000D01*
X147705000Y-108623000D01*
X147701000Y-108628000D01*
X147697000Y-108634000D01*
X147693000Y-108639000D01*
X147688000Y-108643000D01*
X147684000Y-108648000D01*
X147679000Y-108652000D01*
X147673000Y-108656000D01*
X147668000Y-108660000D01*
X147662000Y-108663000D01*
X147657000Y-108666000D01*
X147651000Y-108669000D01*
X147645000Y-108672000D01*
X147639000Y-108674000D01*
X147632000Y-108676000D01*
X147626000Y-108677000D01*
X147620000Y-108678000D01*
X147613000Y-108679000D01*
X147607000Y-108680000D01*
X147600000Y-108680000D01*
X147400000Y-108680000D01*
X147393000Y-108680000D01*
X147387000Y-108679000D01*
X147380000Y-108678000D01*
X147374000Y-108677000D01*
X147368000Y-108676000D01*
X147361000Y-108674000D01*
X147355000Y-108672000D01*
X147349000Y-108669000D01*
X147343000Y-108666000D01*
X147337000Y-108663000D01*
X147332000Y-108660000D01*
X147327000Y-108656000D01*
X147321000Y-108652000D01*
X147316000Y-108648000D01*
X147312000Y-108643000D01*
X147307000Y-108639000D01*
X147303000Y-108634000D01*
X147299000Y-108628000D01*
X147295000Y-108623000D01*
X147292000Y-108618000D01*
X147289000Y-108612000D01*
X147286000Y-108606000D01*
X147283000Y-108600000D01*
X147281000Y-108594000D01*
X147279000Y-108587000D01*
X147278000Y-108581000D01*
X147277000Y-108575000D01*
X147276000Y-108568000D01*
X147275000Y-108562000D01*
X147275000Y-108555000D01*
X147275000Y-108115000D01*
X147275000Y-108108000D01*
X147276000Y-108102000D01*
X147277000Y-108095000D01*
X147278000Y-108089000D01*
X147279000Y-108083000D01*
X147281000Y-108076000D01*
X147283000Y-108070000D01*
X147286000Y-108064000D01*
X147289000Y-108058000D01*
X147292000Y-108052000D01*
X147295000Y-108047000D01*
X147299000Y-108042000D01*
X147303000Y-108036000D01*
X147307000Y-108031000D01*
X147312000Y-108027000D01*
X147316000Y-108022000D01*
X147321000Y-108018000D01*
X147327000Y-108014000D01*
X147332000Y-108010000D01*
X147338000Y-108007000D01*
X147343000Y-108004000D01*
X147349000Y-108001000D01*
X147355000Y-107998000D01*
X147361000Y-107996000D01*
X147368000Y-107994000D01*
X147374000Y-107993000D01*
X147380000Y-107992000D01*
X147387000Y-107991000D01*
X147393000Y-107990000D01*
X147400000Y-107990000D01*
X147600000Y-107990000D01*
X147607000Y-107990000D01*
X147613000Y-107991000D01*
G37*
X147613000Y-109821000D02*
X147620000Y-109822000D01*
X147626000Y-109823000D01*
X147632000Y-109824000D01*
X147639000Y-109826000D01*
X147645000Y-109828000D01*
X147651000Y-109831000D01*
X147657000Y-109834000D01*
X147662000Y-109837000D01*
X147668000Y-109840000D01*
X147673000Y-109844000D01*
X147679000Y-109848000D01*
X147684000Y-109852000D01*
X147688000Y-109857000D01*
X147693000Y-109861000D01*
X147697000Y-109866000D01*
X147701000Y-109872000D01*
X147705000Y-109877000D01*
X147708000Y-109882000D01*
X147711000Y-109888000D01*
X147714000Y-109894000D01*
X147717000Y-109900000D01*
X147719000Y-109906000D01*
X147721000Y-109913000D01*
X147722000Y-109919000D01*
X147723000Y-109925000D01*
X147724000Y-109932000D01*
X147725000Y-109938000D01*
X147725000Y-109945000D01*
X147725000Y-110385000D01*
X147725000Y-110392000D01*
X147724000Y-110398000D01*
X147723000Y-110405000D01*
X147722000Y-110411000D01*
X147721000Y-110417000D01*
X147719000Y-110424000D01*
X147717000Y-110430000D01*
X147714000Y-110436000D01*
X147711000Y-110442000D01*
X147708000Y-110448000D01*
X147705000Y-110453000D01*
X147701000Y-110458000D01*
X147697000Y-110464000D01*
X147693000Y-110469000D01*
X147688000Y-110473000D01*
X147684000Y-110478000D01*
X147679000Y-110482000D01*
X147673000Y-110486000D01*
X147668000Y-110490000D01*
X147662000Y-110493000D01*
X147657000Y-110496000D01*
X147651000Y-110499000D01*
X147645000Y-110502000D01*
X147639000Y-110504000D01*
X147632000Y-110506000D01*
X147626000Y-110507000D01*
X147620000Y-110508000D01*
X147613000Y-110509000D01*
X147607000Y-110510000D01*
X147600000Y-110510000D01*
X147400000Y-110510000D01*
X147393000Y-110510000D01*
X147387000Y-110509000D01*
X147380000Y-110508000D01*
X147374000Y-110507000D01*
X147368000Y-110506000D01*
X147361000Y-110504000D01*
X147355000Y-110502000D01*
X147349000Y-110499000D01*
X147343000Y-110496000D01*
X147337000Y-110493000D01*
X147332000Y-110490000D01*
X147327000Y-110486000D01*
X147321000Y-110482000D01*
X147316000Y-110478000D01*
X147312000Y-110473000D01*
X147307000Y-110469000D01*
X147303000Y-110464000D01*
X147299000Y-110458000D01*
X147295000Y-110453000D01*
X147292000Y-110448000D01*
X147289000Y-110442000D01*
X147286000Y-110436000D01*
X147283000Y-110430000D01*
X147281000Y-110424000D01*
X147279000Y-110417000D01*
X147278000Y-110411000D01*
X147277000Y-110405000D01*
X147276000Y-110398000D01*
X147275000Y-110392000D01*
X147275000Y-110385000D01*
X147275000Y-109945000D01*
X147275000Y-109938000D01*
X147276000Y-109932000D01*
X147277000Y-109925000D01*
X147278000Y-109919000D01*
X147279000Y-109913000D01*
X147281000Y-109906000D01*
X147283000Y-109900000D01*
X147286000Y-109894000D01*
X147289000Y-109888000D01*
X147292000Y-109882000D01*
X147295000Y-109877000D01*
X147299000Y-109872000D01*
X147303000Y-109866000D01*
X147307000Y-109861000D01*
X147312000Y-109857000D01*
X147316000Y-109852000D01*
X147321000Y-109848000D01*
X147327000Y-109844000D01*
X147332000Y-109840000D01*
X147338000Y-109837000D01*
X147343000Y-109834000D01*
X147349000Y-109831000D01*
X147355000Y-109828000D01*
X147361000Y-109826000D01*
X147368000Y-109824000D01*
X147374000Y-109823000D01*
X147380000Y-109822000D01*
X147387000Y-109821000D01*
X147393000Y-109820000D01*
X147400000Y-109820000D01*
X147600000Y-109820000D01*
X147607000Y-109820000D01*
X147613000Y-109821000D01*
G36*
X147613000Y-109821000D02*
G01*
X147620000Y-109822000D01*
X147626000Y-109823000D01*
X147632000Y-109824000D01*
X147639000Y-109826000D01*
X147645000Y-109828000D01*
X147651000Y-109831000D01*
X147657000Y-109834000D01*
X147662000Y-109837000D01*
X147668000Y-109840000D01*
X147673000Y-109844000D01*
X147679000Y-109848000D01*
X147684000Y-109852000D01*
X147688000Y-109857000D01*
X147693000Y-109861000D01*
X147697000Y-109866000D01*
X147701000Y-109872000D01*
X147705000Y-109877000D01*
X147708000Y-109882000D01*
X147711000Y-109888000D01*
X147714000Y-109894000D01*
X147717000Y-109900000D01*
X147719000Y-109906000D01*
X147721000Y-109913000D01*
X147722000Y-109919000D01*
X147723000Y-109925000D01*
X147724000Y-109932000D01*
X147725000Y-109938000D01*
X147725000Y-109945000D01*
X147725000Y-110385000D01*
X147725000Y-110392000D01*
X147724000Y-110398000D01*
X147723000Y-110405000D01*
X147722000Y-110411000D01*
X147721000Y-110417000D01*
X147719000Y-110424000D01*
X147717000Y-110430000D01*
X147714000Y-110436000D01*
X147711000Y-110442000D01*
X147708000Y-110448000D01*
X147705000Y-110453000D01*
X147701000Y-110458000D01*
X147697000Y-110464000D01*
X147693000Y-110469000D01*
X147688000Y-110473000D01*
X147684000Y-110478000D01*
X147679000Y-110482000D01*
X147673000Y-110486000D01*
X147668000Y-110490000D01*
X147662000Y-110493000D01*
X147657000Y-110496000D01*
X147651000Y-110499000D01*
X147645000Y-110502000D01*
X147639000Y-110504000D01*
X147632000Y-110506000D01*
X147626000Y-110507000D01*
X147620000Y-110508000D01*
X147613000Y-110509000D01*
X147607000Y-110510000D01*
X147600000Y-110510000D01*
X147400000Y-110510000D01*
X147393000Y-110510000D01*
X147387000Y-110509000D01*
X147380000Y-110508000D01*
X147374000Y-110507000D01*
X147368000Y-110506000D01*
X147361000Y-110504000D01*
X147355000Y-110502000D01*
X147349000Y-110499000D01*
X147343000Y-110496000D01*
X147337000Y-110493000D01*
X147332000Y-110490000D01*
X147327000Y-110486000D01*
X147321000Y-110482000D01*
X147316000Y-110478000D01*
X147312000Y-110473000D01*
X147307000Y-110469000D01*
X147303000Y-110464000D01*
X147299000Y-110458000D01*
X147295000Y-110453000D01*
X147292000Y-110448000D01*
X147289000Y-110442000D01*
X147286000Y-110436000D01*
X147283000Y-110430000D01*
X147281000Y-110424000D01*
X147279000Y-110417000D01*
X147278000Y-110411000D01*
X147277000Y-110405000D01*
X147276000Y-110398000D01*
X147275000Y-110392000D01*
X147275000Y-110385000D01*
X147275000Y-109945000D01*
X147275000Y-109938000D01*
X147276000Y-109932000D01*
X147277000Y-109925000D01*
X147278000Y-109919000D01*
X147279000Y-109913000D01*
X147281000Y-109906000D01*
X147283000Y-109900000D01*
X147286000Y-109894000D01*
X147289000Y-109888000D01*
X147292000Y-109882000D01*
X147295000Y-109877000D01*
X147299000Y-109872000D01*
X147303000Y-109866000D01*
X147307000Y-109861000D01*
X147312000Y-109857000D01*
X147316000Y-109852000D01*
X147321000Y-109848000D01*
X147327000Y-109844000D01*
X147332000Y-109840000D01*
X147338000Y-109837000D01*
X147343000Y-109834000D01*
X147349000Y-109831000D01*
X147355000Y-109828000D01*
X147361000Y-109826000D01*
X147368000Y-109824000D01*
X147374000Y-109823000D01*
X147380000Y-109822000D01*
X147387000Y-109821000D01*
X147393000Y-109820000D01*
X147400000Y-109820000D01*
X147600000Y-109820000D01*
X147607000Y-109820000D01*
X147613000Y-109821000D01*
G37*
X148398000Y-108276000D02*
X148405000Y-108277000D01*
X148411000Y-108278000D01*
X148417000Y-108279000D01*
X148424000Y-108281000D01*
X148430000Y-108283000D01*
X148436000Y-108286000D01*
X148442000Y-108289000D01*
X148448000Y-108292000D01*
X148453000Y-108295000D01*
X148458000Y-108299000D01*
X148464000Y-108303000D01*
X148469000Y-108307000D01*
X148473000Y-108312000D01*
X148478000Y-108316000D01*
X148482000Y-108321000D01*
X148486000Y-108327000D01*
X148490000Y-108332000D01*
X148493000Y-108338000D01*
X148496000Y-108343000D01*
X148499000Y-108349000D01*
X148502000Y-108355000D01*
X148504000Y-108361000D01*
X148506000Y-108368000D01*
X148507000Y-108374000D01*
X148508000Y-108380000D01*
X148509000Y-108387000D01*
X148510000Y-108393000D01*
X148510000Y-108400000D01*
X148510000Y-108600000D01*
X148510000Y-108607000D01*
X148509000Y-108613000D01*
X148508000Y-108620000D01*
X148507000Y-108626000D01*
X148506000Y-108632000D01*
X148504000Y-108639000D01*
X148502000Y-108645000D01*
X148499000Y-108651000D01*
X148496000Y-108657000D01*
X148493000Y-108662000D01*
X148490000Y-108668000D01*
X148486000Y-108673000D01*
X148482000Y-108679000D01*
X148478000Y-108684000D01*
X148473000Y-108688000D01*
X148469000Y-108693000D01*
X148464000Y-108697000D01*
X148458000Y-108701000D01*
X148453000Y-108705000D01*
X148448000Y-108708000D01*
X148442000Y-108711000D01*
X148436000Y-108714000D01*
X148430000Y-108717000D01*
X148424000Y-108719000D01*
X148417000Y-108721000D01*
X148411000Y-108722000D01*
X148405000Y-108723000D01*
X148398000Y-108724000D01*
X148392000Y-108725000D01*
X148385000Y-108725000D01*
X147945000Y-108725000D01*
X147938000Y-108725000D01*
X147932000Y-108724000D01*
X147925000Y-108723000D01*
X147919000Y-108722000D01*
X147913000Y-108721000D01*
X147906000Y-108719000D01*
X147900000Y-108717000D01*
X147894000Y-108714000D01*
X147888000Y-108711000D01*
X147882000Y-108708000D01*
X147877000Y-108705000D01*
X147872000Y-108701000D01*
X147866000Y-108697000D01*
X147861000Y-108693000D01*
X147857000Y-108688000D01*
X147852000Y-108684000D01*
X147848000Y-108679000D01*
X147844000Y-108673000D01*
X147840000Y-108668000D01*
X147837000Y-108662000D01*
X147834000Y-108657000D01*
X147831000Y-108651000D01*
X147828000Y-108645000D01*
X147826000Y-108639000D01*
X147824000Y-108632000D01*
X147823000Y-108626000D01*
X147822000Y-108620000D01*
X147821000Y-108613000D01*
X147820000Y-108607000D01*
X147820000Y-108600000D01*
X147820000Y-108400000D01*
X147820000Y-108393000D01*
X147821000Y-108387000D01*
X147822000Y-108380000D01*
X147823000Y-108374000D01*
X147824000Y-108368000D01*
X147826000Y-108361000D01*
X147828000Y-108355000D01*
X147831000Y-108349000D01*
X147834000Y-108343000D01*
X147837000Y-108338000D01*
X147840000Y-108332000D01*
X147844000Y-108327000D01*
X147848000Y-108321000D01*
X147852000Y-108316000D01*
X147857000Y-108312000D01*
X147861000Y-108307000D01*
X147866000Y-108303000D01*
X147872000Y-108299000D01*
X147877000Y-108295000D01*
X147882000Y-108292000D01*
X147888000Y-108289000D01*
X147894000Y-108286000D01*
X147900000Y-108283000D01*
X147906000Y-108281000D01*
X147913000Y-108279000D01*
X147919000Y-108278000D01*
X147925000Y-108277000D01*
X147932000Y-108276000D01*
X147938000Y-108275000D01*
X147945000Y-108275000D01*
X148385000Y-108275000D01*
X148392000Y-108275000D01*
X148398000Y-108276000D01*
G36*
X148398000Y-108276000D02*
G01*
X148405000Y-108277000D01*
X148411000Y-108278000D01*
X148417000Y-108279000D01*
X148424000Y-108281000D01*
X148430000Y-108283000D01*
X148436000Y-108286000D01*
X148442000Y-108289000D01*
X148448000Y-108292000D01*
X148453000Y-108295000D01*
X148458000Y-108299000D01*
X148464000Y-108303000D01*
X148469000Y-108307000D01*
X148473000Y-108312000D01*
X148478000Y-108316000D01*
X148482000Y-108321000D01*
X148486000Y-108327000D01*
X148490000Y-108332000D01*
X148493000Y-108338000D01*
X148496000Y-108343000D01*
X148499000Y-108349000D01*
X148502000Y-108355000D01*
X148504000Y-108361000D01*
X148506000Y-108368000D01*
X148507000Y-108374000D01*
X148508000Y-108380000D01*
X148509000Y-108387000D01*
X148510000Y-108393000D01*
X148510000Y-108400000D01*
X148510000Y-108600000D01*
X148510000Y-108607000D01*
X148509000Y-108613000D01*
X148508000Y-108620000D01*
X148507000Y-108626000D01*
X148506000Y-108632000D01*
X148504000Y-108639000D01*
X148502000Y-108645000D01*
X148499000Y-108651000D01*
X148496000Y-108657000D01*
X148493000Y-108662000D01*
X148490000Y-108668000D01*
X148486000Y-108673000D01*
X148482000Y-108679000D01*
X148478000Y-108684000D01*
X148473000Y-108688000D01*
X148469000Y-108693000D01*
X148464000Y-108697000D01*
X148458000Y-108701000D01*
X148453000Y-108705000D01*
X148448000Y-108708000D01*
X148442000Y-108711000D01*
X148436000Y-108714000D01*
X148430000Y-108717000D01*
X148424000Y-108719000D01*
X148417000Y-108721000D01*
X148411000Y-108722000D01*
X148405000Y-108723000D01*
X148398000Y-108724000D01*
X148392000Y-108725000D01*
X148385000Y-108725000D01*
X147945000Y-108725000D01*
X147938000Y-108725000D01*
X147932000Y-108724000D01*
X147925000Y-108723000D01*
X147919000Y-108722000D01*
X147913000Y-108721000D01*
X147906000Y-108719000D01*
X147900000Y-108717000D01*
X147894000Y-108714000D01*
X147888000Y-108711000D01*
X147882000Y-108708000D01*
X147877000Y-108705000D01*
X147872000Y-108701000D01*
X147866000Y-108697000D01*
X147861000Y-108693000D01*
X147857000Y-108688000D01*
X147852000Y-108684000D01*
X147848000Y-108679000D01*
X147844000Y-108673000D01*
X147840000Y-108668000D01*
X147837000Y-108662000D01*
X147834000Y-108657000D01*
X147831000Y-108651000D01*
X147828000Y-108645000D01*
X147826000Y-108639000D01*
X147824000Y-108632000D01*
X147823000Y-108626000D01*
X147822000Y-108620000D01*
X147821000Y-108613000D01*
X147820000Y-108607000D01*
X147820000Y-108600000D01*
X147820000Y-108400000D01*
X147820000Y-108393000D01*
X147821000Y-108387000D01*
X147822000Y-108380000D01*
X147823000Y-108374000D01*
X147824000Y-108368000D01*
X147826000Y-108361000D01*
X147828000Y-108355000D01*
X147831000Y-108349000D01*
X147834000Y-108343000D01*
X147837000Y-108338000D01*
X147840000Y-108332000D01*
X147844000Y-108327000D01*
X147848000Y-108321000D01*
X147852000Y-108316000D01*
X147857000Y-108312000D01*
X147861000Y-108307000D01*
X147866000Y-108303000D01*
X147872000Y-108299000D01*
X147877000Y-108295000D01*
X147882000Y-108292000D01*
X147888000Y-108289000D01*
X147894000Y-108286000D01*
X147900000Y-108283000D01*
X147906000Y-108281000D01*
X147913000Y-108279000D01*
X147919000Y-108278000D01*
X147925000Y-108277000D01*
X147932000Y-108276000D01*
X147938000Y-108275000D01*
X147945000Y-108275000D01*
X148385000Y-108275000D01*
X148392000Y-108275000D01*
X148398000Y-108276000D01*
G37*
X148398000Y-108776000D02*
X148405000Y-108777000D01*
X148411000Y-108778000D01*
X148417000Y-108779000D01*
X148424000Y-108781000D01*
X148430000Y-108783000D01*
X148436000Y-108786000D01*
X148442000Y-108789000D01*
X148448000Y-108792000D01*
X148453000Y-108795000D01*
X148458000Y-108799000D01*
X148464000Y-108803000D01*
X148469000Y-108807000D01*
X148473000Y-108812000D01*
X148478000Y-108816000D01*
X148482000Y-108821000D01*
X148486000Y-108827000D01*
X148490000Y-108832000D01*
X148493000Y-108838000D01*
X148496000Y-108843000D01*
X148499000Y-108849000D01*
X148502000Y-108855000D01*
X148504000Y-108861000D01*
X148506000Y-108868000D01*
X148507000Y-108874000D01*
X148508000Y-108880000D01*
X148509000Y-108887000D01*
X148510000Y-108893000D01*
X148510000Y-108900000D01*
X148510000Y-109100000D01*
X148510000Y-109107000D01*
X148509000Y-109113000D01*
X148508000Y-109120000D01*
X148507000Y-109126000D01*
X148506000Y-109132000D01*
X148504000Y-109139000D01*
X148502000Y-109145000D01*
X148499000Y-109151000D01*
X148496000Y-109157000D01*
X148493000Y-109162000D01*
X148490000Y-109168000D01*
X148486000Y-109173000D01*
X148482000Y-109179000D01*
X148478000Y-109184000D01*
X148473000Y-109188000D01*
X148469000Y-109193000D01*
X148464000Y-109197000D01*
X148458000Y-109201000D01*
X148453000Y-109205000D01*
X148448000Y-109208000D01*
X148442000Y-109211000D01*
X148436000Y-109214000D01*
X148430000Y-109217000D01*
X148424000Y-109219000D01*
X148417000Y-109221000D01*
X148411000Y-109222000D01*
X148405000Y-109223000D01*
X148398000Y-109224000D01*
X148392000Y-109225000D01*
X148385000Y-109225000D01*
X147945000Y-109225000D01*
X147938000Y-109225000D01*
X147932000Y-109224000D01*
X147925000Y-109223000D01*
X147919000Y-109222000D01*
X147913000Y-109221000D01*
X147906000Y-109219000D01*
X147900000Y-109217000D01*
X147894000Y-109214000D01*
X147888000Y-109211000D01*
X147882000Y-109208000D01*
X147877000Y-109205000D01*
X147872000Y-109201000D01*
X147866000Y-109197000D01*
X147861000Y-109193000D01*
X147857000Y-109188000D01*
X147852000Y-109184000D01*
X147848000Y-109179000D01*
X147844000Y-109173000D01*
X147840000Y-109168000D01*
X147837000Y-109162000D01*
X147834000Y-109157000D01*
X147831000Y-109151000D01*
X147828000Y-109145000D01*
X147826000Y-109139000D01*
X147824000Y-109132000D01*
X147823000Y-109126000D01*
X147822000Y-109120000D01*
X147821000Y-109113000D01*
X147820000Y-109107000D01*
X147820000Y-109100000D01*
X147820000Y-108900000D01*
X147820000Y-108893000D01*
X147821000Y-108887000D01*
X147822000Y-108880000D01*
X147823000Y-108874000D01*
X147824000Y-108868000D01*
X147826000Y-108861000D01*
X147828000Y-108855000D01*
X147831000Y-108849000D01*
X147834000Y-108843000D01*
X147837000Y-108838000D01*
X147840000Y-108832000D01*
X147844000Y-108827000D01*
X147848000Y-108821000D01*
X147852000Y-108816000D01*
X147857000Y-108812000D01*
X147861000Y-108807000D01*
X147866000Y-108803000D01*
X147872000Y-108799000D01*
X147877000Y-108795000D01*
X147882000Y-108792000D01*
X147888000Y-108789000D01*
X147894000Y-108786000D01*
X147900000Y-108783000D01*
X147906000Y-108781000D01*
X147913000Y-108779000D01*
X147919000Y-108778000D01*
X147925000Y-108777000D01*
X147932000Y-108776000D01*
X147938000Y-108775000D01*
X147945000Y-108775000D01*
X148385000Y-108775000D01*
X148392000Y-108775000D01*
X148398000Y-108776000D01*
G36*
X148398000Y-108776000D02*
G01*
X148405000Y-108777000D01*
X148411000Y-108778000D01*
X148417000Y-108779000D01*
X148424000Y-108781000D01*
X148430000Y-108783000D01*
X148436000Y-108786000D01*
X148442000Y-108789000D01*
X148448000Y-108792000D01*
X148453000Y-108795000D01*
X148458000Y-108799000D01*
X148464000Y-108803000D01*
X148469000Y-108807000D01*
X148473000Y-108812000D01*
X148478000Y-108816000D01*
X148482000Y-108821000D01*
X148486000Y-108827000D01*
X148490000Y-108832000D01*
X148493000Y-108838000D01*
X148496000Y-108843000D01*
X148499000Y-108849000D01*
X148502000Y-108855000D01*
X148504000Y-108861000D01*
X148506000Y-108868000D01*
X148507000Y-108874000D01*
X148508000Y-108880000D01*
X148509000Y-108887000D01*
X148510000Y-108893000D01*
X148510000Y-108900000D01*
X148510000Y-109100000D01*
X148510000Y-109107000D01*
X148509000Y-109113000D01*
X148508000Y-109120000D01*
X148507000Y-109126000D01*
X148506000Y-109132000D01*
X148504000Y-109139000D01*
X148502000Y-109145000D01*
X148499000Y-109151000D01*
X148496000Y-109157000D01*
X148493000Y-109162000D01*
X148490000Y-109168000D01*
X148486000Y-109173000D01*
X148482000Y-109179000D01*
X148478000Y-109184000D01*
X148473000Y-109188000D01*
X148469000Y-109193000D01*
X148464000Y-109197000D01*
X148458000Y-109201000D01*
X148453000Y-109205000D01*
X148448000Y-109208000D01*
X148442000Y-109211000D01*
X148436000Y-109214000D01*
X148430000Y-109217000D01*
X148424000Y-109219000D01*
X148417000Y-109221000D01*
X148411000Y-109222000D01*
X148405000Y-109223000D01*
X148398000Y-109224000D01*
X148392000Y-109225000D01*
X148385000Y-109225000D01*
X147945000Y-109225000D01*
X147938000Y-109225000D01*
X147932000Y-109224000D01*
X147925000Y-109223000D01*
X147919000Y-109222000D01*
X147913000Y-109221000D01*
X147906000Y-109219000D01*
X147900000Y-109217000D01*
X147894000Y-109214000D01*
X147888000Y-109211000D01*
X147882000Y-109208000D01*
X147877000Y-109205000D01*
X147872000Y-109201000D01*
X147866000Y-109197000D01*
X147861000Y-109193000D01*
X147857000Y-109188000D01*
X147852000Y-109184000D01*
X147848000Y-109179000D01*
X147844000Y-109173000D01*
X147840000Y-109168000D01*
X147837000Y-109162000D01*
X147834000Y-109157000D01*
X147831000Y-109151000D01*
X147828000Y-109145000D01*
X147826000Y-109139000D01*
X147824000Y-109132000D01*
X147823000Y-109126000D01*
X147822000Y-109120000D01*
X147821000Y-109113000D01*
X147820000Y-109107000D01*
X147820000Y-109100000D01*
X147820000Y-108900000D01*
X147820000Y-108893000D01*
X147821000Y-108887000D01*
X147822000Y-108880000D01*
X147823000Y-108874000D01*
X147824000Y-108868000D01*
X147826000Y-108861000D01*
X147828000Y-108855000D01*
X147831000Y-108849000D01*
X147834000Y-108843000D01*
X147837000Y-108838000D01*
X147840000Y-108832000D01*
X147844000Y-108827000D01*
X147848000Y-108821000D01*
X147852000Y-108816000D01*
X147857000Y-108812000D01*
X147861000Y-108807000D01*
X147866000Y-108803000D01*
X147872000Y-108799000D01*
X147877000Y-108795000D01*
X147882000Y-108792000D01*
X147888000Y-108789000D01*
X147894000Y-108786000D01*
X147900000Y-108783000D01*
X147906000Y-108781000D01*
X147913000Y-108779000D01*
X147919000Y-108778000D01*
X147925000Y-108777000D01*
X147932000Y-108776000D01*
X147938000Y-108775000D01*
X147945000Y-108775000D01*
X148385000Y-108775000D01*
X148392000Y-108775000D01*
X148398000Y-108776000D01*
G37*
X148398000Y-109276000D02*
X148405000Y-109277000D01*
X148411000Y-109278000D01*
X148417000Y-109279000D01*
X148424000Y-109281000D01*
X148430000Y-109283000D01*
X148436000Y-109286000D01*
X148442000Y-109289000D01*
X148448000Y-109292000D01*
X148453000Y-109295000D01*
X148458000Y-109299000D01*
X148464000Y-109303000D01*
X148469000Y-109307000D01*
X148473000Y-109312000D01*
X148478000Y-109316000D01*
X148482000Y-109321000D01*
X148486000Y-109327000D01*
X148490000Y-109332000D01*
X148493000Y-109338000D01*
X148496000Y-109343000D01*
X148499000Y-109349000D01*
X148502000Y-109355000D01*
X148504000Y-109361000D01*
X148506000Y-109368000D01*
X148507000Y-109374000D01*
X148508000Y-109380000D01*
X148509000Y-109387000D01*
X148510000Y-109393000D01*
X148510000Y-109400000D01*
X148510000Y-109600000D01*
X148510000Y-109607000D01*
X148509000Y-109613000D01*
X148508000Y-109620000D01*
X148507000Y-109626000D01*
X148506000Y-109632000D01*
X148504000Y-109639000D01*
X148502000Y-109645000D01*
X148499000Y-109651000D01*
X148496000Y-109657000D01*
X148493000Y-109662000D01*
X148490000Y-109668000D01*
X148486000Y-109673000D01*
X148482000Y-109679000D01*
X148478000Y-109684000D01*
X148473000Y-109688000D01*
X148469000Y-109693000D01*
X148464000Y-109697000D01*
X148458000Y-109701000D01*
X148453000Y-109705000D01*
X148448000Y-109708000D01*
X148442000Y-109711000D01*
X148436000Y-109714000D01*
X148430000Y-109717000D01*
X148424000Y-109719000D01*
X148417000Y-109721000D01*
X148411000Y-109722000D01*
X148405000Y-109723000D01*
X148398000Y-109724000D01*
X148392000Y-109725000D01*
X148385000Y-109725000D01*
X147945000Y-109725000D01*
X147938000Y-109725000D01*
X147932000Y-109724000D01*
X147925000Y-109723000D01*
X147919000Y-109722000D01*
X147913000Y-109721000D01*
X147906000Y-109719000D01*
X147900000Y-109717000D01*
X147894000Y-109714000D01*
X147888000Y-109711000D01*
X147882000Y-109708000D01*
X147877000Y-109705000D01*
X147872000Y-109701000D01*
X147866000Y-109697000D01*
X147861000Y-109693000D01*
X147857000Y-109688000D01*
X147852000Y-109684000D01*
X147848000Y-109679000D01*
X147844000Y-109673000D01*
X147840000Y-109668000D01*
X147837000Y-109662000D01*
X147834000Y-109657000D01*
X147831000Y-109651000D01*
X147828000Y-109645000D01*
X147826000Y-109639000D01*
X147824000Y-109632000D01*
X147823000Y-109626000D01*
X147822000Y-109620000D01*
X147821000Y-109613000D01*
X147820000Y-109607000D01*
X147820000Y-109600000D01*
X147820000Y-109400000D01*
X147820000Y-109393000D01*
X147821000Y-109387000D01*
X147822000Y-109380000D01*
X147823000Y-109374000D01*
X147824000Y-109368000D01*
X147826000Y-109361000D01*
X147828000Y-109355000D01*
X147831000Y-109349000D01*
X147834000Y-109343000D01*
X147837000Y-109338000D01*
X147840000Y-109332000D01*
X147844000Y-109327000D01*
X147848000Y-109321000D01*
X147852000Y-109316000D01*
X147857000Y-109312000D01*
X147861000Y-109307000D01*
X147866000Y-109303000D01*
X147872000Y-109299000D01*
X147877000Y-109295000D01*
X147882000Y-109292000D01*
X147888000Y-109289000D01*
X147894000Y-109286000D01*
X147900000Y-109283000D01*
X147906000Y-109281000D01*
X147913000Y-109279000D01*
X147919000Y-109278000D01*
X147925000Y-109277000D01*
X147932000Y-109276000D01*
X147938000Y-109275000D01*
X147945000Y-109275000D01*
X148385000Y-109275000D01*
X148392000Y-109275000D01*
X148398000Y-109276000D01*
G36*
X148398000Y-109276000D02*
G01*
X148405000Y-109277000D01*
X148411000Y-109278000D01*
X148417000Y-109279000D01*
X148424000Y-109281000D01*
X148430000Y-109283000D01*
X148436000Y-109286000D01*
X148442000Y-109289000D01*
X148448000Y-109292000D01*
X148453000Y-109295000D01*
X148458000Y-109299000D01*
X148464000Y-109303000D01*
X148469000Y-109307000D01*
X148473000Y-109312000D01*
X148478000Y-109316000D01*
X148482000Y-109321000D01*
X148486000Y-109327000D01*
X148490000Y-109332000D01*
X148493000Y-109338000D01*
X148496000Y-109343000D01*
X148499000Y-109349000D01*
X148502000Y-109355000D01*
X148504000Y-109361000D01*
X148506000Y-109368000D01*
X148507000Y-109374000D01*
X148508000Y-109380000D01*
X148509000Y-109387000D01*
X148510000Y-109393000D01*
X148510000Y-109400000D01*
X148510000Y-109600000D01*
X148510000Y-109607000D01*
X148509000Y-109613000D01*
X148508000Y-109620000D01*
X148507000Y-109626000D01*
X148506000Y-109632000D01*
X148504000Y-109639000D01*
X148502000Y-109645000D01*
X148499000Y-109651000D01*
X148496000Y-109657000D01*
X148493000Y-109662000D01*
X148490000Y-109668000D01*
X148486000Y-109673000D01*
X148482000Y-109679000D01*
X148478000Y-109684000D01*
X148473000Y-109688000D01*
X148469000Y-109693000D01*
X148464000Y-109697000D01*
X148458000Y-109701000D01*
X148453000Y-109705000D01*
X148448000Y-109708000D01*
X148442000Y-109711000D01*
X148436000Y-109714000D01*
X148430000Y-109717000D01*
X148424000Y-109719000D01*
X148417000Y-109721000D01*
X148411000Y-109722000D01*
X148405000Y-109723000D01*
X148398000Y-109724000D01*
X148392000Y-109725000D01*
X148385000Y-109725000D01*
X147945000Y-109725000D01*
X147938000Y-109725000D01*
X147932000Y-109724000D01*
X147925000Y-109723000D01*
X147919000Y-109722000D01*
X147913000Y-109721000D01*
X147906000Y-109719000D01*
X147900000Y-109717000D01*
X147894000Y-109714000D01*
X147888000Y-109711000D01*
X147882000Y-109708000D01*
X147877000Y-109705000D01*
X147872000Y-109701000D01*
X147866000Y-109697000D01*
X147861000Y-109693000D01*
X147857000Y-109688000D01*
X147852000Y-109684000D01*
X147848000Y-109679000D01*
X147844000Y-109673000D01*
X147840000Y-109668000D01*
X147837000Y-109662000D01*
X147834000Y-109657000D01*
X147831000Y-109651000D01*
X147828000Y-109645000D01*
X147826000Y-109639000D01*
X147824000Y-109632000D01*
X147823000Y-109626000D01*
X147822000Y-109620000D01*
X147821000Y-109613000D01*
X147820000Y-109607000D01*
X147820000Y-109600000D01*
X147820000Y-109400000D01*
X147820000Y-109393000D01*
X147821000Y-109387000D01*
X147822000Y-109380000D01*
X147823000Y-109374000D01*
X147824000Y-109368000D01*
X147826000Y-109361000D01*
X147828000Y-109355000D01*
X147831000Y-109349000D01*
X147834000Y-109343000D01*
X147837000Y-109338000D01*
X147840000Y-109332000D01*
X147844000Y-109327000D01*
X147848000Y-109321000D01*
X147852000Y-109316000D01*
X147857000Y-109312000D01*
X147861000Y-109307000D01*
X147866000Y-109303000D01*
X147872000Y-109299000D01*
X147877000Y-109295000D01*
X147882000Y-109292000D01*
X147888000Y-109289000D01*
X147894000Y-109286000D01*
X147900000Y-109283000D01*
X147906000Y-109281000D01*
X147913000Y-109279000D01*
X147919000Y-109278000D01*
X147925000Y-109277000D01*
X147932000Y-109276000D01*
X147938000Y-109275000D01*
X147945000Y-109275000D01*
X148385000Y-109275000D01*
X148392000Y-109275000D01*
X148398000Y-109276000D01*
G37*
X148398000Y-109776000D02*
X148405000Y-109777000D01*
X148411000Y-109778000D01*
X148417000Y-109779000D01*
X148424000Y-109781000D01*
X148430000Y-109783000D01*
X148436000Y-109786000D01*
X148442000Y-109789000D01*
X148448000Y-109792000D01*
X148453000Y-109795000D01*
X148458000Y-109799000D01*
X148464000Y-109803000D01*
X148469000Y-109807000D01*
X148473000Y-109812000D01*
X148478000Y-109816000D01*
X148482000Y-109821000D01*
X148486000Y-109827000D01*
X148490000Y-109832000D01*
X148493000Y-109838000D01*
X148496000Y-109843000D01*
X148499000Y-109849000D01*
X148502000Y-109855000D01*
X148504000Y-109861000D01*
X148506000Y-109868000D01*
X148507000Y-109874000D01*
X148508000Y-109880000D01*
X148509000Y-109887000D01*
X148510000Y-109893000D01*
X148510000Y-109900000D01*
X148510000Y-110100000D01*
X148510000Y-110107000D01*
X148509000Y-110113000D01*
X148508000Y-110120000D01*
X148507000Y-110126000D01*
X148506000Y-110132000D01*
X148504000Y-110139000D01*
X148502000Y-110145000D01*
X148499000Y-110151000D01*
X148496000Y-110157000D01*
X148493000Y-110162000D01*
X148490000Y-110168000D01*
X148486000Y-110173000D01*
X148482000Y-110179000D01*
X148478000Y-110184000D01*
X148473000Y-110188000D01*
X148469000Y-110193000D01*
X148464000Y-110197000D01*
X148458000Y-110201000D01*
X148453000Y-110205000D01*
X148448000Y-110208000D01*
X148442000Y-110211000D01*
X148436000Y-110214000D01*
X148430000Y-110217000D01*
X148424000Y-110219000D01*
X148417000Y-110221000D01*
X148411000Y-110222000D01*
X148405000Y-110223000D01*
X148398000Y-110224000D01*
X148392000Y-110225000D01*
X148385000Y-110225000D01*
X147945000Y-110225000D01*
X147938000Y-110225000D01*
X147932000Y-110224000D01*
X147925000Y-110223000D01*
X147919000Y-110222000D01*
X147913000Y-110221000D01*
X147906000Y-110219000D01*
X147900000Y-110217000D01*
X147894000Y-110214000D01*
X147888000Y-110211000D01*
X147882000Y-110208000D01*
X147877000Y-110205000D01*
X147872000Y-110201000D01*
X147866000Y-110197000D01*
X147861000Y-110193000D01*
X147857000Y-110188000D01*
X147852000Y-110184000D01*
X147848000Y-110179000D01*
X147844000Y-110173000D01*
X147840000Y-110168000D01*
X147837000Y-110162000D01*
X147834000Y-110157000D01*
X147831000Y-110151000D01*
X147828000Y-110145000D01*
X147826000Y-110139000D01*
X147824000Y-110132000D01*
X147823000Y-110126000D01*
X147822000Y-110120000D01*
X147821000Y-110113000D01*
X147820000Y-110107000D01*
X147820000Y-110100000D01*
X147820000Y-109900000D01*
X147820000Y-109893000D01*
X147821000Y-109887000D01*
X147822000Y-109880000D01*
X147823000Y-109874000D01*
X147824000Y-109868000D01*
X147826000Y-109861000D01*
X147828000Y-109855000D01*
X147831000Y-109849000D01*
X147834000Y-109843000D01*
X147837000Y-109838000D01*
X147840000Y-109832000D01*
X147844000Y-109827000D01*
X147848000Y-109821000D01*
X147852000Y-109816000D01*
X147857000Y-109812000D01*
X147861000Y-109807000D01*
X147866000Y-109803000D01*
X147872000Y-109799000D01*
X147877000Y-109795000D01*
X147882000Y-109792000D01*
X147888000Y-109789000D01*
X147894000Y-109786000D01*
X147900000Y-109783000D01*
X147906000Y-109781000D01*
X147913000Y-109779000D01*
X147919000Y-109778000D01*
X147925000Y-109777000D01*
X147932000Y-109776000D01*
X147938000Y-109775000D01*
X147945000Y-109775000D01*
X148385000Y-109775000D01*
X148392000Y-109775000D01*
X148398000Y-109776000D01*
G36*
X148398000Y-109776000D02*
G01*
X148405000Y-109777000D01*
X148411000Y-109778000D01*
X148417000Y-109779000D01*
X148424000Y-109781000D01*
X148430000Y-109783000D01*
X148436000Y-109786000D01*
X148442000Y-109789000D01*
X148448000Y-109792000D01*
X148453000Y-109795000D01*
X148458000Y-109799000D01*
X148464000Y-109803000D01*
X148469000Y-109807000D01*
X148473000Y-109812000D01*
X148478000Y-109816000D01*
X148482000Y-109821000D01*
X148486000Y-109827000D01*
X148490000Y-109832000D01*
X148493000Y-109838000D01*
X148496000Y-109843000D01*
X148499000Y-109849000D01*
X148502000Y-109855000D01*
X148504000Y-109861000D01*
X148506000Y-109868000D01*
X148507000Y-109874000D01*
X148508000Y-109880000D01*
X148509000Y-109887000D01*
X148510000Y-109893000D01*
X148510000Y-109900000D01*
X148510000Y-110100000D01*
X148510000Y-110107000D01*
X148509000Y-110113000D01*
X148508000Y-110120000D01*
X148507000Y-110126000D01*
X148506000Y-110132000D01*
X148504000Y-110139000D01*
X148502000Y-110145000D01*
X148499000Y-110151000D01*
X148496000Y-110157000D01*
X148493000Y-110162000D01*
X148490000Y-110168000D01*
X148486000Y-110173000D01*
X148482000Y-110179000D01*
X148478000Y-110184000D01*
X148473000Y-110188000D01*
X148469000Y-110193000D01*
X148464000Y-110197000D01*
X148458000Y-110201000D01*
X148453000Y-110205000D01*
X148448000Y-110208000D01*
X148442000Y-110211000D01*
X148436000Y-110214000D01*
X148430000Y-110217000D01*
X148424000Y-110219000D01*
X148417000Y-110221000D01*
X148411000Y-110222000D01*
X148405000Y-110223000D01*
X148398000Y-110224000D01*
X148392000Y-110225000D01*
X148385000Y-110225000D01*
X147945000Y-110225000D01*
X147938000Y-110225000D01*
X147932000Y-110224000D01*
X147925000Y-110223000D01*
X147919000Y-110222000D01*
X147913000Y-110221000D01*
X147906000Y-110219000D01*
X147900000Y-110217000D01*
X147894000Y-110214000D01*
X147888000Y-110211000D01*
X147882000Y-110208000D01*
X147877000Y-110205000D01*
X147872000Y-110201000D01*
X147866000Y-110197000D01*
X147861000Y-110193000D01*
X147857000Y-110188000D01*
X147852000Y-110184000D01*
X147848000Y-110179000D01*
X147844000Y-110173000D01*
X147840000Y-110168000D01*
X147837000Y-110162000D01*
X147834000Y-110157000D01*
X147831000Y-110151000D01*
X147828000Y-110145000D01*
X147826000Y-110139000D01*
X147824000Y-110132000D01*
X147823000Y-110126000D01*
X147822000Y-110120000D01*
X147821000Y-110113000D01*
X147820000Y-110107000D01*
X147820000Y-110100000D01*
X147820000Y-109900000D01*
X147820000Y-109893000D01*
X147821000Y-109887000D01*
X147822000Y-109880000D01*
X147823000Y-109874000D01*
X147824000Y-109868000D01*
X147826000Y-109861000D01*
X147828000Y-109855000D01*
X147831000Y-109849000D01*
X147834000Y-109843000D01*
X147837000Y-109838000D01*
X147840000Y-109832000D01*
X147844000Y-109827000D01*
X147848000Y-109821000D01*
X147852000Y-109816000D01*
X147857000Y-109812000D01*
X147861000Y-109807000D01*
X147866000Y-109803000D01*
X147872000Y-109799000D01*
X147877000Y-109795000D01*
X147882000Y-109792000D01*
X147888000Y-109789000D01*
X147894000Y-109786000D01*
X147900000Y-109783000D01*
X147906000Y-109781000D01*
X147913000Y-109779000D01*
X147919000Y-109778000D01*
X147925000Y-109777000D01*
X147932000Y-109776000D01*
X147938000Y-109775000D01*
X147945000Y-109775000D01*
X148385000Y-109775000D01*
X148392000Y-109775000D01*
X148398000Y-109776000D01*
G37*
%TD*%
D11*
%TO.C,C13*%
X143250000Y-107975000D03*
X143250000Y-109525000D03*
%TD*%
D12*
%TO.C,C17*%
X156275000Y-112500000D03*
X154725000Y-112500000D03*
%TD*%
D13*
%TO.C,C21*%
X138500000Y-127525000D03*
X138500000Y-125975000D03*
%TD*%
D14*
%TO.C,U4*%
X141100000Y-126450000D03*
X141100000Y-128750000D03*
D15*
X147400000Y-128750000D03*
D14*
X141100000Y-131050000D03*
%TD*%
D16*
%TO.C,C23*%
X137725000Y-88000000D03*
X139275000Y-88000000D03*
%TD*%
D17*
%TO.C,Y2*%
X132699900Y-101895100D03*
X132699900Y-104104900D03*
X134300100Y-104104900D03*
X134300100Y-101895100D03*
%TD*%
D18*
%TO.C,J3*%
X147000000Y-139025000D03*
D19*
X144460000Y-139025000D03*
X141920000Y-139025000D03*
X139380000Y-139025000D03*
%TD*%
D12*
%TO.C,C3*%
X138575000Y-94500000D03*
X137025000Y-94500000D03*
%TD*%
D20*
%TO.C,R2*%
X140000000Y-92075000D03*
X140000000Y-90425000D03*
%TD*%
D21*
%TO.C,M2*%
X160000000Y-88000000D03*
X160000000Y-127500000D03*
%TD*%
D13*
%TO.C,C22*%
X138500000Y-131275000D03*
X138500000Y-129725000D03*
%TD*%
D22*
%TO.C,SW1*%
X141250000Y-134750000D03*
D23*
X143750000Y-134750000D03*
X146250000Y-134750000D03*
%TD*%
D24*
%TO.C,SW3*%
X127650000Y-89750000D03*
X126350000Y-89750000D03*
%TD*%
D18*
%TO.C,J12*%
X152050000Y-73025000D03*
D19*
X149510000Y-73025000D03*
X146970000Y-73025000D03*
X144430000Y-73025000D03*
X141890000Y-73025000D03*
%TD*%
D12*
%TO.C,C19*%
X139525000Y-117500000D03*
X137975000Y-117500000D03*
%TD*%
D11*
%TO.C,C16*%
X156250000Y-107975000D03*
X156250000Y-109525000D03*
%TD*%
D12*
%TO.C,C7*%
X134525000Y-98500000D03*
X132975000Y-98500000D03*
%TD*%
D18*
%TO.C,J6*%
X167290000Y-90975000D03*
D19*
X164750000Y-90975000D03*
X167290000Y-93515000D03*
X164750000Y-93515000D03*
X167290000Y-96055000D03*
X164750000Y-96055000D03*
%TD*%
D12*
%TO.C,C9*%
X138575000Y-102750000D03*
X137025000Y-102750000D03*
%TD*%
%TO.C,C6*%
X138525000Y-97250000D03*
X136975000Y-97250000D03*
%TD*%
D25*
%TO.C,J11*%
X135250000Y-138800000D03*
D26*
X133250000Y-138800000D03*
%TD*%
D12*
%TO.C,C20*%
X139525000Y-120250000D03*
X137975000Y-120250000D03*
%TD*%
D21*
%TO.C,M1*%
X134000000Y-88000000D03*
X134000000Y-127500000D03*
%TD*%
D11*
%TO.C,C12*%
X137750000Y-107975000D03*
X137750000Y-109525000D03*
%TD*%
D12*
%TO.C,C4*%
X156975000Y-95500000D03*
X155425000Y-95500000D03*
%TD*%
D25*
%TO.C,J10*%
X135250000Y-133550000D03*
D26*
X133250000Y-133550000D03*
%TD*%
D11*
%TO.C,C15*%
X153500000Y-107975000D03*
X153500000Y-109525000D03*
%TD*%
D16*
%TO.C,C10*%
X155225000Y-105250000D03*
X156775000Y-105250000D03*
%TD*%
D12*
%TO.C,C5*%
X131275000Y-95750000D03*
X129725000Y-95750000D03*
%TD*%
D27*
%TO.C,R4*%
X140500000Y-107925000D03*
X140500000Y-109575000D03*
%TD*%
D28*
%TO.C,Y1*%
X134000000Y-95922400D03*
X134000000Y-93077600D03*
%TD*%
D29*
%TO.C,SW2*%
X150186000Y-78190000D03*
X150186000Y-79460000D03*
X150186000Y-80730000D03*
X150186000Y-82000000D03*
X158314000Y-82000000D03*
X158314000Y-80730000D03*
X158314000Y-79460000D03*
X158314000Y-78190000D03*
%TD*%
D12*
%TO.C,C18*%
X156275000Y-115250000D03*
X154725000Y-115250000D03*
%TD*%
D11*
%TO.C,C14*%
X150750000Y-107975000D03*
X150750000Y-109525000D03*
%TD*%
D18*
%TO.C,J7*%
X143200000Y-86960000D03*
D19*
X143200000Y-89500000D03*
X145740000Y-86960000D03*
X145740000Y-89500000D03*
X148280000Y-86960000D03*
X148280000Y-89500000D03*
X150820000Y-86960000D03*
X150820000Y-89500000D03*
%TD*%
D12*
%TO.C,C11*%
X134525000Y-106750000D03*
X132975000Y-106750000D03*
%TD*%
D30*
%TO.C,R6*%
X146175000Y-77000000D03*
X147825000Y-77000000D03*
%TD*%
D31*
%TO.C,R3*%
X157075000Y-92750000D03*
X155425000Y-92750000D03*
%TD*%
D32*
%TO.C,U1*%
X141325000Y-95850000D03*
X141325000Y-96350000D03*
X141325000Y-96850000D03*
X141325000Y-97350000D03*
X141325000Y-97850000D03*
X141325000Y-98350000D03*
X141325000Y-98850000D03*
X141325000Y-99350000D03*
X141325000Y-99850000D03*
X141325000Y-100350000D03*
X141325000Y-100850000D03*
X141325000Y-101350000D03*
X141325000Y-101850000D03*
X141325000Y-102350000D03*
X141325000Y-102850000D03*
X141325000Y-103350000D03*
D33*
X143250000Y-105275000D03*
X143750000Y-105275000D03*
X144250000Y-105275000D03*
X144750000Y-105275000D03*
X145250000Y-105275000D03*
X145750000Y-105275000D03*
X146250000Y-105275000D03*
X147750000Y-105275000D03*
X148250000Y-105275000D03*
X148750000Y-105275000D03*
X149250000Y-105275000D03*
X149750000Y-105275000D03*
X150250000Y-105275000D03*
X150750000Y-105275000D03*
D32*
X152675000Y-103350000D03*
X152675000Y-102850000D03*
X152675000Y-102350000D03*
X152675000Y-101850000D03*
X152675000Y-101350000D03*
X152675000Y-100850000D03*
X152675000Y-100350000D03*
X152675000Y-99850000D03*
X152675000Y-99350000D03*
X152675000Y-98850000D03*
X152675000Y-98350000D03*
X152675000Y-97850000D03*
X152675000Y-97350000D03*
X152675000Y-96850000D03*
X152675000Y-96350000D03*
X152675000Y-95850000D03*
D33*
X150750000Y-93925000D03*
X150250000Y-93925000D03*
X149750000Y-93925000D03*
X149250000Y-93925000D03*
X148750000Y-93925000D03*
X148250000Y-93925000D03*
X147750000Y-93925000D03*
X147250000Y-93925000D03*
X146750000Y-93925000D03*
X146250000Y-93925000D03*
X145750000Y-93925000D03*
X145250000Y-93925000D03*
X144750000Y-93925000D03*
X144250000Y-93925000D03*
X143750000Y-93925000D03*
X143250000Y-93925000D03*
%TD*%
D20*
%TO.C,R5*%
X153000000Y-139325000D03*
X153000000Y-137675000D03*
%TD*%
D18*
%TO.C,J1*%
X134025000Y-60675000D03*
D19*
X134025000Y-63215000D03*
X134025000Y-65755000D03*
X134025000Y-68295000D03*
X134025000Y-70835000D03*
X134025000Y-73375000D03*
%TD*%
D34*
%TO.C,D3*%
X156000000Y-139287500D03*
X156000000Y-137712500D03*
%TD*%
D18*
%TO.C,J2*%
X153325000Y-67025000D03*
D19*
X150785000Y-67025000D03*
X148245000Y-67025000D03*
X145705000Y-67025000D03*
X143165000Y-67025000D03*
X140625000Y-67025000D03*
%TD*%
D12*
%TO.C,C2*%
X131275000Y-93000000D03*
X129725000Y-93000000D03*
%TD*%
D30*
%TO.C,R1*%
X129675000Y-90250000D03*
X131325000Y-90250000D03*
%TD*%
D18*
%TO.C,J5*%
X136200000Y-79975000D03*
D19*
X138740000Y-79975000D03*
X141280000Y-79975000D03*
X143820000Y-79975000D03*
%TD*%
D35*
%TO.C,J13*%
X160500000Y-139250000D03*
X160500000Y-137750000D03*
X160500000Y-136250001D03*
X160500000Y-134749999D03*
X160500000Y-133249999D03*
X160500000Y-131750000D03*
%TD*%
D36*
%TO.C,D1*%
X128712500Y-87000000D03*
X130287500Y-87000000D03*
%TD*%
D35*
%TO.C,J9*%
X155000000Y-127500000D03*
X155000000Y-129000000D03*
X155000000Y-130499999D03*
X155000000Y-132000001D03*
X155000000Y-133500001D03*
X155000000Y-135000000D03*
%TD*%
D13*
%TO.C,C1*%
X137000000Y-92025000D03*
X137000000Y-90475000D03*
%TD*%
D37*
%TO.C,FB1*%
X134537500Y-109500000D03*
X132962500Y-109500000D03*
%TD*%
D18*
%TO.C,J4*%
X159975000Y-73325000D03*
D19*
X159975000Y-70785000D03*
X159975000Y-68245000D03*
X159975000Y-65705000D03*
X159975000Y-63165000D03*
X159975000Y-60625000D03*
%TD*%
D37*
%TO.C,D2*%
X165287500Y-87000000D03*
X163712500Y-87000000D03*
%TD*%
D38*
%TO.C,U3*%
X142345000Y-112285000D03*
X142345000Y-113555000D03*
X142345000Y-114825000D03*
X142345000Y-116095000D03*
X142345000Y-117365000D03*
X142345000Y-118635000D03*
X142345000Y-119905000D03*
X142345000Y-121175000D03*
X142345000Y-122445000D03*
X142345000Y-123715000D03*
X151655000Y-123715000D03*
X151655000Y-122445000D03*
X151655000Y-121175000D03*
X151655000Y-119905000D03*
X151655000Y-118635000D03*
X151655000Y-117365000D03*
X151655000Y-116095000D03*
X151655000Y-114825000D03*
X151655000Y-113555000D03*
X151655000Y-112285000D03*
%TD*%
D18*
%TO.C,J8*%
X127000000Y-96500000D03*
D19*
X127000000Y-93960000D03*
%TD*%
D12*
%TO.C,C8*%
X138575000Y-100000000D03*
X137025000Y-100000000D03*
%TD*%
D18*
%TO.C,J15*%
X167275000Y-62975001D03*
D19*
X164735000Y-62975001D03*
X167275000Y-65515001D03*
X164735000Y-65515001D03*
X167275000Y-68055001D03*
X164735000Y-68055001D03*
%TD*%
D18*
%TO.C,J14*%
X143200000Y-58975001D03*
D19*
X143200000Y-61515001D03*
X145740000Y-58975001D03*
X145740000Y-61515001D03*
X148280000Y-58975001D03*
X148280000Y-61515001D03*
X150820000Y-58975001D03*
X150820000Y-61515001D03*
%TD*%
D18*
%TO.C,J16*%
X127000000Y-68500000D03*
D19*
X127000000Y-65960000D03*
%TD*%
M02*
