%TF.GenerationSoftware,KiCad,Pcbnew,7.0.9*%
%TF.CreationDate,2024-02-03T23:12:41-08:00*%
%TF.ProjectId,micromouse,6d696372-6f6d-46f7-9573-652e6b696361,rev?*%
%TF.SameCoordinates,Original*%
%TF.FileFunction,Copper,L2,Bot*%
%TF.FilePolarity,Positive*%
%FSLAX46Y46*%
G04 Gerber Fmt 4.6, Leading zero omitted, Abs format (unit mm)*
G04 Created by KiCad (PCBNEW 7.0.9) date 2024-02-03 23:12:41*
%MOMM*%
%LPD*%
G01*
G04 APERTURE LIST*
%TA.AperFunction,ComponentPad*%
%ADD10R,1.700000X1.700000*%
%TD*%
%TA.AperFunction,ComponentPad*%
%ADD11O,1.700000X1.700000*%
%TD*%
%TA.AperFunction,ComponentPad*%
%ADD12R,1.900000X1.900000*%
%TD*%
%TA.AperFunction,ComponentPad*%
%ADD13C,1.900000*%
%TD*%
%TA.AperFunction,ComponentPad*%
%ADD14R,1.368000X1.368000*%
%TD*%
%TA.AperFunction,ComponentPad*%
%ADD15C,1.368000*%
%TD*%
%TA.AperFunction,ComponentPad*%
%ADD16C,1.244600*%
%TD*%
%TA.AperFunction,SMDPad,CuDef*%
%ADD17C,1.270000*%
%TD*%
%TA.AperFunction,ViaPad*%
%ADD18C,0.800000*%
%TD*%
%TA.AperFunction,Conductor*%
%ADD19C,1.270000*%
%TD*%
%TA.AperFunction,Conductor*%
%ADD20C,0.635000*%
%TD*%
%TA.AperFunction,Conductor*%
%ADD21C,0.250000*%
%TD*%
%TA.AperFunction,Conductor*%
%ADD22C,0.254000*%
%TD*%
G04 APERTURE END LIST*
%TA.AperFunction,EtchedComponent*%
%TO.C,NT2*%
G36*
X136656120Y-130241906D02*
G01*
X135241906Y-131656120D01*
X134343880Y-130758094D01*
X135758094Y-129343880D01*
X136656120Y-130241906D01*
G37*
%TD.AperFunction*%
%TD*%
D10*
%TO.P,J3,1*%
%TO.N,SWCLK*%
X147000000Y-139025000D03*
D11*
%TO.P,J3,2*%
%TO.N,GND*%
X144460000Y-139025000D03*
%TO.P,J3,3*%
%TO.N,SWDIO*%
X141920000Y-139025000D03*
%TO.P,J3,4*%
%TO.N,NRST*%
X139380000Y-139025000D03*
%TD*%
D12*
%TO.P,SW1,1*%
%TO.N,Net-(J11-Pad1)*%
X141250000Y-134750000D03*
D13*
%TO.P,SW1,2*%
%TO.N,+BATT*%
X143750000Y-134750000D03*
%TO.P,SW1,3*%
%TO.N,unconnected-(SW1-Pad3)*%
X146250000Y-134750000D03*
%TD*%
D10*
%TO.P,J12,1*%
%TO.N,/Breakout Board/+3.3V*%
X152050000Y-73025000D03*
D11*
%TO.P,J12,2*%
%TO.N,GND*%
X149510000Y-73025000D03*
%TO.P,J12,3*%
%TO.N,/Breakout Board/GPIO1*%
X146970000Y-73025000D03*
%TO.P,J12,4*%
%TO.N,/Breakout Board/GPIO2*%
X144430000Y-73025000D03*
%TO.P,J12,5*%
%TO.N,/Breakout Board/GPIO3*%
X141890000Y-73025000D03*
%TD*%
D10*
%TO.P,J6,1*%
%TO.N,USART_RX*%
X167290000Y-90975000D03*
D11*
%TO.P,J6,2*%
%TO.N,USART_TX*%
X164750000Y-90975000D03*
%TO.P,J6,3*%
%TO.N,DEBUG3*%
X167290000Y-93515000D03*
%TO.P,J6,4*%
%TO.N,DEBUG4*%
X164750000Y-93515000D03*
%TO.P,J6,5*%
%TO.N,DEBUG1*%
X167290000Y-96055000D03*
%TO.P,J6,6*%
%TO.N,DEBUG2*%
X164750000Y-96055000D03*
%TD*%
D14*
%TO.P,J11,1,1*%
%TO.N,Net-(J11-Pad1)*%
X135250000Y-138800000D03*
D15*
%TO.P,J11,2,2*%
%TO.N,Net-(J10-Pad1)*%
X133250000Y-138800000D03*
%TD*%
D14*
%TO.P,J10,1,1*%
%TO.N,Net-(J10-Pad1)*%
X135250000Y-133550000D03*
D15*
%TO.P,J10,2,2*%
%TO.N,GND*%
X133250000Y-133550000D03*
%TD*%
D10*
%TO.P,J7,1*%
%TO.N,/SCL*%
X143200000Y-86960000D03*
D11*
%TO.P,J7,2*%
%TO.N,/SDA*%
X143200000Y-89500000D03*
%TO.P,J7,3*%
%TO.N,/SHDN2*%
X145740000Y-86960000D03*
%TO.P,J7,4*%
%TO.N,/SHDN1*%
X145740000Y-89500000D03*
%TO.P,J7,5*%
%TO.N,GPIO3*%
X148280000Y-86960000D03*
%TO.P,J7,6*%
%TO.N,/SHDN3*%
X148280000Y-89500000D03*
%TO.P,J7,7*%
%TO.N,GPIO1*%
X150820000Y-86960000D03*
%TO.P,J7,8*%
%TO.N,GPIO2*%
X150820000Y-89500000D03*
%TD*%
D10*
%TO.P,J1,1*%
%TO.N,/Breakout Board/+3.3V*%
X134025000Y-60675000D03*
D11*
%TO.P,J1,2*%
%TO.N,GND*%
X134025000Y-63215000D03*
%TO.P,J1,3*%
%TO.N,/Breakout Board/SCL*%
X134025000Y-65755000D03*
%TO.P,J1,4*%
%TO.N,/Breakout Board/SDA*%
X134025000Y-68295000D03*
%TO.P,J1,5*%
%TO.N,unconnected-(J1-Pad5)*%
X134025000Y-70835000D03*
%TO.P,J1,6*%
%TO.N,/Breakout Board/SHDN1*%
X134025000Y-73375000D03*
%TD*%
D10*
%TO.P,J2,1*%
%TO.N,/Breakout Board/+3.3V*%
X153325000Y-67025000D03*
D11*
%TO.P,J2,2*%
%TO.N,GND*%
X150785000Y-67025000D03*
%TO.P,J2,3*%
%TO.N,/Breakout Board/SCL*%
X148245000Y-67025000D03*
%TO.P,J2,4*%
%TO.N,/Breakout Board/SDA*%
X145705000Y-67025000D03*
%TO.P,J2,5*%
%TO.N,unconnected-(J2-Pad5)*%
X143165000Y-67025000D03*
%TO.P,J2,6*%
%TO.N,/Breakout Board/SHDN2*%
X140625000Y-67025000D03*
%TD*%
D10*
%TO.P,J5,1*%
%TO.N,/Breakout Board/+3.3V*%
X136200000Y-79975000D03*
D11*
%TO.P,J5,2*%
%TO.N,GND*%
X138740000Y-79975000D03*
%TO.P,J5,3*%
%TO.N,/Breakout Board/USART_RX*%
X141280000Y-79975000D03*
%TO.P,J5,4*%
%TO.N,/Breakout Board/USART_TX*%
X143820000Y-79975000D03*
%TD*%
D16*
%TO.P,J13,1,1*%
%TO.N,MR2*%
X160500000Y-139250000D03*
%TO.P,J13,2,2*%
%TO.N,+3.3V*%
X160500000Y-137750000D03*
%TO.P,J13,3,3*%
%TO.N,ER2*%
X160500000Y-136250001D03*
%TO.P,J13,4,4*%
%TO.N,ER1*%
X160500000Y-134749999D03*
%TO.P,J13,5,5*%
%TO.N,GND*%
X160500000Y-133249999D03*
%TO.P,J13,6,6*%
%TO.N,MR1*%
X160500000Y-131750000D03*
%TD*%
%TO.P,J9,1,1*%
%TO.N,ML2*%
X155000000Y-127500000D03*
%TO.P,J9,2,2*%
%TO.N,+3.3V*%
X155000000Y-129000000D03*
%TO.P,J9,3,3*%
%TO.N,EL2*%
X155000000Y-130499999D03*
%TO.P,J9,4,4*%
%TO.N,EL1*%
X155000000Y-132000001D03*
%TO.P,J9,5,5*%
%TO.N,GND*%
X155000000Y-133500001D03*
%TO.P,J9,6,6*%
%TO.N,ML1*%
X155000000Y-135000000D03*
%TD*%
D10*
%TO.P,J4,1*%
%TO.N,/Breakout Board/+3.3V*%
X159975000Y-73325000D03*
D11*
%TO.P,J4,2*%
%TO.N,GND*%
X159975000Y-70785000D03*
%TO.P,J4,3*%
%TO.N,/Breakout Board/SCL*%
X159975000Y-68245000D03*
%TO.P,J4,4*%
%TO.N,/Breakout Board/SDA*%
X159975000Y-65705000D03*
%TO.P,J4,5*%
%TO.N,unconnected-(J4-Pad5)*%
X159975000Y-63165000D03*
%TO.P,J4,6*%
%TO.N,/Breakout Board/SHDN3*%
X159975000Y-60625000D03*
%TD*%
D10*
%TO.P,J8,1*%
%TO.N,+3.3V*%
X127000000Y-96500000D03*
D11*
%TO.P,J8,2*%
%TO.N,GND*%
X127000000Y-93960000D03*
%TD*%
D10*
%TO.P,J15,1*%
%TO.N,/Breakout Board/USART_RX*%
X167275000Y-62975001D03*
D11*
%TO.P,J15,2*%
%TO.N,/Breakout Board/USART_TX*%
X164735000Y-62975001D03*
%TO.P,J15,3*%
%TO.N,/Breakout Board/DEBUG3*%
X167275000Y-65515001D03*
%TO.P,J15,4*%
%TO.N,/Breakout Board/DEBUG4*%
X164735000Y-65515001D03*
%TO.P,J15,5*%
%TO.N,/Breakout Board/DEBUG1*%
X167275000Y-68055001D03*
%TO.P,J15,6*%
%TO.N,/Breakout Board/DEBUG2*%
X164735000Y-68055001D03*
%TD*%
D17*
%TO.P,NT2,1,1*%
%TO.N,GND*%
X134792893Y-131207107D03*
%TO.P,NT2,2,2*%
%TO.N,GND1*%
X136207107Y-129792893D03*
%TD*%
D10*
%TO.P,J14,1*%
%TO.N,/Breakout Board/SCL*%
X143200000Y-58975001D03*
D11*
%TO.P,J14,2*%
%TO.N,/Breakout Board/SDA*%
X143200000Y-61515001D03*
%TO.P,J14,3*%
%TO.N,/Breakout Board/SHDN2*%
X145740000Y-58975001D03*
%TO.P,J14,4*%
%TO.N,/Breakout Board/SHDN1*%
X145740000Y-61515001D03*
%TO.P,J14,5*%
%TO.N,/Breakout Board/GPIO3*%
X148280000Y-58975001D03*
%TO.P,J14,6*%
%TO.N,/Breakout Board/SHDN3*%
X148280000Y-61515001D03*
%TO.P,J14,7*%
%TO.N,/Breakout Board/GPIO1*%
X150820000Y-58975001D03*
%TO.P,J14,8*%
%TO.N,/Breakout Board/GPIO2*%
X150820000Y-61515001D03*
%TD*%
D10*
%TO.P,J16,1*%
%TO.N,/Breakout Board/+3.3V*%
X127000000Y-68500000D03*
D11*
%TO.P,J16,2*%
%TO.N,GND*%
X127000000Y-65960000D03*
%TD*%
D18*
%TO.N,GND*%
X145000000Y-130500000D03*
X144000000Y-130500000D03*
X145000000Y-131500000D03*
X146000000Y-102500000D03*
X135750000Y-105750000D03*
X144000000Y-100500000D03*
X146000000Y-100500000D03*
X146000000Y-98500000D03*
X148000000Y-102500000D03*
X148000000Y-100500000D03*
X145000000Y-126500000D03*
X144000000Y-131500000D03*
X145000000Y-125500000D03*
X149500000Y-108000000D03*
X148000000Y-96500000D03*
X137000000Y-111500000D03*
X144000000Y-102500000D03*
X150000000Y-102500000D03*
X137000000Y-112500000D03*
X150000000Y-100500000D03*
X148000000Y-98500000D03*
X146000000Y-96500000D03*
X144000000Y-125500000D03*
X144000000Y-126500000D03*
%TO.N,+3.3V*%
X154500000Y-109525000D03*
X151250000Y-132000000D03*
X153250000Y-105250000D03*
X154750000Y-123750000D03*
X149750000Y-129000000D03*
X135000000Y-113000000D03*
X144000000Y-96500000D03*
X153881250Y-94131250D03*
%TO.N,GND1*%
X146000000Y-118500000D03*
X148000000Y-116500000D03*
X148000000Y-115500000D03*
X147000000Y-115500000D03*
X147000000Y-114500000D03*
X147000000Y-119500000D03*
X145000000Y-118500000D03*
X146000000Y-114500000D03*
X146000000Y-119500000D03*
X145000000Y-117500000D03*
%TO.N,EL2*%
X155000622Y-100599502D03*
%TO.N,EL1*%
X156000000Y-100599503D03*
%TO.N,ER2*%
X156000000Y-99600000D03*
%TO.N,ER1*%
X155000000Y-99600000D03*
%TO.N,SWCLK*%
X150000000Y-96500000D03*
%TO.N,SWDIO*%
X150000000Y-98500000D03*
%TO.N,NRST*%
X144000000Y-98500000D03*
%TO.N,Net-(U1-BOOT0)*%
X145750000Y-91750000D03*
X142976500Y-91750000D03*
%TO.N,HL1*%
X138750000Y-105250000D03*
X139750000Y-113555000D03*
%TO.N,HR1*%
X139750000Y-105250000D03*
X149250000Y-121000000D03*
%TO.N,HL2*%
X139750000Y-122445000D03*
X137750000Y-105250000D03*
%TO.N,HR2*%
X141750000Y-105250000D03*
X149250000Y-113500000D03*
%TD*%
D19*
%TO.N,GND*%
X134792893Y-131207107D02*
X133250000Y-132750000D01*
X133250000Y-132750000D02*
X133250000Y-133550000D01*
D20*
%TO.N,+3.3V*%
X151250000Y-130500000D02*
X151250000Y-132000000D01*
X149750000Y-129000000D02*
X155000000Y-129000000D01*
X151250000Y-133750000D02*
X155250000Y-137750000D01*
X134000000Y-112000000D02*
X134000000Y-99500000D01*
D21*
X137000000Y-96500000D02*
X144000000Y-96500000D01*
X134000000Y-99500000D02*
X137000000Y-96500000D01*
D22*
X151250000Y-130500000D02*
X151047187Y-130297187D01*
D20*
X154750000Y-109775000D02*
X154500000Y-109525000D01*
X149750000Y-128750000D02*
X154750000Y-123750000D01*
X149750000Y-129000000D02*
X149750000Y-128750000D01*
X155250000Y-137750000D02*
X160500000Y-137750000D01*
D21*
X153250000Y-94762500D02*
X153881250Y-94131250D01*
D20*
X149750000Y-129000000D02*
X151250000Y-130500000D01*
D21*
X134000000Y-102500000D02*
X134000000Y-99500000D01*
D20*
X154750000Y-123750000D02*
X154750000Y-111000000D01*
X153250000Y-105250000D02*
X154750000Y-106750000D01*
D21*
X153250000Y-105250000D02*
X153250000Y-94762500D01*
D20*
X154750000Y-111000000D02*
X154750000Y-109775000D01*
X135000000Y-113000000D02*
X134000000Y-112000000D01*
X131000000Y-96500000D02*
X127000000Y-96500000D01*
X151250000Y-132000000D02*
X151250000Y-133750000D01*
X154750000Y-106750000D02*
X154750000Y-111000000D01*
X134000000Y-99500000D02*
X131000000Y-96500000D01*
D19*
%TO.N,GND1*%
X145000000Y-118500000D02*
X146000000Y-118500000D01*
X146000000Y-119500000D02*
X145000000Y-118500000D01*
X146000000Y-120000000D02*
X146000000Y-119500000D01*
X136207107Y-129792893D02*
X146000000Y-120000000D01*
D21*
%TO.N,EL2*%
X156000000Y-129499999D02*
X155000000Y-130499999D01*
X155000622Y-100775927D02*
X156000000Y-101775305D01*
X156000000Y-101775305D02*
X156000000Y-129499999D01*
X155000622Y-100599502D02*
X155000622Y-100775927D01*
%TO.N,EL1*%
X156450000Y-101049503D02*
X156450000Y-130550001D01*
X156450000Y-130550001D02*
X155000000Y-132000001D01*
X156000000Y-100599503D02*
X156450000Y-101049503D01*
%TO.N,ER2*%
X156000000Y-99600000D02*
X156409414Y-99600000D01*
X156409414Y-99600000D02*
X156900000Y-100090586D01*
X156900000Y-132650001D02*
X160500000Y-136250001D01*
X156900000Y-100090586D02*
X156900000Y-132650001D01*
%TO.N,ER1*%
X157350000Y-131599999D02*
X160500000Y-134749999D01*
X157350000Y-99904190D02*
X157350000Y-131599999D01*
X155000000Y-99400000D02*
X155525000Y-98875000D01*
X155525000Y-98875000D02*
X156320810Y-98875000D01*
X156320810Y-98875000D02*
X157350000Y-99904190D01*
X155000000Y-99600000D02*
X155000000Y-99400000D01*
%TO.N,/Breakout Board/USART_RX*%
X166100000Y-64150001D02*
X164438299Y-64150001D01*
X161750000Y-74750000D02*
X155350000Y-81150000D01*
X164438299Y-64150001D02*
X161750000Y-66838300D01*
X167275000Y-62975001D02*
X166100000Y-64150001D01*
X161750000Y-66838300D02*
X161750000Y-74750000D01*
X155350000Y-81150000D02*
X142455000Y-81150000D01*
X142455000Y-81150000D02*
X141280000Y-79975000D01*
%TO.N,/Breakout Board/USART_TX*%
X161150000Y-66560001D02*
X161150000Y-74500000D01*
X155675000Y-79975000D02*
X143820000Y-79975000D01*
X161150000Y-74500000D02*
X155675000Y-79975000D01*
X164735000Y-62975001D02*
X161150000Y-66560001D01*
%TO.N,SWCLK*%
X151750000Y-124250000D02*
X148425000Y-127575000D01*
X151750000Y-98250000D02*
X151750000Y-124250000D01*
X150000000Y-96500000D02*
X151750000Y-98250000D01*
X148425000Y-127575000D02*
X148425000Y-137600000D01*
X148425000Y-137600000D02*
X147000000Y-139025000D01*
%TO.N,SWDIO*%
X145975000Y-137500000D02*
X143445000Y-137500000D01*
X143445000Y-137500000D02*
X141920000Y-139025000D01*
X150725000Y-122775000D02*
X147975000Y-125525000D01*
X147975000Y-135500000D02*
X145975000Y-137500000D01*
X147975000Y-125525000D02*
X147975000Y-135500000D01*
X150000000Y-98500000D02*
X150725000Y-99225000D01*
X150725000Y-99225000D02*
X150725000Y-122775000D01*
%TO.N,NRST*%
X144000000Y-98500000D02*
X143275000Y-99225000D01*
X147525000Y-135278123D02*
X145753123Y-137050000D01*
X149975000Y-112838604D02*
X149975000Y-121300305D01*
X141355000Y-137050000D02*
X139380000Y-139025000D01*
X145753123Y-137050000D02*
X141355000Y-137050000D01*
X143275000Y-99225000D02*
X143275000Y-106138604D01*
X147525000Y-123750305D02*
X147525000Y-135278123D01*
X149975000Y-121300305D02*
X147525000Y-123750305D01*
X143275000Y-106138604D02*
X149975000Y-112838604D01*
%TO.N,/Breakout Board/GPIO1*%
X149500000Y-70495000D02*
X149500000Y-64496702D01*
X151995000Y-62001702D02*
X151995000Y-60150001D01*
X149500000Y-64496702D02*
X151995000Y-62001702D01*
X146970000Y-73025000D02*
X149500000Y-70495000D01*
X151995000Y-60150001D02*
X150820000Y-58975001D01*
%TO.N,/Breakout Board/GPIO2*%
X144430000Y-73025000D02*
X147070000Y-70385000D01*
X147070000Y-70385000D02*
X147070000Y-65265001D01*
X147070000Y-65265001D02*
X150820000Y-61515001D01*
%TO.N,/Breakout Board/GPIO3*%
X141890000Y-66638299D02*
X145528299Y-63000000D01*
X147000000Y-60255001D02*
X148280000Y-58975001D01*
X145528299Y-63000000D02*
X145916702Y-63000000D01*
X141890000Y-73025000D02*
X141890000Y-66638299D01*
X145916702Y-63000000D02*
X147000000Y-61916702D01*
X147000000Y-61916702D02*
X147000000Y-60255001D01*
%TO.N,Net-(U1-BOOT0)*%
X145750000Y-91750000D02*
X142976500Y-91750000D01*
%TO.N,HL1*%
X138750000Y-105501988D02*
X138750000Y-105750000D01*
X138750000Y-105750000D02*
X138750000Y-112555000D01*
X138750994Y-105500994D02*
X138750000Y-105501988D01*
X138750000Y-105750000D02*
X138750000Y-105250000D01*
X138750000Y-112555000D02*
X139750000Y-113555000D01*
%TO.N,HR1*%
X149250000Y-121000000D02*
X149250000Y-114750000D01*
X149250000Y-114750000D02*
X139750000Y-105250000D01*
%TO.N,HL2*%
X139750000Y-122445000D02*
X137750000Y-120445000D01*
X137750000Y-120445000D02*
X137750000Y-105250000D01*
%TO.N,HR2*%
X149250000Y-113500000D02*
X149250000Y-112750000D01*
X149250000Y-112750000D02*
X141750000Y-105250000D01*
%TD*%
%TA.AperFunction,Conductor*%
%TO.N,GND1*%
G36*
X144014352Y-110764352D02*
G01*
X144750000Y-111500000D01*
X144750001Y-111500000D01*
X145519378Y-111500000D01*
X145554026Y-111514352D01*
X148910148Y-114870474D01*
X148924500Y-114905122D01*
X148924500Y-120468686D01*
X148910148Y-120503334D01*
X148905330Y-120507560D01*
X148821716Y-120571719D01*
X148725464Y-120697158D01*
X148725461Y-120697163D01*
X148664955Y-120843238D01*
X148644318Y-121000000D01*
X148664955Y-121156761D01*
X148725461Y-121302836D01*
X148725464Y-121302841D01*
X148821718Y-121428282D01*
X148947159Y-121524536D01*
X148947161Y-121524536D01*
X148947163Y-121524538D01*
X149093238Y-121585044D01*
X149115517Y-121587977D01*
X149147996Y-121606728D01*
X149157703Y-121642953D01*
X149143770Y-121671206D01*
X147305648Y-123509330D01*
X147304072Y-123510774D01*
X147271806Y-123537849D01*
X147250743Y-123574329D01*
X147249595Y-123576131D01*
X147225445Y-123610622D01*
X147225444Y-123610622D01*
X147223351Y-123618437D01*
X147218458Y-123630250D01*
X147214414Y-123637255D01*
X147214410Y-123637265D01*
X147207102Y-123678715D01*
X147206639Y-123680802D01*
X147195736Y-123721496D01*
X147195736Y-123721497D01*
X147199407Y-123763457D01*
X147199500Y-123765593D01*
X147199500Y-124451000D01*
X147185148Y-124485648D01*
X147150500Y-124500000D01*
X139270296Y-124500000D01*
X139235648Y-124485648D01*
X137014352Y-122264352D01*
X137000000Y-122229704D01*
X137000000Y-113770296D01*
X137014352Y-113735648D01*
X137340852Y-113409148D01*
X137375500Y-113394796D01*
X137410148Y-113409148D01*
X137424500Y-113443796D01*
X137424500Y-120429710D01*
X137424407Y-120431846D01*
X137420736Y-120473807D01*
X137431637Y-120514493D01*
X137432100Y-120516580D01*
X137439411Y-120558044D01*
X137439412Y-120558046D01*
X137443455Y-120565048D01*
X137448351Y-120576867D01*
X137450445Y-120584682D01*
X137450444Y-120584682D01*
X137474601Y-120619182D01*
X137475750Y-120620985D01*
X137496804Y-120657453D01*
X137496806Y-120657455D01*
X137529072Y-120684530D01*
X137530649Y-120685975D01*
X139144141Y-122299467D01*
X139158493Y-122334115D01*
X139158074Y-122340511D01*
X139144318Y-122444999D01*
X139164955Y-122601761D01*
X139225461Y-122747836D01*
X139225464Y-122747841D01*
X139236216Y-122761854D01*
X139321718Y-122873282D01*
X139447159Y-122969536D01*
X139447161Y-122969536D01*
X139447163Y-122969538D01*
X139490419Y-122987455D01*
X139593238Y-123030044D01*
X139750000Y-123050682D01*
X139906762Y-123030044D01*
X140052841Y-122969536D01*
X140178282Y-122873282D01*
X140274536Y-122747841D01*
X140335044Y-122601762D01*
X140355682Y-122445000D01*
X140335044Y-122288238D01*
X140325150Y-122264352D01*
X140274538Y-122142163D01*
X140274535Y-122142158D01*
X140178282Y-122016718D01*
X140178281Y-122016717D01*
X140052841Y-121920464D01*
X140052836Y-121920461D01*
X139906761Y-121859955D01*
X139770637Y-121842034D01*
X139750000Y-121839318D01*
X139749999Y-121839318D01*
X139645511Y-121853074D01*
X139609286Y-121843367D01*
X139604467Y-121839141D01*
X138089852Y-120324526D01*
X138075500Y-120289878D01*
X138075500Y-112694796D01*
X138089852Y-112660148D01*
X138340852Y-112409148D01*
X138375500Y-112394796D01*
X138410148Y-112409148D01*
X138424500Y-112443796D01*
X138424500Y-112539710D01*
X138424407Y-112541846D01*
X138420736Y-112583807D01*
X138431637Y-112624493D01*
X138432100Y-112626580D01*
X138439411Y-112668044D01*
X138439412Y-112668046D01*
X138443455Y-112675048D01*
X138448351Y-112686867D01*
X138450445Y-112694682D01*
X138450444Y-112694682D01*
X138474601Y-112729182D01*
X138475750Y-112730985D01*
X138496804Y-112767453D01*
X138496806Y-112767455D01*
X138529072Y-112794530D01*
X138530649Y-112795975D01*
X139144141Y-113409467D01*
X139158493Y-113444115D01*
X139158074Y-113450511D01*
X139144318Y-113554999D01*
X139164955Y-113711761D01*
X139225461Y-113857836D01*
X139225464Y-113857841D01*
X139296461Y-113950367D01*
X139321718Y-113983282D01*
X139447159Y-114079536D01*
X139447161Y-114079536D01*
X139447163Y-114079538D01*
X139522057Y-114110560D01*
X139593238Y-114140044D01*
X139750000Y-114160682D01*
X139906762Y-114140044D01*
X140052841Y-114079536D01*
X140178282Y-113983282D01*
X140274536Y-113857841D01*
X140335044Y-113711762D01*
X140355682Y-113555000D01*
X140335044Y-113398238D01*
X140274536Y-113252159D01*
X140178282Y-113126718D01*
X140150867Y-113105682D01*
X140052841Y-113030464D01*
X140052836Y-113030461D01*
X139906761Y-112969955D01*
X139770637Y-112952034D01*
X139750000Y-112949318D01*
X139749999Y-112949318D01*
X139645511Y-112963074D01*
X139609286Y-112953367D01*
X139604467Y-112949141D01*
X139089852Y-112434526D01*
X139075500Y-112399878D01*
X139075500Y-111694796D01*
X139089852Y-111660148D01*
X139985648Y-110764352D01*
X140020296Y-110750000D01*
X143979704Y-110750000D01*
X144014352Y-110764352D01*
G37*
%TD.AperFunction*%
%TD*%
%TA.AperFunction,Conductor*%
%TO.N,GND*%
G36*
X162948144Y-57000501D02*
G01*
X163000001Y-57000501D01*
X163497137Y-57018256D01*
X163501535Y-57018571D01*
X163511897Y-57019685D01*
X163993947Y-57071510D01*
X163998297Y-57072136D01*
X164485698Y-57160073D01*
X164489970Y-57161002D01*
X164969864Y-57283487D01*
X164974084Y-57284727D01*
X165443976Y-57441123D01*
X165448115Y-57442667D01*
X165905648Y-57632183D01*
X165909675Y-57634022D01*
X166113366Y-57735982D01*
X166352535Y-57855701D01*
X166356398Y-57857811D01*
X166652905Y-58033736D01*
X166782311Y-58110517D01*
X166786023Y-58112901D01*
X167128044Y-58350371D01*
X167192819Y-58395346D01*
X167196363Y-58397999D01*
X167379583Y-58545646D01*
X167581985Y-58708752D01*
X167585320Y-58711642D01*
X167947772Y-59049098D01*
X167950903Y-59052228D01*
X168288358Y-59414681D01*
X168291250Y-59418018D01*
X168457644Y-59624500D01*
X168602001Y-59803636D01*
X168604654Y-59807181D01*
X168671342Y-59903230D01*
X168887102Y-60213983D01*
X168889482Y-60217687D01*
X169138459Y-60637316D01*
X169142181Y-60643588D01*
X169144303Y-60647474D01*
X169365978Y-61090326D01*
X169367817Y-61094353D01*
X169557333Y-61551886D01*
X169558880Y-61556035D01*
X169715269Y-62025909D01*
X169716516Y-62030155D01*
X169796601Y-62343920D01*
X169838990Y-62509999D01*
X169839931Y-62514325D01*
X169927859Y-63001683D01*
X169928489Y-63006065D01*
X169981428Y-63498466D01*
X169981744Y-63502882D01*
X169999500Y-64000060D01*
X169999500Y-70875501D01*
X169979815Y-70942540D01*
X169927011Y-70988295D01*
X169875500Y-70999501D01*
X163024760Y-70999501D01*
X163024554Y-70999460D01*
X163000000Y-70999460D01*
X162999901Y-70999501D01*
X162999617Y-70999617D01*
X162999615Y-70999619D01*
X162999459Y-71000000D01*
X162999476Y-71024617D01*
X162999471Y-71024617D01*
X162999500Y-71024760D01*
X162999500Y-83876000D01*
X162979815Y-83943039D01*
X162927011Y-83988794D01*
X162875500Y-84000000D01*
X162025967Y-84000000D01*
X162023247Y-83999459D01*
X161975446Y-83999459D01*
X161975240Y-83999500D01*
X161024760Y-83999500D01*
X161024554Y-83999459D01*
X160976753Y-83999459D01*
X160974033Y-84000000D01*
X160025967Y-84000000D01*
X160023247Y-83999459D01*
X159975446Y-83999459D01*
X159975240Y-83999500D01*
X159024760Y-83999500D01*
X159024554Y-83999459D01*
X158976753Y-83999459D01*
X158974033Y-84000000D01*
X158025967Y-84000000D01*
X158023247Y-83999459D01*
X157975446Y-83999459D01*
X157975240Y-83999500D01*
X157024760Y-83999500D01*
X157024554Y-83999459D01*
X156976753Y-83999459D01*
X156974033Y-84000000D01*
X156025967Y-84000000D01*
X156023247Y-83999459D01*
X155975446Y-83999459D01*
X155975240Y-83999500D01*
X155024760Y-83999500D01*
X155024554Y-83999459D01*
X154976753Y-83999459D01*
X154974033Y-84000000D01*
X154025967Y-84000000D01*
X154023247Y-83999459D01*
X153975446Y-83999459D01*
X153975240Y-83999500D01*
X153024760Y-83999500D01*
X153024554Y-83999459D01*
X152976753Y-83999459D01*
X152974033Y-84000000D01*
X152025967Y-84000000D01*
X152023247Y-83999459D01*
X151975446Y-83999459D01*
X151975240Y-83999500D01*
X151024760Y-83999500D01*
X151024554Y-83999459D01*
X150976753Y-83999459D01*
X150974033Y-84000000D01*
X150025967Y-84000000D01*
X150023247Y-83999459D01*
X149975446Y-83999459D01*
X149975240Y-83999500D01*
X149024760Y-83999500D01*
X149024554Y-83999459D01*
X148976753Y-83999459D01*
X148974033Y-84000000D01*
X148025967Y-84000000D01*
X148023247Y-83999459D01*
X147975446Y-83999459D01*
X147975240Y-83999500D01*
X146024760Y-83999500D01*
X146024554Y-83999459D01*
X145976753Y-83999459D01*
X145974033Y-84000000D01*
X145025967Y-84000000D01*
X145023247Y-83999459D01*
X144975446Y-83999459D01*
X144975240Y-83999500D01*
X144024760Y-83999500D01*
X144024554Y-83999459D01*
X143976753Y-83999459D01*
X143974033Y-84000000D01*
X143025967Y-84000000D01*
X143023247Y-83999459D01*
X142975446Y-83999459D01*
X142975240Y-83999500D01*
X142024760Y-83999500D01*
X142024554Y-83999459D01*
X141976753Y-83999459D01*
X141974033Y-84000000D01*
X141025967Y-84000000D01*
X141023247Y-83999459D01*
X140975446Y-83999459D01*
X140975240Y-83999500D01*
X140024760Y-83999500D01*
X140024554Y-83999459D01*
X139976753Y-83999459D01*
X139974033Y-84000000D01*
X139025967Y-84000000D01*
X139023247Y-83999459D01*
X138975446Y-83999459D01*
X138975240Y-83999500D01*
X138024760Y-83999500D01*
X138024554Y-83999459D01*
X137976753Y-83999459D01*
X137974033Y-84000000D01*
X137025967Y-84000000D01*
X137023247Y-83999459D01*
X136975446Y-83999459D01*
X136975240Y-83999500D01*
X136024760Y-83999500D01*
X136024554Y-83999459D01*
X135976753Y-83999459D01*
X135974033Y-84000000D01*
X135025967Y-84000000D01*
X135023247Y-83999459D01*
X134975446Y-83999459D01*
X134975240Y-83999500D01*
X134024760Y-83999500D01*
X134024554Y-83999459D01*
X133976753Y-83999459D01*
X133974033Y-84000000D01*
X133025967Y-84000000D01*
X133023247Y-83999459D01*
X132975446Y-83999459D01*
X132975240Y-83999500D01*
X132024760Y-83999500D01*
X132024554Y-83999459D01*
X131976753Y-83999459D01*
X131974033Y-84000000D01*
X131124498Y-84000000D01*
X131057459Y-83980315D01*
X131011704Y-83927511D01*
X131000498Y-83876000D01*
X131000498Y-80844752D01*
X135149500Y-80844752D01*
X135161131Y-80903229D01*
X135161132Y-80903230D01*
X135205447Y-80969552D01*
X135271769Y-81013867D01*
X135271770Y-81013868D01*
X135330247Y-81025499D01*
X135330250Y-81025500D01*
X135330252Y-81025500D01*
X137069750Y-81025500D01*
X137069751Y-81025499D01*
X137084568Y-81022552D01*
X137128229Y-81013868D01*
X137128229Y-81013867D01*
X137128231Y-81013867D01*
X137194552Y-80969552D01*
X137238867Y-80903231D01*
X137238867Y-80903229D01*
X137238868Y-80903229D01*
X137248922Y-80852682D01*
X137250500Y-80844748D01*
X137250500Y-80534456D01*
X137270185Y-80467417D01*
X137322989Y-80421662D01*
X137392147Y-80411718D01*
X137455703Y-80440743D01*
X137486882Y-80482051D01*
X137566400Y-80652578D01*
X137701894Y-80846082D01*
X137868917Y-81013105D01*
X138062421Y-81148600D01*
X138276507Y-81248429D01*
X138276516Y-81248433D01*
X138490000Y-81305634D01*
X138490000Y-80410501D01*
X138597685Y-80459680D01*
X138704237Y-80475000D01*
X138775763Y-80475000D01*
X138882315Y-80459680D01*
X138990000Y-80410501D01*
X138990000Y-81305633D01*
X139203483Y-81248433D01*
X139203492Y-81248429D01*
X139417578Y-81148600D01*
X139611082Y-81013105D01*
X139778105Y-80846082D01*
X139913600Y-80652578D01*
X140013429Y-80438492D01*
X140013433Y-80438483D01*
X140046158Y-80316350D01*
X140082522Y-80256690D01*
X140145369Y-80226160D01*
X140214745Y-80234454D01*
X140268623Y-80278939D01*
X140284593Y-80312447D01*
X140304768Y-80378954D01*
X140402315Y-80561450D01*
X140436969Y-80603677D01*
X140533589Y-80721410D01*
X140614951Y-80788181D01*
X140693550Y-80852685D01*
X140876046Y-80950232D01*
X141074066Y-81010300D01*
X141074065Y-81010300D01*
X141092529Y-81012118D01*
X141280000Y-81030583D01*
X141485934Y-81010300D01*
X141683954Y-80950232D01*
X141683962Y-80950227D01*
X141685850Y-80949446D01*
X141686924Y-80949330D01*
X141689784Y-80948463D01*
X141689948Y-80949004D01*
X141755318Y-80941970D01*
X141817801Y-80973238D01*
X141820995Y-80976321D01*
X142212863Y-81368189D01*
X142216518Y-81372178D01*
X142242541Y-81403190D01*
X142242543Y-81403191D01*
X142242545Y-81403194D01*
X142242547Y-81403195D01*
X142242548Y-81403196D01*
X142277599Y-81423433D01*
X142282162Y-81426339D01*
X142315316Y-81449554D01*
X142315319Y-81449554D01*
X142320176Y-81451820D01*
X142336933Y-81458760D01*
X142341950Y-81460586D01*
X142341952Y-81460586D01*
X142341955Y-81460588D01*
X142381818Y-81467616D01*
X142387076Y-81468782D01*
X142426193Y-81479264D01*
X142466518Y-81475735D01*
X142471922Y-81475500D01*
X155333078Y-81475500D01*
X155338481Y-81475735D01*
X155378807Y-81479264D01*
X155417940Y-81468777D01*
X155423162Y-81467619D01*
X155463045Y-81460588D01*
X155463050Y-81460584D01*
X155468099Y-81458747D01*
X155484824Y-81451819D01*
X155489681Y-81449554D01*
X155489684Y-81449554D01*
X155522841Y-81426335D01*
X155527390Y-81423438D01*
X155562455Y-81403194D01*
X155562459Y-81403190D01*
X155588476Y-81372182D01*
X155592122Y-81368202D01*
X161968204Y-74992120D01*
X161972166Y-74988489D01*
X162003194Y-74962455D01*
X162023438Y-74927390D01*
X162026335Y-74922841D01*
X162049554Y-74889684D01*
X162049554Y-74889681D01*
X162051819Y-74884824D01*
X162058747Y-74868099D01*
X162060584Y-74863050D01*
X162060588Y-74863045D01*
X162067619Y-74823162D01*
X162068777Y-74817940D01*
X162079264Y-74778807D01*
X162075735Y-74738478D01*
X162075500Y-74733075D01*
X162075500Y-68055001D01*
X163679417Y-68055001D01*
X163699699Y-68260933D01*
X163711075Y-68298433D01*
X163759768Y-68458955D01*
X163857315Y-68641451D01*
X163857317Y-68641453D01*
X163988589Y-68801411D01*
X164025195Y-68831452D01*
X164148550Y-68932686D01*
X164331046Y-69030233D01*
X164529066Y-69090301D01*
X164529065Y-69090301D01*
X164547529Y-69092119D01*
X164735000Y-69110584D01*
X164940934Y-69090301D01*
X165138954Y-69030233D01*
X165321450Y-68932686D01*
X165481410Y-68801411D01*
X165612685Y-68641451D01*
X165710232Y-68458955D01*
X165770300Y-68260935D01*
X165790583Y-68055001D01*
X166219417Y-68055001D01*
X166239699Y-68260933D01*
X166251075Y-68298433D01*
X166299768Y-68458955D01*
X166397315Y-68641451D01*
X166397317Y-68641453D01*
X166528589Y-68801411D01*
X166565195Y-68831452D01*
X166688550Y-68932686D01*
X166871046Y-69030233D01*
X167069066Y-69090301D01*
X167069065Y-69090301D01*
X167087529Y-69092119D01*
X167275000Y-69110584D01*
X167480934Y-69090301D01*
X167678954Y-69030233D01*
X167861450Y-68932686D01*
X168021410Y-68801411D01*
X168152685Y-68641451D01*
X168250232Y-68458955D01*
X168310300Y-68260935D01*
X168330583Y-68055001D01*
X168310300Y-67849067D01*
X168250232Y-67651047D01*
X168152685Y-67468551D01*
X168069605Y-67367317D01*
X168021410Y-67308590D01*
X167861452Y-67177318D01*
X167861453Y-67177318D01*
X167861450Y-67177316D01*
X167678954Y-67079769D01*
X167480934Y-67019701D01*
X167480932Y-67019700D01*
X167480934Y-67019700D01*
X167275000Y-66999418D01*
X167069067Y-67019700D01*
X166871043Y-67079770D01*
X166770336Y-67133600D01*
X166688550Y-67177316D01*
X166688548Y-67177317D01*
X166688547Y-67177318D01*
X166528589Y-67308590D01*
X166397317Y-67468548D01*
X166397315Y-67468551D01*
X166358643Y-67540899D01*
X166299769Y-67651044D01*
X166239699Y-67849068D01*
X166219417Y-68055001D01*
X165790583Y-68055001D01*
X165770300Y-67849067D01*
X165710232Y-67651047D01*
X165612685Y-67468551D01*
X165529605Y-67367317D01*
X165481410Y-67308590D01*
X165321452Y-67177318D01*
X165321453Y-67177318D01*
X165321450Y-67177316D01*
X165138954Y-67079769D01*
X164940934Y-67019701D01*
X164940932Y-67019700D01*
X164940934Y-67019700D01*
X164735000Y-66999418D01*
X164529067Y-67019700D01*
X164331043Y-67079770D01*
X164230336Y-67133600D01*
X164148550Y-67177316D01*
X164148548Y-67177317D01*
X164148547Y-67177318D01*
X163988589Y-67308590D01*
X163857317Y-67468548D01*
X163857315Y-67468551D01*
X163818643Y-67540899D01*
X163759769Y-67651044D01*
X163699699Y-67849068D01*
X163679417Y-68055001D01*
X162075500Y-68055001D01*
X162075500Y-67024487D01*
X162095185Y-66957448D01*
X162111814Y-66936811D01*
X163480960Y-65567664D01*
X163542281Y-65534181D01*
X163611973Y-65539165D01*
X163667906Y-65581037D01*
X163692042Y-65643192D01*
X163699699Y-65720933D01*
X163699700Y-65720935D01*
X163759768Y-65918955D01*
X163857315Y-66101451D01*
X163857317Y-66101453D01*
X163988589Y-66261411D01*
X164025195Y-66291452D01*
X164148550Y-66392686D01*
X164331046Y-66490233D01*
X164529066Y-66550301D01*
X164529065Y-66550301D01*
X164547529Y-66552119D01*
X164735000Y-66570584D01*
X164940934Y-66550301D01*
X165138954Y-66490233D01*
X165321450Y-66392686D01*
X165481410Y-66261411D01*
X165612685Y-66101451D01*
X165710232Y-65918955D01*
X165770300Y-65720935D01*
X165790583Y-65515001D01*
X166219417Y-65515001D01*
X166239699Y-65720933D01*
X166239700Y-65720935D01*
X166299768Y-65918955D01*
X166397315Y-66101451D01*
X166397317Y-66101453D01*
X166528589Y-66261411D01*
X166565195Y-66291452D01*
X166688550Y-66392686D01*
X166871046Y-66490233D01*
X167069066Y-66550301D01*
X167069065Y-66550301D01*
X167087529Y-66552119D01*
X167275000Y-66570584D01*
X167480934Y-66550301D01*
X167678954Y-66490233D01*
X167861450Y-66392686D01*
X168021410Y-66261411D01*
X168152685Y-66101451D01*
X168250232Y-65918955D01*
X168310300Y-65720935D01*
X168330583Y-65515001D01*
X168310300Y-65309067D01*
X168250232Y-65111047D01*
X168152685Y-64928551D01*
X168069605Y-64827317D01*
X168021410Y-64768590D01*
X167861452Y-64637318D01*
X167861453Y-64637318D01*
X167861450Y-64637316D01*
X167678954Y-64539769D01*
X167480934Y-64479701D01*
X167480932Y-64479700D01*
X167480934Y-64479700D01*
X167275000Y-64459418D01*
X167069067Y-64479700D01*
X166871043Y-64539770D01*
X166818671Y-64567764D01*
X166688550Y-64637316D01*
X166688548Y-64637317D01*
X166688547Y-64637318D01*
X166528589Y-64768590D01*
X166397317Y-64928548D01*
X166299769Y-65111044D01*
X166239699Y-65309068D01*
X166219417Y-65515001D01*
X165790583Y-65515001D01*
X165770300Y-65309067D01*
X165710232Y-65111047D01*
X165612685Y-64928551D01*
X165481410Y-64768591D01*
X165470446Y-64759593D01*
X165392171Y-64695354D01*
X165352837Y-64637609D01*
X165350966Y-64567764D01*
X165387153Y-64507996D01*
X165449909Y-64477280D01*
X165470836Y-64475501D01*
X166083078Y-64475501D01*
X166088481Y-64475736D01*
X166128807Y-64479265D01*
X166167940Y-64468778D01*
X166173162Y-64467620D01*
X166213045Y-64460589D01*
X166213050Y-64460585D01*
X166218099Y-64458748D01*
X166234824Y-64451820D01*
X166239681Y-64449555D01*
X166239684Y-64449555D01*
X166272841Y-64426336D01*
X166277390Y-64423439D01*
X166312455Y-64403195D01*
X166338481Y-64372177D01*
X166342111Y-64368214D01*
X166648508Y-64061817D01*
X166709830Y-64028335D01*
X166736188Y-64025501D01*
X168144750Y-64025501D01*
X168144751Y-64025500D01*
X168159568Y-64022553D01*
X168203229Y-64013869D01*
X168203229Y-64013868D01*
X168203231Y-64013868D01*
X168269552Y-63969553D01*
X168313867Y-63903232D01*
X168313867Y-63903230D01*
X168313868Y-63903230D01*
X168325499Y-63844753D01*
X168325500Y-63844751D01*
X168325500Y-62105250D01*
X168325499Y-62105248D01*
X168313868Y-62046771D01*
X168313867Y-62046770D01*
X168269552Y-61980448D01*
X168203230Y-61936133D01*
X168203229Y-61936132D01*
X168144752Y-61924501D01*
X168144748Y-61924501D01*
X166405252Y-61924501D01*
X166405247Y-61924501D01*
X166346770Y-61936132D01*
X166346769Y-61936133D01*
X166280447Y-61980448D01*
X166236132Y-62046770D01*
X166236131Y-62046771D01*
X166224500Y-62105248D01*
X166224500Y-63513813D01*
X166204815Y-63580852D01*
X166188181Y-63601494D01*
X166001493Y-63788182D01*
X165940170Y-63821667D01*
X165913812Y-63824501D01*
X165658982Y-63824501D01*
X165591943Y-63804816D01*
X165546188Y-63752012D01*
X165536244Y-63682854D01*
X165563129Y-63621836D01*
X165596763Y-63580852D01*
X165612685Y-63561451D01*
X165710232Y-63378955D01*
X165770300Y-63180935D01*
X165790583Y-62975001D01*
X165770300Y-62769067D01*
X165710232Y-62571047D01*
X165612685Y-62388551D01*
X165529605Y-62287317D01*
X165481410Y-62228590D01*
X165331121Y-62105253D01*
X165321450Y-62097316D01*
X165138954Y-61999769D01*
X164940934Y-61939701D01*
X164940932Y-61939700D01*
X164940934Y-61939700D01*
X164735000Y-61919418D01*
X164529067Y-61939700D01*
X164331043Y-61999770D01*
X164251404Y-62042339D01*
X164148550Y-62097316D01*
X164148548Y-62097317D01*
X164148547Y-62097318D01*
X163988589Y-62228590D01*
X163857317Y-62388548D01*
X163857315Y-62388551D01*
X163855105Y-62392686D01*
X163759769Y-62571044D01*
X163699699Y-62769068D01*
X163679417Y-62975001D01*
X163699699Y-63180933D01*
X163699700Y-63180935D01*
X163759768Y-63378955D01*
X163759772Y-63378963D01*
X163760559Y-63380863D01*
X163760675Y-63381942D01*
X163761537Y-63384784D01*
X163760998Y-63384947D01*
X163768027Y-63450332D01*
X163736751Y-63512811D01*
X163733678Y-63515995D01*
X161217328Y-66032345D01*
X161156005Y-66065830D01*
X161086313Y-66060846D01*
X161030380Y-66018974D01*
X161005963Y-65953510D01*
X161010046Y-65917092D01*
X161009112Y-65916907D01*
X161010300Y-65910934D01*
X161014672Y-65866544D01*
X161030583Y-65705000D01*
X161010300Y-65499066D01*
X160950232Y-65301046D01*
X160852685Y-65118550D01*
X160798517Y-65052546D01*
X160721410Y-64958589D01*
X160561452Y-64827317D01*
X160561453Y-64827317D01*
X160561450Y-64827315D01*
X160378954Y-64729768D01*
X160180934Y-64669700D01*
X160180932Y-64669699D01*
X160180934Y-64669699D01*
X159975000Y-64649417D01*
X159769067Y-64669699D01*
X159571043Y-64729769D01*
X159465098Y-64786399D01*
X159388550Y-64827315D01*
X159388548Y-64827316D01*
X159388547Y-64827317D01*
X159228589Y-64958589D01*
X159097317Y-65118547D01*
X159097315Y-65118550D01*
X159079459Y-65151956D01*
X158999769Y-65301043D01*
X158939699Y-65499067D01*
X158919417Y-65705000D01*
X158939699Y-65910932D01*
X158954867Y-65960934D01*
X158999768Y-66108954D01*
X159097315Y-66291450D01*
X159131969Y-66333677D01*
X159228589Y-66451410D01*
X159294884Y-66505816D01*
X159388550Y-66582685D01*
X159571046Y-66680232D01*
X159769066Y-66740300D01*
X159769065Y-66740300D01*
X159787529Y-66742118D01*
X159975000Y-66760583D01*
X160180934Y-66740300D01*
X160378954Y-66680232D01*
X160561450Y-66582685D01*
X160600910Y-66550301D01*
X160621835Y-66533129D01*
X160686145Y-66505816D01*
X160755013Y-66517607D01*
X160806573Y-66564760D01*
X160824500Y-66628982D01*
X160824500Y-67321017D01*
X160804815Y-67388056D01*
X160752011Y-67433811D01*
X160682853Y-67443755D01*
X160621836Y-67416871D01*
X160561453Y-67367317D01*
X160561451Y-67367316D01*
X160561450Y-67367315D01*
X160378954Y-67269768D01*
X160180934Y-67209700D01*
X160180932Y-67209699D01*
X160180934Y-67209699D01*
X159975000Y-67189417D01*
X159769067Y-67209699D01*
X159571043Y-67269769D01*
X159475167Y-67321017D01*
X159388550Y-67367315D01*
X159388548Y-67367316D01*
X159388547Y-67367317D01*
X159228589Y-67498589D01*
X159097317Y-67658547D01*
X158999769Y-67841043D01*
X158939699Y-68039067D01*
X158919417Y-68245000D01*
X158939699Y-68450932D01*
X158954867Y-68500934D01*
X158999768Y-68648954D01*
X159097315Y-68831450D01*
X159097317Y-68831452D01*
X159228589Y-68991410D01*
X159294884Y-69045816D01*
X159388550Y-69122685D01*
X159571046Y-69220232D01*
X159637551Y-69240405D01*
X159695989Y-69278702D01*
X159724446Y-69342514D01*
X159713887Y-69411581D01*
X159667663Y-69463975D01*
X159633650Y-69478841D01*
X159511514Y-69511567D01*
X159511507Y-69511570D01*
X159297422Y-69611399D01*
X159297420Y-69611400D01*
X159103926Y-69746886D01*
X159103920Y-69746891D01*
X158936891Y-69913920D01*
X158936886Y-69913926D01*
X158801400Y-70107420D01*
X158801399Y-70107422D01*
X158701570Y-70321507D01*
X158701567Y-70321513D01*
X158644364Y-70534999D01*
X158644364Y-70535000D01*
X159541314Y-70535000D01*
X159515507Y-70575156D01*
X159475000Y-70713111D01*
X159475000Y-70856889D01*
X159515507Y-70994844D01*
X159541314Y-71035000D01*
X158644364Y-71035000D01*
X158701567Y-71248486D01*
X158701570Y-71248492D01*
X158801399Y-71462578D01*
X158936894Y-71656082D01*
X159103917Y-71823105D01*
X159297421Y-71958600D01*
X159467948Y-72038118D01*
X159520387Y-72084290D01*
X159539539Y-72151484D01*
X159519323Y-72218365D01*
X159466158Y-72263700D01*
X159415543Y-72274500D01*
X159105247Y-72274500D01*
X159046770Y-72286131D01*
X159046769Y-72286132D01*
X158980447Y-72330447D01*
X158936132Y-72396769D01*
X158936131Y-72396770D01*
X158924500Y-72455247D01*
X158924500Y-74194752D01*
X158936131Y-74253229D01*
X158936132Y-74253230D01*
X158980447Y-74319552D01*
X159046769Y-74363867D01*
X159046770Y-74363868D01*
X159105247Y-74375499D01*
X159105250Y-74375500D01*
X159105252Y-74375500D01*
X160514811Y-74375500D01*
X160581850Y-74395185D01*
X160627605Y-74447989D01*
X160637549Y-74517147D01*
X160608524Y-74580703D01*
X160602492Y-74587181D01*
X155576493Y-79613181D01*
X155515170Y-79646666D01*
X155488812Y-79649500D01*
X144910583Y-79649500D01*
X144843544Y-79629815D01*
X144797789Y-79577011D01*
X144796021Y-79572951D01*
X144795233Y-79571051D01*
X144795232Y-79571046D01*
X144697685Y-79388550D01*
X144622897Y-79297420D01*
X144566410Y-79228589D01*
X144416121Y-79105252D01*
X144406450Y-79097315D01*
X144223954Y-78999768D01*
X144025934Y-78939700D01*
X144025932Y-78939699D01*
X144025934Y-78939699D01*
X143820000Y-78919417D01*
X143614067Y-78939699D01*
X143416043Y-78999769D01*
X143328114Y-79046769D01*
X143233550Y-79097315D01*
X143233548Y-79097316D01*
X143233547Y-79097317D01*
X143073589Y-79228589D01*
X142942317Y-79388547D01*
X142844769Y-79571043D01*
X142784699Y-79769067D01*
X142764417Y-79975000D01*
X142784699Y-80180932D01*
X142784700Y-80180934D01*
X142844768Y-80378954D01*
X142927886Y-80534456D01*
X142942317Y-80561453D01*
X142991871Y-80621835D01*
X143019184Y-80686145D01*
X143007393Y-80755013D01*
X142960240Y-80806573D01*
X142896018Y-80824500D01*
X142641188Y-80824500D01*
X142574149Y-80804815D01*
X142553507Y-80788181D01*
X142281321Y-80515995D01*
X142247836Y-80454672D01*
X142252820Y-80384980D01*
X142254446Y-80380850D01*
X142255227Y-80378962D01*
X142255232Y-80378954D01*
X142315300Y-80180934D01*
X142335583Y-79975000D01*
X142315300Y-79769066D01*
X142255232Y-79571046D01*
X142157685Y-79388550D01*
X142082897Y-79297420D01*
X142026410Y-79228589D01*
X141876121Y-79105252D01*
X141866450Y-79097315D01*
X141683954Y-78999768D01*
X141485934Y-78939700D01*
X141485932Y-78939699D01*
X141485934Y-78939699D01*
X141280000Y-78919417D01*
X141074067Y-78939699D01*
X140876043Y-78999769D01*
X140788114Y-79046769D01*
X140693550Y-79097315D01*
X140693548Y-79097316D01*
X140693547Y-79097317D01*
X140533589Y-79228589D01*
X140402317Y-79388547D01*
X140304767Y-79571046D01*
X140284593Y-79637552D01*
X140246296Y-79695990D01*
X140182483Y-79724447D01*
X140113416Y-79713886D01*
X140061023Y-79667661D01*
X140046158Y-79633649D01*
X140013433Y-79511516D01*
X140013429Y-79511507D01*
X139913600Y-79297422D01*
X139913599Y-79297420D01*
X139778113Y-79103926D01*
X139778108Y-79103920D01*
X139611082Y-78936894D01*
X139417578Y-78801399D01*
X139203492Y-78701570D01*
X139203486Y-78701567D01*
X138990000Y-78644364D01*
X138990000Y-79539498D01*
X138882315Y-79490320D01*
X138775763Y-79475000D01*
X138704237Y-79475000D01*
X138597685Y-79490320D01*
X138490000Y-79539498D01*
X138490000Y-78644364D01*
X138489999Y-78644364D01*
X138276513Y-78701567D01*
X138276507Y-78701570D01*
X138062422Y-78801399D01*
X138062420Y-78801400D01*
X137868926Y-78936886D01*
X137868920Y-78936891D01*
X137701891Y-79103920D01*
X137701886Y-79103926D01*
X137566400Y-79297420D01*
X137566399Y-79297422D01*
X137486882Y-79467948D01*
X137440710Y-79520387D01*
X137373516Y-79539539D01*
X137306635Y-79519323D01*
X137261300Y-79466158D01*
X137250500Y-79415543D01*
X137250500Y-79105249D01*
X137250499Y-79105247D01*
X137238868Y-79046770D01*
X137238867Y-79046769D01*
X137194552Y-78980447D01*
X137128230Y-78936132D01*
X137128229Y-78936131D01*
X137069752Y-78924500D01*
X137069748Y-78924500D01*
X135330252Y-78924500D01*
X135330247Y-78924500D01*
X135271770Y-78936131D01*
X135271769Y-78936132D01*
X135205447Y-78980447D01*
X135161132Y-79046769D01*
X135161131Y-79046770D01*
X135149500Y-79105247D01*
X135149500Y-80844752D01*
X131000498Y-80844752D01*
X131000498Y-78644364D01*
X131000498Y-73375000D01*
X132969417Y-73375000D01*
X132989699Y-73580932D01*
X132989700Y-73580934D01*
X133049768Y-73778954D01*
X133147315Y-73961450D01*
X133147317Y-73961452D01*
X133278589Y-74121410D01*
X133367953Y-74194748D01*
X133438550Y-74252685D01*
X133621046Y-74350232D01*
X133819066Y-74410300D01*
X133819065Y-74410300D01*
X133837529Y-74412118D01*
X134025000Y-74430583D01*
X134230934Y-74410300D01*
X134428954Y-74350232D01*
X134611450Y-74252685D01*
X134771410Y-74121410D01*
X134902685Y-73961450D01*
X135000232Y-73778954D01*
X135060300Y-73580934D01*
X135080583Y-73375000D01*
X135060300Y-73169066D01*
X135000232Y-72971046D01*
X134902685Y-72788550D01*
X134819798Y-72687551D01*
X134771410Y-72628589D01*
X134645184Y-72525000D01*
X134611450Y-72497315D01*
X134428954Y-72399768D01*
X134230934Y-72339700D01*
X134230932Y-72339699D01*
X134230934Y-72339699D01*
X134025000Y-72319417D01*
X133819067Y-72339699D01*
X133676132Y-72383058D01*
X133630933Y-72396769D01*
X133621043Y-72399769D01*
X133517253Y-72455247D01*
X133438550Y-72497315D01*
X133438548Y-72497316D01*
X133438547Y-72497317D01*
X133278589Y-72628589D01*
X133147317Y-72788547D01*
X133049769Y-72971043D01*
X132989699Y-73169067D01*
X132969417Y-73375000D01*
X131000498Y-73375000D01*
X131000498Y-71008133D01*
X131000538Y-71000005D01*
X131000541Y-71000001D01*
X131000383Y-70999618D01*
X131000382Y-70999617D01*
X131000099Y-70999501D01*
X131000000Y-70999460D01*
X130975446Y-70999460D01*
X130975240Y-70999501D01*
X124124500Y-70999501D01*
X124057461Y-70979816D01*
X124011706Y-70927012D01*
X124000500Y-70875501D01*
X124000500Y-70835000D01*
X132969417Y-70835000D01*
X132989699Y-71040932D01*
X132999424Y-71072990D01*
X133049768Y-71238954D01*
X133147315Y-71421450D01*
X133147317Y-71421452D01*
X133278589Y-71581410D01*
X133310343Y-71607469D01*
X133438550Y-71712685D01*
X133621046Y-71810232D01*
X133819066Y-71870300D01*
X133819065Y-71870300D01*
X133837529Y-71872118D01*
X134025000Y-71890583D01*
X134230934Y-71870300D01*
X134428954Y-71810232D01*
X134611450Y-71712685D01*
X134771410Y-71581410D01*
X134902685Y-71421450D01*
X135000232Y-71238954D01*
X135060300Y-71040934D01*
X135080583Y-70835000D01*
X135060300Y-70629066D01*
X135000232Y-70431046D01*
X134902685Y-70248550D01*
X134850702Y-70185209D01*
X134771410Y-70088589D01*
X134611452Y-69957317D01*
X134611453Y-69957317D01*
X134611450Y-69957315D01*
X134428954Y-69859768D01*
X134230934Y-69799700D01*
X134230932Y-69799699D01*
X134230934Y-69799699D01*
X134025000Y-69779417D01*
X133819067Y-69799699D01*
X133621043Y-69859769D01*
X133519736Y-69913920D01*
X133438550Y-69957315D01*
X133438548Y-69957316D01*
X133438547Y-69957317D01*
X133278589Y-70088589D01*
X133147317Y-70248547D01*
X133147315Y-70248550D01*
X133119643Y-70300320D01*
X133049769Y-70431043D01*
X132989699Y-70629067D01*
X132969417Y-70835000D01*
X124000500Y-70835000D01*
X124000499Y-66210000D01*
X125669364Y-66210000D01*
X125726567Y-66423486D01*
X125726570Y-66423492D01*
X125826399Y-66637578D01*
X125961894Y-66831082D01*
X126128917Y-66998105D01*
X126322421Y-67133600D01*
X126492948Y-67213118D01*
X126545387Y-67259290D01*
X126564539Y-67326484D01*
X126544323Y-67393365D01*
X126491158Y-67438700D01*
X126440543Y-67449500D01*
X126130247Y-67449500D01*
X126071770Y-67461131D01*
X126071769Y-67461132D01*
X126005447Y-67505447D01*
X125961132Y-67571769D01*
X125961131Y-67571770D01*
X125949500Y-67630247D01*
X125949500Y-69369752D01*
X125961131Y-69428229D01*
X125961132Y-69428230D01*
X126005447Y-69494552D01*
X126071769Y-69538867D01*
X126071770Y-69538868D01*
X126130247Y-69550499D01*
X126130250Y-69550500D01*
X126130252Y-69550500D01*
X127869750Y-69550500D01*
X127869751Y-69550499D01*
X127884568Y-69547552D01*
X127928229Y-69538868D01*
X127928229Y-69538867D01*
X127928231Y-69538867D01*
X127994552Y-69494552D01*
X128038867Y-69428231D01*
X128038867Y-69428229D01*
X128038868Y-69428229D01*
X128047552Y-69384568D01*
X128050500Y-69369748D01*
X128050500Y-68295000D01*
X132969417Y-68295000D01*
X132989699Y-68500932D01*
X132989700Y-68500934D01*
X133049768Y-68698954D01*
X133147315Y-68881450D01*
X133147317Y-68881452D01*
X133278589Y-69041410D01*
X133362878Y-69110583D01*
X133438550Y-69172685D01*
X133621046Y-69270232D01*
X133819066Y-69330300D01*
X133819065Y-69330300D01*
X133837529Y-69332118D01*
X134025000Y-69350583D01*
X134230934Y-69330300D01*
X134428954Y-69270232D01*
X134611450Y-69172685D01*
X134771410Y-69041410D01*
X134902685Y-68881450D01*
X135000232Y-68698954D01*
X135060300Y-68500934D01*
X135080583Y-68295000D01*
X135060300Y-68089066D01*
X135000232Y-67891046D01*
X134902685Y-67708550D01*
X134838428Y-67630252D01*
X134771410Y-67548589D01*
X134637508Y-67438700D01*
X134611450Y-67417315D01*
X134428954Y-67319768D01*
X134230934Y-67259700D01*
X134230932Y-67259699D01*
X134230934Y-67259699D01*
X134025000Y-67239417D01*
X133819067Y-67259699D01*
X133621043Y-67319769D01*
X133532089Y-67367317D01*
X133438550Y-67417315D01*
X133438548Y-67417316D01*
X133438547Y-67417317D01*
X133278589Y-67548589D01*
X133152216Y-67702578D01*
X133147315Y-67708550D01*
X133124114Y-67751955D01*
X133049769Y-67891043D01*
X132989699Y-68089067D01*
X132969417Y-68295000D01*
X128050500Y-68295000D01*
X128050500Y-67630252D01*
X128050500Y-67630249D01*
X128050499Y-67630247D01*
X128038868Y-67571770D01*
X128038867Y-67571769D01*
X127994552Y-67505447D01*
X127928230Y-67461132D01*
X127928229Y-67461131D01*
X127869752Y-67449500D01*
X127869748Y-67449500D01*
X127559457Y-67449500D01*
X127492418Y-67429815D01*
X127446663Y-67377011D01*
X127436719Y-67307853D01*
X127465744Y-67244297D01*
X127507052Y-67213118D01*
X127677578Y-67133600D01*
X127832673Y-67025000D01*
X139569417Y-67025000D01*
X139589699Y-67230932D01*
X139598426Y-67259700D01*
X139649768Y-67428954D01*
X139747315Y-67611450D01*
X139771537Y-67640965D01*
X139878589Y-67771410D01*
X139963442Y-67841046D01*
X140038550Y-67902685D01*
X140221046Y-68000232D01*
X140419066Y-68060300D01*
X140419065Y-68060300D01*
X140437529Y-68062118D01*
X140625000Y-68080583D01*
X140830934Y-68060300D01*
X141028954Y-68000232D01*
X141211450Y-67902685D01*
X141361835Y-67779268D01*
X141426145Y-67751955D01*
X141495013Y-67763746D01*
X141546573Y-67810898D01*
X141564500Y-67875121D01*
X141564500Y-71934417D01*
X141544815Y-72001456D01*
X141492011Y-72047211D01*
X141487951Y-72048979D01*
X141486045Y-72049768D01*
X141421460Y-72084290D01*
X141303550Y-72147315D01*
X141303548Y-72147316D01*
X141303547Y-72147317D01*
X141143589Y-72278589D01*
X141012317Y-72438547D01*
X140914769Y-72621043D01*
X140854699Y-72819067D01*
X140834417Y-73025000D01*
X140854699Y-73230932D01*
X140854700Y-73230934D01*
X140914768Y-73428954D01*
X141012315Y-73611450D01*
X141012317Y-73611452D01*
X141143589Y-73771410D01*
X141240209Y-73850702D01*
X141303550Y-73902685D01*
X141486046Y-74000232D01*
X141684066Y-74060300D01*
X141684065Y-74060300D01*
X141702529Y-74062118D01*
X141890000Y-74080583D01*
X142095934Y-74060300D01*
X142293954Y-74000232D01*
X142476450Y-73902685D01*
X142636410Y-73771410D01*
X142767685Y-73611450D01*
X142865232Y-73428954D01*
X142925300Y-73230934D01*
X142945583Y-73025000D01*
X143374417Y-73025000D01*
X143394699Y-73230932D01*
X143394700Y-73230934D01*
X143454768Y-73428954D01*
X143552315Y-73611450D01*
X143552317Y-73611452D01*
X143683589Y-73771410D01*
X143780209Y-73850702D01*
X143843550Y-73902685D01*
X144026046Y-74000232D01*
X144224066Y-74060300D01*
X144224065Y-74060300D01*
X144242529Y-74062118D01*
X144430000Y-74080583D01*
X144635934Y-74060300D01*
X144833954Y-74000232D01*
X145016450Y-73902685D01*
X145176410Y-73771410D01*
X145307685Y-73611450D01*
X145405232Y-73428954D01*
X145465300Y-73230934D01*
X145485583Y-73025000D01*
X145465300Y-72819066D01*
X145405232Y-72621046D01*
X145405227Y-72621038D01*
X145404439Y-72619132D01*
X145404322Y-72618051D01*
X145403463Y-72615217D01*
X145404000Y-72615053D01*
X145396973Y-72549663D01*
X145428250Y-72487185D01*
X145431293Y-72484031D01*
X147288204Y-70627120D01*
X147292166Y-70623489D01*
X147323194Y-70597455D01*
X147343438Y-70562390D01*
X147346335Y-70557841D01*
X147369554Y-70524684D01*
X147369554Y-70524681D01*
X147371819Y-70519824D01*
X147378747Y-70503099D01*
X147380584Y-70498050D01*
X147380588Y-70498045D01*
X147387619Y-70458162D01*
X147388777Y-70452940D01*
X147399264Y-70413807D01*
X147395735Y-70373478D01*
X147395500Y-70368075D01*
X147395500Y-67948982D01*
X147415185Y-67881943D01*
X147467989Y-67836188D01*
X147537147Y-67826244D01*
X147598165Y-67853129D01*
X147650504Y-67896082D01*
X147658550Y-67902685D01*
X147841046Y-68000232D01*
X148039066Y-68060300D01*
X148039065Y-68060300D01*
X148057529Y-68062118D01*
X148245000Y-68080583D01*
X148450934Y-68060300D01*
X148648954Y-68000232D01*
X148831450Y-67902685D01*
X148933292Y-67819106D01*
X148971835Y-67787475D01*
X149036145Y-67760162D01*
X149105013Y-67771953D01*
X149156573Y-67819106D01*
X149174500Y-67883328D01*
X149174500Y-70308811D01*
X149154815Y-70375850D01*
X149138181Y-70396492D01*
X147510994Y-72023678D01*
X147449671Y-72057163D01*
X147379979Y-72052179D01*
X147375862Y-72050559D01*
X147373962Y-72049772D01*
X147373954Y-72049768D01*
X147175934Y-71989700D01*
X147175932Y-71989699D01*
X147175934Y-71989699D01*
X146970000Y-71969417D01*
X146764067Y-71989699D01*
X146629736Y-72030448D01*
X146574476Y-72047211D01*
X146566043Y-72049769D01*
X146501460Y-72084290D01*
X146383550Y-72147315D01*
X146383548Y-72147316D01*
X146383547Y-72147317D01*
X146223589Y-72278589D01*
X146092317Y-72438547D01*
X145994769Y-72621043D01*
X145934699Y-72819067D01*
X145914417Y-73025000D01*
X145934699Y-73230932D01*
X145934700Y-73230934D01*
X145994768Y-73428954D01*
X146092315Y-73611450D01*
X146092317Y-73611452D01*
X146223589Y-73771410D01*
X146320209Y-73850702D01*
X146383550Y-73902685D01*
X146566046Y-74000232D01*
X146764066Y-74060300D01*
X146764065Y-74060300D01*
X146782529Y-74062118D01*
X146970000Y-74080583D01*
X147175934Y-74060300D01*
X147373954Y-74000232D01*
X147556450Y-73902685D01*
X147716410Y-73771410D01*
X147847685Y-73611450D01*
X147945232Y-73428954D01*
X147965406Y-73362446D01*
X148003702Y-73304010D01*
X148067514Y-73275553D01*
X148136581Y-73286112D01*
X148188975Y-73332336D01*
X148203841Y-73366349D01*
X148236567Y-73488486D01*
X148236570Y-73488492D01*
X148336399Y-73702578D01*
X148471894Y-73896082D01*
X148638917Y-74063105D01*
X148832421Y-74198600D01*
X149046507Y-74298429D01*
X149046516Y-74298433D01*
X149260000Y-74355634D01*
X149260000Y-73460501D01*
X149367685Y-73509680D01*
X149474237Y-73525000D01*
X149545763Y-73525000D01*
X149652315Y-73509680D01*
X149760000Y-73460501D01*
X149760000Y-74355633D01*
X149973483Y-74298433D01*
X149973492Y-74298429D01*
X150187578Y-74198600D01*
X150381082Y-74063105D01*
X150548105Y-73896082D01*
X150683599Y-73702578D01*
X150763118Y-73532051D01*
X150809290Y-73479612D01*
X150876484Y-73460460D01*
X150943365Y-73480676D01*
X150988699Y-73533841D01*
X150999500Y-73584456D01*
X150999500Y-73894752D01*
X151011131Y-73953229D01*
X151011132Y-73953230D01*
X151055447Y-74019552D01*
X151121769Y-74063867D01*
X151121770Y-74063868D01*
X151180247Y-74075499D01*
X151180250Y-74075500D01*
X151180252Y-74075500D01*
X152919750Y-74075500D01*
X152919751Y-74075499D01*
X152934568Y-74072552D01*
X152978229Y-74063868D01*
X152978229Y-74063867D01*
X152978231Y-74063867D01*
X153044552Y-74019552D01*
X153088867Y-73953231D01*
X153088867Y-73953229D01*
X153088868Y-73953229D01*
X153098922Y-73902682D01*
X153100500Y-73894748D01*
X153100500Y-72155252D01*
X153100500Y-72155249D01*
X153100499Y-72155247D01*
X153088868Y-72096770D01*
X153088867Y-72096769D01*
X153044552Y-72030447D01*
X152978230Y-71986132D01*
X152978229Y-71986131D01*
X152919752Y-71974500D01*
X152919748Y-71974500D01*
X151180252Y-71974500D01*
X151180247Y-71974500D01*
X151121770Y-71986131D01*
X151121769Y-71986132D01*
X151055447Y-72030447D01*
X151011132Y-72096769D01*
X151011131Y-72096770D01*
X150999500Y-72155247D01*
X150999500Y-72465543D01*
X150979815Y-72532582D01*
X150927011Y-72578337D01*
X150857853Y-72588281D01*
X150794297Y-72559256D01*
X150763118Y-72517948D01*
X150683600Y-72347422D01*
X150683599Y-72347420D01*
X150548113Y-72153926D01*
X150548108Y-72153920D01*
X150381082Y-71986894D01*
X150187578Y-71851399D01*
X149973492Y-71751570D01*
X149973486Y-71751567D01*
X149760000Y-71694364D01*
X149760000Y-72589498D01*
X149652315Y-72540320D01*
X149545763Y-72525000D01*
X149474237Y-72525000D01*
X149367685Y-72540320D01*
X149260000Y-72589498D01*
X149260000Y-71694364D01*
X149259999Y-71694364D01*
X149046513Y-71751567D01*
X149046501Y-71751571D01*
X149041627Y-71753845D01*
X148972549Y-71764336D01*
X148908766Y-71735814D01*
X148870528Y-71677337D01*
X148869975Y-71607469D01*
X148901543Y-71553782D01*
X149718210Y-70737115D01*
X149722172Y-70733484D01*
X149753194Y-70707455D01*
X149773444Y-70672379D01*
X149776328Y-70667852D01*
X149799554Y-70634684D01*
X149799554Y-70634681D01*
X149801819Y-70629824D01*
X149808747Y-70613099D01*
X149810587Y-70608046D01*
X149810588Y-70608045D01*
X149817621Y-70568150D01*
X149818777Y-70562937D01*
X149829263Y-70523807D01*
X149825735Y-70483489D01*
X149825500Y-70478086D01*
X149825500Y-68239398D01*
X149845185Y-68172359D01*
X149897989Y-68126604D01*
X149967147Y-68116660D01*
X150020624Y-68137823D01*
X150107421Y-68198600D01*
X150321507Y-68298429D01*
X150321516Y-68298433D01*
X150535000Y-68355634D01*
X150535000Y-67460501D01*
X150642685Y-67509680D01*
X150749237Y-67525000D01*
X150820763Y-67525000D01*
X150927315Y-67509680D01*
X151035000Y-67460501D01*
X151035000Y-68355633D01*
X151248483Y-68298433D01*
X151248492Y-68298429D01*
X151462578Y-68198600D01*
X151656082Y-68063105D01*
X151823105Y-67896082D01*
X151958599Y-67702578D01*
X152038118Y-67532051D01*
X152084290Y-67479612D01*
X152151484Y-67460460D01*
X152218365Y-67480676D01*
X152263699Y-67533841D01*
X152274500Y-67584456D01*
X152274500Y-67894752D01*
X152286131Y-67953229D01*
X152286132Y-67953230D01*
X152330447Y-68019552D01*
X152396769Y-68063867D01*
X152396770Y-68063868D01*
X152455247Y-68075499D01*
X152455250Y-68075500D01*
X152455252Y-68075500D01*
X154194750Y-68075500D01*
X154194751Y-68075499D01*
X154209568Y-68072552D01*
X154253229Y-68063868D01*
X154253229Y-68063867D01*
X154253231Y-68063867D01*
X154319552Y-68019552D01*
X154363867Y-67953231D01*
X154363867Y-67953229D01*
X154363868Y-67953229D01*
X154373922Y-67902682D01*
X154375500Y-67894748D01*
X154375500Y-66155252D01*
X154375500Y-66155249D01*
X154375499Y-66155247D01*
X154363868Y-66096770D01*
X154363867Y-66096769D01*
X154319552Y-66030447D01*
X154253230Y-65986132D01*
X154253229Y-65986131D01*
X154194752Y-65974500D01*
X154194748Y-65974500D01*
X152455252Y-65974500D01*
X152455247Y-65974500D01*
X152396770Y-65986131D01*
X152396769Y-65986132D01*
X152330447Y-66030447D01*
X152286132Y-66096769D01*
X152286131Y-66096770D01*
X152274500Y-66155247D01*
X152274500Y-66465543D01*
X152254815Y-66532582D01*
X152202011Y-66578337D01*
X152132853Y-66588281D01*
X152069297Y-66559256D01*
X152038118Y-66517948D01*
X151958600Y-66347422D01*
X151958599Y-66347420D01*
X151823113Y-66153926D01*
X151823108Y-66153920D01*
X151656082Y-65986894D01*
X151462578Y-65851399D01*
X151248492Y-65751570D01*
X151248486Y-65751567D01*
X151035000Y-65694364D01*
X151035000Y-66589498D01*
X150927315Y-66540320D01*
X150820763Y-66525000D01*
X150749237Y-66525000D01*
X150642685Y-66540320D01*
X150535000Y-66589498D01*
X150535000Y-65694364D01*
X150534999Y-65694364D01*
X150321513Y-65751567D01*
X150321507Y-65751570D01*
X150107422Y-65851399D01*
X150107420Y-65851400D01*
X150020623Y-65912176D01*
X149954416Y-65934503D01*
X149886649Y-65917492D01*
X149838837Y-65866544D01*
X149825500Y-65810601D01*
X149825500Y-64682889D01*
X149845185Y-64615850D01*
X149861814Y-64595213D01*
X151292026Y-63165000D01*
X158919417Y-63165000D01*
X158939699Y-63370932D01*
X158956053Y-63424844D01*
X158999768Y-63568954D01*
X159097315Y-63751450D01*
X159127460Y-63788182D01*
X159228589Y-63911410D01*
X159299438Y-63969553D01*
X159388550Y-64042685D01*
X159571046Y-64140232D01*
X159769066Y-64200300D01*
X159769065Y-64200300D01*
X159787529Y-64202118D01*
X159975000Y-64220583D01*
X160180934Y-64200300D01*
X160378954Y-64140232D01*
X160561450Y-64042685D01*
X160721410Y-63911410D01*
X160852685Y-63751450D01*
X160950232Y-63568954D01*
X161010300Y-63370934D01*
X161030583Y-63165000D01*
X161010300Y-62959066D01*
X160950232Y-62761046D01*
X160852685Y-62578550D01*
X160774136Y-62482837D01*
X160721410Y-62418589D01*
X160561452Y-62287317D01*
X160561453Y-62287317D01*
X160561450Y-62287315D01*
X160378954Y-62189768D01*
X160180934Y-62129700D01*
X160180932Y-62129699D01*
X160180934Y-62129699D01*
X159975000Y-62109417D01*
X159769067Y-62129699D01*
X159571043Y-62189769D01*
X159498414Y-62228591D01*
X159388550Y-62287315D01*
X159388548Y-62287316D01*
X159388547Y-62287317D01*
X159228589Y-62418589D01*
X159097317Y-62578547D01*
X159097315Y-62578550D01*
X159089590Y-62593003D01*
X158999769Y-62761043D01*
X158939699Y-62959067D01*
X158919417Y-63165000D01*
X151292026Y-63165000D01*
X152213204Y-62243822D01*
X152217166Y-62240191D01*
X152248194Y-62214157D01*
X152268438Y-62179092D01*
X152271335Y-62174543D01*
X152294554Y-62141386D01*
X152294554Y-62141383D01*
X152296819Y-62136526D01*
X152303747Y-62119801D01*
X152305584Y-62114752D01*
X152305588Y-62114747D01*
X152312619Y-62074864D01*
X152313777Y-62069642D01*
X152324264Y-62030509D01*
X152320735Y-61990180D01*
X152320500Y-61984777D01*
X152320500Y-60625000D01*
X158919417Y-60625000D01*
X158939699Y-60830932D01*
X158949870Y-60864460D01*
X158999768Y-61028954D01*
X159097315Y-61211450D01*
X159097317Y-61211452D01*
X159228589Y-61371410D01*
X159325209Y-61450702D01*
X159388550Y-61502685D01*
X159571046Y-61600232D01*
X159769066Y-61660300D01*
X159769065Y-61660300D01*
X159787529Y-61662118D01*
X159975000Y-61680583D01*
X160180934Y-61660300D01*
X160378954Y-61600232D01*
X160561450Y-61502685D01*
X160721410Y-61371410D01*
X160852685Y-61211450D01*
X160950232Y-61028954D01*
X161010300Y-60830934D01*
X161030583Y-60625000D01*
X161010300Y-60419066D01*
X160950232Y-60221046D01*
X160852685Y-60038550D01*
X160780204Y-59950231D01*
X160721410Y-59878589D01*
X160561452Y-59747317D01*
X160561453Y-59747317D01*
X160561450Y-59747315D01*
X160378954Y-59649768D01*
X160180934Y-59589700D01*
X160180932Y-59589699D01*
X160180934Y-59589699D01*
X159975000Y-59569417D01*
X159769067Y-59589699D01*
X159571043Y-59649769D01*
X159513650Y-59680447D01*
X159388550Y-59747315D01*
X159388548Y-59747316D01*
X159388547Y-59747317D01*
X159228589Y-59878589D01*
X159098627Y-60036951D01*
X159097315Y-60038550D01*
X159075440Y-60079475D01*
X158999769Y-60221043D01*
X158939699Y-60419067D01*
X158919417Y-60625000D01*
X152320500Y-60625000D01*
X152320500Y-60166921D01*
X152320736Y-60161514D01*
X152324264Y-60121194D01*
X152313806Y-60082167D01*
X152313782Y-60082077D01*
X152312616Y-60076819D01*
X152305588Y-60036956D01*
X152305586Y-60036953D01*
X152305586Y-60036951D01*
X152303760Y-60031934D01*
X152296820Y-60015177D01*
X152294554Y-60010320D01*
X152294554Y-60010317D01*
X152290771Y-60004915D01*
X152271340Y-59977164D01*
X152268433Y-59972600D01*
X152248196Y-59937549D01*
X152248195Y-59937548D01*
X152248194Y-59937546D01*
X152217177Y-59911519D01*
X152213193Y-59907868D01*
X151821321Y-59515996D01*
X151787836Y-59454673D01*
X151792820Y-59384981D01*
X151794446Y-59380851D01*
X151795227Y-59378963D01*
X151795232Y-59378955D01*
X151855300Y-59180935D01*
X151875583Y-58975001D01*
X151855300Y-58769067D01*
X151795232Y-58571047D01*
X151697685Y-58388551D01*
X151645702Y-58325210D01*
X151566410Y-58228590D01*
X151423910Y-58111645D01*
X151406450Y-58097316D01*
X151223954Y-57999769D01*
X151025934Y-57939701D01*
X151025932Y-57939700D01*
X151025934Y-57939700D01*
X150820000Y-57919418D01*
X150614067Y-57939700D01*
X150416043Y-57999770D01*
X150328114Y-58046770D01*
X150233550Y-58097316D01*
X150233548Y-58097317D01*
X150233547Y-58097318D01*
X150073589Y-58228590D01*
X149942317Y-58388548D01*
X149844769Y-58571044D01*
X149784699Y-58769068D01*
X149764417Y-58975001D01*
X149784699Y-59180933D01*
X149814734Y-59279945D01*
X149844768Y-59378955D01*
X149942315Y-59561451D01*
X149965498Y-59589700D01*
X150073589Y-59721411D01*
X150170209Y-59800703D01*
X150233550Y-59852686D01*
X150416046Y-59950233D01*
X150614066Y-60010301D01*
X150614065Y-60010301D01*
X150632529Y-60012119D01*
X150820000Y-60030584D01*
X151025934Y-60010301D01*
X151223954Y-59950233D01*
X151223962Y-59950228D01*
X151225850Y-59949447D01*
X151226924Y-59949331D01*
X151229784Y-59948464D01*
X151229948Y-59949005D01*
X151295318Y-59941971D01*
X151357801Y-59973239D01*
X151360995Y-59976322D01*
X151633181Y-60248508D01*
X151666666Y-60309831D01*
X151669500Y-60336189D01*
X151669500Y-60591018D01*
X151649815Y-60658057D01*
X151597011Y-60703812D01*
X151527853Y-60713756D01*
X151466836Y-60686872D01*
X151406453Y-60637318D01*
X151406451Y-60637317D01*
X151406450Y-60637316D01*
X151223954Y-60539769D01*
X151025934Y-60479701D01*
X151025932Y-60479700D01*
X151025934Y-60479700D01*
X150820000Y-60459418D01*
X150614067Y-60479700D01*
X150416043Y-60539770D01*
X150320167Y-60591018D01*
X150233550Y-60637316D01*
X150233548Y-60637317D01*
X150233547Y-60637318D01*
X150073589Y-60768590D01*
X149942317Y-60928548D01*
X149844769Y-61111044D01*
X149784699Y-61309068D01*
X149764417Y-61515001D01*
X149784699Y-61720933D01*
X149789361Y-61736300D01*
X149844768Y-61918955D01*
X149844772Y-61918963D01*
X149845559Y-61920863D01*
X149845675Y-61921942D01*
X149846537Y-61924784D01*
X149845998Y-61924947D01*
X149853027Y-61990332D01*
X149821751Y-62052811D01*
X149818678Y-62055995D01*
X146851803Y-65022871D01*
X146847814Y-65026526D01*
X146816805Y-65052546D01*
X146796562Y-65087607D01*
X146793656Y-65092167D01*
X146770446Y-65125314D01*
X146768206Y-65130118D01*
X146761229Y-65146962D01*
X146759410Y-65151960D01*
X146752383Y-65191812D01*
X146751212Y-65197092D01*
X146740735Y-65236192D01*
X146744264Y-65276514D01*
X146744500Y-65281921D01*
X146744500Y-66289164D01*
X146724815Y-66356203D01*
X146672011Y-66401958D01*
X146602853Y-66411902D01*
X146539297Y-66382877D01*
X146524647Y-66367829D01*
X146451410Y-66278590D01*
X146367832Y-66210000D01*
X146291450Y-66147315D01*
X146108954Y-66049768D01*
X145910934Y-65989700D01*
X145910932Y-65989699D01*
X145910934Y-65989699D01*
X145705000Y-65969417D01*
X145499067Y-65989699D01*
X145301043Y-66049769D01*
X145270996Y-66065830D01*
X145118550Y-66147315D01*
X145118548Y-66147316D01*
X145118547Y-66147317D01*
X144958589Y-66278589D01*
X144837742Y-66425844D01*
X144827315Y-66438550D01*
X144823812Y-66445104D01*
X144729769Y-66621043D01*
X144669699Y-66819067D01*
X144649417Y-67025000D01*
X144669699Y-67230932D01*
X144678426Y-67259700D01*
X144729768Y-67428954D01*
X144827315Y-67611450D01*
X144851537Y-67640965D01*
X144958589Y-67771410D01*
X145043442Y-67841046D01*
X145118550Y-67902685D01*
X145301046Y-68000232D01*
X145499066Y-68060300D01*
X145499065Y-68060300D01*
X145517529Y-68062118D01*
X145705000Y-68080583D01*
X145910934Y-68060300D01*
X146108954Y-68000232D01*
X146291450Y-67902685D01*
X146451410Y-67771410D01*
X146524646Y-67682170D01*
X146582392Y-67642836D01*
X146652236Y-67640965D01*
X146712005Y-67677152D01*
X146742721Y-67739908D01*
X146744500Y-67760835D01*
X146744500Y-70198811D01*
X146724815Y-70265850D01*
X146708181Y-70286492D01*
X144970994Y-72023678D01*
X144909671Y-72057163D01*
X144839979Y-72052179D01*
X144835862Y-72050559D01*
X144833962Y-72049772D01*
X144833954Y-72049768D01*
X144635934Y-71989700D01*
X144635932Y-71989699D01*
X144635934Y-71989699D01*
X144430000Y-71969417D01*
X144224067Y-71989699D01*
X144089736Y-72030448D01*
X144034476Y-72047211D01*
X144026043Y-72049769D01*
X143961460Y-72084290D01*
X143843550Y-72147315D01*
X143843548Y-72147316D01*
X143843547Y-72147317D01*
X143683589Y-72278589D01*
X143552317Y-72438547D01*
X143454769Y-72621043D01*
X143394699Y-72819067D01*
X143374417Y-73025000D01*
X142945583Y-73025000D01*
X142925300Y-72819066D01*
X142865232Y-72621046D01*
X142767685Y-72438550D01*
X142692897Y-72347420D01*
X142636410Y-72278589D01*
X142486121Y-72155252D01*
X142476450Y-72147315D01*
X142293954Y-72049768D01*
X142292049Y-72048979D01*
X142291203Y-72048298D01*
X142288581Y-72046896D01*
X142288846Y-72046398D01*
X142237645Y-72005138D01*
X142215579Y-71938844D01*
X142215500Y-71934417D01*
X142215500Y-67866914D01*
X142235185Y-67799875D01*
X142287989Y-67754120D01*
X142357147Y-67744176D01*
X142418165Y-67771061D01*
X142418589Y-67771409D01*
X142418590Y-67771410D01*
X142453275Y-67799875D01*
X142568883Y-67894752D01*
X142578550Y-67902685D01*
X142761046Y-68000232D01*
X142959066Y-68060300D01*
X142959065Y-68060300D01*
X142977529Y-68062118D01*
X143165000Y-68080583D01*
X143370934Y-68060300D01*
X143568954Y-68000232D01*
X143751450Y-67902685D01*
X143911410Y-67771410D01*
X144042685Y-67611450D01*
X144140232Y-67428954D01*
X144200300Y-67230934D01*
X144220583Y-67025000D01*
X144200300Y-66819066D01*
X144140232Y-66621046D01*
X144042685Y-66438550D01*
X143975105Y-66356203D01*
X143911410Y-66278589D01*
X143773289Y-66165238D01*
X143751450Y-66147315D01*
X143568954Y-66049768D01*
X143370934Y-65989700D01*
X143370932Y-65989699D01*
X143370934Y-65989699D01*
X143293191Y-65982042D01*
X143228404Y-65955880D01*
X143188045Y-65898845D01*
X143184929Y-65829045D01*
X143217663Y-65770960D01*
X145626806Y-63361819D01*
X145688129Y-63328334D01*
X145714487Y-63325500D01*
X145899780Y-63325500D01*
X145905183Y-63325735D01*
X145945509Y-63329264D01*
X145984642Y-63318777D01*
X145989864Y-63317619D01*
X146029747Y-63310588D01*
X146029752Y-63310584D01*
X146034801Y-63308747D01*
X146051526Y-63301819D01*
X146056383Y-63299554D01*
X146056386Y-63299554D01*
X146089543Y-63276335D01*
X146094092Y-63273438D01*
X146129157Y-63253194D01*
X146155183Y-63222176D01*
X146158824Y-63218202D01*
X147218215Y-62158811D01*
X147222183Y-62155177D01*
X147238619Y-62141386D01*
X147253194Y-62129157D01*
X147253195Y-62129154D01*
X147258937Y-62124337D01*
X147322945Y-62096325D01*
X147391937Y-62107366D01*
X147434494Y-62140663D01*
X147525933Y-62252081D01*
X147533590Y-62261411D01*
X147693550Y-62392686D01*
X147876046Y-62490233D01*
X148074066Y-62550301D01*
X148074065Y-62550301D01*
X148092529Y-62552119D01*
X148280000Y-62570584D01*
X148485934Y-62550301D01*
X148683954Y-62490233D01*
X148866450Y-62392686D01*
X149026410Y-62261411D01*
X149157685Y-62101451D01*
X149255232Y-61918955D01*
X149315300Y-61720935D01*
X149335583Y-61515001D01*
X149315300Y-61309067D01*
X149255232Y-61111047D01*
X149157685Y-60928551D01*
X149105085Y-60864457D01*
X149026410Y-60768590D01*
X148891723Y-60658057D01*
X148866450Y-60637316D01*
X148683954Y-60539769D01*
X148485934Y-60479701D01*
X148485932Y-60479700D01*
X148485934Y-60479700D01*
X148280000Y-60459418D01*
X148074067Y-60479700D01*
X147876043Y-60539770D01*
X147780167Y-60591018D01*
X147693550Y-60637316D01*
X147693548Y-60637317D01*
X147693547Y-60637318D01*
X147528880Y-60772456D01*
X147527222Y-60770436D01*
X147475858Y-60798484D01*
X147406166Y-60793500D01*
X147350233Y-60751628D01*
X147325816Y-60686164D01*
X147325500Y-60677318D01*
X147325500Y-60441189D01*
X147345185Y-60374150D01*
X147361819Y-60353508D01*
X147548406Y-60166921D01*
X147739006Y-59976320D01*
X147800327Y-59942837D01*
X147870018Y-59947821D01*
X147874144Y-59949445D01*
X147876041Y-59950231D01*
X147876043Y-59950231D01*
X147876046Y-59950233D01*
X148074066Y-60010301D01*
X148074065Y-60010301D01*
X148092529Y-60012119D01*
X148280000Y-60030584D01*
X148485934Y-60010301D01*
X148683954Y-59950233D01*
X148866450Y-59852686D01*
X149026410Y-59721411D01*
X149157685Y-59561451D01*
X149255232Y-59378955D01*
X149315300Y-59180935D01*
X149335583Y-58975001D01*
X149315300Y-58769067D01*
X149255232Y-58571047D01*
X149157685Y-58388551D01*
X149105702Y-58325210D01*
X149026410Y-58228590D01*
X148883910Y-58111645D01*
X148866450Y-58097316D01*
X148683954Y-57999769D01*
X148485934Y-57939701D01*
X148485932Y-57939700D01*
X148485934Y-57939700D01*
X148280000Y-57919418D01*
X148074067Y-57939700D01*
X147876043Y-57999770D01*
X147788114Y-58046770D01*
X147693550Y-58097316D01*
X147693548Y-58097317D01*
X147693547Y-58097318D01*
X147533589Y-58228590D01*
X147402317Y-58388548D01*
X147304769Y-58571044D01*
X147244699Y-58769068D01*
X147224417Y-58975001D01*
X147244699Y-59180933D01*
X147304769Y-59378959D01*
X147305561Y-59380870D01*
X147305677Y-59381950D01*
X147306537Y-59384785D01*
X147305999Y-59384948D01*
X147313024Y-59450340D01*
X147281744Y-59512817D01*
X147278677Y-59515995D01*
X146781803Y-60012871D01*
X146777814Y-60016526D01*
X146746805Y-60042546D01*
X146726562Y-60077607D01*
X146723656Y-60082167D01*
X146700446Y-60115314D01*
X146698206Y-60120118D01*
X146691229Y-60136962D01*
X146689410Y-60141960D01*
X146682383Y-60181812D01*
X146681212Y-60187092D01*
X146670735Y-60226192D01*
X146674264Y-60266514D01*
X146674500Y-60271921D01*
X146674500Y-60660776D01*
X146654815Y-60727815D01*
X146602011Y-60773570D01*
X146532853Y-60783514D01*
X146471836Y-60756630D01*
X146351723Y-60658057D01*
X146326450Y-60637316D01*
X146143954Y-60539769D01*
X145945934Y-60479701D01*
X145945932Y-60479700D01*
X145945934Y-60479700D01*
X145740000Y-60459418D01*
X145534067Y-60479700D01*
X145336043Y-60539770D01*
X145240167Y-60591018D01*
X145153550Y-60637316D01*
X145153548Y-60637317D01*
X145153547Y-60637318D01*
X144993589Y-60768590D01*
X144862317Y-60928548D01*
X144764769Y-61111044D01*
X144704699Y-61309068D01*
X144684417Y-61515001D01*
X144704699Y-61720933D01*
X144709361Y-61736300D01*
X144764768Y-61918955D01*
X144862315Y-62101451D01*
X144885498Y-62129700D01*
X144993589Y-62261411D01*
X145090209Y-62340703D01*
X145153550Y-62392686D01*
X145322209Y-62482837D01*
X145331533Y-62487821D01*
X145336046Y-62490233D01*
X145338226Y-62490894D01*
X145339231Y-62491553D01*
X145341670Y-62492563D01*
X145341478Y-62493025D01*
X145396665Y-62529191D01*
X145425122Y-62593003D01*
X145414563Y-62662070D01*
X145373354Y-62711131D01*
X145355466Y-62723656D01*
X145350905Y-62726562D01*
X145315847Y-62746804D01*
X145315839Y-62746810D01*
X145289822Y-62777815D01*
X145286168Y-62781804D01*
X141671803Y-66396169D01*
X141667815Y-66399823D01*
X141647240Y-66417089D01*
X141583233Y-66445104D01*
X141514240Y-66434067D01*
X141471677Y-66400766D01*
X141371410Y-66278589D01*
X141233289Y-66165238D01*
X141211450Y-66147315D01*
X141028954Y-66049768D01*
X140830934Y-65989700D01*
X140830932Y-65989699D01*
X140830934Y-65989699D01*
X140625000Y-65969417D01*
X140419067Y-65989699D01*
X140221043Y-66049769D01*
X140190996Y-66065830D01*
X140038550Y-66147315D01*
X140038548Y-66147316D01*
X140038547Y-66147317D01*
X139878589Y-66278589D01*
X139757742Y-66425844D01*
X139747315Y-66438550D01*
X139743812Y-66445104D01*
X139649769Y-66621043D01*
X139589699Y-66819067D01*
X139569417Y-67025000D01*
X127832673Y-67025000D01*
X127871082Y-66998105D01*
X128038105Y-66831082D01*
X128173600Y-66637578D01*
X128273429Y-66423492D01*
X128273432Y-66423486D01*
X128330636Y-66210000D01*
X127433686Y-66210000D01*
X127459493Y-66169844D01*
X127500000Y-66031889D01*
X127500000Y-65888111D01*
X127459493Y-65750156D01*
X127433686Y-65710000D01*
X128330636Y-65710000D01*
X128330635Y-65709999D01*
X128273432Y-65496513D01*
X128273429Y-65496507D01*
X128173600Y-65282422D01*
X128173599Y-65282420D01*
X128038113Y-65088926D01*
X128038108Y-65088920D01*
X127871082Y-64921894D01*
X127677578Y-64786399D01*
X127463492Y-64686570D01*
X127463486Y-64686567D01*
X127250000Y-64629364D01*
X127250000Y-65524498D01*
X127142315Y-65475320D01*
X127035763Y-65460000D01*
X126964237Y-65460000D01*
X126857685Y-65475320D01*
X126750000Y-65524498D01*
X126750000Y-64629364D01*
X126749999Y-64629364D01*
X126536513Y-64686567D01*
X126536507Y-64686570D01*
X126322422Y-64786399D01*
X126322420Y-64786400D01*
X126128926Y-64921886D01*
X126128920Y-64921891D01*
X125961891Y-65088920D01*
X125961886Y-65088926D01*
X125826400Y-65282420D01*
X125826399Y-65282422D01*
X125726570Y-65496507D01*
X125726567Y-65496513D01*
X125669364Y-65709999D01*
X125669364Y-65710000D01*
X126566314Y-65710000D01*
X126540507Y-65750156D01*
X126500000Y-65888111D01*
X126500000Y-66031889D01*
X126540507Y-66169844D01*
X126566314Y-66210000D01*
X125669364Y-66210000D01*
X124000499Y-66210000D01*
X124000499Y-63999998D01*
X124000502Y-63999902D01*
X124018254Y-63502860D01*
X124018569Y-63498464D01*
X124022167Y-63465000D01*
X132694364Y-63465000D01*
X132751567Y-63678486D01*
X132751570Y-63678492D01*
X132851399Y-63892578D01*
X132986894Y-64086082D01*
X133153917Y-64253105D01*
X133347421Y-64388600D01*
X133561507Y-64488429D01*
X133561516Y-64488433D01*
X133683649Y-64521158D01*
X133743310Y-64557523D01*
X133773839Y-64620369D01*
X133765545Y-64689745D01*
X133721059Y-64743623D01*
X133687552Y-64759593D01*
X133621046Y-64779767D01*
X133490358Y-64849622D01*
X133438550Y-64877315D01*
X133438548Y-64877316D01*
X133438547Y-64877317D01*
X133278589Y-65008589D01*
X133147317Y-65168547D01*
X133049769Y-65351043D01*
X132989699Y-65549067D01*
X132969417Y-65755000D01*
X132989699Y-65960932D01*
X133011224Y-66031889D01*
X133049768Y-66158954D01*
X133147315Y-66341450D01*
X133168964Y-66367829D01*
X133278589Y-66501410D01*
X133359454Y-66567773D01*
X133438550Y-66632685D01*
X133621046Y-66730232D01*
X133819066Y-66790300D01*
X133819065Y-66790300D01*
X133837529Y-66792118D01*
X134025000Y-66810583D01*
X134230934Y-66790300D01*
X134428954Y-66730232D01*
X134611450Y-66632685D01*
X134771410Y-66501410D01*
X134902685Y-66341450D01*
X135000232Y-66158954D01*
X135060300Y-65960934D01*
X135080583Y-65755000D01*
X135060300Y-65549066D01*
X135000232Y-65351046D01*
X134902685Y-65168550D01*
X134850702Y-65105209D01*
X134771410Y-65008589D01*
X134611452Y-64877317D01*
X134611453Y-64877317D01*
X134611450Y-64877315D01*
X134428954Y-64779768D01*
X134362447Y-64759593D01*
X134304009Y-64721296D01*
X134275553Y-64657484D01*
X134286113Y-64588417D01*
X134332337Y-64536023D01*
X134366350Y-64521158D01*
X134488483Y-64488433D01*
X134488492Y-64488429D01*
X134702578Y-64388600D01*
X134896082Y-64253105D01*
X135063105Y-64086082D01*
X135198600Y-63892578D01*
X135298429Y-63678492D01*
X135298432Y-63678486D01*
X135355636Y-63465000D01*
X134458686Y-63465000D01*
X134484493Y-63424844D01*
X134525000Y-63286889D01*
X134525000Y-63143111D01*
X134484493Y-63005156D01*
X134458686Y-62965000D01*
X135355636Y-62965000D01*
X135355635Y-62964999D01*
X135298432Y-62751513D01*
X135298429Y-62751507D01*
X135198600Y-62537422D01*
X135198599Y-62537420D01*
X135063113Y-62343926D01*
X135063108Y-62343920D01*
X134896082Y-62176894D01*
X134702578Y-62041399D01*
X134532052Y-61961882D01*
X134479613Y-61915710D01*
X134460461Y-61848516D01*
X134480677Y-61781635D01*
X134533842Y-61736300D01*
X134584457Y-61725500D01*
X134894750Y-61725500D01*
X134894751Y-61725499D01*
X134917708Y-61720933D01*
X134953229Y-61713868D01*
X134953229Y-61713867D01*
X134953231Y-61713867D01*
X135019552Y-61669552D01*
X135063867Y-61603231D01*
X135063867Y-61603229D01*
X135063868Y-61603229D01*
X135074080Y-61551886D01*
X135075500Y-61544748D01*
X135075500Y-61515001D01*
X142144417Y-61515001D01*
X142164699Y-61720933D01*
X142169361Y-61736300D01*
X142224768Y-61918955D01*
X142322315Y-62101451D01*
X142345498Y-62129700D01*
X142453589Y-62261411D01*
X142550209Y-62340703D01*
X142613550Y-62392686D01*
X142796046Y-62490233D01*
X142994066Y-62550301D01*
X142994065Y-62550301D01*
X143012529Y-62552119D01*
X143200000Y-62570584D01*
X143405934Y-62550301D01*
X143603954Y-62490233D01*
X143786450Y-62392686D01*
X143946410Y-62261411D01*
X144077685Y-62101451D01*
X144175232Y-61918955D01*
X144235300Y-61720935D01*
X144255583Y-61515001D01*
X144235300Y-61309067D01*
X144175232Y-61111047D01*
X144077685Y-60928551D01*
X144025085Y-60864457D01*
X143946410Y-60768590D01*
X143811723Y-60658057D01*
X143786450Y-60637316D01*
X143603954Y-60539769D01*
X143405934Y-60479701D01*
X143405932Y-60479700D01*
X143405934Y-60479700D01*
X143200000Y-60459418D01*
X142994067Y-60479700D01*
X142796043Y-60539770D01*
X142700167Y-60591018D01*
X142613550Y-60637316D01*
X142613548Y-60637317D01*
X142613547Y-60637318D01*
X142453589Y-60768590D01*
X142322317Y-60928548D01*
X142224769Y-61111044D01*
X142164699Y-61309068D01*
X142144417Y-61515001D01*
X135075500Y-61515001D01*
X135075500Y-59844753D01*
X142149500Y-59844753D01*
X142161131Y-59903230D01*
X142161132Y-59903231D01*
X142205447Y-59969553D01*
X142271769Y-60013868D01*
X142271770Y-60013869D01*
X142330247Y-60025500D01*
X142330250Y-60025501D01*
X142330252Y-60025501D01*
X144069750Y-60025501D01*
X144069751Y-60025500D01*
X144084568Y-60022553D01*
X144128229Y-60013869D01*
X144128229Y-60013868D01*
X144128231Y-60013868D01*
X144194552Y-59969553D01*
X144238867Y-59903232D01*
X144238867Y-59903230D01*
X144238868Y-59903230D01*
X144250499Y-59844753D01*
X144250500Y-59844751D01*
X144250500Y-58975001D01*
X144684417Y-58975001D01*
X144704699Y-59180933D01*
X144734734Y-59279945D01*
X144764768Y-59378955D01*
X144862315Y-59561451D01*
X144885498Y-59589700D01*
X144993589Y-59721411D01*
X145090209Y-59800703D01*
X145153550Y-59852686D01*
X145336046Y-59950233D01*
X145534066Y-60010301D01*
X145534065Y-60010301D01*
X145552529Y-60012119D01*
X145740000Y-60030584D01*
X145945934Y-60010301D01*
X146143954Y-59950233D01*
X146326450Y-59852686D01*
X146486410Y-59721411D01*
X146617685Y-59561451D01*
X146715232Y-59378955D01*
X146775300Y-59180935D01*
X146795583Y-58975001D01*
X146775300Y-58769067D01*
X146715232Y-58571047D01*
X146617685Y-58388551D01*
X146565702Y-58325210D01*
X146486410Y-58228590D01*
X146343910Y-58111645D01*
X146326450Y-58097316D01*
X146143954Y-57999769D01*
X145945934Y-57939701D01*
X145945932Y-57939700D01*
X145945934Y-57939700D01*
X145740000Y-57919418D01*
X145534067Y-57939700D01*
X145336043Y-57999770D01*
X145248114Y-58046770D01*
X145153550Y-58097316D01*
X145153548Y-58097317D01*
X145153547Y-58097318D01*
X144993589Y-58228590D01*
X144862317Y-58388548D01*
X144764769Y-58571044D01*
X144704699Y-58769068D01*
X144684417Y-58975001D01*
X144250500Y-58975001D01*
X144250500Y-58105250D01*
X144250499Y-58105248D01*
X144238868Y-58046771D01*
X144238867Y-58046770D01*
X144194552Y-57980448D01*
X144128230Y-57936133D01*
X144128229Y-57936132D01*
X144069752Y-57924501D01*
X144069748Y-57924501D01*
X142330252Y-57924501D01*
X142330247Y-57924501D01*
X142271770Y-57936132D01*
X142271769Y-57936133D01*
X142205447Y-57980448D01*
X142161132Y-58046770D01*
X142161131Y-58046771D01*
X142149500Y-58105248D01*
X142149500Y-59844753D01*
X135075500Y-59844753D01*
X135075500Y-59805252D01*
X135075500Y-59805249D01*
X135075499Y-59805247D01*
X135063868Y-59746770D01*
X135063867Y-59746769D01*
X135019552Y-59680447D01*
X134953230Y-59636132D01*
X134953229Y-59636131D01*
X134894752Y-59624500D01*
X134894748Y-59624500D01*
X133155252Y-59624500D01*
X133155247Y-59624500D01*
X133096770Y-59636131D01*
X133096769Y-59636132D01*
X133030447Y-59680447D01*
X132986132Y-59746769D01*
X132986131Y-59746770D01*
X132974500Y-59805247D01*
X132974500Y-61544752D01*
X132986131Y-61603229D01*
X132986132Y-61603230D01*
X133030447Y-61669552D01*
X133096769Y-61713867D01*
X133096770Y-61713868D01*
X133155247Y-61725499D01*
X133155250Y-61725500D01*
X133465543Y-61725500D01*
X133532582Y-61745185D01*
X133578337Y-61797989D01*
X133588281Y-61867147D01*
X133559256Y-61930703D01*
X133517948Y-61961882D01*
X133347422Y-62041399D01*
X133347420Y-62041400D01*
X133153926Y-62176886D01*
X133153920Y-62176891D01*
X132986891Y-62343920D01*
X132986886Y-62343926D01*
X132851400Y-62537420D01*
X132851399Y-62537422D01*
X132751570Y-62751507D01*
X132751567Y-62751513D01*
X132694364Y-62964999D01*
X132694364Y-62965000D01*
X133591314Y-62965000D01*
X133565507Y-63005156D01*
X133525000Y-63143111D01*
X133525000Y-63286889D01*
X133565507Y-63424844D01*
X133591314Y-63465000D01*
X132694364Y-63465000D01*
X124022167Y-63465000D01*
X124030791Y-63384784D01*
X124071509Y-63006048D01*
X124072133Y-63001706D01*
X124160072Y-62514295D01*
X124160999Y-62510035D01*
X124283487Y-62030128D01*
X124284723Y-62025922D01*
X124441124Y-61556014D01*
X124442661Y-61551893D01*
X124632183Y-61094344D01*
X124634020Y-61090324D01*
X124664740Y-61028954D01*
X124855705Y-60647452D01*
X124857802Y-60643612D01*
X125110526Y-60217668D01*
X125112882Y-60214001D01*
X125395351Y-59807168D01*
X125397996Y-59803636D01*
X125708761Y-59418000D01*
X125711625Y-59414695D01*
X126049106Y-59052214D01*
X126052214Y-59049106D01*
X126414695Y-58711625D01*
X126418000Y-58708761D01*
X126803649Y-58397985D01*
X126807168Y-58395351D01*
X127214001Y-58112882D01*
X127217668Y-58110526D01*
X127643612Y-57857802D01*
X127647452Y-57855705D01*
X128090326Y-57634018D01*
X128094344Y-57632183D01*
X128551893Y-57442661D01*
X128556014Y-57441124D01*
X129025922Y-57284723D01*
X129030128Y-57283487D01*
X129510035Y-57160999D01*
X129514295Y-57160072D01*
X130001706Y-57072133D01*
X130006048Y-57071509D01*
X130498466Y-57018568D01*
X130502860Y-57018254D01*
X130999998Y-57000499D01*
X162948140Y-57000499D01*
X162948144Y-57000501D01*
G37*
%TD.AperFunction*%
%TD*%
%TA.AperFunction,Conductor*%
%TO.N,GND*%
G36*
X154368738Y-129532352D02*
G01*
X154483748Y-129647362D01*
X154581065Y-129708510D01*
X154602766Y-129739095D01*
X154596484Y-129776069D01*
X154581065Y-129791488D01*
X154483749Y-129852636D01*
X154483745Y-129852639D01*
X154352640Y-129983744D01*
X154352637Y-129983748D01*
X154253993Y-130140739D01*
X154253992Y-130140741D01*
X154192755Y-130315746D01*
X154192753Y-130315755D01*
X154171994Y-130499999D01*
X154186460Y-130628393D01*
X154192754Y-130684248D01*
X154253992Y-130859257D01*
X154352639Y-131016252D01*
X154483747Y-131147360D01*
X154483749Y-131147361D01*
X154581067Y-131208511D01*
X154602769Y-131239097D01*
X154596486Y-131276070D01*
X154581067Y-131291489D01*
X154483749Y-131352638D01*
X154483745Y-131352641D01*
X154352640Y-131483746D01*
X154352637Y-131483750D01*
X154253993Y-131640741D01*
X154253992Y-131640743D01*
X154192755Y-131815748D01*
X154192753Y-131815757D01*
X154171994Y-132000001D01*
X154189656Y-132156761D01*
X154192754Y-132184250D01*
X154253992Y-132359259D01*
X154298624Y-132430290D01*
X154339917Y-132496008D01*
X154352639Y-132516254D01*
X154483747Y-132647362D01*
X154498530Y-132656651D01*
X154525265Y-132673450D01*
X154533843Y-132680291D01*
X154985253Y-133131701D01*
X154969479Y-133131701D01*
X154878759Y-133146839D01*
X154770657Y-133205341D01*
X154687408Y-133295774D01*
X154638033Y-133408338D01*
X154631662Y-133485215D01*
X154046612Y-132900166D01*
X154041714Y-132906653D01*
X154041709Y-132906661D01*
X153949005Y-133092836D01*
X153949002Y-133092844D01*
X153892083Y-133292892D01*
X153892082Y-133292898D01*
X153872892Y-133500001D01*
X153892082Y-133707103D01*
X153892083Y-133707109D01*
X153949002Y-133907157D01*
X153949005Y-133907165D01*
X154041710Y-134093343D01*
X154041716Y-134093351D01*
X154046611Y-134099834D01*
X154046612Y-134099834D01*
X154628990Y-133517457D01*
X154627882Y-133530836D01*
X154658057Y-133649991D01*
X154725286Y-133752893D01*
X154822285Y-133828390D01*
X154938542Y-133868301D01*
X154985253Y-133868301D01*
X154533844Y-134319708D01*
X154525267Y-134326549D01*
X154483743Y-134352641D01*
X154352640Y-134483745D01*
X154352637Y-134483749D01*
X154253993Y-134640740D01*
X154253992Y-134640742D01*
X154192755Y-134815747D01*
X154192753Y-134815756D01*
X154171994Y-135000000D01*
X154190853Y-135167384D01*
X154192754Y-135184249D01*
X154253992Y-135359258D01*
X154253993Y-135359259D01*
X154342426Y-135500000D01*
X154352639Y-135516253D01*
X154483747Y-135647361D01*
X154640742Y-135746008D01*
X154815751Y-135807246D01*
X155000000Y-135828006D01*
X155184249Y-135807246D01*
X155359258Y-135746008D01*
X155516253Y-135647361D01*
X155647361Y-135516253D01*
X155746008Y-135359258D01*
X155807246Y-135184249D01*
X155828006Y-135000000D01*
X155807246Y-134815751D01*
X155746008Y-134640742D01*
X155647361Y-134483747D01*
X155516253Y-134352639D01*
X155516250Y-134352637D01*
X155474732Y-134326549D01*
X155466154Y-134319708D01*
X155014747Y-133868301D01*
X155030521Y-133868301D01*
X155121241Y-133853163D01*
X155229343Y-133794661D01*
X155312592Y-133704228D01*
X155361967Y-133591664D01*
X155368337Y-133514785D01*
X155953387Y-134099835D01*
X155958284Y-134093350D01*
X155958288Y-134093344D01*
X156050994Y-133907165D01*
X156050997Y-133907157D01*
X156107916Y-133707109D01*
X156107917Y-133707103D01*
X156127107Y-133500001D01*
X156107917Y-133292898D01*
X156107916Y-133292892D01*
X156050997Y-133092844D01*
X156050994Y-133092837D01*
X155958287Y-132906657D01*
X155958285Y-132906653D01*
X155953386Y-132900165D01*
X155371009Y-133482543D01*
X155372118Y-133469166D01*
X155341943Y-133350011D01*
X155274714Y-133247109D01*
X155177715Y-133171612D01*
X155061458Y-133131701D01*
X155014748Y-133131701D01*
X155466156Y-132680290D01*
X155474725Y-132673455D01*
X155516253Y-132647362D01*
X155647361Y-132516254D01*
X155746008Y-132359259D01*
X155807246Y-132184250D01*
X155828006Y-132000001D01*
X155807246Y-131815752D01*
X155775247Y-131724305D01*
X155777349Y-131686864D01*
X155786846Y-131673479D01*
X156490853Y-130969473D01*
X156525500Y-130955122D01*
X156560148Y-130969474D01*
X156574500Y-131004122D01*
X156574500Y-132634711D01*
X156574407Y-132636847D01*
X156570736Y-132678808D01*
X156581637Y-132719494D01*
X156582100Y-132721581D01*
X156589411Y-132763045D01*
X156589412Y-132763047D01*
X156593455Y-132770049D01*
X156598351Y-132781868D01*
X156600445Y-132789683D01*
X156600444Y-132789683D01*
X156624601Y-132824183D01*
X156625744Y-132825978D01*
X156633313Y-132839086D01*
X156646804Y-132862454D01*
X156646806Y-132862456D01*
X156679072Y-132889531D01*
X156680649Y-132890976D01*
X159713149Y-135923476D01*
X159727501Y-135958124D01*
X159724751Y-135974307D01*
X159721308Y-135984148D01*
X159692754Y-136065752D01*
X159671994Y-136250001D01*
X159692754Y-136434250D01*
X159753992Y-136609259D01*
X159753993Y-136609260D01*
X159852637Y-136766251D01*
X159852640Y-136766255D01*
X159983748Y-136897363D01*
X160081065Y-136958511D01*
X160102766Y-136989096D01*
X160096484Y-137026070D01*
X160081065Y-137041489D01*
X159983749Y-137102637D01*
X159983745Y-137102640D01*
X159868738Y-137217648D01*
X159834090Y-137232000D01*
X155484859Y-137232000D01*
X155450211Y-137217648D01*
X151782352Y-133549789D01*
X151768000Y-133515141D01*
X151768000Y-132327290D01*
X151773712Y-132305977D01*
X151773307Y-132305809D01*
X151823658Y-132184250D01*
X151835044Y-132156762D01*
X151855682Y-132000000D01*
X151835044Y-131843238D01*
X151823657Y-131815748D01*
X151773307Y-131694191D01*
X151773710Y-131694023D01*
X151768000Y-131672708D01*
X151768000Y-130508828D01*
X151770128Y-130446534D01*
X151770127Y-130446533D01*
X151770128Y-130446529D01*
X151759855Y-130404379D01*
X151759390Y-130401930D01*
X151753481Y-130358931D01*
X151744440Y-130338119D01*
X151741782Y-130330214D01*
X151736414Y-130308183D01*
X151724330Y-130286691D01*
X151715150Y-130270363D01*
X151714034Y-130268116D01*
X151696750Y-130228326D01*
X151696750Y-130228325D01*
X151682440Y-130210735D01*
X151677740Y-130203829D01*
X151666627Y-130184064D01*
X151666624Y-130184061D01*
X151652013Y-130169450D01*
X151635938Y-130153375D01*
X151634266Y-130151522D01*
X151606888Y-130117869D01*
X151606887Y-130117868D01*
X151588360Y-130104790D01*
X151581970Y-130099407D01*
X151084211Y-129601648D01*
X151069859Y-129567000D01*
X151084211Y-129532352D01*
X151118859Y-129518000D01*
X154334090Y-129518000D01*
X154368738Y-129532352D01*
G37*
%TD.AperFunction*%
%TA.AperFunction,Conductor*%
G36*
X131991734Y-85000546D02*
G01*
X131999998Y-85000540D01*
X132000000Y-85000541D01*
X132000001Y-85000540D01*
X132009672Y-85000534D01*
X132009843Y-85000500D01*
X132990157Y-85000500D01*
X132990327Y-85000534D01*
X132999998Y-85000540D01*
X133000000Y-85000541D01*
X133000001Y-85000540D01*
X133008265Y-85000546D01*
X133011020Y-85000001D01*
X133988980Y-85000001D01*
X133991734Y-85000546D01*
X133999998Y-85000540D01*
X134000000Y-85000541D01*
X134000001Y-85000540D01*
X134009672Y-85000534D01*
X134009843Y-85000500D01*
X134990157Y-85000500D01*
X134990327Y-85000534D01*
X134999998Y-85000540D01*
X135000000Y-85000541D01*
X135000001Y-85000540D01*
X135008265Y-85000546D01*
X135011020Y-85000001D01*
X135988980Y-85000001D01*
X135991734Y-85000546D01*
X135999998Y-85000540D01*
X136000000Y-85000541D01*
X136000001Y-85000540D01*
X136009672Y-85000534D01*
X136009843Y-85000500D01*
X136990157Y-85000500D01*
X136990327Y-85000534D01*
X136999998Y-85000540D01*
X137000000Y-85000541D01*
X137000001Y-85000540D01*
X137008265Y-85000546D01*
X137011020Y-85000001D01*
X137988980Y-85000001D01*
X137991734Y-85000546D01*
X137999998Y-85000540D01*
X138000000Y-85000541D01*
X138000001Y-85000540D01*
X138009672Y-85000534D01*
X138009843Y-85000500D01*
X138990157Y-85000500D01*
X138990327Y-85000534D01*
X138999998Y-85000540D01*
X139000000Y-85000541D01*
X139000001Y-85000540D01*
X139008265Y-85000546D01*
X139011020Y-85000001D01*
X139988980Y-85000001D01*
X139991734Y-85000546D01*
X139999998Y-85000540D01*
X140000000Y-85000541D01*
X140000001Y-85000540D01*
X140009672Y-85000534D01*
X140009843Y-85000500D01*
X140990157Y-85000500D01*
X140990327Y-85000534D01*
X140999998Y-85000540D01*
X141000000Y-85000541D01*
X141000001Y-85000540D01*
X141008265Y-85000546D01*
X141011020Y-85000001D01*
X141988980Y-85000001D01*
X141991734Y-85000546D01*
X141999998Y-85000540D01*
X142000000Y-85000541D01*
X142000001Y-85000540D01*
X142009672Y-85000534D01*
X142009843Y-85000500D01*
X142990157Y-85000500D01*
X142990327Y-85000534D01*
X142999998Y-85000540D01*
X143000000Y-85000541D01*
X143000001Y-85000540D01*
X143008265Y-85000546D01*
X143011020Y-85000001D01*
X143988980Y-85000001D01*
X143991734Y-85000546D01*
X143999998Y-85000540D01*
X144000000Y-85000541D01*
X144000001Y-85000540D01*
X144009672Y-85000534D01*
X144009843Y-85000500D01*
X144990157Y-85000500D01*
X144990327Y-85000534D01*
X144999998Y-85000540D01*
X145000000Y-85000541D01*
X145000001Y-85000540D01*
X145008265Y-85000546D01*
X145011020Y-85000001D01*
X145988980Y-85000001D01*
X145991734Y-85000546D01*
X145999998Y-85000540D01*
X146000000Y-85000541D01*
X146000001Y-85000540D01*
X146009672Y-85000534D01*
X146009843Y-85000500D01*
X147990157Y-85000500D01*
X147990327Y-85000534D01*
X147999998Y-85000540D01*
X148000000Y-85000541D01*
X148000001Y-85000540D01*
X148008265Y-85000546D01*
X148011020Y-85000001D01*
X148988980Y-85000001D01*
X148991734Y-85000546D01*
X148999998Y-85000540D01*
X149000000Y-85000541D01*
X149000001Y-85000540D01*
X149009672Y-85000534D01*
X149009843Y-85000500D01*
X149990157Y-85000500D01*
X149990327Y-85000534D01*
X149999998Y-85000540D01*
X150000000Y-85000541D01*
X150000001Y-85000540D01*
X150008265Y-85000546D01*
X150011020Y-85000001D01*
X150988980Y-85000001D01*
X150991734Y-85000546D01*
X150999998Y-85000540D01*
X151000000Y-85000541D01*
X151000001Y-85000540D01*
X151009672Y-85000534D01*
X151009843Y-85000500D01*
X151990157Y-85000500D01*
X151990327Y-85000534D01*
X151999998Y-85000540D01*
X152000000Y-85000541D01*
X152000001Y-85000540D01*
X152008265Y-85000546D01*
X152011020Y-85000001D01*
X152988980Y-85000001D01*
X152991734Y-85000546D01*
X152999998Y-85000540D01*
X153000000Y-85000541D01*
X153000001Y-85000540D01*
X153009672Y-85000534D01*
X153009843Y-85000500D01*
X153990157Y-85000500D01*
X153990327Y-85000534D01*
X153999998Y-85000540D01*
X154000000Y-85000541D01*
X154000001Y-85000540D01*
X154008265Y-85000546D01*
X154011020Y-85000001D01*
X154988980Y-85000001D01*
X154991734Y-85000546D01*
X154999998Y-85000540D01*
X155000000Y-85000541D01*
X155000001Y-85000540D01*
X155009672Y-85000534D01*
X155009843Y-85000500D01*
X155990157Y-85000500D01*
X155990327Y-85000534D01*
X155999998Y-85000540D01*
X156000000Y-85000541D01*
X156000001Y-85000540D01*
X156008265Y-85000546D01*
X156011020Y-85000001D01*
X156988980Y-85000001D01*
X156991734Y-85000546D01*
X156999998Y-85000540D01*
X157000000Y-85000541D01*
X157000001Y-85000540D01*
X157009672Y-85000534D01*
X157009843Y-85000500D01*
X157990157Y-85000500D01*
X157990327Y-85000534D01*
X157999998Y-85000540D01*
X158000000Y-85000541D01*
X158000001Y-85000540D01*
X158008265Y-85000546D01*
X158011020Y-85000001D01*
X158988980Y-85000001D01*
X158991734Y-85000546D01*
X158999998Y-85000540D01*
X159000000Y-85000541D01*
X159000001Y-85000540D01*
X159009672Y-85000534D01*
X159009843Y-85000500D01*
X159990157Y-85000500D01*
X159990327Y-85000534D01*
X159999998Y-85000540D01*
X160000000Y-85000541D01*
X160000001Y-85000540D01*
X160008265Y-85000546D01*
X160011020Y-85000001D01*
X160988980Y-85000001D01*
X160991734Y-85000546D01*
X160999998Y-85000540D01*
X161000000Y-85000541D01*
X161000001Y-85000540D01*
X161009672Y-85000534D01*
X161009843Y-85000500D01*
X161990157Y-85000500D01*
X161990327Y-85000534D01*
X161999998Y-85000540D01*
X162000000Y-85000541D01*
X162000001Y-85000540D01*
X162008265Y-85000546D01*
X162011020Y-85000001D01*
X162978705Y-85000001D01*
X162979910Y-85000500D01*
X162990156Y-85000500D01*
X162990431Y-85000554D01*
X162999998Y-85000540D01*
X163000000Y-85000541D01*
X163000001Y-85000540D01*
X163001099Y-85000539D01*
X163498496Y-85018303D01*
X163500182Y-85018424D01*
X163995287Y-85071654D01*
X163996972Y-85071896D01*
X164487014Y-85160310D01*
X164488680Y-85160672D01*
X164971162Y-85283818D01*
X164972801Y-85284300D01*
X165445254Y-85441547D01*
X165446866Y-85442147D01*
X165654754Y-85528258D01*
X165906891Y-85632697D01*
X165908460Y-85633413D01*
X166353714Y-85856291D01*
X166353716Y-85856292D01*
X166355243Y-85857125D01*
X166783468Y-86111202D01*
X166784921Y-86112136D01*
X167193930Y-86396116D01*
X167193933Y-86396118D01*
X167195315Y-86397153D01*
X167583024Y-86709588D01*
X167584337Y-86710726D01*
X167676111Y-86796171D01*
X167853687Y-86961500D01*
X167948753Y-87050009D01*
X167949990Y-87051246D01*
X168289273Y-87415662D01*
X168290413Y-87416977D01*
X168602843Y-87804679D01*
X168603880Y-87806064D01*
X168887855Y-88215067D01*
X168887857Y-88215069D01*
X168888802Y-88216540D01*
X169142869Y-88644747D01*
X169143707Y-88646283D01*
X169366576Y-89091517D01*
X169367302Y-89093108D01*
X169557848Y-89553124D01*
X169558457Y-89554757D01*
X169715691Y-90027173D01*
X169715692Y-90027174D01*
X169716185Y-90028852D01*
X169839324Y-90511308D01*
X169839693Y-90513006D01*
X169894664Y-90817683D01*
X169928099Y-91003002D01*
X169928348Y-91004731D01*
X169981571Y-91499782D01*
X169981572Y-91499784D01*
X169981697Y-91501529D01*
X169999500Y-92000000D01*
X169999500Y-98950500D01*
X169985148Y-98985148D01*
X169950500Y-98999500D01*
X163009844Y-98999500D01*
X163009638Y-98999459D01*
X163000000Y-98999459D01*
X162999901Y-98999500D01*
X162999616Y-98999617D01*
X162999459Y-98999999D01*
X162999465Y-99009672D01*
X162999500Y-99009843D01*
X162999500Y-140950500D01*
X162985148Y-140985148D01*
X162950500Y-140999500D01*
X131049500Y-140999500D01*
X131014852Y-140985148D01*
X131000500Y-140950500D01*
X131000500Y-138800000D01*
X132360628Y-138800000D01*
X132380063Y-138984911D01*
X132437518Y-139161740D01*
X132530483Y-139322760D01*
X132530486Y-139322763D01*
X132654888Y-139460927D01*
X132654892Y-139460930D01*
X132654894Y-139460932D01*
X132805314Y-139570219D01*
X132975169Y-139645843D01*
X133157035Y-139684500D01*
X133342965Y-139684500D01*
X133524831Y-139645843D01*
X133694686Y-139570219D01*
X133786175Y-139503748D01*
X134365500Y-139503748D01*
X134377133Y-139562231D01*
X134394882Y-139588795D01*
X134421447Y-139628552D01*
X134447322Y-139645841D01*
X134487769Y-139672867D01*
X134546252Y-139684500D01*
X134546255Y-139684500D01*
X135953745Y-139684500D01*
X135953748Y-139684500D01*
X136012231Y-139672867D01*
X136078552Y-139628552D01*
X136122867Y-139562231D01*
X136134500Y-139503748D01*
X136134500Y-138096252D01*
X136122867Y-138037769D01*
X136088867Y-137986885D01*
X136078552Y-137971447D01*
X136022885Y-137934252D01*
X136012231Y-137927133D01*
X135953748Y-137915500D01*
X134546252Y-137915500D01*
X134487769Y-137927133D01*
X134421447Y-137971447D01*
X134382470Y-138029781D01*
X134377133Y-138037769D01*
X134365500Y-138096252D01*
X134365500Y-139503748D01*
X133786175Y-139503748D01*
X133845106Y-139460932D01*
X133854993Y-139449952D01*
X133879588Y-139422634D01*
X133969517Y-139322760D01*
X134062482Y-139161740D01*
X134119937Y-138984911D01*
X134139372Y-138800000D01*
X134119937Y-138615089D01*
X134062482Y-138438260D01*
X133969517Y-138277240D01*
X133937143Y-138241285D01*
X133845111Y-138139072D01*
X133845106Y-138139069D01*
X133845106Y-138139068D01*
X133694686Y-138029781D01*
X133524831Y-137954157D01*
X133524828Y-137954156D01*
X133524824Y-137954155D01*
X133342965Y-137915500D01*
X133157035Y-137915500D01*
X132975175Y-137954155D01*
X132975166Y-137954158D01*
X132805314Y-138029781D01*
X132654888Y-138139072D01*
X132530486Y-138277236D01*
X132530480Y-138277244D01*
X132437520Y-138438256D01*
X132437518Y-138438259D01*
X132380063Y-138615088D01*
X132371748Y-138694202D01*
X132360628Y-138800000D01*
X131000500Y-138800000D01*
X131000500Y-135719748D01*
X140099500Y-135719748D01*
X140111133Y-135778231D01*
X140115187Y-135784298D01*
X140155447Y-135844552D01*
X140180541Y-135861319D01*
X140221769Y-135888867D01*
X140280252Y-135900500D01*
X140280255Y-135900500D01*
X142219745Y-135900500D01*
X142219748Y-135900500D01*
X142278231Y-135888867D01*
X142344552Y-135844552D01*
X142388867Y-135778231D01*
X142400500Y-135719748D01*
X142400500Y-134750000D01*
X142594571Y-134750000D01*
X142614243Y-134962306D01*
X142614244Y-134962312D01*
X142672593Y-135167384D01*
X142672597Y-135167394D01*
X142767632Y-135358252D01*
X142767633Y-135358254D01*
X142767634Y-135358255D01*
X142768392Y-135359259D01*
X142896125Y-135528404D01*
X142896128Y-135528407D01*
X143053693Y-135672048D01*
X143053694Y-135672049D01*
X143053698Y-135672052D01*
X143234981Y-135784298D01*
X143234984Y-135784299D01*
X143433796Y-135861319D01*
X143433797Y-135861319D01*
X143433802Y-135861321D01*
X143643390Y-135900500D01*
X143643392Y-135900500D01*
X143856608Y-135900500D01*
X143856610Y-135900500D01*
X144066198Y-135861321D01*
X144265019Y-135784298D01*
X144446302Y-135672052D01*
X144603872Y-135528407D01*
X144732366Y-135358255D01*
X144827405Y-135167389D01*
X144885756Y-134962310D01*
X144905429Y-134750000D01*
X144885756Y-134537690D01*
X144827405Y-134332611D01*
X144732366Y-134141745D01*
X144628338Y-134003991D01*
X144603874Y-133971595D01*
X144603871Y-133971592D01*
X144446306Y-133827951D01*
X144446303Y-133827949D01*
X144446302Y-133827948D01*
X144265019Y-133715702D01*
X144265016Y-133715701D01*
X144265015Y-133715700D01*
X144066203Y-133638680D01*
X144066198Y-133638679D01*
X143856610Y-133599500D01*
X143643390Y-133599500D01*
X143485236Y-133629064D01*
X143433796Y-133638680D01*
X143234984Y-133715700D01*
X143053693Y-133827951D01*
X142896128Y-133971592D01*
X142896125Y-133971595D01*
X142767635Y-134141743D01*
X142767632Y-134141747D01*
X142672597Y-134332605D01*
X142672593Y-134332615D01*
X142614244Y-134537687D01*
X142614243Y-134537693D01*
X142594571Y-134750000D01*
X142400500Y-134750000D01*
X142400500Y-133780252D01*
X142388867Y-133721769D01*
X142362301Y-133682012D01*
X142344552Y-133655447D01*
X142304795Y-133628882D01*
X142278231Y-133611133D01*
X142219748Y-133599500D01*
X140280252Y-133599500D01*
X140221769Y-133611133D01*
X140155447Y-133655447D01*
X140119751Y-133708871D01*
X140111133Y-133721769D01*
X140099500Y-133780252D01*
X140099500Y-135719748D01*
X131000500Y-135719748D01*
X131000500Y-133550000D01*
X132060928Y-133550000D01*
X132081173Y-133768487D01*
X132141223Y-133979542D01*
X132239029Y-134175963D01*
X132239032Y-134175967D01*
X132252562Y-134193884D01*
X132824207Y-133622238D01*
X132826046Y-133646765D01*
X132873403Y-133767428D01*
X132954222Y-133868773D01*
X133061323Y-133941793D01*
X133176295Y-133977257D01*
X132608294Y-134545257D01*
X132608294Y-134545258D01*
X132719988Y-134614415D01*
X132924589Y-134693678D01*
X133140288Y-134734000D01*
X133359712Y-134734000D01*
X133575410Y-134693678D01*
X133780011Y-134614415D01*
X133891704Y-134545258D01*
X133891704Y-134545257D01*
X133320654Y-133974207D01*
X133378176Y-133965538D01*
X133494964Y-133909296D01*
X133589985Y-133821129D01*
X133654797Y-133708871D01*
X133674797Y-133621244D01*
X134247436Y-134193883D01*
X134260972Y-134175959D01*
X134272637Y-134152534D01*
X134300928Y-134127915D01*
X134338341Y-134130512D01*
X134362960Y-134158803D01*
X134365500Y-134174375D01*
X134365500Y-134253748D01*
X134377133Y-134312231D01*
X134394882Y-134338795D01*
X134421447Y-134378552D01*
X134439687Y-134390739D01*
X134487769Y-134422867D01*
X134546252Y-134434500D01*
X134546255Y-134434500D01*
X135953745Y-134434500D01*
X135953748Y-134434500D01*
X136012231Y-134422867D01*
X136078552Y-134378552D01*
X136122867Y-134312231D01*
X136134500Y-134253748D01*
X136134500Y-132846252D01*
X136122867Y-132787769D01*
X136094963Y-132746009D01*
X136078552Y-132721447D01*
X136038795Y-132694882D01*
X136012231Y-132677133D01*
X135953748Y-132665500D01*
X134546252Y-132665500D01*
X134487769Y-132677133D01*
X134421447Y-132721447D01*
X134388973Y-132770049D01*
X134377133Y-132787769D01*
X134365500Y-132846252D01*
X134365500Y-132846255D01*
X134365500Y-132925625D01*
X134351148Y-132960273D01*
X134316500Y-132974625D01*
X134281852Y-132960273D01*
X134272637Y-132947467D01*
X134260967Y-132924032D01*
X134247436Y-132906114D01*
X133675791Y-133477759D01*
X133673954Y-133453235D01*
X133626597Y-133332572D01*
X133545778Y-133231227D01*
X133438677Y-133158207D01*
X133323703Y-133122742D01*
X133891704Y-132554741D01*
X133891704Y-132554740D01*
X133780011Y-132485584D01*
X133575410Y-132406321D01*
X133359712Y-132366000D01*
X133140288Y-132366000D01*
X132924589Y-132406321D01*
X132719987Y-132485584D01*
X132608293Y-132554741D01*
X133179344Y-133125792D01*
X133121824Y-133134462D01*
X133005036Y-133190704D01*
X132910015Y-133278871D01*
X132845203Y-133391129D01*
X132825202Y-133478754D01*
X132252562Y-132906114D01*
X132239032Y-132924032D01*
X132239029Y-132924036D01*
X132141223Y-133120457D01*
X132081173Y-133331512D01*
X132060928Y-133550000D01*
X131000500Y-133550000D01*
X131000500Y-129792892D01*
X135367005Y-129792892D01*
X135370249Y-129823776D01*
X135370375Y-129827002D01*
X135369451Y-129861096D01*
X135369453Y-129861109D01*
X135379694Y-129914482D01*
X135379999Y-129916538D01*
X135385361Y-129967549D01*
X135385362Y-129967555D01*
X135385363Y-129967560D01*
X135385365Y-129967566D01*
X135395921Y-130000057D01*
X135396681Y-130003012D01*
X135403700Y-130039580D01*
X135423948Y-130086651D01*
X135424743Y-130088761D01*
X135439634Y-130134588D01*
X135439636Y-130134593D01*
X135443186Y-130140741D01*
X135458276Y-130166880D01*
X135459566Y-130169450D01*
X135475512Y-130206519D01*
X135503592Y-130245610D01*
X135504912Y-130247655D01*
X135527448Y-130286691D01*
X135527450Y-130286693D01*
X135554491Y-130316725D01*
X135556178Y-130318821D01*
X135564354Y-130330202D01*
X135581534Y-130354119D01*
X135615053Y-130384190D01*
X135616883Y-130386017D01*
X135643137Y-130415175D01*
X135644971Y-130417212D01*
X135680168Y-130442783D01*
X135682130Y-130444369D01*
X135716801Y-130475476D01*
X135716805Y-130475478D01*
X135716806Y-130475479D01*
X135731679Y-130483888D01*
X135753290Y-130496106D01*
X135755629Y-130497610D01*
X135787056Y-130520443D01*
X135814441Y-130532635D01*
X135829651Y-130539407D01*
X135831745Y-130540462D01*
X135841192Y-130545803D01*
X135875005Y-130564920D01*
X135912093Y-130576307D01*
X135914853Y-130577340D01*
X135947501Y-130591877D01*
X135996166Y-130602220D01*
X135998229Y-130602755D01*
X136048733Y-130618263D01*
X136084294Y-130621157D01*
X136087380Y-130621609D01*
X136119292Y-130628393D01*
X136172146Y-130628393D01*
X136174131Y-130628473D01*
X136194127Y-130630102D01*
X136229861Y-130633012D01*
X136229862Y-130633011D01*
X136229865Y-130633012D01*
X136262115Y-130628618D01*
X136265426Y-130628393D01*
X136294921Y-130628393D01*
X136294922Y-130628393D01*
X136349690Y-130616750D01*
X136351423Y-130616449D01*
X136409934Y-130608478D01*
X136435922Y-130598929D01*
X136442625Y-130596996D01*
X136466713Y-130591877D01*
X136520721Y-130567830D01*
X136522172Y-130567242D01*
X136580518Y-130545808D01*
X136601131Y-130532630D01*
X136607590Y-130529154D01*
X136627158Y-130520443D01*
X136677492Y-130483872D01*
X136678642Y-130483087D01*
X136733643Y-130447933D01*
X136748678Y-130432896D01*
X136754522Y-130427906D01*
X136769242Y-130417212D01*
X136769245Y-130417210D01*
X136771078Y-130415175D01*
X136776451Y-130409206D01*
X136812955Y-130368664D01*
X136813791Y-130367783D01*
X142461723Y-124719852D01*
X142496371Y-124705500D01*
X147150500Y-124705500D01*
X147185148Y-124719852D01*
X147199500Y-124754500D01*
X147199500Y-133952029D01*
X147185148Y-133986677D01*
X147150500Y-134001029D01*
X147115852Y-133986677D01*
X147111398Y-133981559D01*
X147109875Y-133979542D01*
X147103872Y-133971593D01*
X147097230Y-133965538D01*
X146946306Y-133827951D01*
X146946303Y-133827949D01*
X146946302Y-133827948D01*
X146765019Y-133715702D01*
X146765016Y-133715701D01*
X146765015Y-133715700D01*
X146566203Y-133638680D01*
X146566198Y-133638679D01*
X146356610Y-133599500D01*
X146143390Y-133599500D01*
X145985236Y-133629064D01*
X145933796Y-133638680D01*
X145734984Y-133715700D01*
X145553693Y-133827951D01*
X145396128Y-133971592D01*
X145396125Y-133971595D01*
X145267635Y-134141743D01*
X145267632Y-134141747D01*
X145172597Y-134332605D01*
X145172593Y-134332615D01*
X145114244Y-134537687D01*
X145114243Y-134537693D01*
X145094571Y-134750000D01*
X145114243Y-134962306D01*
X145114244Y-134962312D01*
X145172593Y-135167384D01*
X145172597Y-135167394D01*
X145267632Y-135358252D01*
X145267633Y-135358254D01*
X145267634Y-135358255D01*
X145268392Y-135359259D01*
X145396125Y-135528404D01*
X145396128Y-135528407D01*
X145553693Y-135672048D01*
X145553694Y-135672049D01*
X145553698Y-135672052D01*
X145734981Y-135784298D01*
X145734984Y-135784299D01*
X145933796Y-135861319D01*
X145933797Y-135861319D01*
X145933802Y-135861321D01*
X146143390Y-135900500D01*
X146143392Y-135900500D01*
X146323999Y-135900500D01*
X146358647Y-135914852D01*
X146372999Y-135949500D01*
X146358647Y-135984148D01*
X145632649Y-136710148D01*
X145598001Y-136724500D01*
X141370290Y-136724500D01*
X141368154Y-136724407D01*
X141336808Y-136721664D01*
X141326193Y-136720736D01*
X141326192Y-136720736D01*
X141326191Y-136720736D01*
X141285497Y-136731639D01*
X141283418Y-136732100D01*
X141273120Y-136733916D01*
X141241960Y-136739410D01*
X141241950Y-136739414D01*
X141234945Y-136743458D01*
X141223132Y-136748351D01*
X141215317Y-136750444D01*
X141215317Y-136750445D01*
X141180826Y-136774595D01*
X141179024Y-136775743D01*
X141142544Y-136796806D01*
X141115467Y-136829074D01*
X141114023Y-136830650D01*
X139881954Y-138062718D01*
X139847306Y-138077070D01*
X139824208Y-138071284D01*
X139783962Y-138049772D01*
X139783959Y-138049771D01*
X139783954Y-138049768D01*
X139585934Y-137989700D01*
X139380000Y-137969417D01*
X139174065Y-137989700D01*
X139174064Y-137989700D01*
X139039736Y-138030448D01*
X138976050Y-138049767D01*
X138976043Y-138049769D01*
X138793548Y-138147316D01*
X138633590Y-138278590D01*
X138502316Y-138438548D01*
X138404769Y-138621043D01*
X138344700Y-138819064D01*
X138344700Y-138819065D01*
X138324417Y-139024999D01*
X138324417Y-139025000D01*
X138344700Y-139230934D01*
X138344700Y-139230935D01*
X138358067Y-139275000D01*
X138404768Y-139428954D01*
X138502315Y-139611450D01*
X138633590Y-139771410D01*
X138793550Y-139902685D01*
X138976046Y-140000232D01*
X139174066Y-140060300D01*
X139380000Y-140080583D01*
X139585934Y-140060300D01*
X139783954Y-140000232D01*
X139966450Y-139902685D01*
X140126410Y-139771410D01*
X140257685Y-139611450D01*
X140355232Y-139428954D01*
X140415300Y-139230934D01*
X140435583Y-139025000D01*
X140415300Y-138819066D01*
X140355232Y-138621046D01*
X140345394Y-138602640D01*
X140333715Y-138580789D01*
X140330039Y-138543467D01*
X140342279Y-138523045D01*
X141475474Y-137389852D01*
X141510122Y-137375500D01*
X142990878Y-137375500D01*
X143025526Y-137389852D01*
X143039878Y-137424500D01*
X143025526Y-137459148D01*
X142421954Y-138062718D01*
X142387306Y-138077070D01*
X142364208Y-138071284D01*
X142323962Y-138049772D01*
X142323959Y-138049771D01*
X142323954Y-138049768D01*
X142125934Y-137989700D01*
X141920000Y-137969417D01*
X141714065Y-137989700D01*
X141714064Y-137989700D01*
X141579736Y-138030448D01*
X141516050Y-138049767D01*
X141516043Y-138049769D01*
X141333548Y-138147316D01*
X141173590Y-138278590D01*
X141042316Y-138438548D01*
X140944769Y-138621043D01*
X140884700Y-138819064D01*
X140884700Y-138819065D01*
X140864417Y-139024999D01*
X140864417Y-139025000D01*
X140884700Y-139230934D01*
X140884700Y-139230935D01*
X140898067Y-139275000D01*
X140944768Y-139428954D01*
X141042315Y-139611450D01*
X141173590Y-139771410D01*
X141333550Y-139902685D01*
X141516046Y-140000232D01*
X141714066Y-140060300D01*
X141920000Y-140080583D01*
X142125934Y-140060300D01*
X142323954Y-140000232D01*
X142506450Y-139902685D01*
X142666410Y-139771410D01*
X142797685Y-139611450D01*
X142895232Y-139428954D01*
X142955300Y-139230934D01*
X142975583Y-139025000D01*
X142955300Y-138819066D01*
X142895232Y-138621046D01*
X142873715Y-138580790D01*
X142870039Y-138543468D01*
X142882281Y-138523044D01*
X143565474Y-137839852D01*
X143600122Y-137825500D01*
X143664002Y-137825500D01*
X143698650Y-137839852D01*
X143713002Y-137874500D01*
X143698650Y-137909148D01*
X143692107Y-137914638D01*
X143588927Y-137986885D01*
X143588920Y-137986891D01*
X143421891Y-138153920D01*
X143421885Y-138153927D01*
X143286405Y-138347411D01*
X143286398Y-138347423D01*
X143186567Y-138561511D01*
X143186566Y-138561516D01*
X143129363Y-138774999D01*
X143129364Y-138775000D01*
X144026314Y-138775000D01*
X144000507Y-138815156D01*
X143960000Y-138953111D01*
X143960000Y-139096889D01*
X144000507Y-139234844D01*
X144026314Y-139275000D01*
X143129363Y-139275000D01*
X143186566Y-139488483D01*
X143186568Y-139488488D01*
X143286398Y-139702577D01*
X143286405Y-139702589D01*
X143421885Y-139896072D01*
X143421891Y-139896079D01*
X143588920Y-140063108D01*
X143588927Y-140063114D01*
X143782410Y-140198594D01*
X143782422Y-140198601D01*
X143996511Y-140298431D01*
X143996516Y-140298433D01*
X144210000Y-140355634D01*
X144210000Y-139460501D01*
X144317685Y-139509680D01*
X144424237Y-139525000D01*
X144495763Y-139525000D01*
X144602315Y-139509680D01*
X144710000Y-139460501D01*
X144710000Y-140355634D01*
X144923483Y-140298433D01*
X144923488Y-140298431D01*
X145137577Y-140198601D01*
X145137589Y-140198594D01*
X145331072Y-140063114D01*
X145331079Y-140063108D01*
X145498108Y-139896079D01*
X145498114Y-139896072D01*
X145633594Y-139702589D01*
X145633601Y-139702577D01*
X145733431Y-139488488D01*
X145733433Y-139488483D01*
X145790636Y-139275000D01*
X144893686Y-139275000D01*
X144919493Y-139234844D01*
X144960000Y-139096889D01*
X144960000Y-138953111D01*
X144919493Y-138815156D01*
X144893686Y-138775000D01*
X145790636Y-138775000D01*
X145790636Y-138774999D01*
X145733433Y-138561516D01*
X145733432Y-138561511D01*
X145633601Y-138347423D01*
X145633594Y-138347411D01*
X145498114Y-138153927D01*
X145498108Y-138153920D01*
X145331079Y-137986891D01*
X145331072Y-137986885D01*
X145227893Y-137914638D01*
X145207742Y-137883009D01*
X145215860Y-137846395D01*
X145247489Y-137826244D01*
X145255998Y-137825500D01*
X145959710Y-137825500D01*
X145961846Y-137825593D01*
X145969900Y-137826297D01*
X146003807Y-137829264D01*
X146044495Y-137818361D01*
X146046574Y-137817900D01*
X146088045Y-137810588D01*
X146095054Y-137806540D01*
X146106871Y-137801646D01*
X146114684Y-137799554D01*
X146149190Y-137775391D01*
X146150965Y-137774260D01*
X146187455Y-137753194D01*
X146214532Y-137720923D01*
X146215965Y-137719359D01*
X148015853Y-135919472D01*
X148050500Y-135905121D01*
X148085148Y-135919473D01*
X148099500Y-135954121D01*
X148099500Y-137444877D01*
X148085148Y-137479525D01*
X147604525Y-137960148D01*
X147569877Y-137974500D01*
X146130252Y-137974500D01*
X146071769Y-137986133D01*
X146005447Y-138030447D01*
X145966715Y-138088415D01*
X145961133Y-138096769D01*
X145949500Y-138155252D01*
X145949500Y-139894748D01*
X145961133Y-139953231D01*
X145978882Y-139979795D01*
X146005447Y-140019552D01*
X146032012Y-140037301D01*
X146071769Y-140063867D01*
X146130252Y-140075500D01*
X146130255Y-140075500D01*
X147869745Y-140075500D01*
X147869748Y-140075500D01*
X147928231Y-140063867D01*
X147994552Y-140019552D01*
X148038867Y-139953231D01*
X148050500Y-139894748D01*
X148050500Y-138455122D01*
X148064852Y-138420474D01*
X148346258Y-138139068D01*
X148644368Y-137840957D01*
X148645918Y-137839536D01*
X148678194Y-137812455D01*
X148699254Y-137775976D01*
X148700400Y-137774179D01*
X148715094Y-137753194D01*
X148724554Y-137739684D01*
X148726646Y-137731871D01*
X148731540Y-137720054D01*
X148735588Y-137713045D01*
X148742901Y-137671565D01*
X148743364Y-137669479D01*
X148754263Y-137628807D01*
X148750593Y-137586854D01*
X148750500Y-137584718D01*
X148750500Y-127730121D01*
X148764851Y-127695474D01*
X151825427Y-124634897D01*
X151860074Y-124620546D01*
X151888425Y-124629582D01*
X151953146Y-124675505D01*
X151987794Y-124689857D01*
X152066437Y-124705500D01*
X152943642Y-124705500D01*
X152978290Y-124719852D01*
X152992642Y-124754500D01*
X152978290Y-124789148D01*
X149389981Y-128377456D01*
X149344405Y-128420021D01*
X149344400Y-128420027D01*
X149321865Y-128457084D01*
X149320453Y-128459159D01*
X149294235Y-128493733D01*
X149294230Y-128493742D01*
X149285912Y-128514836D01*
X149282200Y-128522311D01*
X149272754Y-128537846D01*
X149270416Y-128541691D01*
X149258711Y-128583464D01*
X149257912Y-128585842D01*
X149241998Y-128626198D01*
X149241997Y-128626205D01*
X149239677Y-128648762D01*
X149238118Y-128656965D01*
X149232000Y-128678803D01*
X149232000Y-128678805D01*
X149231097Y-128682029D01*
X149230860Y-128681962D01*
X149226674Y-128694183D01*
X149226693Y-128694191D01*
X149226569Y-128694489D01*
X149225934Y-128696344D01*
X149225463Y-128697158D01*
X149164955Y-128843238D01*
X149144318Y-129000000D01*
X149164955Y-129156761D01*
X149225461Y-129302836D01*
X149225464Y-129302841D01*
X149321718Y-129428282D01*
X149447159Y-129524536D01*
X149447161Y-129524536D01*
X149447163Y-129524538D01*
X149596205Y-129586273D01*
X149596037Y-129586678D01*
X149615149Y-129597711D01*
X150717648Y-130700210D01*
X150732000Y-130734858D01*
X150732000Y-131672708D01*
X150726289Y-131694023D01*
X150726693Y-131694191D01*
X150664955Y-131843238D01*
X150644318Y-132000000D01*
X150664955Y-132156761D01*
X150726693Y-132305809D01*
X150726287Y-132305977D01*
X150732000Y-132327290D01*
X150732000Y-133741154D01*
X150729870Y-133803464D01*
X150729871Y-133803473D01*
X150740141Y-133845619D01*
X150740610Y-133848084D01*
X150746518Y-133891064D01*
X150746519Y-133891070D01*
X150755552Y-133911866D01*
X150758214Y-133919783D01*
X150763584Y-133941816D01*
X150763585Y-133941818D01*
X150784846Y-133979631D01*
X150785963Y-133981878D01*
X150803250Y-134021675D01*
X150817560Y-134039264D01*
X150822259Y-134046168D01*
X150833375Y-134065937D01*
X150864055Y-134096617D01*
X150865725Y-134098468D01*
X150869116Y-134102636D01*
X150893111Y-134132130D01*
X150893116Y-134132135D01*
X150911642Y-134145212D01*
X150918033Y-134150595D01*
X154877470Y-138110033D01*
X154919704Y-138155255D01*
X154920023Y-138155596D01*
X154946135Y-138171475D01*
X154957090Y-138178137D01*
X154959158Y-138179543D01*
X154977781Y-138193666D01*
X154993734Y-138205764D01*
X154993735Y-138205764D01*
X154993736Y-138205765D01*
X155014832Y-138214083D01*
X155022310Y-138217797D01*
X155041688Y-138229582D01*
X155041689Y-138229582D01*
X155041690Y-138229583D01*
X155055859Y-138233552D01*
X155083475Y-138241290D01*
X155085840Y-138242086D01*
X155126203Y-138258003D01*
X155148759Y-138260321D01*
X155156957Y-138261878D01*
X155178803Y-138268000D01*
X155222190Y-138268000D01*
X155224698Y-138268129D01*
X155267849Y-138272565D01*
X155267849Y-138272564D01*
X155267851Y-138272565D01*
X155290198Y-138268711D01*
X155298523Y-138268000D01*
X159834090Y-138268000D01*
X159868738Y-138282352D01*
X159983747Y-138397361D01*
X159983749Y-138397362D01*
X160081066Y-138458511D01*
X160102767Y-138489097D01*
X160096485Y-138526070D01*
X160081066Y-138541489D01*
X159983749Y-138602637D01*
X159983745Y-138602640D01*
X159852640Y-138733745D01*
X159852637Y-138733749D01*
X159753993Y-138890740D01*
X159753992Y-138890742D01*
X159692755Y-139065747D01*
X159692753Y-139065756D01*
X159671994Y-139250000D01*
X159692157Y-139428956D01*
X159692754Y-139434249D01*
X159753992Y-139609258D01*
X159852639Y-139766253D01*
X159983747Y-139897361D01*
X160140742Y-139996008D01*
X160315751Y-140057246D01*
X160500000Y-140078006D01*
X160684249Y-140057246D01*
X160859258Y-139996008D01*
X161016253Y-139897361D01*
X161147361Y-139766253D01*
X161246008Y-139609258D01*
X161307246Y-139434249D01*
X161328006Y-139250000D01*
X161307246Y-139065751D01*
X161246008Y-138890742D01*
X161147361Y-138733747D01*
X161016253Y-138602639D01*
X161012129Y-138600048D01*
X160918934Y-138541489D01*
X160897233Y-138510903D01*
X160903515Y-138473930D01*
X160918934Y-138458511D01*
X160950701Y-138438550D01*
X161016253Y-138397361D01*
X161147361Y-138266253D01*
X161246008Y-138109258D01*
X161307246Y-137934249D01*
X161328006Y-137750000D01*
X161307246Y-137565751D01*
X161246008Y-137390742D01*
X161147361Y-137233747D01*
X161016253Y-137102639D01*
X160918934Y-137041489D01*
X160897233Y-137010903D01*
X160903515Y-136973930D01*
X160918931Y-136958513D01*
X161016253Y-136897362D01*
X161147361Y-136766254D01*
X161246008Y-136609259D01*
X161307246Y-136434250D01*
X161328006Y-136250001D01*
X161307246Y-136065752D01*
X161246008Y-135890743D01*
X161147361Y-135733748D01*
X161016253Y-135602640D01*
X161016251Y-135602638D01*
X160918932Y-135541489D01*
X160897231Y-135510903D01*
X160903513Y-135473930D01*
X160918932Y-135458511D01*
X161016251Y-135397361D01*
X161016250Y-135397361D01*
X161016253Y-135397360D01*
X161147361Y-135266252D01*
X161246008Y-135109257D01*
X161307246Y-134934248D01*
X161328006Y-134749999D01*
X161307246Y-134565750D01*
X161246008Y-134390741D01*
X161147361Y-134233746D01*
X161016253Y-134102638D01*
X161011792Y-134099835D01*
X160974735Y-134076550D01*
X160966157Y-134069709D01*
X160514747Y-133618299D01*
X160530521Y-133618299D01*
X160621241Y-133603161D01*
X160729343Y-133544659D01*
X160812592Y-133454226D01*
X160861967Y-133341662D01*
X160868337Y-133264783D01*
X161453387Y-133849833D01*
X161458284Y-133843348D01*
X161458288Y-133843342D01*
X161550994Y-133657163D01*
X161550997Y-133657155D01*
X161607916Y-133457107D01*
X161607917Y-133457101D01*
X161627107Y-133249999D01*
X161607917Y-133042896D01*
X161607916Y-133042890D01*
X161550997Y-132842842D01*
X161550994Y-132842835D01*
X161458287Y-132656655D01*
X161458285Y-132656651D01*
X161453386Y-132650163D01*
X160871009Y-133232541D01*
X160872118Y-133219164D01*
X160841943Y-133100009D01*
X160774714Y-132997107D01*
X160677715Y-132921610D01*
X160561458Y-132881699D01*
X160514748Y-132881699D01*
X160966153Y-132430291D01*
X160974723Y-132423456D01*
X161016253Y-132397361D01*
X161147361Y-132266253D01*
X161246008Y-132109258D01*
X161307246Y-131934249D01*
X161328006Y-131750000D01*
X161307246Y-131565751D01*
X161246008Y-131390742D01*
X161147361Y-131233747D01*
X161016253Y-131102639D01*
X160859258Y-131003992D01*
X160684249Y-130942754D01*
X160684245Y-130942753D01*
X160684243Y-130942753D01*
X160500000Y-130921994D01*
X160315756Y-130942753D01*
X160315747Y-130942755D01*
X160140742Y-131003992D01*
X160140740Y-131003993D01*
X159983749Y-131102637D01*
X159983745Y-131102640D01*
X159852640Y-131233745D01*
X159852637Y-131233749D01*
X159753993Y-131390740D01*
X159753992Y-131390742D01*
X159692755Y-131565747D01*
X159692753Y-131565756D01*
X159671994Y-131750000D01*
X159679402Y-131815752D01*
X159692754Y-131934249D01*
X159753992Y-132109258D01*
X159852639Y-132266253D01*
X159983747Y-132397361D01*
X160025266Y-132423449D01*
X160033844Y-132430290D01*
X160485253Y-132881699D01*
X160469479Y-132881699D01*
X160378759Y-132896837D01*
X160270657Y-132955339D01*
X160187408Y-133045772D01*
X160138033Y-133158336D01*
X160131662Y-133235214D01*
X159546612Y-132650164D01*
X159541714Y-132656651D01*
X159541709Y-132656659D01*
X159449005Y-132842834D01*
X159449002Y-132842842D01*
X159392083Y-133042890D01*
X159392082Y-133042895D01*
X159389937Y-133066045D01*
X159372448Y-133099221D01*
X159336624Y-133110314D01*
X159306498Y-133096171D01*
X157689852Y-131479525D01*
X157675500Y-131444877D01*
X157675500Y-127500000D01*
X158644341Y-127500000D01*
X158664937Y-127735410D01*
X158664938Y-127735416D01*
X158726094Y-127963655D01*
X158726095Y-127963660D01*
X158825963Y-128177827D01*
X158825971Y-128177839D01*
X158961500Y-128371395D01*
X158961506Y-128371402D01*
X159128597Y-128538493D01*
X159128604Y-128538499D01*
X159322160Y-128674028D01*
X159322172Y-128674036D01*
X159536339Y-128773904D01*
X159536344Y-128773905D01*
X159764583Y-128835061D01*
X159764587Y-128835061D01*
X159764592Y-128835063D01*
X159884250Y-128845531D01*
X159941030Y-128850500D01*
X159941034Y-128850500D01*
X160058970Y-128850500D01*
X160111521Y-128845901D01*
X160235408Y-128835063D01*
X160235414Y-128835061D01*
X160235416Y-128835061D01*
X160349535Y-128804483D01*
X160463657Y-128773904D01*
X160463660Y-128773904D01*
X160463660Y-128773903D01*
X160463663Y-128773903D01*
X160677829Y-128674035D01*
X160871401Y-128538495D01*
X161038495Y-128371401D01*
X161120706Y-128253992D01*
X161174029Y-128177840D01*
X161174036Y-128177828D01*
X161223029Y-128072762D01*
X161273903Y-127963663D01*
X161335063Y-127735408D01*
X161355659Y-127500000D01*
X161335063Y-127264592D01*
X161328252Y-127239174D01*
X161273905Y-127036344D01*
X161273904Y-127036339D01*
X161174036Y-126822172D01*
X161174028Y-126822160D01*
X161038499Y-126628604D01*
X161038493Y-126628597D01*
X160871402Y-126461506D01*
X160871395Y-126461500D01*
X160677839Y-126325971D01*
X160677827Y-126325963D01*
X160463660Y-126226095D01*
X160463655Y-126226094D01*
X160235416Y-126164938D01*
X160235410Y-126164937D01*
X160058970Y-126149500D01*
X160058966Y-126149500D01*
X159941034Y-126149500D01*
X159941030Y-126149500D01*
X159764589Y-126164937D01*
X159764583Y-126164938D01*
X159536344Y-126226094D01*
X159536339Y-126226095D01*
X159322172Y-126325963D01*
X159322160Y-126325971D01*
X159128604Y-126461500D01*
X159128597Y-126461506D01*
X158961506Y-126628597D01*
X158961500Y-126628604D01*
X158825970Y-126822159D01*
X158825963Y-126822171D01*
X158726095Y-127036339D01*
X158726094Y-127036344D01*
X158664938Y-127264583D01*
X158664937Y-127264589D01*
X158644341Y-127500000D01*
X157675500Y-127500000D01*
X157675500Y-124754500D01*
X157689852Y-124719852D01*
X157724500Y-124705500D01*
X158700997Y-124705500D01*
X158701000Y-124705500D01*
X158779643Y-124689857D01*
X158814291Y-124675505D01*
X158872581Y-124638879D01*
X158872581Y-124638877D01*
X158872583Y-124638877D01*
X158907239Y-124590034D01*
X158925505Y-124564291D01*
X158939857Y-124529643D01*
X158955500Y-124451000D01*
X158955500Y-120020296D01*
X158939857Y-119941653D01*
X158925505Y-119907005D01*
X158880958Y-119840338D01*
X157904458Y-118863838D01*
X157837791Y-118819291D01*
X157837787Y-118819289D01*
X157837785Y-118819288D01*
X157803149Y-118804941D01*
X157803146Y-118804940D01*
X157803143Y-118804939D01*
X157736021Y-118789619D01*
X157736019Y-118789619D01*
X157736018Y-118789619D01*
X157732706Y-118790182D01*
X157696144Y-118781835D01*
X157676192Y-118750080D01*
X157675500Y-118741874D01*
X157675500Y-99919467D01*
X157675593Y-99917331D01*
X157676055Y-99912039D01*
X157679263Y-99875383D01*
X157668361Y-99834700D01*
X157667902Y-99832627D01*
X157660588Y-99791145D01*
X157656541Y-99784135D01*
X157651646Y-99772318D01*
X157649553Y-99764506D01*
X157625397Y-99730007D01*
X157624248Y-99728203D01*
X157603194Y-99691735D01*
X157570929Y-99664661D01*
X157569355Y-99663218D01*
X156561778Y-98655642D01*
X156560333Y-98654065D01*
X156549129Y-98640712D01*
X156533265Y-98621806D01*
X156533264Y-98621805D01*
X156533263Y-98621804D01*
X156503268Y-98604487D01*
X156496784Y-98600743D01*
X156494992Y-98599601D01*
X156477178Y-98587128D01*
X156460494Y-98575446D01*
X156460493Y-98575445D01*
X156460492Y-98575445D01*
X156452677Y-98573351D01*
X156440858Y-98568455D01*
X156433856Y-98564412D01*
X156433854Y-98564411D01*
X156392390Y-98557100D01*
X156390303Y-98556637D01*
X156363318Y-98549407D01*
X156349617Y-98545736D01*
X156349616Y-98545736D01*
X156307656Y-98549407D01*
X156305520Y-98549500D01*
X155540282Y-98549500D01*
X155538146Y-98549407D01*
X155509893Y-98546935D01*
X155496193Y-98545737D01*
X155496192Y-98545737D01*
X155496191Y-98545737D01*
X155455505Y-98556638D01*
X155453430Y-98557098D01*
X155411961Y-98564411D01*
X155411955Y-98564412D01*
X155411950Y-98564414D01*
X155404945Y-98568458D01*
X155393132Y-98573351D01*
X155385317Y-98575444D01*
X155385317Y-98575445D01*
X155350826Y-98599595D01*
X155349024Y-98600743D01*
X155312544Y-98621806D01*
X155285467Y-98654074D01*
X155284023Y-98655650D01*
X154948832Y-98990840D01*
X154920580Y-99004773D01*
X154843238Y-99014955D01*
X154697163Y-99075461D01*
X154697158Y-99075464D01*
X154571718Y-99171717D01*
X154571717Y-99171718D01*
X154475464Y-99297158D01*
X154475461Y-99297163D01*
X154414955Y-99443238D01*
X154394318Y-99600000D01*
X154414955Y-99756761D01*
X154475461Y-99902836D01*
X154475464Y-99902841D01*
X154571717Y-100028281D01*
X154571718Y-100028282D01*
X154614507Y-100061115D01*
X154633259Y-100093593D01*
X154623552Y-100129818D01*
X154614508Y-100138863D01*
X154572338Y-100171221D01*
X154476086Y-100296660D01*
X154476083Y-100296665D01*
X154415577Y-100442740D01*
X154394940Y-100599502D01*
X154415577Y-100756263D01*
X154476083Y-100902338D01*
X154476086Y-100902343D01*
X154572340Y-101027784D01*
X154697781Y-101124038D01*
X154697783Y-101124038D01*
X154697785Y-101124040D01*
X154843860Y-101184546D01*
X154948351Y-101198302D01*
X154976604Y-101212235D01*
X155660148Y-101895779D01*
X155674500Y-101930427D01*
X155674500Y-110995500D01*
X155660148Y-111030148D01*
X155625500Y-111044500D01*
X155317000Y-111044500D01*
X155282352Y-111030148D01*
X155268000Y-110995500D01*
X155268000Y-109783828D01*
X155270128Y-109721536D01*
X155270127Y-109721534D01*
X155270128Y-109721529D01*
X155269391Y-109718508D01*
X155268000Y-109706912D01*
X155268000Y-106758828D01*
X155270128Y-106696534D01*
X155270127Y-106696533D01*
X155270128Y-106696529D01*
X155259855Y-106654379D01*
X155259390Y-106651930D01*
X155253481Y-106608931D01*
X155244440Y-106588119D01*
X155241782Y-106580214D01*
X155236414Y-106558183D01*
X155228218Y-106543607D01*
X155215150Y-106520363D01*
X155214034Y-106518116D01*
X155196750Y-106478326D01*
X155196750Y-106478325D01*
X155182440Y-106460735D01*
X155177740Y-106453829D01*
X155166627Y-106434064D01*
X155166624Y-106434061D01*
X155135938Y-106403375D01*
X155134266Y-106401522D01*
X155106888Y-106367869D01*
X155106887Y-106367868D01*
X155088360Y-106354790D01*
X155081970Y-106349407D01*
X153847711Y-105115149D01*
X153836678Y-105096037D01*
X153836273Y-105096205D01*
X153774538Y-104947163D01*
X153774535Y-104947158D01*
X153678283Y-104821719D01*
X153678280Y-104821717D01*
X153594669Y-104757559D01*
X153575919Y-104725081D01*
X153575500Y-104718686D01*
X153575500Y-96055000D01*
X163694417Y-96055000D01*
X163714700Y-96260934D01*
X163714700Y-96260935D01*
X163739666Y-96343238D01*
X163774768Y-96458954D01*
X163872315Y-96641450D01*
X164003590Y-96801410D01*
X164163550Y-96932685D01*
X164346046Y-97030232D01*
X164544066Y-97090300D01*
X164750000Y-97110583D01*
X164955934Y-97090300D01*
X165153954Y-97030232D01*
X165336450Y-96932685D01*
X165496410Y-96801410D01*
X165627685Y-96641450D01*
X165725232Y-96458954D01*
X165785300Y-96260934D01*
X165805583Y-96055000D01*
X166234417Y-96055000D01*
X166254700Y-96260934D01*
X166254700Y-96260935D01*
X166279666Y-96343238D01*
X166314768Y-96458954D01*
X166412315Y-96641450D01*
X166543590Y-96801410D01*
X166703550Y-96932685D01*
X166886046Y-97030232D01*
X167084066Y-97090300D01*
X167290000Y-97110583D01*
X167495934Y-97090300D01*
X167693954Y-97030232D01*
X167876450Y-96932685D01*
X168036410Y-96801410D01*
X168167685Y-96641450D01*
X168265232Y-96458954D01*
X168325300Y-96260934D01*
X168345583Y-96055000D01*
X168325300Y-95849066D01*
X168265232Y-95651046D01*
X168167685Y-95468550D01*
X168036410Y-95308590D01*
X167876450Y-95177315D01*
X167693954Y-95079768D01*
X167495934Y-95019700D01*
X167290000Y-94999417D01*
X167084065Y-95019700D01*
X167084064Y-95019700D01*
X166886043Y-95079769D01*
X166703548Y-95177316D01*
X166543590Y-95308590D01*
X166412316Y-95468548D01*
X166314769Y-95651043D01*
X166254700Y-95849064D01*
X166254700Y-95849065D01*
X166234417Y-96054999D01*
X166234417Y-96055000D01*
X165805583Y-96055000D01*
X165785300Y-95849066D01*
X165725232Y-95651046D01*
X165627685Y-95468550D01*
X165496410Y-95308590D01*
X165336450Y-95177315D01*
X165153954Y-95079768D01*
X164955934Y-95019700D01*
X164750000Y-94999417D01*
X164544065Y-95019700D01*
X164544064Y-95019700D01*
X164346043Y-95079769D01*
X164163548Y-95177316D01*
X164003590Y-95308590D01*
X163872316Y-95468548D01*
X163774769Y-95651043D01*
X163714700Y-95849064D01*
X163714700Y-95849065D01*
X163694417Y-96054999D01*
X163694417Y-96055000D01*
X153575500Y-96055000D01*
X153575500Y-94917621D01*
X153589851Y-94882974D01*
X153735717Y-94737107D01*
X153770364Y-94722756D01*
X153776759Y-94723174D01*
X153881250Y-94736932D01*
X154038012Y-94716294D01*
X154184091Y-94655786D01*
X154309532Y-94559532D01*
X154405786Y-94434091D01*
X154466294Y-94288012D01*
X154486932Y-94131250D01*
X154466294Y-93974488D01*
X154443291Y-93918954D01*
X154405788Y-93828413D01*
X154405785Y-93828408D01*
X154345740Y-93750156D01*
X154309532Y-93702968D01*
X154184091Y-93606714D01*
X154184086Y-93606711D01*
X154038011Y-93546205D01*
X153881250Y-93525568D01*
X153724488Y-93546205D01*
X153578413Y-93606711D01*
X153578408Y-93606714D01*
X153452968Y-93702967D01*
X153452967Y-93702968D01*
X153356714Y-93828408D01*
X153356711Y-93828413D01*
X153296205Y-93974488D01*
X153275568Y-94131249D01*
X153289324Y-94235737D01*
X153279617Y-94271962D01*
X153275391Y-94276781D01*
X153030648Y-94521525D01*
X153029072Y-94522969D01*
X152996806Y-94550044D01*
X152975743Y-94586524D01*
X152974595Y-94588326D01*
X152950445Y-94622817D01*
X152950444Y-94622817D01*
X152948351Y-94630632D01*
X152943458Y-94642445D01*
X152939414Y-94649450D01*
X152939410Y-94649460D01*
X152932102Y-94690910D01*
X152931639Y-94692997D01*
X152920736Y-94733691D01*
X152920736Y-94733692D01*
X152924407Y-94775652D01*
X152924500Y-94777788D01*
X152924500Y-104718686D01*
X152910148Y-104753334D01*
X152905330Y-104757560D01*
X152821716Y-104821719D01*
X152725464Y-104947158D01*
X152725461Y-104947163D01*
X152664955Y-105093238D01*
X152644318Y-105250000D01*
X152664955Y-105406761D01*
X152725461Y-105552836D01*
X152725464Y-105552841D01*
X152821715Y-105678279D01*
X152821718Y-105678282D01*
X152947159Y-105774536D01*
X152947161Y-105774536D01*
X152947163Y-105774538D01*
X153096205Y-105836273D01*
X153096037Y-105836678D01*
X153115149Y-105847711D01*
X154217648Y-106950210D01*
X154232000Y-106984858D01*
X154232000Y-108953291D01*
X154217648Y-108987939D01*
X154201754Y-108998560D01*
X154197163Y-109000461D01*
X154197158Y-109000464D01*
X154071718Y-109096717D01*
X154071717Y-109096718D01*
X153975464Y-109222158D01*
X153975461Y-109222163D01*
X153914955Y-109368238D01*
X153894318Y-109525000D01*
X153914955Y-109681761D01*
X153975461Y-109827836D01*
X153975464Y-109827841D01*
X154071718Y-109953282D01*
X154197159Y-110049536D01*
X154201747Y-110051436D01*
X154228268Y-110077950D01*
X154232000Y-110096707D01*
X154232000Y-110995500D01*
X154217648Y-111030148D01*
X154183000Y-111044500D01*
X153520296Y-111044500D01*
X153481155Y-111052285D01*
X153441655Y-111060142D01*
X153441645Y-111060145D01*
X153407010Y-111074492D01*
X153407006Y-111074494D01*
X153407005Y-111074495D01*
X153341223Y-111118450D01*
X153340335Y-111119044D01*
X153179232Y-111280148D01*
X153144584Y-111294500D01*
X152124500Y-111294500D01*
X152089852Y-111280148D01*
X152075500Y-111245500D01*
X152075500Y-98265288D01*
X152075593Y-98263152D01*
X152076053Y-98257884D01*
X152079264Y-98221193D01*
X152068362Y-98180508D01*
X152067900Y-98178424D01*
X152067017Y-98173419D01*
X152060588Y-98136955D01*
X152056539Y-98129943D01*
X152051646Y-98118126D01*
X152049554Y-98110317D01*
X152049554Y-98110316D01*
X152025390Y-98075806D01*
X152024258Y-98074029D01*
X152003194Y-98037545D01*
X151970923Y-98010466D01*
X151969349Y-98009023D01*
X150605858Y-96645532D01*
X150591506Y-96610884D01*
X150591925Y-96604488D01*
X150605682Y-96500000D01*
X150585044Y-96343238D01*
X150558804Y-96279889D01*
X150524538Y-96197163D01*
X150524535Y-96197158D01*
X150518591Y-96189412D01*
X150428282Y-96071718D01*
X150427621Y-96071211D01*
X150302841Y-95975464D01*
X150302836Y-95975461D01*
X150156761Y-95914955D01*
X150000000Y-95894318D01*
X149843238Y-95914955D01*
X149697163Y-95975461D01*
X149697158Y-95975464D01*
X149571718Y-96071717D01*
X149571717Y-96071718D01*
X149475464Y-96197158D01*
X149475461Y-96197163D01*
X149414955Y-96343238D01*
X149394318Y-96500000D01*
X149414955Y-96656761D01*
X149475461Y-96802836D01*
X149475464Y-96802841D01*
X149571718Y-96928282D01*
X149697159Y-97024536D01*
X149697161Y-97024536D01*
X149697163Y-97024538D01*
X149710910Y-97030232D01*
X149843238Y-97085044D01*
X150000000Y-97105682D01*
X150104488Y-97091925D01*
X150140713Y-97101631D01*
X150145532Y-97105858D01*
X151410148Y-98370474D01*
X151424500Y-98405122D01*
X151424500Y-111245500D01*
X151410148Y-111280148D01*
X151375500Y-111294500D01*
X151099500Y-111294500D01*
X151064852Y-111280148D01*
X151050500Y-111245500D01*
X151050500Y-99240288D01*
X151050593Y-99238152D01*
X151051053Y-99232884D01*
X151054264Y-99196193D01*
X151043362Y-99155508D01*
X151042900Y-99153424D01*
X151042017Y-99148419D01*
X151035588Y-99111955D01*
X151031539Y-99104943D01*
X151026646Y-99093126D01*
X151026324Y-99091925D01*
X151024554Y-99085316D01*
X151000390Y-99050806D01*
X150999255Y-99049024D01*
X150985117Y-99024536D01*
X150978195Y-99012546D01*
X150963361Y-99000099D01*
X150945923Y-98985466D01*
X150944349Y-98984023D01*
X150605858Y-98645532D01*
X150591506Y-98610884D01*
X150591925Y-98604488D01*
X150592488Y-98600212D01*
X150605682Y-98500000D01*
X150585044Y-98343238D01*
X150551871Y-98263152D01*
X150524538Y-98197163D01*
X150524535Y-98197158D01*
X150428282Y-98071718D01*
X150428281Y-98071717D01*
X150302841Y-97975464D01*
X150302836Y-97975461D01*
X150156761Y-97914955D01*
X150000000Y-97894318D01*
X149843238Y-97914955D01*
X149697163Y-97975461D01*
X149697158Y-97975464D01*
X149571718Y-98071717D01*
X149571717Y-98071718D01*
X149475464Y-98197158D01*
X149475461Y-98197163D01*
X149414955Y-98343238D01*
X149394318Y-98500000D01*
X149414955Y-98656761D01*
X149475461Y-98802836D01*
X149475464Y-98802841D01*
X149571718Y-98928282D01*
X149697159Y-99024536D01*
X149697161Y-99024536D01*
X149697163Y-99024538D01*
X149820110Y-99075464D01*
X149843238Y-99085044D01*
X150000000Y-99105682D01*
X150104488Y-99091925D01*
X150140713Y-99101631D01*
X150145532Y-99105858D01*
X150385148Y-99345474D01*
X150399500Y-99380122D01*
X150399500Y-111245500D01*
X150385148Y-111280148D01*
X150350500Y-111294500D01*
X149215018Y-111294500D01*
X149175877Y-111302285D01*
X149136377Y-111310142D01*
X149136367Y-111310145D01*
X149101734Y-111324491D01*
X149101728Y-111324494D01*
X149101727Y-111324495D01*
X149043437Y-111361121D01*
X149041488Y-111363866D01*
X149009734Y-111383818D01*
X148973172Y-111375472D01*
X148966880Y-111370158D01*
X143614852Y-106018130D01*
X143600500Y-105983482D01*
X143600500Y-99380121D01*
X143614851Y-99345474D01*
X143854467Y-99105857D01*
X143889114Y-99091506D01*
X143895509Y-99091924D01*
X144000000Y-99105682D01*
X144156762Y-99085044D01*
X144302841Y-99024536D01*
X144428282Y-98928282D01*
X144524536Y-98802841D01*
X144585044Y-98656762D01*
X144605682Y-98500000D01*
X144585044Y-98343238D01*
X144551871Y-98263152D01*
X144524538Y-98197163D01*
X144524535Y-98197158D01*
X144428282Y-98071718D01*
X144428281Y-98071717D01*
X144302841Y-97975464D01*
X144302836Y-97975461D01*
X144156761Y-97914955D01*
X144000000Y-97894318D01*
X143843238Y-97914955D01*
X143697163Y-97975461D01*
X143697158Y-97975464D01*
X143571718Y-98071717D01*
X143571717Y-98071718D01*
X143475464Y-98197158D01*
X143475461Y-98197163D01*
X143414955Y-98343238D01*
X143394318Y-98499999D01*
X143394318Y-98500000D01*
X143404251Y-98575446D01*
X143408074Y-98604487D01*
X143398367Y-98640712D01*
X143394141Y-98645531D01*
X143055648Y-98984025D01*
X143054072Y-98985469D01*
X143021806Y-99012544D01*
X143000743Y-99049024D01*
X142999595Y-99050826D01*
X142975445Y-99085317D01*
X142975444Y-99085317D01*
X142973351Y-99093132D01*
X142968458Y-99104945D01*
X142964414Y-99111950D01*
X142964410Y-99111960D01*
X142957102Y-99153410D01*
X142956639Y-99155497D01*
X142945736Y-99196191D01*
X142945736Y-99196192D01*
X142949407Y-99238152D01*
X142949500Y-99240288D01*
X142949500Y-105870878D01*
X142935148Y-105905526D01*
X142900500Y-105919878D01*
X142865852Y-105905526D01*
X142355858Y-105395532D01*
X142341506Y-105360884D01*
X142341925Y-105354488D01*
X142355682Y-105250000D01*
X142335044Y-105093238D01*
X142274536Y-104947159D01*
X142178282Y-104821718D01*
X142178279Y-104821716D01*
X142052841Y-104725464D01*
X142052836Y-104725461D01*
X141906761Y-104664955D01*
X141750000Y-104644318D01*
X141593238Y-104664955D01*
X141447163Y-104725461D01*
X141447158Y-104725464D01*
X141321718Y-104821717D01*
X141321717Y-104821718D01*
X141225464Y-104947158D01*
X141225461Y-104947163D01*
X141164955Y-105093238D01*
X141144318Y-105250000D01*
X141164955Y-105406761D01*
X141225461Y-105552836D01*
X141225464Y-105552841D01*
X141321715Y-105678279D01*
X141321718Y-105678282D01*
X141447159Y-105774536D01*
X141447161Y-105774536D01*
X141447163Y-105774538D01*
X141593238Y-105835044D01*
X141750000Y-105855682D01*
X141854488Y-105841925D01*
X141890713Y-105851631D01*
X141895532Y-105855858D01*
X147250526Y-111210852D01*
X147264878Y-111245500D01*
X147250526Y-111280148D01*
X147215878Y-111294500D01*
X146578622Y-111294500D01*
X146539481Y-111302285D01*
X146499981Y-111310142D01*
X146499971Y-111310145D01*
X146465338Y-111324491D01*
X146465332Y-111324494D01*
X146465331Y-111324495D01*
X146407041Y-111361121D01*
X146405092Y-111363866D01*
X146373338Y-111383818D01*
X146336776Y-111375472D01*
X146330484Y-111370158D01*
X140355858Y-105395532D01*
X140341506Y-105360884D01*
X140341925Y-105354488D01*
X140355682Y-105250000D01*
X140335044Y-105093238D01*
X140274536Y-104947159D01*
X140178282Y-104821718D01*
X140178279Y-104821716D01*
X140052841Y-104725464D01*
X140052836Y-104725461D01*
X139906761Y-104664955D01*
X139750000Y-104644318D01*
X139593238Y-104664955D01*
X139447163Y-104725461D01*
X139447158Y-104725464D01*
X139321719Y-104821716D01*
X139288874Y-104864521D01*
X139256395Y-104883272D01*
X139220170Y-104873565D01*
X139211126Y-104864521D01*
X139178282Y-104821718D01*
X139178280Y-104821717D01*
X139178280Y-104821716D01*
X139052841Y-104725464D01*
X139052836Y-104725461D01*
X138906761Y-104664955D01*
X138750000Y-104644318D01*
X138593238Y-104664955D01*
X138447163Y-104725461D01*
X138447158Y-104725464D01*
X138321719Y-104821716D01*
X138288874Y-104864521D01*
X138256395Y-104883272D01*
X138220170Y-104873565D01*
X138211126Y-104864521D01*
X138178282Y-104821718D01*
X138178280Y-104821717D01*
X138178280Y-104821716D01*
X138052841Y-104725464D01*
X138052836Y-104725461D01*
X137906761Y-104664955D01*
X137750000Y-104644318D01*
X137593238Y-104664955D01*
X137447163Y-104725461D01*
X137447158Y-104725464D01*
X137321718Y-104821717D01*
X137321717Y-104821718D01*
X137225464Y-104947158D01*
X137225461Y-104947163D01*
X137164955Y-105093238D01*
X137144318Y-105250000D01*
X137164955Y-105406761D01*
X137225461Y-105552836D01*
X137225464Y-105552841D01*
X137321718Y-105678282D01*
X137405330Y-105742439D01*
X137424081Y-105774916D01*
X137424500Y-105781312D01*
X137424500Y-113141874D01*
X137410148Y-113176522D01*
X137383708Y-113190182D01*
X137296856Y-113204939D01*
X137262212Y-113219289D01*
X137195539Y-113263840D01*
X136869044Y-113590335D01*
X136824492Y-113657010D01*
X136810145Y-113691645D01*
X136810142Y-113691655D01*
X136802285Y-113731155D01*
X136794500Y-113770296D01*
X136794500Y-122229704D01*
X136804880Y-122281891D01*
X136810142Y-122308344D01*
X136810145Y-122308354D01*
X136824492Y-122342989D01*
X136824493Y-122342991D01*
X136824495Y-122342995D01*
X136869042Y-122409662D01*
X139090338Y-124630958D01*
X139157005Y-124675505D01*
X139157010Y-124675507D01*
X139191645Y-124689854D01*
X139191647Y-124689854D01*
X139191653Y-124689857D01*
X139270296Y-124705500D01*
X139994629Y-124705500D01*
X140029277Y-124719852D01*
X140043629Y-124754500D01*
X140029277Y-124789148D01*
X135665542Y-129152881D01*
X135659698Y-129157873D01*
X135644971Y-129168573D01*
X135644963Y-129168580D01*
X135601267Y-129217109D01*
X135600385Y-129218038D01*
X135584290Y-129234134D01*
X135584285Y-129234139D01*
X135570987Y-129250681D01*
X135570100Y-129251724D01*
X135527446Y-129299097D01*
X135517543Y-129316250D01*
X135513301Y-129322446D01*
X135498981Y-129340261D01*
X135498976Y-129340269D01*
X135470680Y-129397320D01*
X135469949Y-129398683D01*
X135439634Y-129451196D01*
X135432521Y-129473086D01*
X135429819Y-129479710D01*
X135418235Y-129503070D01*
X135418231Y-129503080D01*
X135403614Y-129561853D01*
X135403140Y-129563511D01*
X135385364Y-129618220D01*
X135385361Y-129618236D01*
X135382441Y-129646012D01*
X135381851Y-129649366D01*
X135374374Y-129679432D01*
X135374373Y-129679438D01*
X135372816Y-129736879D01*
X135372691Y-129738776D01*
X135367005Y-129792892D01*
X131000500Y-129792892D01*
X131000500Y-127500000D01*
X132644341Y-127500000D01*
X132664937Y-127735410D01*
X132664938Y-127735416D01*
X132726094Y-127963655D01*
X132726095Y-127963660D01*
X132825963Y-128177827D01*
X132825971Y-128177839D01*
X132961500Y-128371395D01*
X132961506Y-128371402D01*
X133128597Y-128538493D01*
X133128604Y-128538499D01*
X133322160Y-128674028D01*
X133322172Y-128674036D01*
X133536339Y-128773904D01*
X133536344Y-128773905D01*
X133764583Y-128835061D01*
X133764587Y-128835061D01*
X133764592Y-128835063D01*
X133884250Y-128845531D01*
X133941030Y-128850500D01*
X133941034Y-128850500D01*
X134058970Y-128850500D01*
X134111521Y-128845901D01*
X134235408Y-128835063D01*
X134235414Y-128835061D01*
X134235416Y-128835061D01*
X134349535Y-128804483D01*
X134463657Y-128773904D01*
X134463660Y-128773904D01*
X134463660Y-128773903D01*
X134463663Y-128773903D01*
X134677829Y-128674035D01*
X134871401Y-128538495D01*
X135038495Y-128371401D01*
X135120706Y-128253992D01*
X135174029Y-128177840D01*
X135174036Y-128177828D01*
X135223029Y-128072762D01*
X135273903Y-127963663D01*
X135335063Y-127735408D01*
X135355659Y-127500000D01*
X135335063Y-127264592D01*
X135328252Y-127239174D01*
X135273905Y-127036344D01*
X135273904Y-127036339D01*
X135174036Y-126822172D01*
X135174028Y-126822160D01*
X135038499Y-126628604D01*
X135038493Y-126628597D01*
X134871402Y-126461506D01*
X134871395Y-126461500D01*
X134677839Y-126325971D01*
X134677827Y-126325963D01*
X134463660Y-126226095D01*
X134463655Y-126226094D01*
X134235416Y-126164938D01*
X134235410Y-126164937D01*
X134058970Y-126149500D01*
X134058966Y-126149500D01*
X133941034Y-126149500D01*
X133941030Y-126149500D01*
X133764589Y-126164937D01*
X133764583Y-126164938D01*
X133536344Y-126226094D01*
X133536339Y-126226095D01*
X133322172Y-126325963D01*
X133322160Y-126325971D01*
X133128604Y-126461500D01*
X133128597Y-126461506D01*
X132961506Y-126628597D01*
X132961500Y-126628604D01*
X132825970Y-126822159D01*
X132825963Y-126822171D01*
X132726095Y-127036339D01*
X132726094Y-127036344D01*
X132664938Y-127264583D01*
X132664937Y-127264589D01*
X132644341Y-127500000D01*
X131000500Y-127500000D01*
X131000500Y-99009843D01*
X131000534Y-99009672D01*
X131000539Y-99000002D01*
X131000541Y-99000000D01*
X131000383Y-98999617D01*
X131000099Y-98999500D01*
X131000000Y-98999459D01*
X130990362Y-98999459D01*
X130990156Y-98999500D01*
X124049500Y-98999500D01*
X124014852Y-98985148D01*
X124000500Y-98950500D01*
X124000500Y-97369748D01*
X125949500Y-97369748D01*
X125961133Y-97428231D01*
X125978882Y-97454795D01*
X126005447Y-97494552D01*
X126032012Y-97512301D01*
X126071769Y-97538867D01*
X126130252Y-97550500D01*
X126130255Y-97550500D01*
X127869745Y-97550500D01*
X127869748Y-97550500D01*
X127928231Y-97538867D01*
X127994552Y-97494552D01*
X128038867Y-97428231D01*
X128050500Y-97369748D01*
X128050500Y-97067000D01*
X128064852Y-97032352D01*
X128099500Y-97018000D01*
X130765142Y-97018000D01*
X130799790Y-97032352D01*
X133467648Y-99700210D01*
X133482000Y-99734858D01*
X133482000Y-111991154D01*
X133479870Y-112053464D01*
X133479871Y-112053473D01*
X133490141Y-112095619D01*
X133490610Y-112098084D01*
X133496518Y-112141064D01*
X133496519Y-112141070D01*
X133505552Y-112161866D01*
X133508214Y-112169783D01*
X133513584Y-112191816D01*
X133513585Y-112191818D01*
X133534846Y-112229631D01*
X133535963Y-112231878D01*
X133553250Y-112271675D01*
X133567560Y-112289264D01*
X133572259Y-112296168D01*
X133583375Y-112315937D01*
X133614055Y-112346617D01*
X133615728Y-112348471D01*
X133643111Y-112382130D01*
X133643116Y-112382135D01*
X133661642Y-112395212D01*
X133668033Y-112400595D01*
X134402288Y-113134851D01*
X134413323Y-113153962D01*
X134413727Y-113153795D01*
X134440855Y-113219289D01*
X134475464Y-113302841D01*
X134571718Y-113428282D01*
X134697159Y-113524536D01*
X134697161Y-113524536D01*
X134697163Y-113524538D01*
X134843238Y-113585044D01*
X135000000Y-113605682D01*
X135156762Y-113585044D01*
X135302841Y-113524536D01*
X135428282Y-113428282D01*
X135524536Y-113302841D01*
X135585044Y-113156762D01*
X135605682Y-113000000D01*
X135585044Y-112843238D01*
X135524536Y-112697159D01*
X135428282Y-112571718D01*
X135302841Y-112475464D01*
X135156762Y-112414956D01*
X135153795Y-112413727D01*
X135153962Y-112413323D01*
X135134851Y-112402288D01*
X134532352Y-111799789D01*
X134518000Y-111765141D01*
X134518000Y-99508859D01*
X134519693Y-99459284D01*
X134534015Y-99426309D01*
X137120474Y-96839852D01*
X137155122Y-96825500D01*
X143468687Y-96825500D01*
X143503335Y-96839852D01*
X143507561Y-96844671D01*
X143571718Y-96928282D01*
X143697159Y-97024536D01*
X143697161Y-97024536D01*
X143697163Y-97024538D01*
X143710910Y-97030232D01*
X143843238Y-97085044D01*
X144000000Y-97105682D01*
X144156762Y-97085044D01*
X144302841Y-97024536D01*
X144428282Y-96928282D01*
X144524536Y-96802841D01*
X144585044Y-96656762D01*
X144605682Y-96500000D01*
X144585044Y-96343238D01*
X144558804Y-96279889D01*
X144524538Y-96197163D01*
X144524535Y-96197158D01*
X144518591Y-96189412D01*
X144428282Y-96071718D01*
X144427621Y-96071211D01*
X144302841Y-95975464D01*
X144302836Y-95975461D01*
X144156761Y-95914955D01*
X144000000Y-95894318D01*
X143843238Y-95914955D01*
X143697163Y-95975461D01*
X143697158Y-95975464D01*
X143571718Y-96071717D01*
X143571717Y-96071718D01*
X143507561Y-96155329D01*
X143475083Y-96174081D01*
X143468687Y-96174500D01*
X137015290Y-96174500D01*
X137013154Y-96174407D01*
X136981808Y-96171664D01*
X136971193Y-96170736D01*
X136971192Y-96170736D01*
X136971191Y-96170736D01*
X136930497Y-96181639D01*
X136928418Y-96182100D01*
X136918120Y-96183916D01*
X136886960Y-96189410D01*
X136886950Y-96189414D01*
X136879945Y-96193458D01*
X136868132Y-96198351D01*
X136860317Y-96200444D01*
X136860317Y-96200445D01*
X136825826Y-96224595D01*
X136824024Y-96225743D01*
X136787544Y-96246806D01*
X136760467Y-96279074D01*
X136759023Y-96280650D01*
X134170765Y-98868907D01*
X134136117Y-98883259D01*
X134101469Y-98868907D01*
X131372543Y-96139981D01*
X131329979Y-96094406D01*
X131329974Y-96094402D01*
X131292913Y-96071864D01*
X131290838Y-96070452D01*
X131270461Y-96055000D01*
X131256264Y-96044234D01*
X131235159Y-96035911D01*
X131227684Y-96032198D01*
X131208311Y-96020417D01*
X131166537Y-96008712D01*
X131164159Y-96007912D01*
X131123801Y-95991998D01*
X131123798Y-95991997D01*
X131123797Y-95991997D01*
X131115621Y-95991156D01*
X131101238Y-95989677D01*
X131093034Y-95988118D01*
X131088690Y-95986901D01*
X131071197Y-95982000D01*
X131071194Y-95982000D01*
X131027810Y-95982000D01*
X131025302Y-95981871D01*
X130982150Y-95977434D01*
X130959802Y-95981288D01*
X130951477Y-95982000D01*
X128099500Y-95982000D01*
X128064852Y-95967648D01*
X128050500Y-95933000D01*
X128050500Y-95630255D01*
X128050500Y-95630252D01*
X128038867Y-95571769D01*
X128012301Y-95532012D01*
X127994552Y-95505447D01*
X127939328Y-95468548D01*
X127928231Y-95461133D01*
X127869748Y-95449500D01*
X126130252Y-95449500D01*
X126071769Y-95461133D01*
X126005447Y-95505447D01*
X125961133Y-95571769D01*
X125949500Y-95630252D01*
X125949500Y-97369748D01*
X124000500Y-97369748D01*
X124000499Y-94210000D01*
X125669363Y-94210000D01*
X125726566Y-94423483D01*
X125726568Y-94423488D01*
X125826398Y-94637577D01*
X125826405Y-94637589D01*
X125961885Y-94831072D01*
X125961891Y-94831079D01*
X126128920Y-94998108D01*
X126128927Y-94998114D01*
X126322410Y-95133594D01*
X126322422Y-95133601D01*
X126536511Y-95233431D01*
X126536516Y-95233433D01*
X126750000Y-95290634D01*
X126750000Y-94395501D01*
X126857685Y-94444680D01*
X126964237Y-94460000D01*
X127035763Y-94460000D01*
X127142315Y-94444680D01*
X127250000Y-94395501D01*
X127250000Y-95290634D01*
X127463483Y-95233433D01*
X127463488Y-95233431D01*
X127677577Y-95133601D01*
X127677589Y-95133594D01*
X127871072Y-94998114D01*
X127871079Y-94998108D01*
X128038108Y-94831079D01*
X128038114Y-94831072D01*
X128173594Y-94637589D01*
X128173601Y-94637577D01*
X128273431Y-94423488D01*
X128273433Y-94423483D01*
X128330636Y-94210000D01*
X127433686Y-94210000D01*
X127459493Y-94169844D01*
X127500000Y-94031889D01*
X127500000Y-93888111D01*
X127459493Y-93750156D01*
X127433686Y-93710000D01*
X128330636Y-93710000D01*
X128330636Y-93709999D01*
X128278386Y-93515000D01*
X163694417Y-93515000D01*
X163714700Y-93720934D01*
X163774768Y-93918954D01*
X163872315Y-94101450D01*
X164003590Y-94261410D01*
X164163550Y-94392685D01*
X164346046Y-94490232D01*
X164544066Y-94550300D01*
X164750000Y-94570583D01*
X164955934Y-94550300D01*
X165153954Y-94490232D01*
X165336450Y-94392685D01*
X165496410Y-94261410D01*
X165627685Y-94101450D01*
X165725232Y-93918954D01*
X165785300Y-93720934D01*
X165805583Y-93515000D01*
X166234417Y-93515000D01*
X166254700Y-93720934D01*
X166314768Y-93918954D01*
X166412315Y-94101450D01*
X166543590Y-94261410D01*
X166703550Y-94392685D01*
X166886046Y-94490232D01*
X167084066Y-94550300D01*
X167290000Y-94570583D01*
X167495934Y-94550300D01*
X167693954Y-94490232D01*
X167876450Y-94392685D01*
X168036410Y-94261410D01*
X168167685Y-94101450D01*
X168265232Y-93918954D01*
X168325300Y-93720934D01*
X168345583Y-93515000D01*
X168325300Y-93309066D01*
X168265232Y-93111046D01*
X168167685Y-92928550D01*
X168036410Y-92768590D01*
X167876450Y-92637315D01*
X167693954Y-92539768D01*
X167495934Y-92479700D01*
X167290000Y-92459417D01*
X167084065Y-92479700D01*
X167084064Y-92479700D01*
X166886043Y-92539769D01*
X166703548Y-92637316D01*
X166543590Y-92768590D01*
X166412316Y-92928548D01*
X166314769Y-93111043D01*
X166254700Y-93309064D01*
X166254700Y-93309065D01*
X166236238Y-93496516D01*
X166234417Y-93515000D01*
X165805583Y-93515000D01*
X165785300Y-93309066D01*
X165725232Y-93111046D01*
X165627685Y-92928550D01*
X165496410Y-92768590D01*
X165336450Y-92637315D01*
X165153954Y-92539768D01*
X164955934Y-92479700D01*
X164750000Y-92459417D01*
X164544065Y-92479700D01*
X164544064Y-92479700D01*
X164346043Y-92539769D01*
X164163548Y-92637316D01*
X164003590Y-92768590D01*
X163872316Y-92928548D01*
X163774769Y-93111043D01*
X163714700Y-93309064D01*
X163714700Y-93309065D01*
X163696238Y-93496516D01*
X163694417Y-93515000D01*
X128278386Y-93515000D01*
X128273433Y-93496516D01*
X128273432Y-93496511D01*
X128173601Y-93282423D01*
X128173594Y-93282411D01*
X128038114Y-93088927D01*
X128038108Y-93088920D01*
X127871079Y-92921891D01*
X127871072Y-92921885D01*
X127677589Y-92786405D01*
X127677577Y-92786398D01*
X127463488Y-92686568D01*
X127463483Y-92686566D01*
X127250000Y-92629363D01*
X127250000Y-93524498D01*
X127142315Y-93475320D01*
X127035763Y-93460000D01*
X126964237Y-93460000D01*
X126857685Y-93475320D01*
X126750000Y-93524498D01*
X126750000Y-92629363D01*
X126749999Y-92629363D01*
X126536516Y-92686566D01*
X126536511Y-92686567D01*
X126322423Y-92786398D01*
X126322411Y-92786405D01*
X126128927Y-92921885D01*
X126128920Y-92921891D01*
X125961891Y-93088920D01*
X125961885Y-93088927D01*
X125826405Y-93282411D01*
X125826398Y-93282423D01*
X125726567Y-93496511D01*
X125726566Y-93496516D01*
X125669363Y-93709999D01*
X125669364Y-93710000D01*
X126566314Y-93710000D01*
X126540507Y-93750156D01*
X126500000Y-93888111D01*
X126500000Y-94031889D01*
X126540507Y-94169844D01*
X126566314Y-94210000D01*
X125669363Y-94210000D01*
X124000499Y-94210000D01*
X124000498Y-91999997D01*
X124000501Y-91999901D01*
X124009426Y-91750000D01*
X142370818Y-91750000D01*
X142391455Y-91906761D01*
X142451961Y-92052836D01*
X142451964Y-92052841D01*
X142548218Y-92178282D01*
X142673659Y-92274536D01*
X142673661Y-92274536D01*
X142673663Y-92274538D01*
X142819738Y-92335044D01*
X142976500Y-92355682D01*
X143133262Y-92335044D01*
X143279341Y-92274536D01*
X143404782Y-92178282D01*
X143468939Y-92094671D01*
X143501417Y-92075919D01*
X143507813Y-92075500D01*
X145218687Y-92075500D01*
X145253335Y-92089852D01*
X145257561Y-92094671D01*
X145321718Y-92178282D01*
X145447159Y-92274536D01*
X145447161Y-92274536D01*
X145447163Y-92274538D01*
X145593238Y-92335044D01*
X145750000Y-92355682D01*
X145906762Y-92335044D01*
X146052841Y-92274536D01*
X146178282Y-92178282D01*
X146274536Y-92052841D01*
X146335044Y-91906762D01*
X146355682Y-91750000D01*
X146335044Y-91593238D01*
X146297056Y-91501527D01*
X146274538Y-91447163D01*
X146274535Y-91447158D01*
X146256827Y-91424081D01*
X146178282Y-91321718D01*
X146052841Y-91225464D01*
X146052836Y-91225461D01*
X145906761Y-91164955D01*
X145750000Y-91144318D01*
X145593238Y-91164955D01*
X145447163Y-91225461D01*
X145447158Y-91225464D01*
X145321718Y-91321717D01*
X145321717Y-91321718D01*
X145257561Y-91405329D01*
X145225083Y-91424081D01*
X145218687Y-91424500D01*
X143507813Y-91424500D01*
X143473165Y-91410148D01*
X143468939Y-91405329D01*
X143404782Y-91321718D01*
X143404781Y-91321717D01*
X143279341Y-91225464D01*
X143279336Y-91225461D01*
X143133261Y-91164955D01*
X142976500Y-91144318D01*
X142819738Y-91164955D01*
X142673663Y-91225461D01*
X142673658Y-91225464D01*
X142548218Y-91321717D01*
X142548217Y-91321718D01*
X142451964Y-91447158D01*
X142451961Y-91447163D01*
X142391455Y-91593238D01*
X142370818Y-91750000D01*
X124009426Y-91750000D01*
X124018301Y-91501499D01*
X124018422Y-91499817D01*
X124071652Y-91004706D01*
X124071893Y-91003029D01*
X124076950Y-90975000D01*
X163694417Y-90975000D01*
X163714700Y-91180934D01*
X163774768Y-91378954D01*
X163872315Y-91561450D01*
X164003590Y-91721410D01*
X164163550Y-91852685D01*
X164346046Y-91950232D01*
X164544066Y-92010300D01*
X164750000Y-92030583D01*
X164955934Y-92010300D01*
X165153954Y-91950232D01*
X165336450Y-91852685D01*
X165346121Y-91844748D01*
X166239500Y-91844748D01*
X166251133Y-91903231D01*
X166268882Y-91929795D01*
X166295447Y-91969552D01*
X166322012Y-91987301D01*
X166361769Y-92013867D01*
X166420252Y-92025500D01*
X166420255Y-92025500D01*
X168159745Y-92025500D01*
X168159748Y-92025500D01*
X168218231Y-92013867D01*
X168284552Y-91969552D01*
X168328867Y-91903231D01*
X168340500Y-91844748D01*
X168340500Y-90105252D01*
X168328867Y-90046769D01*
X168297462Y-89999769D01*
X168284552Y-89980447D01*
X168223569Y-89939700D01*
X168218231Y-89936133D01*
X168159748Y-89924500D01*
X166420252Y-89924500D01*
X166361769Y-89936133D01*
X166295447Y-89980447D01*
X166263105Y-90028852D01*
X166251133Y-90046769D01*
X166239500Y-90105252D01*
X166239500Y-91844748D01*
X165346121Y-91844748D01*
X165496410Y-91721410D01*
X165627685Y-91561450D01*
X165725232Y-91378954D01*
X165785300Y-91180934D01*
X165805583Y-90975000D01*
X165785300Y-90769066D01*
X165725232Y-90571046D01*
X165627685Y-90388550D01*
X165496410Y-90228590D01*
X165336450Y-90097315D01*
X165153954Y-89999768D01*
X164955934Y-89939700D01*
X164750000Y-89919417D01*
X164544065Y-89939700D01*
X164544064Y-89939700D01*
X164346043Y-89999769D01*
X164163548Y-90097316D01*
X164003590Y-90228590D01*
X163872316Y-90388548D01*
X163774769Y-90571043D01*
X163714700Y-90769064D01*
X163714700Y-90769065D01*
X163709912Y-90817683D01*
X163694417Y-90975000D01*
X124076950Y-90975000D01*
X124160309Y-90512977D01*
X124160673Y-90511308D01*
X124283816Y-90028835D01*
X124284298Y-90027196D01*
X124441547Y-89554738D01*
X124442150Y-89553124D01*
X124464155Y-89500000D01*
X142144417Y-89500000D01*
X142164700Y-89705934D01*
X142224768Y-89903954D01*
X142322315Y-90086450D01*
X142453590Y-90246410D01*
X142613550Y-90377685D01*
X142796046Y-90475232D01*
X142994066Y-90535300D01*
X143200000Y-90555583D01*
X143405934Y-90535300D01*
X143603954Y-90475232D01*
X143786450Y-90377685D01*
X143946410Y-90246410D01*
X144077685Y-90086450D01*
X144175232Y-89903954D01*
X144235300Y-89705934D01*
X144255583Y-89500000D01*
X144684417Y-89500000D01*
X144704700Y-89705934D01*
X144764768Y-89903954D01*
X144862315Y-90086450D01*
X144993590Y-90246410D01*
X145153550Y-90377685D01*
X145336046Y-90475232D01*
X145534066Y-90535300D01*
X145740000Y-90555583D01*
X145945934Y-90535300D01*
X146143954Y-90475232D01*
X146326450Y-90377685D01*
X146486410Y-90246410D01*
X146617685Y-90086450D01*
X146715232Y-89903954D01*
X146775300Y-89705934D01*
X146795583Y-89500000D01*
X147224417Y-89500000D01*
X147244700Y-89705934D01*
X147304768Y-89903954D01*
X147402315Y-90086450D01*
X147533590Y-90246410D01*
X147693550Y-90377685D01*
X147876046Y-90475232D01*
X148074066Y-90535300D01*
X148280000Y-90555583D01*
X148485934Y-90535300D01*
X148683954Y-90475232D01*
X148866450Y-90377685D01*
X149026410Y-90246410D01*
X149157685Y-90086450D01*
X149255232Y-89903954D01*
X149315300Y-89705934D01*
X149335583Y-89500000D01*
X149764417Y-89500000D01*
X149784700Y-89705934D01*
X149844768Y-89903954D01*
X149942315Y-90086450D01*
X150073590Y-90246410D01*
X150233550Y-90377685D01*
X150416046Y-90475232D01*
X150614066Y-90535300D01*
X150820000Y-90555583D01*
X151025934Y-90535300D01*
X151223954Y-90475232D01*
X151406450Y-90377685D01*
X151566410Y-90246410D01*
X151697685Y-90086450D01*
X151795232Y-89903954D01*
X151855300Y-89705934D01*
X151875583Y-89500000D01*
X151855300Y-89294066D01*
X151795232Y-89096046D01*
X151697685Y-88913550D01*
X151566410Y-88753590D01*
X151406450Y-88622315D01*
X151223954Y-88524768D01*
X151025934Y-88464700D01*
X150820000Y-88444417D01*
X150614065Y-88464700D01*
X150614064Y-88464700D01*
X150416043Y-88524769D01*
X150233548Y-88622316D01*
X150073590Y-88753590D01*
X149942316Y-88913548D01*
X149844769Y-89096043D01*
X149784700Y-89294064D01*
X149784700Y-89294065D01*
X149784700Y-89294066D01*
X149764417Y-89500000D01*
X149335583Y-89500000D01*
X149315300Y-89294066D01*
X149255232Y-89096046D01*
X149157685Y-88913550D01*
X149026410Y-88753590D01*
X148866450Y-88622315D01*
X148683954Y-88524768D01*
X148485934Y-88464700D01*
X148280000Y-88444417D01*
X148074065Y-88464700D01*
X148074064Y-88464700D01*
X147876043Y-88524769D01*
X147693548Y-88622316D01*
X147533590Y-88753590D01*
X147402316Y-88913548D01*
X147304769Y-89096043D01*
X147244700Y-89294064D01*
X147244700Y-89294065D01*
X147244700Y-89294066D01*
X147224417Y-89500000D01*
X146795583Y-89500000D01*
X146775300Y-89294066D01*
X146715232Y-89096046D01*
X146617685Y-88913550D01*
X146486410Y-88753590D01*
X146326450Y-88622315D01*
X146143954Y-88524768D01*
X145945934Y-88464700D01*
X145740000Y-88444417D01*
X145534065Y-88464700D01*
X145534064Y-88464700D01*
X145336043Y-88524769D01*
X145153548Y-88622316D01*
X144993590Y-88753590D01*
X144862316Y-88913548D01*
X144764769Y-89096043D01*
X144704700Y-89294064D01*
X144704700Y-89294065D01*
X144704700Y-89294066D01*
X144684417Y-89500000D01*
X144255583Y-89500000D01*
X144235300Y-89294066D01*
X144175232Y-89096046D01*
X144077685Y-88913550D01*
X143946410Y-88753590D01*
X143786450Y-88622315D01*
X143603954Y-88524768D01*
X143405934Y-88464700D01*
X143200000Y-88444417D01*
X142994065Y-88464700D01*
X142994064Y-88464700D01*
X142796043Y-88524769D01*
X142613548Y-88622316D01*
X142453590Y-88753590D01*
X142322316Y-88913548D01*
X142224769Y-89096043D01*
X142164700Y-89294064D01*
X142164700Y-89294065D01*
X142164700Y-89294066D01*
X142144417Y-89500000D01*
X124464155Y-89500000D01*
X124632702Y-89093088D01*
X124633404Y-89091551D01*
X124856297Y-88646268D01*
X124857117Y-88644765D01*
X125111209Y-88216516D01*
X125112127Y-88215088D01*
X125261465Y-88000000D01*
X132644341Y-88000000D01*
X132664937Y-88235410D01*
X132664938Y-88235416D01*
X132726094Y-88463655D01*
X132726095Y-88463660D01*
X132825963Y-88677827D01*
X132825971Y-88677839D01*
X132961500Y-88871395D01*
X132961506Y-88871402D01*
X133128597Y-89038493D01*
X133128604Y-89038499D01*
X133322160Y-89174028D01*
X133322172Y-89174036D01*
X133536339Y-89273904D01*
X133536344Y-89273905D01*
X133764583Y-89335061D01*
X133764587Y-89335061D01*
X133764592Y-89335063D01*
X133884250Y-89345531D01*
X133941030Y-89350500D01*
X133941034Y-89350500D01*
X134058970Y-89350500D01*
X134111521Y-89345901D01*
X134235408Y-89335063D01*
X134235414Y-89335061D01*
X134235416Y-89335061D01*
X134388420Y-89294064D01*
X134463657Y-89273904D01*
X134463660Y-89273904D01*
X134463660Y-89273903D01*
X134463663Y-89273903D01*
X134677829Y-89174035D01*
X134871401Y-89038495D01*
X135038495Y-88871401D01*
X135061165Y-88839024D01*
X135174029Y-88677840D01*
X135174036Y-88677828D01*
X135199922Y-88622315D01*
X135273903Y-88463663D01*
X135335063Y-88235408D01*
X135355659Y-88000000D01*
X135340764Y-87829748D01*
X142149500Y-87829748D01*
X142161133Y-87888231D01*
X142178882Y-87914795D01*
X142205447Y-87954552D01*
X142232012Y-87972301D01*
X142271769Y-87998867D01*
X142330252Y-88010500D01*
X142330255Y-88010500D01*
X144069745Y-88010500D01*
X144069748Y-88010500D01*
X144128231Y-87998867D01*
X144194552Y-87954552D01*
X144238867Y-87888231D01*
X144250500Y-87829748D01*
X144250500Y-86960000D01*
X144684417Y-86960000D01*
X144704700Y-87165934D01*
X144764768Y-87363954D01*
X144862315Y-87546450D01*
X144993590Y-87706410D01*
X145153550Y-87837685D01*
X145336046Y-87935232D01*
X145534066Y-87995300D01*
X145740000Y-88015583D01*
X145945934Y-87995300D01*
X146143954Y-87935232D01*
X146326450Y-87837685D01*
X146486410Y-87706410D01*
X146617685Y-87546450D01*
X146715232Y-87363954D01*
X146775300Y-87165934D01*
X146795583Y-86960000D01*
X147224417Y-86960000D01*
X147244700Y-87165934D01*
X147304768Y-87363954D01*
X147402315Y-87546450D01*
X147533590Y-87706410D01*
X147693550Y-87837685D01*
X147876046Y-87935232D01*
X148074066Y-87995300D01*
X148280000Y-88015583D01*
X148485934Y-87995300D01*
X148683954Y-87935232D01*
X148866450Y-87837685D01*
X149026410Y-87706410D01*
X149157685Y-87546450D01*
X149255232Y-87363954D01*
X149315300Y-87165934D01*
X149335583Y-86960000D01*
X149764417Y-86960000D01*
X149784700Y-87165934D01*
X149844768Y-87363954D01*
X149942315Y-87546450D01*
X150073590Y-87706410D01*
X150233550Y-87837685D01*
X150416046Y-87935232D01*
X150614066Y-87995300D01*
X150820000Y-88015583D01*
X150978215Y-88000000D01*
X158644341Y-88000000D01*
X158664937Y-88235410D01*
X158664938Y-88235416D01*
X158726094Y-88463655D01*
X158726095Y-88463660D01*
X158825963Y-88677827D01*
X158825971Y-88677839D01*
X158961500Y-88871395D01*
X158961506Y-88871402D01*
X159128597Y-89038493D01*
X159128604Y-89038499D01*
X159322160Y-89174028D01*
X159322172Y-89174036D01*
X159536339Y-89273904D01*
X159536344Y-89273905D01*
X159764583Y-89335061D01*
X159764587Y-89335061D01*
X159764592Y-89335063D01*
X159884250Y-89345531D01*
X159941030Y-89350500D01*
X159941034Y-89350500D01*
X160058970Y-89350500D01*
X160111521Y-89345901D01*
X160235408Y-89335063D01*
X160235414Y-89335061D01*
X160235416Y-89335061D01*
X160388420Y-89294064D01*
X160463657Y-89273904D01*
X160463660Y-89273904D01*
X160463660Y-89273903D01*
X160463663Y-89273903D01*
X160677829Y-89174035D01*
X160871401Y-89038495D01*
X161038495Y-88871401D01*
X161061165Y-88839024D01*
X161174029Y-88677840D01*
X161174036Y-88677828D01*
X161199922Y-88622315D01*
X161273903Y-88463663D01*
X161335063Y-88235408D01*
X161355659Y-88000000D01*
X161335063Y-87764592D01*
X161319473Y-87706410D01*
X161273905Y-87536344D01*
X161273904Y-87536339D01*
X161174036Y-87322172D01*
X161174028Y-87322160D01*
X161038499Y-87128604D01*
X161038493Y-87128597D01*
X160871402Y-86961506D01*
X160871395Y-86961500D01*
X160677839Y-86825971D01*
X160677827Y-86825963D01*
X160463660Y-86726095D01*
X160463655Y-86726094D01*
X160235416Y-86664938D01*
X160235410Y-86664937D01*
X160058970Y-86649500D01*
X160058966Y-86649500D01*
X159941034Y-86649500D01*
X159941030Y-86649500D01*
X159764589Y-86664937D01*
X159764583Y-86664938D01*
X159536344Y-86726094D01*
X159536339Y-86726095D01*
X159322172Y-86825963D01*
X159322160Y-86825971D01*
X159128604Y-86961500D01*
X159128597Y-86961506D01*
X158961506Y-87128597D01*
X158961500Y-87128604D01*
X158825970Y-87322159D01*
X158825963Y-87322171D01*
X158726095Y-87536339D01*
X158726094Y-87536344D01*
X158664938Y-87764583D01*
X158664937Y-87764589D01*
X158644341Y-88000000D01*
X150978215Y-88000000D01*
X151025934Y-87995300D01*
X151223954Y-87935232D01*
X151406450Y-87837685D01*
X151566410Y-87706410D01*
X151697685Y-87546450D01*
X151795232Y-87363954D01*
X151855300Y-87165934D01*
X151875583Y-86960000D01*
X151855300Y-86754066D01*
X151795232Y-86556046D01*
X151697685Y-86373550D01*
X151566410Y-86213590D01*
X151406450Y-86082315D01*
X151223954Y-85984768D01*
X151025934Y-85924700D01*
X150820000Y-85904417D01*
X150614065Y-85924700D01*
X150614064Y-85924700D01*
X150416043Y-85984769D01*
X150233548Y-86082316D01*
X150073590Y-86213590D01*
X149942316Y-86373548D01*
X149844769Y-86556043D01*
X149784700Y-86754064D01*
X149784700Y-86754065D01*
X149772976Y-86873105D01*
X149764417Y-86960000D01*
X149335583Y-86960000D01*
X149315300Y-86754066D01*
X149255232Y-86556046D01*
X149157685Y-86373550D01*
X149026410Y-86213590D01*
X148866450Y-86082315D01*
X148683954Y-85984768D01*
X148485934Y-85924700D01*
X148280000Y-85904417D01*
X148074065Y-85924700D01*
X148074064Y-85924700D01*
X147876043Y-85984769D01*
X147693548Y-86082316D01*
X147533590Y-86213590D01*
X147402316Y-86373548D01*
X147304769Y-86556043D01*
X147244700Y-86754064D01*
X147244700Y-86754065D01*
X147232976Y-86873105D01*
X147224417Y-86960000D01*
X146795583Y-86960000D01*
X146775300Y-86754066D01*
X146715232Y-86556046D01*
X146617685Y-86373550D01*
X146486410Y-86213590D01*
X146326450Y-86082315D01*
X146143954Y-85984768D01*
X145945934Y-85924700D01*
X145740000Y-85904417D01*
X145534065Y-85924700D01*
X145534064Y-85924700D01*
X145336043Y-85984769D01*
X145153548Y-86082316D01*
X144993590Y-86213590D01*
X144862316Y-86373548D01*
X144764769Y-86556043D01*
X144704700Y-86754064D01*
X144704700Y-86754065D01*
X144692976Y-86873105D01*
X144684417Y-86960000D01*
X144250500Y-86960000D01*
X144250500Y-86090252D01*
X144238867Y-86031769D01*
X144207462Y-85984769D01*
X144194552Y-85965447D01*
X144133569Y-85924700D01*
X144128231Y-85921133D01*
X144069748Y-85909500D01*
X142330252Y-85909500D01*
X142271769Y-85921133D01*
X142205447Y-85965447D01*
X142161133Y-86031769D01*
X142149500Y-86090252D01*
X142149500Y-87829748D01*
X135340764Y-87829748D01*
X135335063Y-87764592D01*
X135319473Y-87706410D01*
X135273905Y-87536344D01*
X135273904Y-87536339D01*
X135174036Y-87322172D01*
X135174028Y-87322160D01*
X135038499Y-87128604D01*
X135038493Y-87128597D01*
X134871402Y-86961506D01*
X134871395Y-86961500D01*
X134677839Y-86825971D01*
X134677827Y-86825963D01*
X134463660Y-86726095D01*
X134463655Y-86726094D01*
X134235416Y-86664938D01*
X134235410Y-86664937D01*
X134058970Y-86649500D01*
X134058966Y-86649500D01*
X133941034Y-86649500D01*
X133941030Y-86649500D01*
X133764589Y-86664937D01*
X133764583Y-86664938D01*
X133536344Y-86726094D01*
X133536339Y-86726095D01*
X133322172Y-86825963D01*
X133322160Y-86825971D01*
X133128604Y-86961500D01*
X133128597Y-86961506D01*
X132961506Y-87128597D01*
X132961500Y-87128604D01*
X132825970Y-87322159D01*
X132825963Y-87322171D01*
X132726095Y-87536339D01*
X132726094Y-87536344D01*
X132664938Y-87764583D01*
X132664937Y-87764589D01*
X132644341Y-88000000D01*
X125261465Y-88000000D01*
X125396130Y-87806044D01*
X125397140Y-87804695D01*
X125709598Y-87416958D01*
X125710717Y-87415669D01*
X125758864Y-87363956D01*
X126050024Y-87051228D01*
X126051228Y-87050024D01*
X126415675Y-86710711D01*
X126416958Y-86709598D01*
X126804695Y-86397140D01*
X126806044Y-86396130D01*
X127215088Y-86112127D01*
X127216516Y-86111209D01*
X127644765Y-85857117D01*
X127646268Y-85856297D01*
X128091551Y-85633404D01*
X128093088Y-85632702D01*
X128553138Y-85442144D01*
X128554738Y-85441547D01*
X129027196Y-85284298D01*
X129028835Y-85283816D01*
X129511323Y-85160669D01*
X129512977Y-85160309D01*
X130003029Y-85071893D01*
X130004706Y-85071652D01*
X130499817Y-85018422D01*
X130501499Y-85018301D01*
X130998842Y-85000538D01*
X130999996Y-85000538D01*
X130999998Y-85000539D01*
X130999999Y-85000538D01*
X131009659Y-85000534D01*
X131009841Y-85000498D01*
X131020091Y-85000498D01*
X131021291Y-85000001D01*
X131988980Y-85000001D01*
X131991734Y-85000546D01*
G37*
%TD.AperFunction*%
%TD*%
M02*
