%TF.GenerationSoftware,KiCad,Pcbnew,7.0.9*%
%TF.CreationDate,2024-02-08T13:35:57-08:00*%
%TF.ProjectId,micromouse,6d696372-6f6d-46f7-9573-652e6b696361,rev?*%
%TF.SameCoordinates,Original*%
%TF.FileFunction,Soldermask,Bot*%
%TF.FilePolarity,Negative*%
%FSLAX46Y46*%
G04 Gerber Fmt 4.6, Leading zero omitted, Abs format (unit mm)*
G04 Created by KiCad (PCBNEW 7.0.9) date 2024-02-08 13:35:57*
%MOMM*%
%LPD*%
G01*
G04 APERTURE LIST*
G04 Aperture macros list*
%AMRoundRect*
0 Rectangle with rounded corners*
0 $1 Rounding radius*
0 $2 $3 $4 $5 $6 $7 $8 $9 X,Y pos of 4 corners*
0 Add a 4 corners polygon primitive as box body*
4,1,4,$2,$3,$4,$5,$6,$7,$8,$9,$2,$3,0*
0 Add four circle primitives for the rounded corners*
1,1,$1+$1,$2,$3*
1,1,$1+$1,$4,$5*
1,1,$1+$1,$6,$7*
1,1,$1+$1,$8,$9*
0 Add four rect primitives between the rounded corners*
20,1,$1+$1,$2,$3,$4,$5,0*
20,1,$1+$1,$4,$5,$6,$7,0*
20,1,$1+$1,$6,$7,$8,$9,0*
20,1,$1+$1,$8,$9,$2,$3,0*%
G04 Aperture macros list end*
%ADD10R,1.700000X1.700000*%
%ADD11O,1.700000X1.700000*%
%ADD12C,2.200000*%
%ADD13R,1.900000X1.900000*%
%ADD14C,1.900000*%
%ADD15RoundRect,0.102000X-0.684000X-0.684000X0.684000X-0.684000X0.684000X0.684000X-0.684000X0.684000X0*%
%ADD16C,1.572000*%
%ADD17C,1.244600*%
G04 APERTURE END LIST*
D10*
%TO.C,J3*%
X147000000Y-139025000D03*
D11*
X144460000Y-139025000D03*
X141920000Y-139025000D03*
X139380000Y-139025000D03*
%TD*%
D12*
%TO.C,M2*%
X160000000Y-88000000D03*
X160000000Y-127500000D03*
%TD*%
D13*
%TO.C,SW1*%
X141250000Y-134750000D03*
D14*
X143750000Y-134750000D03*
X146250000Y-134750000D03*
%TD*%
D10*
%TO.C,J12*%
X152050000Y-73025000D03*
D11*
X149510000Y-73025000D03*
X146970000Y-73025000D03*
X144430000Y-73025000D03*
X141890000Y-73025000D03*
%TD*%
D10*
%TO.C,J6*%
X167290000Y-90975000D03*
D11*
X164750000Y-90975000D03*
X167290000Y-93515000D03*
X164750000Y-93515000D03*
X167290000Y-96055000D03*
X164750000Y-96055000D03*
%TD*%
D15*
%TO.C,J11*%
X135250000Y-138800000D03*
D16*
X133250000Y-138800000D03*
%TD*%
D12*
%TO.C,M1*%
X134000000Y-88000000D03*
X134000000Y-127500000D03*
%TD*%
D15*
%TO.C,J10*%
X135250000Y-133550000D03*
D16*
X133250000Y-133550000D03*
%TD*%
D10*
%TO.C,J7*%
X143200000Y-86960000D03*
D11*
X143200000Y-89500000D03*
X145740000Y-86960000D03*
X145740000Y-89500000D03*
X148280000Y-86960000D03*
X148280000Y-89500000D03*
X150820000Y-86960000D03*
X150820000Y-89500000D03*
%TD*%
D10*
%TO.C,J1*%
X134025000Y-60675000D03*
D11*
X134025000Y-63215000D03*
X134025000Y-65755000D03*
X134025000Y-68295000D03*
X134025000Y-70835000D03*
X134025000Y-73375000D03*
%TD*%
D10*
%TO.C,J2*%
X153325000Y-67025000D03*
D11*
X150785000Y-67025000D03*
X148245000Y-67025000D03*
X145705000Y-67025000D03*
X143165000Y-67025000D03*
X140625000Y-67025000D03*
%TD*%
D10*
%TO.C,J5*%
X136200000Y-79975000D03*
D11*
X138740000Y-79975000D03*
X141280000Y-79975000D03*
X143820000Y-79975000D03*
%TD*%
D17*
%TO.C,J13*%
X160500000Y-139250000D03*
X160500000Y-137750000D03*
X160500000Y-136250001D03*
X160500000Y-134749999D03*
X160500000Y-133249999D03*
X160500000Y-131750000D03*
%TD*%
%TO.C,J9*%
X155000000Y-127500000D03*
X155000000Y-129000000D03*
X155000000Y-130499999D03*
X155000000Y-132000001D03*
X155000000Y-133500001D03*
X155000000Y-135000000D03*
%TD*%
D10*
%TO.C,J4*%
X159975000Y-73325000D03*
D11*
X159975000Y-70785000D03*
X159975000Y-68245000D03*
X159975000Y-65705000D03*
X159975000Y-63165000D03*
X159975000Y-60625000D03*
%TD*%
D10*
%TO.C,J8*%
X127000000Y-96500000D03*
D11*
X127000000Y-93960000D03*
%TD*%
D10*
%TO.C,J15*%
X167275000Y-62975001D03*
D11*
X164735000Y-62975001D03*
X167275000Y-65515001D03*
X164735000Y-65515001D03*
X167275000Y-68055001D03*
X164735000Y-68055001D03*
%TD*%
D10*
%TO.C,J14*%
X143200000Y-58975001D03*
D11*
X143200000Y-61515001D03*
X145740000Y-58975001D03*
X145740000Y-61515001D03*
X148280000Y-58975001D03*
X148280000Y-61515001D03*
X150820000Y-58975001D03*
X150820000Y-61515001D03*
%TD*%
D10*
%TO.C,J16*%
X127000000Y-68500000D03*
D11*
X127000000Y-65960000D03*
%TD*%
M02*
