%TF.GenerationSoftware,KiCad,Pcbnew,7.0.9*%
%TF.CreationDate,2024-02-08T13:35:57-08:00*%
%TF.ProjectId,micromouse,6d696372-6f6d-46f7-9573-652e6b696361,rev?*%
%TF.SameCoordinates,Original*%
%TF.FileFunction,Profile,NP*%
%FSLAX46Y46*%
G04 Gerber Fmt 4.6, Leading zero omitted, Abs format (unit mm)*
G04 Created by KiCad (PCBNEW 7.0.9) date 2024-02-08 13:35:57*
%MOMM*%
%LPD*%
G01*
G04 APERTURE LIST*
%TA.AperFunction,Profile*%
%ADD10C,0.100000*%
%TD*%
G04 APERTURE END LIST*
D10*
X136000000Y-85000000D02*
X137000000Y-85000000D01*
X138000000Y-84000000D02*
X138000000Y-85000000D01*
X137000000Y-84000000D02*
X137000000Y-85000000D01*
X169999999Y-64000001D02*
G75*
G03*
X163000001Y-57000001I-6999999J1D01*
G01*
X130999999Y-56999999D02*
X163000001Y-57000001D01*
X162000000Y-84000000D02*
X161000000Y-84000000D01*
X160000000Y-84000000D02*
X160000000Y-85000000D01*
X124000000Y-71000001D02*
X123999999Y-63999999D01*
X151000000Y-85000000D02*
X152000000Y-85000000D01*
X157000000Y-84000000D02*
X157000000Y-85000000D01*
X145000000Y-84000000D02*
X144000000Y-84000000D01*
X151000000Y-84000000D02*
X151000000Y-85000000D01*
X140000000Y-85000000D02*
X141000000Y-85000000D01*
X148000000Y-85000000D02*
X148000000Y-84000000D01*
X146000000Y-84000000D02*
X146000000Y-85000000D01*
X133000000Y-84000000D02*
X132000000Y-84000000D01*
X134000000Y-84000000D02*
X134000000Y-85000000D01*
X132000000Y-85000000D02*
X133000000Y-85000000D01*
X139000000Y-84000000D02*
X139000000Y-85000000D01*
X141000000Y-84000000D02*
X141000000Y-85000000D01*
X158000000Y-84000000D02*
X157000000Y-84000000D01*
X143000000Y-84000000D02*
X143000000Y-85000000D01*
X130999998Y-84999998D02*
G75*
G03*
X123999998Y-91999998I2J-7000002D01*
G01*
X163000000Y-85000000D02*
X163000000Y-71000001D01*
X150000000Y-84000000D02*
X149000000Y-84000000D01*
X142000000Y-85000000D02*
X143000000Y-85000000D01*
X136000000Y-85000000D02*
X136000000Y-84000000D01*
X154000000Y-84000000D02*
X153000000Y-84000000D01*
X152000000Y-84000000D02*
X152000000Y-85000000D01*
X124000000Y-99000000D02*
X131000000Y-99000000D01*
X134000000Y-85000000D02*
X135000000Y-85000000D01*
X150000000Y-84000000D02*
X150000000Y-85000000D01*
X157000000Y-85000000D02*
X158000000Y-85000000D01*
X149000000Y-85000000D02*
X150000000Y-85000000D01*
X155000000Y-85000000D02*
X156000000Y-85000000D01*
X138000000Y-85000000D02*
X139000000Y-85000000D01*
X124000000Y-71000001D02*
X131000000Y-71000001D01*
X144000000Y-85000000D02*
X145000000Y-85000000D01*
X145000000Y-84000000D02*
X145000000Y-85000000D01*
X158000000Y-84000000D02*
X158000000Y-85000000D01*
X154000000Y-84000000D02*
X154000000Y-85000000D01*
X132000000Y-84000000D02*
X132000000Y-85000000D01*
X131000000Y-141000000D02*
X163000000Y-141000000D01*
X159000000Y-84000000D02*
X159000000Y-85000000D01*
X146000000Y-85000000D02*
X148000000Y-85000000D01*
X153000000Y-85000000D02*
X154000000Y-85000000D01*
X160000000Y-84000000D02*
X159000000Y-84000000D01*
X135000000Y-85000000D02*
X135000000Y-84000000D01*
X156000000Y-84000000D02*
X156000000Y-85000000D01*
X144000000Y-84000000D02*
X144000000Y-85000000D01*
X140000000Y-84000000D02*
X140000000Y-85000000D01*
X133000000Y-85000000D02*
X133000000Y-84000000D01*
X148000000Y-84000000D02*
X146000000Y-84000000D01*
X139000000Y-84000000D02*
X138000000Y-84000000D01*
X162000000Y-84000000D02*
X162000000Y-85000000D01*
X131000000Y-141000000D02*
X131000000Y-99000000D01*
X161000000Y-84000000D02*
X161000000Y-85000000D01*
X170000000Y-99000000D02*
X170000000Y-92000000D01*
X153000000Y-84000000D02*
X153000000Y-85000000D01*
X143000000Y-84000000D02*
X142000000Y-84000000D01*
X152000000Y-84000000D02*
X151000000Y-84000000D01*
X135000000Y-84000000D02*
X134000000Y-84000000D01*
X170000000Y-71000001D02*
X170000001Y-64000001D01*
X141000000Y-84000000D02*
X140000000Y-84000000D01*
X131000000Y-71000001D02*
X130999998Y-84999998D01*
X170000000Y-99000000D02*
X163000000Y-99000000D01*
X163000000Y-99000000D02*
X163000000Y-141000000D01*
X161000000Y-85000000D02*
X162000000Y-85000000D01*
X155000000Y-85000000D02*
X155000000Y-84000000D01*
X124000000Y-99000000D02*
X123999998Y-91999998D01*
X170000000Y-92000000D02*
G75*
G03*
X163000000Y-85000000I-7000000J0D01*
G01*
X170000000Y-71000001D02*
X163000000Y-71000001D01*
X159000000Y-85000000D02*
X160000000Y-85000000D01*
X156000000Y-84000000D02*
X155000000Y-84000000D01*
X149000000Y-84000000D02*
X149000000Y-85000000D01*
X130999999Y-56999999D02*
G75*
G03*
X123999999Y-63999999I1J-7000001D01*
G01*
X137000000Y-84000000D02*
X136000000Y-84000000D01*
X142000000Y-84000000D02*
X142000000Y-85000000D01*
M02*
