%TF.GenerationSoftware,KiCad,Pcbnew,7.0.9*%
%TF.CreationDate,2024-02-01T16:25:34-08:00*%
%TF.ProjectId,micromouse,6d696372-6f6d-46f7-9573-652e6b696361,rev?*%
%TF.SameCoordinates,Original*%
%TF.FileFunction,Copper,L2,Bot*%
%TF.FilePolarity,Positive*%
%FSLAX46Y46*%
G04 Gerber Fmt 4.6, Leading zero omitted, Abs format (unit mm)*
G04 Created by KiCad (PCBNEW 7.0.9) date 2024-02-01 16:25:34*
%MOMM*%
%LPD*%
G01*
G04 APERTURE LIST*
%TA.AperFunction,ComponentPad*%
%ADD10R,1.700000X1.700000*%
%TD*%
%TA.AperFunction,ComponentPad*%
%ADD11O,1.700000X1.700000*%
%TD*%
%TA.AperFunction,ComponentPad*%
%ADD12R,1.900000X1.900000*%
%TD*%
%TA.AperFunction,ComponentPad*%
%ADD13C,1.900000*%
%TD*%
%TA.AperFunction,ComponentPad*%
%ADD14R,1.368000X1.368000*%
%TD*%
%TA.AperFunction,ComponentPad*%
%ADD15C,1.368000*%
%TD*%
%TA.AperFunction,ComponentPad*%
%ADD16C,1.244600*%
%TD*%
%TA.AperFunction,SMDPad,CuDef*%
%ADD17C,1.270000*%
%TD*%
%TA.AperFunction,ViaPad*%
%ADD18C,0.800000*%
%TD*%
%TA.AperFunction,Conductor*%
%ADD19C,1.270000*%
%TD*%
%TA.AperFunction,Conductor*%
%ADD20C,0.250000*%
%TD*%
%TA.AperFunction,Conductor*%
%ADD21C,0.635000*%
%TD*%
%TA.AperFunction,Conductor*%
%ADD22C,0.254000*%
%TD*%
G04 APERTURE END LIST*
%TA.AperFunction,EtchedComponent*%
%TO.C,NT2*%
G36*
X136656120Y-130241906D02*
G01*
X135241906Y-131656120D01*
X134343880Y-130758094D01*
X135758094Y-129343880D01*
X136656120Y-130241906D01*
G37*
%TD.AperFunction*%
%TD*%
D10*
%TO.P,J3,1*%
%TO.N,SWCLK*%
X147000000Y-139025000D03*
D11*
%TO.P,J3,2*%
%TO.N,GND*%
X144460000Y-139025000D03*
%TO.P,J3,3*%
%TO.N,SWDIO*%
X141920000Y-139025000D03*
%TO.P,J3,4*%
%TO.N,NRST*%
X139380000Y-139025000D03*
%TD*%
D12*
%TO.P,SW1,1*%
%TO.N,Net-(J11-Pad1)*%
X141250000Y-134750000D03*
D13*
%TO.P,SW1,2*%
%TO.N,+BATT*%
X143750000Y-134750000D03*
%TO.P,SW1,3*%
%TO.N,unconnected-(SW1-Pad3)*%
X146250000Y-134750000D03*
%TD*%
D10*
%TO.P,J12,1*%
%TO.N,/Breakout Board/+3.3V*%
X152050000Y-73025000D03*
D11*
%TO.P,J12,2*%
%TO.N,GND*%
X149510000Y-73025000D03*
%TO.P,J12,3*%
%TO.N,/Breakout Board/GPIO1*%
X146970000Y-73025000D03*
%TO.P,J12,4*%
%TO.N,/Breakout Board/GPIO2*%
X144430000Y-73025000D03*
%TO.P,J12,5*%
%TO.N,/Breakout Board/GPIO3*%
X141890000Y-73025000D03*
%TD*%
D10*
%TO.P,J6,1*%
%TO.N,USART_RX*%
X167290000Y-90975000D03*
D11*
%TO.P,J6,2*%
%TO.N,USART_TX*%
X164750000Y-90975000D03*
%TO.P,J6,3*%
%TO.N,DEBUG3*%
X167290000Y-93515000D03*
%TO.P,J6,4*%
%TO.N,DEBUG4*%
X164750000Y-93515000D03*
%TO.P,J6,5*%
%TO.N,DEBUG1*%
X167290000Y-96055000D03*
%TO.P,J6,6*%
%TO.N,DEBUG2*%
X164750000Y-96055000D03*
%TD*%
D14*
%TO.P,J11,1,1*%
%TO.N,Net-(J11-Pad1)*%
X135250000Y-138800000D03*
D15*
%TO.P,J11,2,2*%
%TO.N,Net-(J10-Pad1)*%
X133250000Y-138800000D03*
%TD*%
D14*
%TO.P,J10,1,1*%
%TO.N,Net-(J10-Pad1)*%
X135250000Y-133550000D03*
D15*
%TO.P,J10,2,2*%
%TO.N,GND*%
X133250000Y-133550000D03*
%TD*%
D10*
%TO.P,J7,1*%
%TO.N,/SCL*%
X143200000Y-86960000D03*
D11*
%TO.P,J7,2*%
%TO.N,/SDA*%
X143200000Y-89500000D03*
%TO.P,J7,3*%
%TO.N,/SHDN2*%
X145740000Y-86960000D03*
%TO.P,J7,4*%
%TO.N,/SHDN1*%
X145740000Y-89500000D03*
%TO.P,J7,5*%
%TO.N,GPIO3*%
X148280000Y-86960000D03*
%TO.P,J7,6*%
%TO.N,/SHDN3*%
X148280000Y-89500000D03*
%TO.P,J7,7*%
%TO.N,GPIO1*%
X150820000Y-86960000D03*
%TO.P,J7,8*%
%TO.N,GPIO2*%
X150820000Y-89500000D03*
%TD*%
D10*
%TO.P,J1,1*%
%TO.N,/Breakout Board/+3.3V*%
X134025000Y-60675000D03*
D11*
%TO.P,J1,2*%
%TO.N,GND*%
X134025000Y-63215000D03*
%TO.P,J1,3*%
%TO.N,/Breakout Board/SCL*%
X134025000Y-65755000D03*
%TO.P,J1,4*%
%TO.N,/Breakout Board/SDA*%
X134025000Y-68295000D03*
%TO.P,J1,5*%
%TO.N,unconnected-(J1-Pad5)*%
X134025000Y-70835000D03*
%TO.P,J1,6*%
%TO.N,/Breakout Board/SHDN1*%
X134025000Y-73375000D03*
%TD*%
D10*
%TO.P,J2,1*%
%TO.N,/Breakout Board/+3.3V*%
X153325000Y-67025000D03*
D11*
%TO.P,J2,2*%
%TO.N,GND*%
X150785000Y-67025000D03*
%TO.P,J2,3*%
%TO.N,/Breakout Board/SCL*%
X148245000Y-67025000D03*
%TO.P,J2,4*%
%TO.N,/Breakout Board/SDA*%
X145705000Y-67025000D03*
%TO.P,J2,5*%
%TO.N,unconnected-(J2-Pad5)*%
X143165000Y-67025000D03*
%TO.P,J2,6*%
%TO.N,/Breakout Board/SHDN2*%
X140625000Y-67025000D03*
%TD*%
D10*
%TO.P,J5,1*%
%TO.N,/Breakout Board/+3.3V*%
X136200000Y-79975000D03*
D11*
%TO.P,J5,2*%
%TO.N,GND*%
X138740000Y-79975000D03*
%TO.P,J5,3*%
%TO.N,/Breakout Board/USART_RX*%
X141280000Y-79975000D03*
%TO.P,J5,4*%
%TO.N,/Breakout Board/USART_TX*%
X143820000Y-79975000D03*
%TD*%
D16*
%TO.P,J13,1,1*%
%TO.N,MR2*%
X160500000Y-139250000D03*
%TO.P,J13,2,2*%
%TO.N,+3.3V*%
X160500000Y-137750000D03*
%TO.P,J13,3,3*%
%TO.N,ER2*%
X160500000Y-136250001D03*
%TO.P,J13,4,4*%
%TO.N,ER1*%
X160500000Y-134749999D03*
%TO.P,J13,5,5*%
%TO.N,GND*%
X160500000Y-133249999D03*
%TO.P,J13,6,6*%
%TO.N,MR1*%
X160500000Y-131750000D03*
%TD*%
%TO.P,J9,1,1*%
%TO.N,ML2*%
X155000000Y-127500000D03*
%TO.P,J9,2,2*%
%TO.N,+3.3V*%
X155000000Y-129000000D03*
%TO.P,J9,3,3*%
%TO.N,EL2*%
X155000000Y-130499999D03*
%TO.P,J9,4,4*%
%TO.N,EL1*%
X155000000Y-132000001D03*
%TO.P,J9,5,5*%
%TO.N,GND*%
X155000000Y-133500001D03*
%TO.P,J9,6,6*%
%TO.N,ML1*%
X155000000Y-135000000D03*
%TD*%
D10*
%TO.P,J4,1*%
%TO.N,/Breakout Board/+3.3V*%
X159975000Y-73325000D03*
D11*
%TO.P,J4,2*%
%TO.N,GND*%
X159975000Y-70785000D03*
%TO.P,J4,3*%
%TO.N,/Breakout Board/SCL*%
X159975000Y-68245000D03*
%TO.P,J4,4*%
%TO.N,/Breakout Board/SDA*%
X159975000Y-65705000D03*
%TO.P,J4,5*%
%TO.N,unconnected-(J4-Pad5)*%
X159975000Y-63165000D03*
%TO.P,J4,6*%
%TO.N,/Breakout Board/SHDN3*%
X159975000Y-60625000D03*
%TD*%
D10*
%TO.P,J8,1*%
%TO.N,+3.3V*%
X127000000Y-96500000D03*
D11*
%TO.P,J8,2*%
%TO.N,GND*%
X127000000Y-93960000D03*
%TD*%
D10*
%TO.P,J15,1*%
%TO.N,/Breakout Board/USART_RX*%
X167275000Y-62975001D03*
D11*
%TO.P,J15,2*%
%TO.N,/Breakout Board/USART_TX*%
X164735000Y-62975001D03*
%TO.P,J15,3*%
%TO.N,/Breakout Board/DEBUG3*%
X167275000Y-65515001D03*
%TO.P,J15,4*%
%TO.N,/Breakout Board/DEBUG4*%
X164735000Y-65515001D03*
%TO.P,J15,5*%
%TO.N,/Breakout Board/DEBUG1*%
X167275000Y-68055001D03*
%TO.P,J15,6*%
%TO.N,/Breakout Board/DEBUG2*%
X164735000Y-68055001D03*
%TD*%
D17*
%TO.P,NT2,1,1*%
%TO.N,GND*%
X134792893Y-131207107D03*
%TO.P,NT2,2,2*%
%TO.N,GND1*%
X136207107Y-129792893D03*
%TD*%
D10*
%TO.P,J14,1*%
%TO.N,/Breakout Board/SCL*%
X143200000Y-58975001D03*
D11*
%TO.P,J14,2*%
%TO.N,/Breakout Board/SDA*%
X143200000Y-61515001D03*
%TO.P,J14,3*%
%TO.N,/Breakout Board/SHDN2*%
X145740000Y-58975001D03*
%TO.P,J14,4*%
%TO.N,/Breakout Board/SHDN1*%
X145740000Y-61515001D03*
%TO.P,J14,5*%
%TO.N,/Breakout Board/GPIO3*%
X148280000Y-58975001D03*
%TO.P,J14,6*%
%TO.N,/Breakout Board/SHDN3*%
X148280000Y-61515001D03*
%TO.P,J14,7*%
%TO.N,/Breakout Board/GPIO1*%
X150820000Y-58975001D03*
%TO.P,J14,8*%
%TO.N,/Breakout Board/GPIO2*%
X150820000Y-61515001D03*
%TD*%
D10*
%TO.P,J16,1*%
%TO.N,/Breakout Board/+3.3V*%
X127000000Y-68500000D03*
D11*
%TO.P,J16,2*%
%TO.N,GND*%
X127000000Y-65960000D03*
%TD*%
D18*
%TO.N,GND*%
X145000000Y-130500000D03*
X144000000Y-130500000D03*
X145000000Y-131500000D03*
X146000000Y-102500000D03*
X135750000Y-105750000D03*
X144000000Y-100500000D03*
X146000000Y-100500000D03*
X146000000Y-98500000D03*
X148000000Y-102500000D03*
X148000000Y-100500000D03*
X145000000Y-126500000D03*
X144000000Y-131500000D03*
X145000000Y-125500000D03*
X149500000Y-108000000D03*
X148000000Y-96500000D03*
X137000000Y-111500000D03*
X144000000Y-102500000D03*
X150000000Y-102500000D03*
X137000000Y-112500000D03*
X150000000Y-100500000D03*
X148000000Y-98500000D03*
X146000000Y-96500000D03*
X144000000Y-125500000D03*
X144000000Y-126500000D03*
%TO.N,+3.3V*%
X154500000Y-109525000D03*
X151250000Y-132861921D03*
X153250000Y-105250000D03*
X154750000Y-123750000D03*
X149750000Y-129000000D03*
X144000000Y-96500000D03*
X153881250Y-94131250D03*
%TO.N,GND1*%
X146000000Y-118500000D03*
X148000000Y-116500000D03*
X148000000Y-115500000D03*
X147000000Y-115500000D03*
X147000000Y-114500000D03*
X147000000Y-119500000D03*
X145000000Y-118500000D03*
X146000000Y-114500000D03*
X146000000Y-119500000D03*
X145000000Y-117500000D03*
%TO.N,EL2*%
X155000622Y-100599502D03*
%TO.N,EL1*%
X156000000Y-100599503D03*
%TO.N,ER2*%
X156000000Y-99600000D03*
%TO.N,ER1*%
X155000000Y-99600000D03*
%TO.N,SWCLK*%
X150000000Y-96500000D03*
%TO.N,SWDIO*%
X150000000Y-98500000D03*
%TO.N,NRST*%
X144000000Y-98500000D03*
X141500000Y-93250000D03*
%TO.N,Net-(U1-BOOT0)*%
X145750000Y-91750000D03*
X142976500Y-91750000D03*
%TO.N,HL1*%
X138750000Y-105250000D03*
X139750000Y-113555000D03*
%TO.N,HR1*%
X139750000Y-105250000D03*
X149250000Y-121000000D03*
%TO.N,HL2*%
X139750000Y-122445000D03*
X137750000Y-105250000D03*
%TO.N,HR2*%
X141750000Y-105250000D03*
X149250000Y-113500000D03*
%TD*%
D19*
%TO.N,GND*%
X134792893Y-131207107D02*
X133250000Y-132750000D01*
X133250000Y-132750000D02*
X133250000Y-133550000D01*
D20*
%TO.N,+3.3V*%
X130975000Y-92525000D02*
X142025000Y-92525000D01*
D21*
X151250000Y-130500000D02*
X151250000Y-132861921D01*
X151250000Y-133750000D02*
X155250000Y-137750000D01*
X149750000Y-129000000D02*
X155000000Y-129000000D01*
X155250000Y-137750000D02*
X160500000Y-137750000D01*
D22*
X151250000Y-130500000D02*
X151047187Y-130297187D01*
D21*
X154750000Y-109775000D02*
X154500000Y-109525000D01*
D20*
X142025000Y-92525000D02*
X143000000Y-93500000D01*
D21*
X149750000Y-128750000D02*
X154750000Y-123750000D01*
D20*
X143487348Y-95987348D02*
X144000000Y-96500000D01*
D21*
X149750000Y-129000000D02*
X149750000Y-128750000D01*
D20*
X127000000Y-96500000D02*
X130975000Y-92525000D01*
X153250000Y-94762500D02*
X153881250Y-94131250D01*
D21*
X149750000Y-129000000D02*
X151250000Y-130500000D01*
D20*
X143000000Y-93500000D02*
X143000000Y-95500000D01*
D21*
X154750000Y-123750000D02*
X154750000Y-111000000D01*
X153250000Y-105250000D02*
X154750000Y-106750000D01*
D20*
X153250000Y-105250000D02*
X153250000Y-94762500D01*
X143000000Y-95500000D02*
X143487348Y-95987348D01*
D21*
X151250000Y-132861921D02*
X151250000Y-133750000D01*
X154750000Y-111000000D02*
X154750000Y-109775000D01*
X154750000Y-106750000D02*
X154750000Y-111000000D01*
D19*
%TO.N,GND1*%
X145000000Y-118500000D02*
X146000000Y-118500000D01*
X146000000Y-119500000D02*
X145000000Y-118500000D01*
X146000000Y-120000000D02*
X146000000Y-119500000D01*
X136207107Y-129792893D02*
X146000000Y-120000000D01*
D20*
%TO.N,EL2*%
X156000000Y-129499999D02*
X155000000Y-130499999D01*
X155000622Y-100775927D02*
X156000000Y-101775305D01*
X156000000Y-101775305D02*
X156000000Y-129499999D01*
X155000622Y-100599502D02*
X155000622Y-100775927D01*
%TO.N,EL1*%
X156450000Y-101049503D02*
X156450000Y-130550001D01*
X156450000Y-130550001D02*
X155000000Y-132000001D01*
X156000000Y-100599503D02*
X156450000Y-101049503D01*
%TO.N,ER2*%
X156000000Y-99600000D02*
X156409414Y-99600000D01*
X156409414Y-99600000D02*
X156900000Y-100090586D01*
X156900000Y-132650001D02*
X160500000Y-136250001D01*
X156900000Y-100090586D02*
X156900000Y-132650001D01*
%TO.N,ER1*%
X157350000Y-131599999D02*
X160500000Y-134749999D01*
X157350000Y-99904190D02*
X157350000Y-131599999D01*
X155000000Y-99400000D02*
X155525000Y-98875000D01*
X155525000Y-98875000D02*
X156320810Y-98875000D01*
X156320810Y-98875000D02*
X157350000Y-99904190D01*
X155000000Y-99600000D02*
X155000000Y-99400000D01*
%TO.N,/Breakout Board/USART_RX*%
X166100000Y-64150001D02*
X164438299Y-64150001D01*
X161750000Y-74750000D02*
X155350000Y-81150000D01*
X164438299Y-64150001D02*
X161750000Y-66838300D01*
X167275000Y-62975001D02*
X166100000Y-64150001D01*
X161750000Y-66838300D02*
X161750000Y-74750000D01*
X155350000Y-81150000D02*
X142455000Y-81150000D01*
X142455000Y-81150000D02*
X141280000Y-79975000D01*
%TO.N,/Breakout Board/USART_TX*%
X161150000Y-66560001D02*
X161150000Y-74500000D01*
X155675000Y-79975000D02*
X143820000Y-79975000D01*
X161150000Y-74500000D02*
X155675000Y-79975000D01*
X164735000Y-62975001D02*
X161150000Y-66560001D01*
%TO.N,SWCLK*%
X151750000Y-124250000D02*
X148425000Y-127575000D01*
X151750000Y-98250000D02*
X151750000Y-124250000D01*
X150000000Y-96500000D02*
X151750000Y-98250000D01*
X148425000Y-127575000D02*
X148425000Y-137600000D01*
X148425000Y-137600000D02*
X147000000Y-139025000D01*
%TO.N,SWDIO*%
X145975000Y-137500000D02*
X143445000Y-137500000D01*
X143445000Y-137500000D02*
X141920000Y-139025000D01*
X150725000Y-122775000D02*
X147975000Y-125525000D01*
X147975000Y-135500000D02*
X145975000Y-137500000D01*
X147975000Y-125525000D02*
X147975000Y-135500000D01*
X150000000Y-98500000D02*
X150725000Y-99225000D01*
X150725000Y-99225000D02*
X150725000Y-122775000D01*
%TO.N,NRST*%
X144000000Y-98500000D02*
X143275000Y-99225000D01*
X147525000Y-135278123D02*
X145753123Y-137050000D01*
X149975000Y-112838604D02*
X149975000Y-121300305D01*
X141355000Y-137050000D02*
X139380000Y-139025000D01*
X141500000Y-93250000D02*
X141500000Y-96000000D01*
X145753123Y-137050000D02*
X141355000Y-137050000D01*
X143275000Y-99225000D02*
X143275000Y-106138604D01*
X147525000Y-123750305D02*
X147525000Y-135278123D01*
X149975000Y-121300305D02*
X147525000Y-123750305D01*
X141500000Y-96000000D02*
X144000000Y-98500000D01*
X143275000Y-106138604D02*
X149975000Y-112838604D01*
%TO.N,/Breakout Board/GPIO1*%
X149500000Y-70495000D02*
X149500000Y-64496702D01*
X151995000Y-62001702D02*
X151995000Y-60150001D01*
X149500000Y-64496702D02*
X151995000Y-62001702D01*
X146970000Y-73025000D02*
X149500000Y-70495000D01*
X151995000Y-60150001D02*
X150820000Y-58975001D01*
%TO.N,/Breakout Board/GPIO2*%
X144430000Y-73025000D02*
X147070000Y-70385000D01*
X147070000Y-70385000D02*
X147070000Y-65265001D01*
X147070000Y-65265001D02*
X150820000Y-61515001D01*
%TO.N,/Breakout Board/GPIO3*%
X141890000Y-66638299D02*
X145528299Y-63000000D01*
X147000000Y-60255001D02*
X148280000Y-58975001D01*
X145528299Y-63000000D02*
X145916702Y-63000000D01*
X141890000Y-73025000D02*
X141890000Y-66638299D01*
X145916702Y-63000000D02*
X147000000Y-61916702D01*
X147000000Y-61916702D02*
X147000000Y-60255001D01*
%TO.N,Net-(U1-BOOT0)*%
X145750000Y-91750000D02*
X142976500Y-91750000D01*
%TO.N,HL1*%
X138750000Y-105501988D02*
X138750000Y-105750000D01*
X138750000Y-105750000D02*
X138750000Y-112555000D01*
X138750994Y-105500994D02*
X138750000Y-105501988D01*
X138750000Y-105750000D02*
X138750000Y-105250000D01*
X138750000Y-112555000D02*
X139750000Y-113555000D01*
%TO.N,HR1*%
X149250000Y-121000000D02*
X149250000Y-114750000D01*
X149250000Y-114750000D02*
X139750000Y-105250000D01*
%TO.N,HL2*%
X139750000Y-122445000D02*
X137750000Y-120445000D01*
X137750000Y-120445000D02*
X137750000Y-105250000D01*
%TO.N,HR2*%
X149250000Y-113500000D02*
X149250000Y-112750000D01*
X149250000Y-112750000D02*
X141750000Y-105250000D01*
%TD*%
%TA.AperFunction,Conductor*%
%TO.N,GND1*%
G36*
X144014352Y-110764352D02*
G01*
X144750000Y-111500000D01*
X144750001Y-111500000D01*
X145519378Y-111500000D01*
X145554026Y-111514352D01*
X148910148Y-114870474D01*
X148924500Y-114905122D01*
X148924500Y-120468686D01*
X148910148Y-120503334D01*
X148905330Y-120507560D01*
X148821716Y-120571719D01*
X148725464Y-120697158D01*
X148725461Y-120697163D01*
X148664955Y-120843238D01*
X148644318Y-121000000D01*
X148664955Y-121156761D01*
X148725461Y-121302836D01*
X148725464Y-121302841D01*
X148821718Y-121428282D01*
X148947159Y-121524536D01*
X148947161Y-121524536D01*
X148947163Y-121524538D01*
X149093238Y-121585044D01*
X149115517Y-121587977D01*
X149147996Y-121606728D01*
X149157703Y-121642953D01*
X149143770Y-121671206D01*
X147305648Y-123509330D01*
X147304072Y-123510774D01*
X147271806Y-123537849D01*
X147250743Y-123574329D01*
X147249595Y-123576131D01*
X147225445Y-123610622D01*
X147225444Y-123610622D01*
X147223351Y-123618437D01*
X147218458Y-123630250D01*
X147214414Y-123637255D01*
X147214410Y-123637265D01*
X147207102Y-123678715D01*
X147206639Y-123680802D01*
X147195736Y-123721496D01*
X147195736Y-123721497D01*
X147199407Y-123763457D01*
X147199500Y-123765593D01*
X147199500Y-124451000D01*
X147185148Y-124485648D01*
X147150500Y-124500000D01*
X139270296Y-124500000D01*
X139235648Y-124485648D01*
X137014352Y-122264352D01*
X137000000Y-122229704D01*
X137000000Y-113770296D01*
X137014352Y-113735648D01*
X137340852Y-113409148D01*
X137375500Y-113394796D01*
X137410148Y-113409148D01*
X137424500Y-113443796D01*
X137424500Y-120429710D01*
X137424407Y-120431846D01*
X137420736Y-120473807D01*
X137431637Y-120514493D01*
X137432100Y-120516580D01*
X137439411Y-120558044D01*
X137439412Y-120558046D01*
X137443455Y-120565048D01*
X137448351Y-120576867D01*
X137450445Y-120584682D01*
X137450444Y-120584682D01*
X137474601Y-120619182D01*
X137475750Y-120620985D01*
X137496804Y-120657453D01*
X137496806Y-120657455D01*
X137529072Y-120684530D01*
X137530649Y-120685975D01*
X139144141Y-122299467D01*
X139158493Y-122334115D01*
X139158074Y-122340511D01*
X139144318Y-122444999D01*
X139164955Y-122601761D01*
X139225461Y-122747836D01*
X139225464Y-122747841D01*
X139236216Y-122761854D01*
X139321718Y-122873282D01*
X139447159Y-122969536D01*
X139447161Y-122969536D01*
X139447163Y-122969538D01*
X139490419Y-122987455D01*
X139593238Y-123030044D01*
X139750000Y-123050682D01*
X139906762Y-123030044D01*
X140052841Y-122969536D01*
X140178282Y-122873282D01*
X140274536Y-122747841D01*
X140335044Y-122601762D01*
X140355682Y-122445000D01*
X140335044Y-122288238D01*
X140325150Y-122264352D01*
X140274538Y-122142163D01*
X140274535Y-122142158D01*
X140178282Y-122016718D01*
X140178281Y-122016717D01*
X140052841Y-121920464D01*
X140052836Y-121920461D01*
X139906761Y-121859955D01*
X139770637Y-121842034D01*
X139750000Y-121839318D01*
X139749999Y-121839318D01*
X139645511Y-121853074D01*
X139609286Y-121843367D01*
X139604467Y-121839141D01*
X138089852Y-120324526D01*
X138075500Y-120289878D01*
X138075500Y-112694796D01*
X138089852Y-112660148D01*
X138340852Y-112409148D01*
X138375500Y-112394796D01*
X138410148Y-112409148D01*
X138424500Y-112443796D01*
X138424500Y-112539710D01*
X138424407Y-112541846D01*
X138420736Y-112583807D01*
X138431637Y-112624493D01*
X138432100Y-112626580D01*
X138439411Y-112668044D01*
X138439412Y-112668046D01*
X138443455Y-112675048D01*
X138448351Y-112686867D01*
X138450445Y-112694682D01*
X138450444Y-112694682D01*
X138474601Y-112729182D01*
X138475750Y-112730985D01*
X138496804Y-112767453D01*
X138496806Y-112767455D01*
X138529072Y-112794530D01*
X138530649Y-112795975D01*
X139144141Y-113409467D01*
X139158493Y-113444115D01*
X139158074Y-113450511D01*
X139144318Y-113554999D01*
X139164955Y-113711761D01*
X139225461Y-113857836D01*
X139225464Y-113857841D01*
X139296461Y-113950367D01*
X139321718Y-113983282D01*
X139447159Y-114079536D01*
X139447161Y-114079536D01*
X139447163Y-114079538D01*
X139522057Y-114110560D01*
X139593238Y-114140044D01*
X139750000Y-114160682D01*
X139906762Y-114140044D01*
X140052841Y-114079536D01*
X140178282Y-113983282D01*
X140274536Y-113857841D01*
X140335044Y-113711762D01*
X140355682Y-113555000D01*
X140335044Y-113398238D01*
X140274536Y-113252159D01*
X140178282Y-113126718D01*
X140150867Y-113105682D01*
X140052841Y-113030464D01*
X140052836Y-113030461D01*
X139906761Y-112969955D01*
X139770637Y-112952034D01*
X139750000Y-112949318D01*
X139749999Y-112949318D01*
X139645511Y-112963074D01*
X139609286Y-112953367D01*
X139604467Y-112949141D01*
X139089852Y-112434526D01*
X139075500Y-112399878D01*
X139075500Y-111694796D01*
X139089852Y-111660148D01*
X139985648Y-110764352D01*
X140020296Y-110750000D01*
X143979704Y-110750000D01*
X144014352Y-110764352D01*
G37*
%TD.AperFunction*%
%TD*%
%TA.AperFunction,Conductor*%
%TO.N,GND*%
G36*
X154368738Y-129532352D02*
G01*
X154483748Y-129647362D01*
X154581065Y-129708510D01*
X154602766Y-129739095D01*
X154596484Y-129776069D01*
X154581065Y-129791488D01*
X154483749Y-129852636D01*
X154483745Y-129852639D01*
X154352640Y-129983744D01*
X154352637Y-129983748D01*
X154253993Y-130140739D01*
X154253992Y-130140741D01*
X154192755Y-130315746D01*
X154192753Y-130315755D01*
X154171994Y-130499999D01*
X154186460Y-130628393D01*
X154192754Y-130684248D01*
X154253992Y-130859257D01*
X154352639Y-131016252D01*
X154483747Y-131147360D01*
X154483749Y-131147361D01*
X154581067Y-131208511D01*
X154602769Y-131239097D01*
X154596486Y-131276070D01*
X154581067Y-131291489D01*
X154483749Y-131352638D01*
X154483745Y-131352641D01*
X154352640Y-131483746D01*
X154352637Y-131483750D01*
X154253993Y-131640741D01*
X154253992Y-131640743D01*
X154192755Y-131815748D01*
X154192753Y-131815757D01*
X154179402Y-131934252D01*
X154171994Y-132000001D01*
X154192754Y-132184250D01*
X154253992Y-132359259D01*
X154298624Y-132430290D01*
X154339917Y-132496008D01*
X154352639Y-132516254D01*
X154483747Y-132647362D01*
X154498530Y-132656651D01*
X154525265Y-132673450D01*
X154533843Y-132680291D01*
X154985253Y-133131701D01*
X154969479Y-133131701D01*
X154878759Y-133146839D01*
X154770657Y-133205341D01*
X154687408Y-133295774D01*
X154638033Y-133408338D01*
X154631662Y-133485215D01*
X154046612Y-132900166D01*
X154041714Y-132906653D01*
X154041709Y-132906661D01*
X153949005Y-133092836D01*
X153949002Y-133092844D01*
X153892083Y-133292892D01*
X153892082Y-133292898D01*
X153872892Y-133500001D01*
X153892082Y-133707103D01*
X153892083Y-133707109D01*
X153949002Y-133907157D01*
X153949005Y-133907165D01*
X154041710Y-134093343D01*
X154041716Y-134093351D01*
X154046611Y-134099834D01*
X154046612Y-134099834D01*
X154628990Y-133517457D01*
X154627882Y-133530836D01*
X154658057Y-133649991D01*
X154725286Y-133752893D01*
X154822285Y-133828390D01*
X154938542Y-133868301D01*
X154985253Y-133868301D01*
X154533844Y-134319708D01*
X154525267Y-134326549D01*
X154483743Y-134352641D01*
X154352640Y-134483745D01*
X154352637Y-134483749D01*
X154253993Y-134640740D01*
X154253992Y-134640742D01*
X154192755Y-134815747D01*
X154192753Y-134815756D01*
X154171994Y-135000000D01*
X154190853Y-135167384D01*
X154192754Y-135184249D01*
X154253992Y-135359258D01*
X154253993Y-135359259D01*
X154342426Y-135500000D01*
X154352639Y-135516253D01*
X154483747Y-135647361D01*
X154640742Y-135746008D01*
X154815751Y-135807246D01*
X155000000Y-135828006D01*
X155184249Y-135807246D01*
X155359258Y-135746008D01*
X155516253Y-135647361D01*
X155647361Y-135516253D01*
X155746008Y-135359258D01*
X155807246Y-135184249D01*
X155828006Y-135000000D01*
X155807246Y-134815751D01*
X155746008Y-134640742D01*
X155647361Y-134483747D01*
X155516253Y-134352639D01*
X155516250Y-134352637D01*
X155474732Y-134326549D01*
X155466154Y-134319708D01*
X155014747Y-133868301D01*
X155030521Y-133868301D01*
X155121241Y-133853163D01*
X155229343Y-133794661D01*
X155312592Y-133704228D01*
X155361967Y-133591664D01*
X155368337Y-133514785D01*
X155953387Y-134099835D01*
X155958284Y-134093350D01*
X155958288Y-134093344D01*
X156050994Y-133907165D01*
X156050997Y-133907157D01*
X156107916Y-133707109D01*
X156107917Y-133707103D01*
X156127107Y-133500001D01*
X156107917Y-133292898D01*
X156107916Y-133292892D01*
X156050997Y-133092844D01*
X156050994Y-133092837D01*
X155958287Y-132906657D01*
X155958285Y-132906653D01*
X155953386Y-132900165D01*
X155371009Y-133482543D01*
X155372118Y-133469166D01*
X155341943Y-133350011D01*
X155274714Y-133247109D01*
X155177715Y-133171612D01*
X155061458Y-133131701D01*
X155014748Y-133131701D01*
X155466156Y-132680290D01*
X155474725Y-132673455D01*
X155516253Y-132647362D01*
X155647361Y-132516254D01*
X155746008Y-132359259D01*
X155807246Y-132184250D01*
X155828006Y-132000001D01*
X155807246Y-131815752D01*
X155775247Y-131724305D01*
X155777349Y-131686864D01*
X155786846Y-131673479D01*
X156490853Y-130969473D01*
X156525500Y-130955122D01*
X156560148Y-130969474D01*
X156574500Y-131004122D01*
X156574500Y-132634711D01*
X156574407Y-132636847D01*
X156570736Y-132678808D01*
X156581637Y-132719494D01*
X156582100Y-132721581D01*
X156589411Y-132763045D01*
X156589412Y-132763047D01*
X156593455Y-132770049D01*
X156598351Y-132781868D01*
X156600445Y-132789683D01*
X156600444Y-132789683D01*
X156624601Y-132824183D01*
X156625744Y-132825978D01*
X156633313Y-132839086D01*
X156646804Y-132862454D01*
X156646806Y-132862456D01*
X156679072Y-132889531D01*
X156680649Y-132890976D01*
X159713149Y-135923476D01*
X159727501Y-135958124D01*
X159724751Y-135974307D01*
X159721308Y-135984148D01*
X159692754Y-136065752D01*
X159671994Y-136250001D01*
X159692754Y-136434250D01*
X159753992Y-136609259D01*
X159753993Y-136609260D01*
X159852637Y-136766251D01*
X159852640Y-136766255D01*
X159983748Y-136897363D01*
X160081065Y-136958511D01*
X160102766Y-136989096D01*
X160096484Y-137026070D01*
X160081065Y-137041489D01*
X159983749Y-137102637D01*
X159983745Y-137102640D01*
X159868738Y-137217648D01*
X159834090Y-137232000D01*
X155484859Y-137232000D01*
X155450211Y-137217648D01*
X151782352Y-133549789D01*
X151768000Y-133515141D01*
X151768000Y-133189211D01*
X151773712Y-133167898D01*
X151773307Y-133167730D01*
X151823823Y-133045772D01*
X151835044Y-133018683D01*
X151855682Y-132861921D01*
X151835044Y-132705159D01*
X151812264Y-132650163D01*
X151773307Y-132556112D01*
X151773710Y-132555944D01*
X151768000Y-132534629D01*
X151768000Y-130508828D01*
X151770128Y-130446534D01*
X151770127Y-130446533D01*
X151770128Y-130446529D01*
X151759855Y-130404379D01*
X151759390Y-130401930D01*
X151753481Y-130358931D01*
X151744440Y-130338119D01*
X151741782Y-130330214D01*
X151736414Y-130308183D01*
X151724330Y-130286691D01*
X151715150Y-130270363D01*
X151714034Y-130268116D01*
X151696750Y-130228326D01*
X151696750Y-130228325D01*
X151682440Y-130210735D01*
X151677740Y-130203829D01*
X151666627Y-130184064D01*
X151666624Y-130184061D01*
X151652013Y-130169450D01*
X151635938Y-130153375D01*
X151634266Y-130151522D01*
X151606888Y-130117869D01*
X151606887Y-130117868D01*
X151588360Y-130104790D01*
X151581970Y-130099407D01*
X151084211Y-129601648D01*
X151069859Y-129567000D01*
X151084211Y-129532352D01*
X151118859Y-129518000D01*
X154334090Y-129518000D01*
X154368738Y-129532352D01*
G37*
%TD.AperFunction*%
%TA.AperFunction,Conductor*%
G36*
X162979208Y-57000501D02*
G01*
X163000001Y-57000501D01*
X163294205Y-57011008D01*
X163503490Y-57018839D01*
X163505150Y-57018959D01*
X163778317Y-57048328D01*
X164011958Y-57074653D01*
X164013502Y-57074879D01*
X164278834Y-57122750D01*
X164331953Y-57132802D01*
X164514936Y-57167425D01*
X164516440Y-57167759D01*
X164607703Y-57191052D01*
X164775526Y-57233886D01*
X165009815Y-57296664D01*
X165011155Y-57297066D01*
X165220010Y-57366580D01*
X165263824Y-57381163D01*
X165493841Y-57461649D01*
X165495109Y-57462132D01*
X165650240Y-57526389D01*
X165740527Y-57563788D01*
X165964556Y-57661531D01*
X165965703Y-57662067D01*
X166202834Y-57780766D01*
X166325703Y-57845705D01*
X166419389Y-57895220D01*
X166420420Y-57895797D01*
X166488405Y-57936134D01*
X166648226Y-58030961D01*
X166753832Y-58097317D01*
X166855914Y-58161459D01*
X166856840Y-58162071D01*
X167074318Y-58313069D01*
X167272220Y-58459128D01*
X167478701Y-58625520D01*
X167665229Y-58786040D01*
X167758746Y-58873107D01*
X167859264Y-58966693D01*
X168033304Y-59140733D01*
X168213961Y-59334773D01*
X168251986Y-59378959D01*
X168336318Y-59476955D01*
X168374474Y-59521293D01*
X168441609Y-59604602D01*
X168540865Y-59727771D01*
X168686945Y-59925702D01*
X168837921Y-60143150D01*
X168838541Y-60144088D01*
X168969032Y-60351762D01*
X169104193Y-60579564D01*
X169104783Y-60580618D01*
X169189057Y-60740070D01*
X169219230Y-60797159D01*
X169267809Y-60894207D01*
X169337921Y-61034274D01*
X169338468Y-61035444D01*
X169436212Y-61259474D01*
X169537860Y-61504874D01*
X169538350Y-61506158D01*
X169592287Y-61660299D01*
X169613504Y-61720935D01*
X169618830Y-61736154D01*
X169702931Y-61988842D01*
X169703350Y-61990238D01*
X169766109Y-62224458D01*
X169832240Y-62483560D01*
X169832574Y-62485064D01*
X169877261Y-62721234D01*
X169887697Y-62779074D01*
X169921241Y-62965000D01*
X169925112Y-62986452D01*
X169925347Y-62988060D01*
X169951684Y-63221803D01*
X169981036Y-63494819D01*
X169981159Y-63496522D01*
X169988984Y-63705597D01*
X169999500Y-64000067D01*
X169999500Y-70950501D01*
X169985148Y-70985149D01*
X169950500Y-70999501D01*
X163009844Y-70999501D01*
X163009638Y-70999460D01*
X163000000Y-70999460D01*
X162999901Y-70999501D01*
X162999616Y-70999618D01*
X162999459Y-71000000D01*
X162999465Y-71009673D01*
X162999500Y-71009844D01*
X162999500Y-85000500D01*
X162999541Y-85000541D01*
X162999998Y-85000540D01*
X163000000Y-85000541D01*
X163000001Y-85000540D01*
X163001099Y-85000539D01*
X163294228Y-85011008D01*
X163503487Y-85018838D01*
X163505150Y-85018958D01*
X163778316Y-85048327D01*
X164011957Y-85074652D01*
X164013501Y-85074878D01*
X164267244Y-85120658D01*
X164278789Y-85122742D01*
X164514933Y-85167423D01*
X164516433Y-85167756D01*
X164775600Y-85233904D01*
X165009782Y-85296653D01*
X165011159Y-85297067D01*
X165065407Y-85315122D01*
X165263849Y-85381169D01*
X165493835Y-85461646D01*
X165493858Y-85461654D01*
X165495120Y-85462135D01*
X165740502Y-85563776D01*
X165859602Y-85615739D01*
X165964555Y-85661530D01*
X165965702Y-85662066D01*
X166202870Y-85780784D01*
X166299912Y-85832072D01*
X166419368Y-85895208D01*
X166420422Y-85895798D01*
X166648256Y-86030978D01*
X166855925Y-86161465D01*
X166856831Y-86162064D01*
X167074303Y-86313058D01*
X167272223Y-86459129D01*
X167478701Y-86625519D01*
X167665229Y-86786039D01*
X167758746Y-86873106D01*
X167859264Y-86966692D01*
X168033307Y-87140735D01*
X168213960Y-87334770D01*
X168308569Y-87444708D01*
X168374478Y-87521296D01*
X168540870Y-87727776D01*
X168686941Y-87925696D01*
X168837934Y-88143167D01*
X168838547Y-88144094D01*
X168881810Y-88212947D01*
X168969021Y-88351743D01*
X169104200Y-88579576D01*
X169104790Y-88580630D01*
X169196204Y-88753590D01*
X169219232Y-88797162D01*
X169337921Y-89034273D01*
X169338468Y-89035442D01*
X169436223Y-89259496D01*
X169537854Y-89504855D01*
X169538344Y-89506139D01*
X169618843Y-89736189D01*
X169702931Y-89988839D01*
X169703350Y-89990235D01*
X169766110Y-90224458D01*
X169832241Y-90483561D01*
X169832575Y-90485065D01*
X169877257Y-90721210D01*
X169925113Y-90986453D01*
X169925348Y-90988061D01*
X169951685Y-91221802D01*
X169981037Y-91494817D01*
X169981160Y-91496520D01*
X169989003Y-91706110D01*
X169999500Y-92000000D01*
X169999500Y-98950500D01*
X169985148Y-98985148D01*
X169950500Y-98999500D01*
X163009844Y-98999500D01*
X163009638Y-98999459D01*
X163000000Y-98999459D01*
X162999901Y-98999500D01*
X162999616Y-98999617D01*
X162999459Y-98999999D01*
X162999465Y-99009672D01*
X162999500Y-99009843D01*
X162999500Y-140950500D01*
X162985148Y-140985148D01*
X162950500Y-140999500D01*
X131049500Y-140999500D01*
X131014852Y-140985148D01*
X131000500Y-140950500D01*
X131000500Y-138800000D01*
X132360628Y-138800000D01*
X132380063Y-138984911D01*
X132437518Y-139161740D01*
X132530483Y-139322760D01*
X132530486Y-139322763D01*
X132654888Y-139460927D01*
X132654892Y-139460930D01*
X132654894Y-139460932D01*
X132805314Y-139570219D01*
X132975169Y-139645843D01*
X133157035Y-139684500D01*
X133342965Y-139684500D01*
X133524831Y-139645843D01*
X133694686Y-139570219D01*
X133786175Y-139503748D01*
X134365500Y-139503748D01*
X134377133Y-139562231D01*
X134394882Y-139588795D01*
X134421447Y-139628552D01*
X134447322Y-139645841D01*
X134487769Y-139672867D01*
X134546252Y-139684500D01*
X134546255Y-139684500D01*
X135953745Y-139684500D01*
X135953748Y-139684500D01*
X136012231Y-139672867D01*
X136078552Y-139628552D01*
X136122867Y-139562231D01*
X136134500Y-139503748D01*
X136134500Y-138096252D01*
X136122867Y-138037769D01*
X136088867Y-137986885D01*
X136078552Y-137971447D01*
X136022885Y-137934252D01*
X136012231Y-137927133D01*
X135953748Y-137915500D01*
X134546252Y-137915500D01*
X134487769Y-137927133D01*
X134421447Y-137971447D01*
X134382470Y-138029781D01*
X134377133Y-138037769D01*
X134365500Y-138096252D01*
X134365500Y-139503748D01*
X133786175Y-139503748D01*
X133845106Y-139460932D01*
X133854993Y-139449952D01*
X133879588Y-139422634D01*
X133969517Y-139322760D01*
X134062482Y-139161740D01*
X134119937Y-138984911D01*
X134139372Y-138800000D01*
X134119937Y-138615089D01*
X134062482Y-138438260D01*
X133969517Y-138277240D01*
X133937143Y-138241285D01*
X133845111Y-138139072D01*
X133845106Y-138139069D01*
X133845106Y-138139068D01*
X133694686Y-138029781D01*
X133524831Y-137954157D01*
X133524828Y-137954156D01*
X133524824Y-137954155D01*
X133342965Y-137915500D01*
X133157035Y-137915500D01*
X132975175Y-137954155D01*
X132975166Y-137954158D01*
X132805314Y-138029781D01*
X132654888Y-138139072D01*
X132530486Y-138277236D01*
X132530480Y-138277244D01*
X132437520Y-138438256D01*
X132437518Y-138438259D01*
X132380063Y-138615088D01*
X132371748Y-138694202D01*
X132360628Y-138800000D01*
X131000500Y-138800000D01*
X131000500Y-135719748D01*
X140099500Y-135719748D01*
X140111133Y-135778231D01*
X140115187Y-135784298D01*
X140155447Y-135844552D01*
X140180541Y-135861319D01*
X140221769Y-135888867D01*
X140280252Y-135900500D01*
X140280255Y-135900500D01*
X142219745Y-135900500D01*
X142219748Y-135900500D01*
X142278231Y-135888867D01*
X142344552Y-135844552D01*
X142388867Y-135778231D01*
X142400500Y-135719748D01*
X142400500Y-134750000D01*
X142594571Y-134750000D01*
X142614243Y-134962306D01*
X142614244Y-134962312D01*
X142672593Y-135167384D01*
X142672597Y-135167394D01*
X142767632Y-135358252D01*
X142767633Y-135358254D01*
X142767634Y-135358255D01*
X142768392Y-135359259D01*
X142896125Y-135528404D01*
X142896128Y-135528407D01*
X143053693Y-135672048D01*
X143053694Y-135672049D01*
X143053698Y-135672052D01*
X143234981Y-135784298D01*
X143234984Y-135784299D01*
X143433796Y-135861319D01*
X143433797Y-135861319D01*
X143433802Y-135861321D01*
X143643390Y-135900500D01*
X143643392Y-135900500D01*
X143856608Y-135900500D01*
X143856610Y-135900500D01*
X144066198Y-135861321D01*
X144265019Y-135784298D01*
X144446302Y-135672052D01*
X144603872Y-135528407D01*
X144732366Y-135358255D01*
X144827405Y-135167389D01*
X144885756Y-134962310D01*
X144905429Y-134750000D01*
X144885756Y-134537690D01*
X144827405Y-134332611D01*
X144732366Y-134141745D01*
X144628338Y-134003991D01*
X144603874Y-133971595D01*
X144603871Y-133971592D01*
X144446306Y-133827951D01*
X144446303Y-133827949D01*
X144446302Y-133827948D01*
X144265019Y-133715702D01*
X144265016Y-133715701D01*
X144265015Y-133715700D01*
X144066203Y-133638680D01*
X144066198Y-133638679D01*
X143856610Y-133599500D01*
X143643390Y-133599500D01*
X143485236Y-133629064D01*
X143433796Y-133638680D01*
X143234984Y-133715700D01*
X143053693Y-133827951D01*
X142896128Y-133971592D01*
X142896125Y-133971595D01*
X142767635Y-134141743D01*
X142767632Y-134141747D01*
X142672597Y-134332605D01*
X142672593Y-134332615D01*
X142614244Y-134537687D01*
X142614243Y-134537693D01*
X142594571Y-134750000D01*
X142400500Y-134750000D01*
X142400500Y-133780252D01*
X142388867Y-133721769D01*
X142362301Y-133682012D01*
X142344552Y-133655447D01*
X142304795Y-133628882D01*
X142278231Y-133611133D01*
X142219748Y-133599500D01*
X140280252Y-133599500D01*
X140221769Y-133611133D01*
X140155447Y-133655447D01*
X140119751Y-133708871D01*
X140111133Y-133721769D01*
X140099500Y-133780252D01*
X140099500Y-135719748D01*
X131000500Y-135719748D01*
X131000500Y-133550000D01*
X132060928Y-133550000D01*
X132081173Y-133768487D01*
X132141223Y-133979542D01*
X132239029Y-134175963D01*
X132239032Y-134175967D01*
X132252562Y-134193884D01*
X132824207Y-133622238D01*
X132826046Y-133646765D01*
X132873403Y-133767428D01*
X132954222Y-133868773D01*
X133061323Y-133941793D01*
X133176295Y-133977257D01*
X132608294Y-134545257D01*
X132608294Y-134545258D01*
X132719988Y-134614415D01*
X132924589Y-134693678D01*
X133140288Y-134734000D01*
X133359712Y-134734000D01*
X133575410Y-134693678D01*
X133780011Y-134614415D01*
X133891704Y-134545258D01*
X133891704Y-134545257D01*
X133320654Y-133974207D01*
X133378176Y-133965538D01*
X133494964Y-133909296D01*
X133589985Y-133821129D01*
X133654797Y-133708871D01*
X133674797Y-133621244D01*
X134247436Y-134193883D01*
X134260972Y-134175959D01*
X134272637Y-134152534D01*
X134300928Y-134127915D01*
X134338341Y-134130512D01*
X134362960Y-134158803D01*
X134365500Y-134174375D01*
X134365500Y-134253748D01*
X134377133Y-134312231D01*
X134394882Y-134338795D01*
X134421447Y-134378552D01*
X134439687Y-134390739D01*
X134487769Y-134422867D01*
X134546252Y-134434500D01*
X134546255Y-134434500D01*
X135953745Y-134434500D01*
X135953748Y-134434500D01*
X136012231Y-134422867D01*
X136078552Y-134378552D01*
X136122867Y-134312231D01*
X136134500Y-134253748D01*
X136134500Y-132846252D01*
X136122867Y-132787769D01*
X136094963Y-132746009D01*
X136078552Y-132721447D01*
X136038795Y-132694882D01*
X136012231Y-132677133D01*
X135953748Y-132665500D01*
X134546252Y-132665500D01*
X134487769Y-132677133D01*
X134421447Y-132721447D01*
X134388973Y-132770049D01*
X134377133Y-132787769D01*
X134365500Y-132846252D01*
X134365500Y-132846255D01*
X134365500Y-132925625D01*
X134351148Y-132960273D01*
X134316500Y-132974625D01*
X134281852Y-132960273D01*
X134272637Y-132947467D01*
X134260967Y-132924032D01*
X134247436Y-132906114D01*
X133675791Y-133477759D01*
X133673954Y-133453235D01*
X133626597Y-133332572D01*
X133545778Y-133231227D01*
X133438677Y-133158207D01*
X133323703Y-133122742D01*
X133891704Y-132554741D01*
X133891704Y-132554740D01*
X133780011Y-132485584D01*
X133575410Y-132406321D01*
X133359712Y-132366000D01*
X133140288Y-132366000D01*
X132924589Y-132406321D01*
X132719987Y-132485584D01*
X132608293Y-132554741D01*
X133179344Y-133125792D01*
X133121824Y-133134462D01*
X133005036Y-133190704D01*
X132910015Y-133278871D01*
X132845203Y-133391129D01*
X132825202Y-133478754D01*
X132252562Y-132906114D01*
X132239032Y-132924032D01*
X132239029Y-132924036D01*
X132141223Y-133120457D01*
X132081173Y-133331512D01*
X132060928Y-133550000D01*
X131000500Y-133550000D01*
X131000500Y-127500000D01*
X132644341Y-127500000D01*
X132664937Y-127735410D01*
X132664938Y-127735416D01*
X132726094Y-127963655D01*
X132726095Y-127963660D01*
X132825963Y-128177827D01*
X132825971Y-128177839D01*
X132961500Y-128371395D01*
X132961506Y-128371402D01*
X133128597Y-128538493D01*
X133128604Y-128538499D01*
X133322160Y-128674028D01*
X133322172Y-128674036D01*
X133536339Y-128773904D01*
X133536344Y-128773905D01*
X133764583Y-128835061D01*
X133764587Y-128835061D01*
X133764592Y-128835063D01*
X133884250Y-128845531D01*
X133941030Y-128850500D01*
X133941034Y-128850500D01*
X134058970Y-128850500D01*
X134111521Y-128845901D01*
X134235408Y-128835063D01*
X134235414Y-128835061D01*
X134235416Y-128835061D01*
X134349535Y-128804483D01*
X134463657Y-128773904D01*
X134463660Y-128773904D01*
X134463660Y-128773903D01*
X134463663Y-128773903D01*
X134677829Y-128674035D01*
X134871401Y-128538495D01*
X135038495Y-128371401D01*
X135120706Y-128253992D01*
X135174029Y-128177840D01*
X135174036Y-128177828D01*
X135223029Y-128072762D01*
X135273903Y-127963663D01*
X135335063Y-127735408D01*
X135355659Y-127500000D01*
X135335063Y-127264592D01*
X135328252Y-127239174D01*
X135273905Y-127036344D01*
X135273904Y-127036339D01*
X135174036Y-126822172D01*
X135174028Y-126822160D01*
X135038499Y-126628604D01*
X135038493Y-126628597D01*
X134871402Y-126461506D01*
X134871395Y-126461500D01*
X134677839Y-126325971D01*
X134677827Y-126325963D01*
X134463660Y-126226095D01*
X134463655Y-126226094D01*
X134235416Y-126164938D01*
X134235410Y-126164937D01*
X134058970Y-126149500D01*
X134058966Y-126149500D01*
X133941034Y-126149500D01*
X133941030Y-126149500D01*
X133764589Y-126164937D01*
X133764583Y-126164938D01*
X133536344Y-126226094D01*
X133536339Y-126226095D01*
X133322172Y-126325963D01*
X133322160Y-126325971D01*
X133128604Y-126461500D01*
X133128597Y-126461506D01*
X132961506Y-126628597D01*
X132961500Y-126628604D01*
X132825970Y-126822159D01*
X132825963Y-126822171D01*
X132726095Y-127036339D01*
X132726094Y-127036344D01*
X132664938Y-127264583D01*
X132664937Y-127264589D01*
X132644341Y-127500000D01*
X131000500Y-127500000D01*
X131000500Y-99009843D01*
X131000534Y-99009672D01*
X131000539Y-99000002D01*
X131000541Y-99000000D01*
X131000383Y-98999617D01*
X131000099Y-98999500D01*
X131000000Y-98999459D01*
X130990362Y-98999459D01*
X130990156Y-98999500D01*
X124049500Y-98999500D01*
X124014852Y-98985148D01*
X124000500Y-98950500D01*
X124000500Y-97369748D01*
X125949500Y-97369748D01*
X125961133Y-97428231D01*
X125978882Y-97454795D01*
X126005447Y-97494552D01*
X126032012Y-97512301D01*
X126071769Y-97538867D01*
X126130252Y-97550500D01*
X126130255Y-97550500D01*
X127869745Y-97550500D01*
X127869748Y-97550500D01*
X127928231Y-97538867D01*
X127994552Y-97494552D01*
X128038867Y-97428231D01*
X128050500Y-97369748D01*
X128050500Y-95930122D01*
X128064852Y-95895474D01*
X131095474Y-92864852D01*
X131130122Y-92850500D01*
X140950272Y-92850500D01*
X140984920Y-92864852D01*
X140999272Y-92899500D01*
X140989147Y-92929326D01*
X140975464Y-92947159D01*
X140975462Y-92947162D01*
X140975461Y-92947163D01*
X140914955Y-93093238D01*
X140894318Y-93250000D01*
X140914955Y-93406761D01*
X140975461Y-93552836D01*
X140975464Y-93552841D01*
X141071718Y-93678282D01*
X141155330Y-93742439D01*
X141174081Y-93774916D01*
X141174500Y-93781312D01*
X141174500Y-95984710D01*
X141174407Y-95986846D01*
X141170736Y-96028807D01*
X141181637Y-96069493D01*
X141182100Y-96071580D01*
X141189411Y-96113044D01*
X141189412Y-96113046D01*
X141193455Y-96120048D01*
X141198351Y-96131867D01*
X141200445Y-96139682D01*
X141200444Y-96139682D01*
X141224601Y-96174182D01*
X141225750Y-96175985D01*
X141246804Y-96212453D01*
X141246806Y-96212455D01*
X141279072Y-96239530D01*
X141280649Y-96240975D01*
X143394141Y-98354467D01*
X143408493Y-98389115D01*
X143408073Y-98395511D01*
X143394318Y-98500000D01*
X143404251Y-98575446D01*
X143408074Y-98604487D01*
X143398367Y-98640712D01*
X143394141Y-98645531D01*
X143055648Y-98984025D01*
X143054072Y-98985469D01*
X143021806Y-99012544D01*
X143000743Y-99049024D01*
X142999595Y-99050826D01*
X142975445Y-99085317D01*
X142975444Y-99085317D01*
X142973351Y-99093132D01*
X142968458Y-99104945D01*
X142964414Y-99111950D01*
X142964410Y-99111960D01*
X142957102Y-99153410D01*
X142956639Y-99155497D01*
X142945736Y-99196191D01*
X142945736Y-99196192D01*
X142949407Y-99238152D01*
X142949500Y-99240288D01*
X142949500Y-105870878D01*
X142935148Y-105905526D01*
X142900500Y-105919878D01*
X142865852Y-105905526D01*
X142355858Y-105395532D01*
X142341506Y-105360884D01*
X142341925Y-105354488D01*
X142355682Y-105250000D01*
X142335044Y-105093238D01*
X142274536Y-104947159D01*
X142178282Y-104821718D01*
X142178279Y-104821716D01*
X142052841Y-104725464D01*
X142052836Y-104725461D01*
X141906761Y-104664955D01*
X141750000Y-104644318D01*
X141593238Y-104664955D01*
X141447163Y-104725461D01*
X141447158Y-104725464D01*
X141321718Y-104821717D01*
X141321717Y-104821718D01*
X141225464Y-104947158D01*
X141225461Y-104947163D01*
X141164955Y-105093238D01*
X141144318Y-105250000D01*
X141164955Y-105406761D01*
X141225461Y-105552836D01*
X141225464Y-105552841D01*
X141321715Y-105678279D01*
X141321718Y-105678282D01*
X141447159Y-105774536D01*
X141447161Y-105774536D01*
X141447163Y-105774538D01*
X141593238Y-105835044D01*
X141750000Y-105855682D01*
X141854488Y-105841925D01*
X141890713Y-105851631D01*
X141895532Y-105855858D01*
X147250526Y-111210852D01*
X147264878Y-111245500D01*
X147250526Y-111280148D01*
X147215878Y-111294500D01*
X146578622Y-111294500D01*
X146539481Y-111302285D01*
X146499981Y-111310142D01*
X146499971Y-111310145D01*
X146465338Y-111324491D01*
X146465332Y-111324494D01*
X146465331Y-111324495D01*
X146407041Y-111361121D01*
X146405092Y-111363866D01*
X146373338Y-111383818D01*
X146336776Y-111375472D01*
X146330484Y-111370158D01*
X140355858Y-105395532D01*
X140341506Y-105360884D01*
X140341925Y-105354488D01*
X140355682Y-105250000D01*
X140335044Y-105093238D01*
X140274536Y-104947159D01*
X140178282Y-104821718D01*
X140178279Y-104821716D01*
X140052841Y-104725464D01*
X140052836Y-104725461D01*
X139906761Y-104664955D01*
X139750000Y-104644318D01*
X139593238Y-104664955D01*
X139447163Y-104725461D01*
X139447158Y-104725464D01*
X139321719Y-104821716D01*
X139288874Y-104864521D01*
X139256395Y-104883272D01*
X139220170Y-104873565D01*
X139211126Y-104864521D01*
X139178282Y-104821718D01*
X139178280Y-104821717D01*
X139178280Y-104821716D01*
X139052841Y-104725464D01*
X139052836Y-104725461D01*
X138906761Y-104664955D01*
X138750000Y-104644318D01*
X138593238Y-104664955D01*
X138447163Y-104725461D01*
X138447158Y-104725464D01*
X138321719Y-104821716D01*
X138288874Y-104864521D01*
X138256395Y-104883272D01*
X138220170Y-104873565D01*
X138211126Y-104864521D01*
X138178282Y-104821718D01*
X138178280Y-104821717D01*
X138178280Y-104821716D01*
X138052841Y-104725464D01*
X138052836Y-104725461D01*
X137906761Y-104664955D01*
X137750000Y-104644318D01*
X137593238Y-104664955D01*
X137447163Y-104725461D01*
X137447158Y-104725464D01*
X137321718Y-104821717D01*
X137321717Y-104821718D01*
X137225464Y-104947158D01*
X137225461Y-104947163D01*
X137164955Y-105093238D01*
X137144318Y-105250000D01*
X137164955Y-105406761D01*
X137225461Y-105552836D01*
X137225464Y-105552841D01*
X137321718Y-105678282D01*
X137405330Y-105742439D01*
X137424081Y-105774916D01*
X137424500Y-105781312D01*
X137424500Y-113141874D01*
X137410148Y-113176522D01*
X137383708Y-113190182D01*
X137296856Y-113204939D01*
X137262212Y-113219289D01*
X137195539Y-113263840D01*
X136869044Y-113590335D01*
X136824492Y-113657010D01*
X136810145Y-113691645D01*
X136810142Y-113691655D01*
X136802285Y-113731155D01*
X136794500Y-113770296D01*
X136794500Y-122229704D01*
X136804880Y-122281891D01*
X136810142Y-122308344D01*
X136810145Y-122308354D01*
X136824492Y-122342989D01*
X136824493Y-122342991D01*
X136824495Y-122342995D01*
X136869042Y-122409662D01*
X139090338Y-124630958D01*
X139157005Y-124675505D01*
X139157010Y-124675507D01*
X139191645Y-124689854D01*
X139191647Y-124689854D01*
X139191653Y-124689857D01*
X139270296Y-124705500D01*
X139994629Y-124705500D01*
X140029277Y-124719852D01*
X140043629Y-124754500D01*
X140029277Y-124789148D01*
X135665542Y-129152881D01*
X135659698Y-129157873D01*
X135644971Y-129168573D01*
X135644963Y-129168580D01*
X135601267Y-129217109D01*
X135600385Y-129218038D01*
X135584290Y-129234134D01*
X135584285Y-129234139D01*
X135570987Y-129250681D01*
X135570100Y-129251724D01*
X135527446Y-129299097D01*
X135517543Y-129316250D01*
X135513301Y-129322446D01*
X135498981Y-129340261D01*
X135498976Y-129340269D01*
X135470680Y-129397320D01*
X135469949Y-129398683D01*
X135439634Y-129451196D01*
X135432521Y-129473086D01*
X135429819Y-129479710D01*
X135418235Y-129503070D01*
X135418231Y-129503080D01*
X135403614Y-129561853D01*
X135403140Y-129563511D01*
X135385364Y-129618220D01*
X135385361Y-129618236D01*
X135382441Y-129646012D01*
X135381851Y-129649366D01*
X135374374Y-129679432D01*
X135374373Y-129679438D01*
X135372816Y-129736879D01*
X135372691Y-129738776D01*
X135367005Y-129792892D01*
X135370249Y-129823776D01*
X135370375Y-129827002D01*
X135369451Y-129861096D01*
X135369453Y-129861109D01*
X135379694Y-129914482D01*
X135379999Y-129916538D01*
X135385361Y-129967549D01*
X135385362Y-129967555D01*
X135385363Y-129967560D01*
X135385365Y-129967566D01*
X135395921Y-130000057D01*
X135396681Y-130003012D01*
X135403700Y-130039580D01*
X135423948Y-130086651D01*
X135424743Y-130088761D01*
X135439634Y-130134588D01*
X135439636Y-130134593D01*
X135443186Y-130140741D01*
X135458276Y-130166880D01*
X135459566Y-130169450D01*
X135475512Y-130206519D01*
X135503592Y-130245610D01*
X135504912Y-130247655D01*
X135527448Y-130286691D01*
X135527450Y-130286693D01*
X135554491Y-130316725D01*
X135556178Y-130318821D01*
X135564354Y-130330202D01*
X135581534Y-130354119D01*
X135615053Y-130384190D01*
X135616883Y-130386017D01*
X135643137Y-130415175D01*
X135644971Y-130417212D01*
X135680168Y-130442783D01*
X135682130Y-130444369D01*
X135716801Y-130475476D01*
X135716805Y-130475478D01*
X135716806Y-130475479D01*
X135731679Y-130483888D01*
X135753290Y-130496106D01*
X135755629Y-130497610D01*
X135787056Y-130520443D01*
X135814441Y-130532635D01*
X135829651Y-130539407D01*
X135831745Y-130540462D01*
X135841192Y-130545803D01*
X135875005Y-130564920D01*
X135912093Y-130576307D01*
X135914853Y-130577340D01*
X135947501Y-130591877D01*
X135996166Y-130602220D01*
X135998229Y-130602755D01*
X136048733Y-130618263D01*
X136084294Y-130621157D01*
X136087380Y-130621609D01*
X136119292Y-130628393D01*
X136172146Y-130628393D01*
X136174131Y-130628473D01*
X136194127Y-130630102D01*
X136229861Y-130633012D01*
X136229862Y-130633011D01*
X136229865Y-130633012D01*
X136262115Y-130628618D01*
X136265426Y-130628393D01*
X136294921Y-130628393D01*
X136294922Y-130628393D01*
X136349690Y-130616750D01*
X136351423Y-130616449D01*
X136409934Y-130608478D01*
X136435922Y-130598929D01*
X136442625Y-130596996D01*
X136466713Y-130591877D01*
X136520721Y-130567830D01*
X136522172Y-130567242D01*
X136580518Y-130545808D01*
X136601131Y-130532630D01*
X136607590Y-130529154D01*
X136627158Y-130520443D01*
X136677492Y-130483872D01*
X136678642Y-130483087D01*
X136733643Y-130447933D01*
X136748678Y-130432896D01*
X136754522Y-130427906D01*
X136769242Y-130417212D01*
X136769245Y-130417210D01*
X136771078Y-130415175D01*
X136776451Y-130409206D01*
X136812955Y-130368664D01*
X136813791Y-130367783D01*
X142461723Y-124719852D01*
X142496371Y-124705500D01*
X147150500Y-124705500D01*
X147185148Y-124719852D01*
X147199500Y-124754500D01*
X147199500Y-133952029D01*
X147185148Y-133986677D01*
X147150500Y-134001029D01*
X147115852Y-133986677D01*
X147111398Y-133981559D01*
X147109875Y-133979542D01*
X147103872Y-133971593D01*
X147097230Y-133965538D01*
X146946306Y-133827951D01*
X146946303Y-133827949D01*
X146946302Y-133827948D01*
X146765019Y-133715702D01*
X146765016Y-133715701D01*
X146765015Y-133715700D01*
X146566203Y-133638680D01*
X146566198Y-133638679D01*
X146356610Y-133599500D01*
X146143390Y-133599500D01*
X145985236Y-133629064D01*
X145933796Y-133638680D01*
X145734984Y-133715700D01*
X145553693Y-133827951D01*
X145396128Y-133971592D01*
X145396125Y-133971595D01*
X145267635Y-134141743D01*
X145267632Y-134141747D01*
X145172597Y-134332605D01*
X145172593Y-134332615D01*
X145114244Y-134537687D01*
X145114243Y-134537693D01*
X145094571Y-134750000D01*
X145114243Y-134962306D01*
X145114244Y-134962312D01*
X145172593Y-135167384D01*
X145172597Y-135167394D01*
X145267632Y-135358252D01*
X145267633Y-135358254D01*
X145267634Y-135358255D01*
X145268392Y-135359259D01*
X145396125Y-135528404D01*
X145396128Y-135528407D01*
X145553693Y-135672048D01*
X145553694Y-135672049D01*
X145553698Y-135672052D01*
X145734981Y-135784298D01*
X145734984Y-135784299D01*
X145933796Y-135861319D01*
X145933797Y-135861319D01*
X145933802Y-135861321D01*
X146143390Y-135900500D01*
X146143392Y-135900500D01*
X146323999Y-135900500D01*
X146358647Y-135914852D01*
X146372999Y-135949500D01*
X146358647Y-135984148D01*
X145632649Y-136710148D01*
X145598001Y-136724500D01*
X141370290Y-136724500D01*
X141368154Y-136724407D01*
X141336808Y-136721664D01*
X141326193Y-136720736D01*
X141326192Y-136720736D01*
X141326191Y-136720736D01*
X141285497Y-136731639D01*
X141283418Y-136732100D01*
X141273120Y-136733916D01*
X141241960Y-136739410D01*
X141241950Y-136739414D01*
X141234945Y-136743458D01*
X141223132Y-136748351D01*
X141215317Y-136750444D01*
X141215317Y-136750445D01*
X141180826Y-136774595D01*
X141179024Y-136775743D01*
X141142544Y-136796806D01*
X141115467Y-136829074D01*
X141114023Y-136830650D01*
X139881954Y-138062718D01*
X139847306Y-138077070D01*
X139824208Y-138071284D01*
X139783962Y-138049772D01*
X139783959Y-138049771D01*
X139783954Y-138049768D01*
X139585934Y-137989700D01*
X139380000Y-137969417D01*
X139174065Y-137989700D01*
X139174064Y-137989700D01*
X139039736Y-138030448D01*
X138976050Y-138049767D01*
X138976043Y-138049769D01*
X138793548Y-138147316D01*
X138633590Y-138278590D01*
X138502316Y-138438548D01*
X138404769Y-138621043D01*
X138344700Y-138819064D01*
X138344700Y-138819065D01*
X138324417Y-139024999D01*
X138324417Y-139025000D01*
X138344700Y-139230934D01*
X138344700Y-139230935D01*
X138358067Y-139275000D01*
X138404768Y-139428954D01*
X138502315Y-139611450D01*
X138633590Y-139771410D01*
X138793550Y-139902685D01*
X138976046Y-140000232D01*
X139174066Y-140060300D01*
X139380000Y-140080583D01*
X139585934Y-140060300D01*
X139783954Y-140000232D01*
X139966450Y-139902685D01*
X140126410Y-139771410D01*
X140257685Y-139611450D01*
X140355232Y-139428954D01*
X140415300Y-139230934D01*
X140435583Y-139025000D01*
X140415300Y-138819066D01*
X140355232Y-138621046D01*
X140345394Y-138602640D01*
X140333715Y-138580789D01*
X140330039Y-138543467D01*
X140342279Y-138523045D01*
X141475474Y-137389852D01*
X141510122Y-137375500D01*
X142990878Y-137375500D01*
X143025526Y-137389852D01*
X143039878Y-137424500D01*
X143025526Y-137459148D01*
X142421954Y-138062718D01*
X142387306Y-138077070D01*
X142364208Y-138071284D01*
X142323962Y-138049772D01*
X142323959Y-138049771D01*
X142323954Y-138049768D01*
X142125934Y-137989700D01*
X141920000Y-137969417D01*
X141714065Y-137989700D01*
X141714064Y-137989700D01*
X141579736Y-138030448D01*
X141516050Y-138049767D01*
X141516043Y-138049769D01*
X141333548Y-138147316D01*
X141173590Y-138278590D01*
X141042316Y-138438548D01*
X140944769Y-138621043D01*
X140884700Y-138819064D01*
X140884700Y-138819065D01*
X140864417Y-139024999D01*
X140864417Y-139025000D01*
X140884700Y-139230934D01*
X140884700Y-139230935D01*
X140898067Y-139275000D01*
X140944768Y-139428954D01*
X141042315Y-139611450D01*
X141173590Y-139771410D01*
X141333550Y-139902685D01*
X141516046Y-140000232D01*
X141714066Y-140060300D01*
X141920000Y-140080583D01*
X142125934Y-140060300D01*
X142323954Y-140000232D01*
X142506450Y-139902685D01*
X142666410Y-139771410D01*
X142797685Y-139611450D01*
X142895232Y-139428954D01*
X142955300Y-139230934D01*
X142975583Y-139025000D01*
X142955300Y-138819066D01*
X142895232Y-138621046D01*
X142873715Y-138580790D01*
X142870039Y-138543468D01*
X142882281Y-138523044D01*
X143565474Y-137839852D01*
X143600122Y-137825500D01*
X143664002Y-137825500D01*
X143698650Y-137839852D01*
X143713002Y-137874500D01*
X143698650Y-137909148D01*
X143692107Y-137914638D01*
X143588927Y-137986885D01*
X143588920Y-137986891D01*
X143421891Y-138153920D01*
X143421885Y-138153927D01*
X143286405Y-138347411D01*
X143286398Y-138347423D01*
X143186567Y-138561511D01*
X143186566Y-138561516D01*
X143129363Y-138774999D01*
X143129364Y-138775000D01*
X144026314Y-138775000D01*
X144000507Y-138815156D01*
X143960000Y-138953111D01*
X143960000Y-139096889D01*
X144000507Y-139234844D01*
X144026314Y-139275000D01*
X143129363Y-139275000D01*
X143186566Y-139488483D01*
X143186568Y-139488488D01*
X143286398Y-139702577D01*
X143286405Y-139702589D01*
X143421885Y-139896072D01*
X143421891Y-139896079D01*
X143588920Y-140063108D01*
X143588927Y-140063114D01*
X143782410Y-140198594D01*
X143782422Y-140198601D01*
X143996511Y-140298431D01*
X143996516Y-140298433D01*
X144210000Y-140355634D01*
X144210000Y-139460501D01*
X144317685Y-139509680D01*
X144424237Y-139525000D01*
X144495763Y-139525000D01*
X144602315Y-139509680D01*
X144710000Y-139460501D01*
X144710000Y-140355634D01*
X144923483Y-140298433D01*
X144923488Y-140298431D01*
X145137577Y-140198601D01*
X145137589Y-140198594D01*
X145331072Y-140063114D01*
X145331079Y-140063108D01*
X145498108Y-139896079D01*
X145498114Y-139896072D01*
X145633594Y-139702589D01*
X145633601Y-139702577D01*
X145733431Y-139488488D01*
X145733433Y-139488483D01*
X145790636Y-139275000D01*
X144893686Y-139275000D01*
X144919493Y-139234844D01*
X144960000Y-139096889D01*
X144960000Y-138953111D01*
X144919493Y-138815156D01*
X144893686Y-138775000D01*
X145790636Y-138775000D01*
X145790636Y-138774999D01*
X145733433Y-138561516D01*
X145733432Y-138561511D01*
X145633601Y-138347423D01*
X145633594Y-138347411D01*
X145498114Y-138153927D01*
X145498108Y-138153920D01*
X145331079Y-137986891D01*
X145331072Y-137986885D01*
X145227893Y-137914638D01*
X145207742Y-137883009D01*
X145215860Y-137846395D01*
X145247489Y-137826244D01*
X145255998Y-137825500D01*
X145959710Y-137825500D01*
X145961846Y-137825593D01*
X145969900Y-137826297D01*
X146003807Y-137829264D01*
X146044495Y-137818361D01*
X146046574Y-137817900D01*
X146088045Y-137810588D01*
X146095054Y-137806540D01*
X146106871Y-137801646D01*
X146114684Y-137799554D01*
X146149190Y-137775391D01*
X146150965Y-137774260D01*
X146187455Y-137753194D01*
X146214532Y-137720923D01*
X146215965Y-137719359D01*
X148015853Y-135919472D01*
X148050500Y-135905121D01*
X148085148Y-135919473D01*
X148099500Y-135954121D01*
X148099500Y-137444877D01*
X148085148Y-137479525D01*
X147604525Y-137960148D01*
X147569877Y-137974500D01*
X146130252Y-137974500D01*
X146071769Y-137986133D01*
X146005447Y-138030447D01*
X145966715Y-138088415D01*
X145961133Y-138096769D01*
X145949500Y-138155252D01*
X145949500Y-139894748D01*
X145961133Y-139953231D01*
X145978882Y-139979795D01*
X146005447Y-140019552D01*
X146032012Y-140037301D01*
X146071769Y-140063867D01*
X146130252Y-140075500D01*
X146130255Y-140075500D01*
X147869745Y-140075500D01*
X147869748Y-140075500D01*
X147928231Y-140063867D01*
X147994552Y-140019552D01*
X148038867Y-139953231D01*
X148050500Y-139894748D01*
X148050500Y-138455122D01*
X148064852Y-138420474D01*
X148346258Y-138139068D01*
X148644368Y-137840957D01*
X148645918Y-137839536D01*
X148678194Y-137812455D01*
X148699254Y-137775976D01*
X148700400Y-137774179D01*
X148715094Y-137753194D01*
X148724554Y-137739684D01*
X148726646Y-137731871D01*
X148731540Y-137720054D01*
X148735588Y-137713045D01*
X148742901Y-137671565D01*
X148743364Y-137669479D01*
X148754263Y-137628807D01*
X148750593Y-137586854D01*
X148750500Y-137584718D01*
X148750500Y-127730121D01*
X148764851Y-127695474D01*
X151825427Y-124634897D01*
X151860074Y-124620546D01*
X151888425Y-124629582D01*
X151953146Y-124675505D01*
X151987794Y-124689857D01*
X152066437Y-124705500D01*
X152943642Y-124705500D01*
X152978290Y-124719852D01*
X152992642Y-124754500D01*
X152978290Y-124789148D01*
X149389981Y-128377456D01*
X149344405Y-128420021D01*
X149344400Y-128420027D01*
X149321865Y-128457084D01*
X149320453Y-128459159D01*
X149294235Y-128493733D01*
X149294230Y-128493742D01*
X149285912Y-128514836D01*
X149282200Y-128522311D01*
X149272754Y-128537846D01*
X149270416Y-128541691D01*
X149258711Y-128583464D01*
X149257912Y-128585842D01*
X149241998Y-128626198D01*
X149241997Y-128626205D01*
X149239677Y-128648762D01*
X149238118Y-128656965D01*
X149232000Y-128678803D01*
X149232000Y-128678805D01*
X149231097Y-128682029D01*
X149230860Y-128681962D01*
X149226674Y-128694183D01*
X149226693Y-128694191D01*
X149226569Y-128694489D01*
X149225934Y-128696344D01*
X149225463Y-128697158D01*
X149164955Y-128843238D01*
X149144318Y-129000000D01*
X149164955Y-129156761D01*
X149225461Y-129302836D01*
X149225464Y-129302841D01*
X149321718Y-129428282D01*
X149447159Y-129524536D01*
X149447161Y-129524536D01*
X149447163Y-129524538D01*
X149596205Y-129586273D01*
X149596037Y-129586678D01*
X149615149Y-129597711D01*
X150717648Y-130700210D01*
X150732000Y-130734858D01*
X150732000Y-132534629D01*
X150726289Y-132555944D01*
X150726693Y-132556112D01*
X150664955Y-132705159D01*
X150644318Y-132861921D01*
X150664955Y-133018682D01*
X150726693Y-133167730D01*
X150726287Y-133167898D01*
X150732000Y-133189211D01*
X150732000Y-133741154D01*
X150729870Y-133803464D01*
X150729871Y-133803473D01*
X150740141Y-133845619D01*
X150740610Y-133848084D01*
X150746518Y-133891064D01*
X150746519Y-133891070D01*
X150755552Y-133911866D01*
X150758214Y-133919783D01*
X150763584Y-133941816D01*
X150763585Y-133941818D01*
X150784846Y-133979631D01*
X150785963Y-133981878D01*
X150803250Y-134021675D01*
X150817560Y-134039264D01*
X150822259Y-134046168D01*
X150833375Y-134065937D01*
X150864055Y-134096617D01*
X150865725Y-134098468D01*
X150869116Y-134102636D01*
X150893111Y-134132130D01*
X150893116Y-134132135D01*
X150911642Y-134145212D01*
X150918033Y-134150595D01*
X154877470Y-138110033D01*
X154919704Y-138155255D01*
X154920023Y-138155596D01*
X154946135Y-138171475D01*
X154957090Y-138178137D01*
X154959158Y-138179543D01*
X154977781Y-138193666D01*
X154993734Y-138205764D01*
X154993735Y-138205764D01*
X154993736Y-138205765D01*
X155014832Y-138214083D01*
X155022310Y-138217797D01*
X155041688Y-138229582D01*
X155041689Y-138229582D01*
X155041690Y-138229583D01*
X155055859Y-138233552D01*
X155083475Y-138241290D01*
X155085840Y-138242086D01*
X155126203Y-138258003D01*
X155148759Y-138260321D01*
X155156957Y-138261878D01*
X155178803Y-138268000D01*
X155222190Y-138268000D01*
X155224698Y-138268129D01*
X155267849Y-138272565D01*
X155267849Y-138272564D01*
X155267851Y-138272565D01*
X155290198Y-138268711D01*
X155298523Y-138268000D01*
X159834090Y-138268000D01*
X159868738Y-138282352D01*
X159983747Y-138397361D01*
X159983749Y-138397362D01*
X160081066Y-138458511D01*
X160102767Y-138489097D01*
X160096485Y-138526070D01*
X160081066Y-138541489D01*
X159983749Y-138602637D01*
X159983745Y-138602640D01*
X159852640Y-138733745D01*
X159852637Y-138733749D01*
X159753993Y-138890740D01*
X159753992Y-138890742D01*
X159692755Y-139065747D01*
X159692753Y-139065756D01*
X159671994Y-139250000D01*
X159692157Y-139428956D01*
X159692754Y-139434249D01*
X159753992Y-139609258D01*
X159852639Y-139766253D01*
X159983747Y-139897361D01*
X160140742Y-139996008D01*
X160315751Y-140057246D01*
X160500000Y-140078006D01*
X160684249Y-140057246D01*
X160859258Y-139996008D01*
X161016253Y-139897361D01*
X161147361Y-139766253D01*
X161246008Y-139609258D01*
X161307246Y-139434249D01*
X161328006Y-139250000D01*
X161307246Y-139065751D01*
X161246008Y-138890742D01*
X161147361Y-138733747D01*
X161016253Y-138602639D01*
X161012129Y-138600048D01*
X160918934Y-138541489D01*
X160897233Y-138510903D01*
X160903515Y-138473930D01*
X160918934Y-138458511D01*
X160950701Y-138438550D01*
X161016253Y-138397361D01*
X161147361Y-138266253D01*
X161246008Y-138109258D01*
X161307246Y-137934249D01*
X161328006Y-137750000D01*
X161307246Y-137565751D01*
X161246008Y-137390742D01*
X161147361Y-137233747D01*
X161016253Y-137102639D01*
X160918934Y-137041489D01*
X160897233Y-137010903D01*
X160903515Y-136973930D01*
X160918931Y-136958513D01*
X161016253Y-136897362D01*
X161147361Y-136766254D01*
X161246008Y-136609259D01*
X161307246Y-136434250D01*
X161328006Y-136250001D01*
X161307246Y-136065752D01*
X161246008Y-135890743D01*
X161147361Y-135733748D01*
X161016253Y-135602640D01*
X161016251Y-135602638D01*
X160918932Y-135541489D01*
X160897231Y-135510903D01*
X160903513Y-135473930D01*
X160918932Y-135458511D01*
X161016251Y-135397361D01*
X161016250Y-135397361D01*
X161016253Y-135397360D01*
X161147361Y-135266252D01*
X161246008Y-135109257D01*
X161307246Y-134934248D01*
X161328006Y-134749999D01*
X161307246Y-134565750D01*
X161246008Y-134390741D01*
X161147361Y-134233746D01*
X161016253Y-134102638D01*
X161011792Y-134099835D01*
X160974735Y-134076550D01*
X160966157Y-134069709D01*
X160514747Y-133618299D01*
X160530521Y-133618299D01*
X160621241Y-133603161D01*
X160729343Y-133544659D01*
X160812592Y-133454226D01*
X160861967Y-133341662D01*
X160868337Y-133264783D01*
X161453387Y-133849833D01*
X161458284Y-133843348D01*
X161458288Y-133843342D01*
X161550994Y-133657163D01*
X161550997Y-133657155D01*
X161607916Y-133457107D01*
X161607917Y-133457101D01*
X161627107Y-133249999D01*
X161607917Y-133042896D01*
X161607916Y-133042890D01*
X161550997Y-132842842D01*
X161550994Y-132842835D01*
X161458287Y-132656655D01*
X161458285Y-132656651D01*
X161453386Y-132650163D01*
X160871009Y-133232541D01*
X160872118Y-133219164D01*
X160841943Y-133100009D01*
X160774714Y-132997107D01*
X160677715Y-132921610D01*
X160561458Y-132881699D01*
X160514748Y-132881699D01*
X160966153Y-132430291D01*
X160974723Y-132423456D01*
X161016253Y-132397361D01*
X161147361Y-132266253D01*
X161246008Y-132109258D01*
X161307246Y-131934249D01*
X161328006Y-131750000D01*
X161307246Y-131565751D01*
X161246008Y-131390742D01*
X161147361Y-131233747D01*
X161016253Y-131102639D01*
X160859258Y-131003992D01*
X160684249Y-130942754D01*
X160684245Y-130942753D01*
X160684243Y-130942753D01*
X160500000Y-130921994D01*
X160315756Y-130942753D01*
X160315747Y-130942755D01*
X160140742Y-131003992D01*
X160140740Y-131003993D01*
X159983749Y-131102637D01*
X159983745Y-131102640D01*
X159852640Y-131233745D01*
X159852637Y-131233749D01*
X159753993Y-131390740D01*
X159753992Y-131390742D01*
X159692755Y-131565747D01*
X159692753Y-131565756D01*
X159671994Y-131750000D01*
X159679402Y-131815752D01*
X159692754Y-131934249D01*
X159753992Y-132109258D01*
X159852639Y-132266253D01*
X159983747Y-132397361D01*
X160025266Y-132423449D01*
X160033844Y-132430290D01*
X160485253Y-132881699D01*
X160469479Y-132881699D01*
X160378759Y-132896837D01*
X160270657Y-132955339D01*
X160187408Y-133045772D01*
X160138033Y-133158336D01*
X160131662Y-133235214D01*
X159546612Y-132650164D01*
X159541714Y-132656651D01*
X159541709Y-132656659D01*
X159449005Y-132842834D01*
X159449002Y-132842842D01*
X159392083Y-133042890D01*
X159392082Y-133042895D01*
X159389937Y-133066045D01*
X159372448Y-133099221D01*
X159336624Y-133110314D01*
X159306498Y-133096171D01*
X157689852Y-131479525D01*
X157675500Y-131444877D01*
X157675500Y-127500000D01*
X158644341Y-127500000D01*
X158664937Y-127735410D01*
X158664938Y-127735416D01*
X158726094Y-127963655D01*
X158726095Y-127963660D01*
X158825963Y-128177827D01*
X158825971Y-128177839D01*
X158961500Y-128371395D01*
X158961506Y-128371402D01*
X159128597Y-128538493D01*
X159128604Y-128538499D01*
X159322160Y-128674028D01*
X159322172Y-128674036D01*
X159536339Y-128773904D01*
X159536344Y-128773905D01*
X159764583Y-128835061D01*
X159764587Y-128835061D01*
X159764592Y-128835063D01*
X159884250Y-128845531D01*
X159941030Y-128850500D01*
X159941034Y-128850500D01*
X160058970Y-128850500D01*
X160111521Y-128845901D01*
X160235408Y-128835063D01*
X160235414Y-128835061D01*
X160235416Y-128835061D01*
X160349535Y-128804483D01*
X160463657Y-128773904D01*
X160463660Y-128773904D01*
X160463660Y-128773903D01*
X160463663Y-128773903D01*
X160677829Y-128674035D01*
X160871401Y-128538495D01*
X161038495Y-128371401D01*
X161120706Y-128253992D01*
X161174029Y-128177840D01*
X161174036Y-128177828D01*
X161223029Y-128072762D01*
X161273903Y-127963663D01*
X161335063Y-127735408D01*
X161355659Y-127500000D01*
X161335063Y-127264592D01*
X161328252Y-127239174D01*
X161273905Y-127036344D01*
X161273904Y-127036339D01*
X161174036Y-126822172D01*
X161174028Y-126822160D01*
X161038499Y-126628604D01*
X161038493Y-126628597D01*
X160871402Y-126461506D01*
X160871395Y-126461500D01*
X160677839Y-126325971D01*
X160677827Y-126325963D01*
X160463660Y-126226095D01*
X160463655Y-126226094D01*
X160235416Y-126164938D01*
X160235410Y-126164937D01*
X160058970Y-126149500D01*
X160058966Y-126149500D01*
X159941034Y-126149500D01*
X159941030Y-126149500D01*
X159764589Y-126164937D01*
X159764583Y-126164938D01*
X159536344Y-126226094D01*
X159536339Y-126226095D01*
X159322172Y-126325963D01*
X159322160Y-126325971D01*
X159128604Y-126461500D01*
X159128597Y-126461506D01*
X158961506Y-126628597D01*
X158961500Y-126628604D01*
X158825970Y-126822159D01*
X158825963Y-126822171D01*
X158726095Y-127036339D01*
X158726094Y-127036344D01*
X158664938Y-127264583D01*
X158664937Y-127264589D01*
X158644341Y-127500000D01*
X157675500Y-127500000D01*
X157675500Y-124754500D01*
X157689852Y-124719852D01*
X157724500Y-124705500D01*
X158700997Y-124705500D01*
X158701000Y-124705500D01*
X158779643Y-124689857D01*
X158814291Y-124675505D01*
X158872581Y-124638879D01*
X158872581Y-124638877D01*
X158872583Y-124638877D01*
X158907239Y-124590034D01*
X158925505Y-124564291D01*
X158939857Y-124529643D01*
X158955500Y-124451000D01*
X158955500Y-120020296D01*
X158939857Y-119941653D01*
X158925505Y-119907005D01*
X158880958Y-119840338D01*
X157904458Y-118863838D01*
X157837791Y-118819291D01*
X157837787Y-118819289D01*
X157837785Y-118819288D01*
X157803149Y-118804941D01*
X157803146Y-118804940D01*
X157803143Y-118804939D01*
X157736021Y-118789619D01*
X157736019Y-118789619D01*
X157736018Y-118789619D01*
X157732706Y-118790182D01*
X157696144Y-118781835D01*
X157676192Y-118750080D01*
X157675500Y-118741874D01*
X157675500Y-99919467D01*
X157675593Y-99917331D01*
X157676055Y-99912039D01*
X157679263Y-99875383D01*
X157668361Y-99834700D01*
X157667902Y-99832627D01*
X157660588Y-99791145D01*
X157656541Y-99784135D01*
X157651646Y-99772318D01*
X157649553Y-99764506D01*
X157625397Y-99730007D01*
X157624248Y-99728203D01*
X157603194Y-99691735D01*
X157570929Y-99664661D01*
X157569355Y-99663218D01*
X156561778Y-98655642D01*
X156560333Y-98654065D01*
X156549129Y-98640712D01*
X156533265Y-98621806D01*
X156533264Y-98621805D01*
X156533263Y-98621804D01*
X156503268Y-98604487D01*
X156496784Y-98600743D01*
X156494992Y-98599601D01*
X156477178Y-98587128D01*
X156460494Y-98575446D01*
X156460493Y-98575445D01*
X156460492Y-98575445D01*
X156452677Y-98573351D01*
X156440858Y-98568455D01*
X156433856Y-98564412D01*
X156433854Y-98564411D01*
X156392390Y-98557100D01*
X156390303Y-98556637D01*
X156363318Y-98549407D01*
X156349617Y-98545736D01*
X156349616Y-98545736D01*
X156307656Y-98549407D01*
X156305520Y-98549500D01*
X155540282Y-98549500D01*
X155538146Y-98549407D01*
X155509893Y-98546935D01*
X155496193Y-98545737D01*
X155496192Y-98545737D01*
X155496191Y-98545737D01*
X155455505Y-98556638D01*
X155453430Y-98557098D01*
X155411961Y-98564411D01*
X155411955Y-98564412D01*
X155411950Y-98564414D01*
X155404945Y-98568458D01*
X155393132Y-98573351D01*
X155385317Y-98575444D01*
X155385317Y-98575445D01*
X155350826Y-98599595D01*
X155349024Y-98600743D01*
X155312544Y-98621806D01*
X155285467Y-98654074D01*
X155284023Y-98655650D01*
X154948832Y-98990840D01*
X154920580Y-99004773D01*
X154843238Y-99014955D01*
X154697163Y-99075461D01*
X154697158Y-99075464D01*
X154571718Y-99171717D01*
X154571717Y-99171718D01*
X154475464Y-99297158D01*
X154475461Y-99297163D01*
X154414955Y-99443238D01*
X154394318Y-99600000D01*
X154414955Y-99756761D01*
X154475461Y-99902836D01*
X154475464Y-99902841D01*
X154571717Y-100028281D01*
X154571718Y-100028282D01*
X154614507Y-100061115D01*
X154633259Y-100093593D01*
X154623552Y-100129818D01*
X154614508Y-100138863D01*
X154572338Y-100171221D01*
X154476086Y-100296660D01*
X154476083Y-100296665D01*
X154415577Y-100442740D01*
X154394940Y-100599502D01*
X154415577Y-100756263D01*
X154476083Y-100902338D01*
X154476086Y-100902343D01*
X154572340Y-101027784D01*
X154697781Y-101124038D01*
X154697783Y-101124038D01*
X154697785Y-101124040D01*
X154843860Y-101184546D01*
X154948351Y-101198302D01*
X154976604Y-101212235D01*
X155660148Y-101895779D01*
X155674500Y-101930427D01*
X155674500Y-110995500D01*
X155660148Y-111030148D01*
X155625500Y-111044500D01*
X155317000Y-111044500D01*
X155282352Y-111030148D01*
X155268000Y-110995500D01*
X155268000Y-109783828D01*
X155270128Y-109721536D01*
X155270127Y-109721534D01*
X155270128Y-109721529D01*
X155269391Y-109718508D01*
X155268000Y-109706912D01*
X155268000Y-106758828D01*
X155270128Y-106696534D01*
X155270127Y-106696533D01*
X155270128Y-106696529D01*
X155259855Y-106654379D01*
X155259390Y-106651930D01*
X155253481Y-106608931D01*
X155244440Y-106588119D01*
X155241782Y-106580214D01*
X155236414Y-106558183D01*
X155228218Y-106543607D01*
X155215150Y-106520363D01*
X155214034Y-106518116D01*
X155196750Y-106478326D01*
X155196750Y-106478325D01*
X155182440Y-106460735D01*
X155177740Y-106453829D01*
X155166627Y-106434064D01*
X155166624Y-106434061D01*
X155135938Y-106403375D01*
X155134266Y-106401522D01*
X155106888Y-106367869D01*
X155106887Y-106367868D01*
X155088360Y-106354790D01*
X155081970Y-106349407D01*
X153847711Y-105115149D01*
X153836678Y-105096037D01*
X153836273Y-105096205D01*
X153774538Y-104947163D01*
X153774535Y-104947158D01*
X153678283Y-104821719D01*
X153678280Y-104821717D01*
X153594669Y-104757559D01*
X153575919Y-104725081D01*
X153575500Y-104718686D01*
X153575500Y-96055000D01*
X163694417Y-96055000D01*
X163714700Y-96260934D01*
X163774768Y-96458954D01*
X163872315Y-96641450D01*
X164003590Y-96801410D01*
X164163550Y-96932685D01*
X164346046Y-97030232D01*
X164544066Y-97090300D01*
X164750000Y-97110583D01*
X164955934Y-97090300D01*
X165153954Y-97030232D01*
X165336450Y-96932685D01*
X165496410Y-96801410D01*
X165627685Y-96641450D01*
X165725232Y-96458954D01*
X165785300Y-96260934D01*
X165805583Y-96055000D01*
X166234417Y-96055000D01*
X166254700Y-96260934D01*
X166314768Y-96458954D01*
X166412315Y-96641450D01*
X166543590Y-96801410D01*
X166703550Y-96932685D01*
X166886046Y-97030232D01*
X167084066Y-97090300D01*
X167290000Y-97110583D01*
X167495934Y-97090300D01*
X167693954Y-97030232D01*
X167876450Y-96932685D01*
X168036410Y-96801410D01*
X168167685Y-96641450D01*
X168265232Y-96458954D01*
X168325300Y-96260934D01*
X168345583Y-96055000D01*
X168325300Y-95849066D01*
X168265232Y-95651046D01*
X168167685Y-95468550D01*
X168036410Y-95308590D01*
X167876450Y-95177315D01*
X167693954Y-95079768D01*
X167495934Y-95019700D01*
X167290000Y-94999417D01*
X167084065Y-95019700D01*
X167084064Y-95019700D01*
X166886043Y-95079769D01*
X166703548Y-95177316D01*
X166543590Y-95308590D01*
X166412316Y-95468548D01*
X166314769Y-95651043D01*
X166254700Y-95849064D01*
X166254700Y-95849065D01*
X166246717Y-95930122D01*
X166234417Y-96055000D01*
X165805583Y-96055000D01*
X165785300Y-95849066D01*
X165725232Y-95651046D01*
X165627685Y-95468550D01*
X165496410Y-95308590D01*
X165336450Y-95177315D01*
X165153954Y-95079768D01*
X164955934Y-95019700D01*
X164750000Y-94999417D01*
X164544065Y-95019700D01*
X164544064Y-95019700D01*
X164346043Y-95079769D01*
X164163548Y-95177316D01*
X164003590Y-95308590D01*
X163872316Y-95468548D01*
X163774769Y-95651043D01*
X163714700Y-95849064D01*
X163714700Y-95849065D01*
X163706717Y-95930122D01*
X163694417Y-96055000D01*
X153575500Y-96055000D01*
X153575500Y-94917621D01*
X153589851Y-94882974D01*
X153735717Y-94737107D01*
X153770364Y-94722756D01*
X153776759Y-94723174D01*
X153881250Y-94736932D01*
X154038012Y-94716294D01*
X154184091Y-94655786D01*
X154309532Y-94559532D01*
X154405786Y-94434091D01*
X154466294Y-94288012D01*
X154486932Y-94131250D01*
X154466294Y-93974488D01*
X154443291Y-93918954D01*
X154405788Y-93828413D01*
X154405785Y-93828408D01*
X154345740Y-93750156D01*
X154309532Y-93702968D01*
X154277360Y-93678282D01*
X154184091Y-93606714D01*
X154184086Y-93606711D01*
X154038011Y-93546205D01*
X153881250Y-93525568D01*
X153724488Y-93546205D01*
X153578413Y-93606711D01*
X153578408Y-93606714D01*
X153452968Y-93702967D01*
X153452967Y-93702968D01*
X153356714Y-93828408D01*
X153356711Y-93828413D01*
X153296205Y-93974488D01*
X153275568Y-94131249D01*
X153289324Y-94235737D01*
X153279617Y-94271962D01*
X153275391Y-94276781D01*
X153030648Y-94521525D01*
X153029072Y-94522969D01*
X152996806Y-94550044D01*
X152975743Y-94586524D01*
X152974595Y-94588326D01*
X152950445Y-94622817D01*
X152950444Y-94622817D01*
X152948351Y-94630632D01*
X152943458Y-94642445D01*
X152939414Y-94649450D01*
X152939410Y-94649460D01*
X152932102Y-94690910D01*
X152931639Y-94692997D01*
X152920736Y-94733691D01*
X152920736Y-94733692D01*
X152924407Y-94775652D01*
X152924500Y-94777788D01*
X152924500Y-104718686D01*
X152910148Y-104753334D01*
X152905330Y-104757560D01*
X152821716Y-104821719D01*
X152725464Y-104947158D01*
X152725461Y-104947163D01*
X152664955Y-105093238D01*
X152644318Y-105250000D01*
X152664955Y-105406761D01*
X152725461Y-105552836D01*
X152725464Y-105552841D01*
X152821715Y-105678279D01*
X152821718Y-105678282D01*
X152947159Y-105774536D01*
X152947161Y-105774536D01*
X152947163Y-105774538D01*
X153096205Y-105836273D01*
X153096037Y-105836678D01*
X153115149Y-105847711D01*
X154217648Y-106950210D01*
X154232000Y-106984858D01*
X154232000Y-108953291D01*
X154217648Y-108987939D01*
X154201754Y-108998560D01*
X154197163Y-109000461D01*
X154197158Y-109000464D01*
X154071718Y-109096717D01*
X154071717Y-109096718D01*
X153975464Y-109222158D01*
X153975461Y-109222163D01*
X153914955Y-109368238D01*
X153894318Y-109525000D01*
X153914955Y-109681761D01*
X153975461Y-109827836D01*
X153975464Y-109827841D01*
X154071718Y-109953282D01*
X154197159Y-110049536D01*
X154201747Y-110051436D01*
X154228268Y-110077950D01*
X154232000Y-110096707D01*
X154232000Y-110995500D01*
X154217648Y-111030148D01*
X154183000Y-111044500D01*
X153520296Y-111044500D01*
X153481155Y-111052285D01*
X153441655Y-111060142D01*
X153441645Y-111060145D01*
X153407010Y-111074492D01*
X153407006Y-111074494D01*
X153407005Y-111074495D01*
X153341223Y-111118450D01*
X153340335Y-111119044D01*
X153179232Y-111280148D01*
X153144584Y-111294500D01*
X152124500Y-111294500D01*
X152089852Y-111280148D01*
X152075500Y-111245500D01*
X152075500Y-98265288D01*
X152075593Y-98263152D01*
X152076053Y-98257884D01*
X152079264Y-98221193D01*
X152068362Y-98180508D01*
X152067900Y-98178424D01*
X152067017Y-98173419D01*
X152060588Y-98136955D01*
X152056539Y-98129943D01*
X152051646Y-98118126D01*
X152049554Y-98110317D01*
X152049554Y-98110316D01*
X152025390Y-98075806D01*
X152024258Y-98074029D01*
X152003194Y-98037545D01*
X151970923Y-98010466D01*
X151969349Y-98009023D01*
X150605858Y-96645532D01*
X150591506Y-96610884D01*
X150591925Y-96604488D01*
X150605682Y-96500000D01*
X150585044Y-96343238D01*
X150542685Y-96240975D01*
X150524538Y-96197163D01*
X150524535Y-96197158D01*
X150508288Y-96175985D01*
X150428282Y-96071718D01*
X150426727Y-96070525D01*
X150302841Y-95975464D01*
X150302836Y-95975461D01*
X150156761Y-95914955D01*
X150000000Y-95894318D01*
X149843238Y-95914955D01*
X149697163Y-95975461D01*
X149697158Y-95975464D01*
X149571718Y-96071717D01*
X149571717Y-96071718D01*
X149475464Y-96197158D01*
X149475461Y-96197163D01*
X149414955Y-96343238D01*
X149394318Y-96500000D01*
X149414955Y-96656761D01*
X149475461Y-96802836D01*
X149475464Y-96802841D01*
X149571718Y-96928282D01*
X149697159Y-97024536D01*
X149697161Y-97024536D01*
X149697163Y-97024538D01*
X149710910Y-97030232D01*
X149843238Y-97085044D01*
X150000000Y-97105682D01*
X150104488Y-97091925D01*
X150140713Y-97101631D01*
X150145532Y-97105858D01*
X151410148Y-98370474D01*
X151424500Y-98405122D01*
X151424500Y-111245500D01*
X151410148Y-111280148D01*
X151375500Y-111294500D01*
X151099500Y-111294500D01*
X151064852Y-111280148D01*
X151050500Y-111245500D01*
X151050500Y-99240288D01*
X151050593Y-99238152D01*
X151051053Y-99232884D01*
X151054264Y-99196193D01*
X151043362Y-99155508D01*
X151042900Y-99153424D01*
X151042017Y-99148419D01*
X151035588Y-99111955D01*
X151031539Y-99104943D01*
X151026646Y-99093126D01*
X151026324Y-99091925D01*
X151024554Y-99085316D01*
X151000390Y-99050806D01*
X150999255Y-99049024D01*
X150985117Y-99024536D01*
X150978195Y-99012546D01*
X150963361Y-99000099D01*
X150945923Y-98985466D01*
X150944349Y-98984023D01*
X150605858Y-98645532D01*
X150591506Y-98610884D01*
X150591925Y-98604488D01*
X150592488Y-98600212D01*
X150605682Y-98500000D01*
X150585044Y-98343238D01*
X150551871Y-98263152D01*
X150524538Y-98197163D01*
X150524535Y-98197158D01*
X150428282Y-98071718D01*
X150428281Y-98071717D01*
X150302841Y-97975464D01*
X150302836Y-97975461D01*
X150156761Y-97914955D01*
X150000000Y-97894318D01*
X149843238Y-97914955D01*
X149697163Y-97975461D01*
X149697158Y-97975464D01*
X149571718Y-98071717D01*
X149571717Y-98071718D01*
X149475464Y-98197158D01*
X149475461Y-98197163D01*
X149414955Y-98343238D01*
X149394318Y-98500000D01*
X149414955Y-98656761D01*
X149475461Y-98802836D01*
X149475464Y-98802841D01*
X149571718Y-98928282D01*
X149697159Y-99024536D01*
X149697161Y-99024536D01*
X149697163Y-99024538D01*
X149820110Y-99075464D01*
X149843238Y-99085044D01*
X150000000Y-99105682D01*
X150104488Y-99091925D01*
X150140713Y-99101631D01*
X150145532Y-99105858D01*
X150385148Y-99345474D01*
X150399500Y-99380122D01*
X150399500Y-111245500D01*
X150385148Y-111280148D01*
X150350500Y-111294500D01*
X149215018Y-111294500D01*
X149175877Y-111302285D01*
X149136377Y-111310142D01*
X149136367Y-111310145D01*
X149101734Y-111324491D01*
X149101728Y-111324494D01*
X149101727Y-111324495D01*
X149043437Y-111361121D01*
X149041488Y-111363866D01*
X149009734Y-111383818D01*
X148973172Y-111375472D01*
X148966880Y-111370158D01*
X143614852Y-106018130D01*
X143600500Y-105983482D01*
X143600500Y-99380121D01*
X143614851Y-99345474D01*
X143854467Y-99105857D01*
X143889114Y-99091506D01*
X143895509Y-99091924D01*
X144000000Y-99105682D01*
X144156762Y-99085044D01*
X144302841Y-99024536D01*
X144428282Y-98928282D01*
X144524536Y-98802841D01*
X144585044Y-98656762D01*
X144605682Y-98500000D01*
X144585044Y-98343238D01*
X144551871Y-98263152D01*
X144524538Y-98197163D01*
X144524535Y-98197158D01*
X144428282Y-98071718D01*
X144428281Y-98071717D01*
X144302841Y-97975464D01*
X144302836Y-97975461D01*
X144156761Y-97914955D01*
X144020637Y-97897034D01*
X144000000Y-97894318D01*
X143999999Y-97894318D01*
X143895511Y-97908074D01*
X143859286Y-97898367D01*
X143854467Y-97894141D01*
X141839852Y-95879526D01*
X141825500Y-95844878D01*
X141825500Y-93781312D01*
X141839852Y-93746664D01*
X141844655Y-93742450D01*
X141928282Y-93678282D01*
X142024536Y-93552841D01*
X142085044Y-93406762D01*
X142105682Y-93250000D01*
X142096627Y-93181224D01*
X142106333Y-93145001D01*
X142138812Y-93126249D01*
X142175037Y-93135955D01*
X142179856Y-93140182D01*
X142660148Y-93620474D01*
X142674500Y-93655122D01*
X142674500Y-95484710D01*
X142674407Y-95486846D01*
X142670736Y-95528807D01*
X142681637Y-95569493D01*
X142682100Y-95571580D01*
X142689411Y-95613044D01*
X142689412Y-95613046D01*
X142693455Y-95620048D01*
X142698351Y-95631867D01*
X142700445Y-95639682D01*
X142700444Y-95639682D01*
X142724601Y-95674182D01*
X142725750Y-95675985D01*
X142746804Y-95712453D01*
X142746806Y-95712455D01*
X142779072Y-95739530D01*
X142780649Y-95740975D01*
X143394141Y-96354467D01*
X143408493Y-96389115D01*
X143408074Y-96395511D01*
X143394318Y-96499999D01*
X143414955Y-96656761D01*
X143475461Y-96802836D01*
X143475464Y-96802841D01*
X143571718Y-96928282D01*
X143697159Y-97024536D01*
X143697161Y-97024536D01*
X143697163Y-97024538D01*
X143710910Y-97030232D01*
X143843238Y-97085044D01*
X144000000Y-97105682D01*
X144156762Y-97085044D01*
X144302841Y-97024536D01*
X144428282Y-96928282D01*
X144524536Y-96802841D01*
X144585044Y-96656762D01*
X144605682Y-96500000D01*
X144585044Y-96343238D01*
X144542685Y-96240975D01*
X144524538Y-96197163D01*
X144524535Y-96197158D01*
X144508288Y-96175985D01*
X144428282Y-96071718D01*
X144426727Y-96070525D01*
X144302841Y-95975464D01*
X144302836Y-95975461D01*
X144156761Y-95914955D01*
X144020637Y-95897034D01*
X144000000Y-95894318D01*
X143999999Y-95894318D01*
X143895511Y-95908074D01*
X143859286Y-95898367D01*
X143854467Y-95894141D01*
X143339852Y-95379526D01*
X143325500Y-95344878D01*
X143325500Y-93515280D01*
X143325512Y-93515000D01*
X163694417Y-93515000D01*
X163714700Y-93720934D01*
X163714700Y-93720935D01*
X163731075Y-93774916D01*
X163774768Y-93918954D01*
X163872315Y-94101450D01*
X164003590Y-94261410D01*
X164163550Y-94392685D01*
X164346046Y-94490232D01*
X164544066Y-94550300D01*
X164750000Y-94570583D01*
X164955934Y-94550300D01*
X165153954Y-94490232D01*
X165336450Y-94392685D01*
X165496410Y-94261410D01*
X165627685Y-94101450D01*
X165725232Y-93918954D01*
X165785300Y-93720934D01*
X165805583Y-93515000D01*
X166234417Y-93515000D01*
X166254700Y-93720934D01*
X166254700Y-93720935D01*
X166271075Y-93774916D01*
X166314768Y-93918954D01*
X166412315Y-94101450D01*
X166543590Y-94261410D01*
X166703550Y-94392685D01*
X166886046Y-94490232D01*
X167084066Y-94550300D01*
X167290000Y-94570583D01*
X167495934Y-94550300D01*
X167693954Y-94490232D01*
X167876450Y-94392685D01*
X168036410Y-94261410D01*
X168167685Y-94101450D01*
X168265232Y-93918954D01*
X168325300Y-93720934D01*
X168345583Y-93515000D01*
X168325300Y-93309066D01*
X168265232Y-93111046D01*
X168167685Y-92928550D01*
X168036410Y-92768590D01*
X167876450Y-92637315D01*
X167693954Y-92539768D01*
X167495934Y-92479700D01*
X167290000Y-92459417D01*
X167084065Y-92479700D01*
X167084064Y-92479700D01*
X166886043Y-92539769D01*
X166703548Y-92637316D01*
X166543590Y-92768590D01*
X166412316Y-92928548D01*
X166314769Y-93111043D01*
X166254700Y-93309064D01*
X166254700Y-93309065D01*
X166234417Y-93514999D01*
X166234417Y-93515000D01*
X165805583Y-93515000D01*
X165785300Y-93309066D01*
X165725232Y-93111046D01*
X165627685Y-92928550D01*
X165496410Y-92768590D01*
X165336450Y-92637315D01*
X165153954Y-92539768D01*
X164955934Y-92479700D01*
X164750000Y-92459417D01*
X164544065Y-92479700D01*
X164544064Y-92479700D01*
X164346043Y-92539769D01*
X164163548Y-92637316D01*
X164003590Y-92768590D01*
X163872316Y-92928548D01*
X163774769Y-93111043D01*
X163714700Y-93309064D01*
X163714700Y-93309065D01*
X163694417Y-93514999D01*
X163694417Y-93515000D01*
X143325512Y-93515000D01*
X143325593Y-93513144D01*
X143325856Y-93510136D01*
X143329263Y-93471193D01*
X143318359Y-93430501D01*
X143317901Y-93428434D01*
X143310588Y-93386955D01*
X143306539Y-93379943D01*
X143301646Y-93368126D01*
X143299554Y-93360317D01*
X143299551Y-93360311D01*
X143275395Y-93325813D01*
X143274255Y-93324025D01*
X143253194Y-93287545D01*
X143220929Y-93260471D01*
X143219355Y-93259028D01*
X142265968Y-92305642D01*
X142264523Y-92304065D01*
X142239747Y-92274538D01*
X142237455Y-92271806D01*
X142237454Y-92271805D01*
X142237453Y-92271804D01*
X142214085Y-92258313D01*
X142200974Y-92250743D01*
X142199182Y-92249601D01*
X142181368Y-92237128D01*
X142164684Y-92225446D01*
X142164683Y-92225445D01*
X142164682Y-92225445D01*
X142156867Y-92223351D01*
X142145048Y-92218455D01*
X142138046Y-92214412D01*
X142138044Y-92214411D01*
X142096580Y-92207100D01*
X142094493Y-92206637D01*
X142067508Y-92199407D01*
X142053807Y-92195736D01*
X142053806Y-92195736D01*
X142011846Y-92199407D01*
X142009710Y-92199500D01*
X130990290Y-92199500D01*
X130988154Y-92199407D01*
X130956808Y-92196664D01*
X130946193Y-92195736D01*
X130946192Y-92195736D01*
X130946191Y-92195736D01*
X130905497Y-92206639D01*
X130903418Y-92207100D01*
X130893120Y-92208916D01*
X130861960Y-92214410D01*
X130861950Y-92214414D01*
X130854945Y-92218458D01*
X130843132Y-92223351D01*
X130835317Y-92225444D01*
X130835317Y-92225445D01*
X130800826Y-92249595D01*
X130799024Y-92250743D01*
X130762544Y-92271806D01*
X130735467Y-92304074D01*
X130734023Y-92305650D01*
X127604526Y-95435148D01*
X127569878Y-95449500D01*
X126130252Y-95449500D01*
X126071769Y-95461133D01*
X126005447Y-95505447D01*
X125962654Y-95569493D01*
X125961133Y-95571769D01*
X125949500Y-95630252D01*
X125949500Y-97369748D01*
X124000500Y-97369748D01*
X124000499Y-94210000D01*
X125669363Y-94210000D01*
X125726566Y-94423483D01*
X125726568Y-94423488D01*
X125826398Y-94637577D01*
X125826405Y-94637589D01*
X125961885Y-94831072D01*
X125961891Y-94831079D01*
X126128920Y-94998108D01*
X126128927Y-94998114D01*
X126322410Y-95133594D01*
X126322422Y-95133601D01*
X126536511Y-95233431D01*
X126536516Y-95233433D01*
X126750000Y-95290634D01*
X126750000Y-94395501D01*
X126857685Y-94444680D01*
X126964237Y-94460000D01*
X127035763Y-94460000D01*
X127142315Y-94444680D01*
X127250000Y-94395501D01*
X127250000Y-95290634D01*
X127463483Y-95233433D01*
X127463488Y-95233431D01*
X127677577Y-95133601D01*
X127677589Y-95133594D01*
X127871072Y-94998114D01*
X127871079Y-94998108D01*
X128038108Y-94831079D01*
X128038114Y-94831072D01*
X128173594Y-94637589D01*
X128173601Y-94637577D01*
X128273431Y-94423488D01*
X128273433Y-94423483D01*
X128330636Y-94210000D01*
X127433686Y-94210000D01*
X127459493Y-94169844D01*
X127500000Y-94031889D01*
X127500000Y-93888111D01*
X127459493Y-93750156D01*
X127433686Y-93710000D01*
X128330636Y-93710000D01*
X128330636Y-93709999D01*
X128273433Y-93496516D01*
X128273432Y-93496511D01*
X128173601Y-93282423D01*
X128173594Y-93282411D01*
X128038114Y-93088927D01*
X128038108Y-93088920D01*
X127871079Y-92921891D01*
X127871072Y-92921885D01*
X127677589Y-92786405D01*
X127677577Y-92786398D01*
X127463488Y-92686568D01*
X127463483Y-92686566D01*
X127250000Y-92629363D01*
X127250000Y-93524498D01*
X127142315Y-93475320D01*
X127035763Y-93460000D01*
X126964237Y-93460000D01*
X126857685Y-93475320D01*
X126750000Y-93524498D01*
X126750000Y-92629363D01*
X126749999Y-92629363D01*
X126536516Y-92686566D01*
X126536511Y-92686567D01*
X126322423Y-92786398D01*
X126322411Y-92786405D01*
X126128927Y-92921885D01*
X126128920Y-92921891D01*
X125961891Y-93088920D01*
X125961885Y-93088927D01*
X125826405Y-93282411D01*
X125826398Y-93282423D01*
X125726567Y-93496511D01*
X125726566Y-93496516D01*
X125669363Y-93709999D01*
X125669364Y-93710000D01*
X126566314Y-93710000D01*
X126540507Y-93750156D01*
X126500000Y-93888111D01*
X126500000Y-94031889D01*
X126540507Y-94169844D01*
X126566314Y-94210000D01*
X125669363Y-94210000D01*
X124000499Y-94210000D01*
X124000498Y-91999997D01*
X124000501Y-91999901D01*
X124009426Y-91750000D01*
X142370818Y-91750000D01*
X142391455Y-91906761D01*
X142451961Y-92052836D01*
X142451964Y-92052841D01*
X142548218Y-92178282D01*
X142673659Y-92274536D01*
X142673661Y-92274536D01*
X142673663Y-92274538D01*
X142819738Y-92335044D01*
X142976500Y-92355682D01*
X143133262Y-92335044D01*
X143279341Y-92274536D01*
X143404782Y-92178282D01*
X143468939Y-92094671D01*
X143501417Y-92075919D01*
X143507813Y-92075500D01*
X145218687Y-92075500D01*
X145253335Y-92089852D01*
X145257561Y-92094671D01*
X145321718Y-92178282D01*
X145447159Y-92274536D01*
X145447161Y-92274536D01*
X145447163Y-92274538D01*
X145593238Y-92335044D01*
X145750000Y-92355682D01*
X145906762Y-92335044D01*
X146052841Y-92274536D01*
X146178282Y-92178282D01*
X146274536Y-92052841D01*
X146335044Y-91906762D01*
X146355682Y-91750000D01*
X146335044Y-91593238D01*
X146321877Y-91561450D01*
X146274538Y-91447163D01*
X146274535Y-91447158D01*
X146256827Y-91424081D01*
X146178282Y-91321718D01*
X146052841Y-91225464D01*
X146052836Y-91225461D01*
X145906761Y-91164955D01*
X145750000Y-91144318D01*
X145593238Y-91164955D01*
X145447163Y-91225461D01*
X145447158Y-91225464D01*
X145321718Y-91321717D01*
X145321717Y-91321718D01*
X145257561Y-91405329D01*
X145225083Y-91424081D01*
X145218687Y-91424500D01*
X143507813Y-91424500D01*
X143473165Y-91410148D01*
X143468939Y-91405329D01*
X143404782Y-91321718D01*
X143404781Y-91321717D01*
X143279341Y-91225464D01*
X143279336Y-91225461D01*
X143133261Y-91164955D01*
X142976500Y-91144318D01*
X142819738Y-91164955D01*
X142673663Y-91225461D01*
X142673658Y-91225464D01*
X142548218Y-91321717D01*
X142548217Y-91321718D01*
X142451964Y-91447158D01*
X142451961Y-91447163D01*
X142391455Y-91593238D01*
X142370818Y-91750000D01*
X124009426Y-91750000D01*
X124010995Y-91706080D01*
X124018838Y-91496476D01*
X124018956Y-91494852D01*
X124048321Y-91221717D01*
X124074652Y-90988025D01*
X124074874Y-90986509D01*
X124076950Y-90975000D01*
X163694417Y-90975000D01*
X163714700Y-91180934D01*
X163774768Y-91378954D01*
X163872315Y-91561450D01*
X164003590Y-91721410D01*
X164163550Y-91852685D01*
X164346046Y-91950232D01*
X164544066Y-92010300D01*
X164750000Y-92030583D01*
X164955934Y-92010300D01*
X165153954Y-91950232D01*
X165336450Y-91852685D01*
X165346121Y-91844748D01*
X166239500Y-91844748D01*
X166251133Y-91903231D01*
X166268882Y-91929795D01*
X166295447Y-91969552D01*
X166322012Y-91987301D01*
X166361769Y-92013867D01*
X166420252Y-92025500D01*
X166420255Y-92025500D01*
X168159745Y-92025500D01*
X168159748Y-92025500D01*
X168218231Y-92013867D01*
X168284552Y-91969552D01*
X168328867Y-91903231D01*
X168340500Y-91844748D01*
X168340500Y-90105252D01*
X168328867Y-90046769D01*
X168297462Y-89999769D01*
X168284552Y-89980447D01*
X168223569Y-89939700D01*
X168218231Y-89936133D01*
X168159748Y-89924500D01*
X166420252Y-89924500D01*
X166361769Y-89936133D01*
X166295447Y-89980447D01*
X166251133Y-90046769D01*
X166239500Y-90105252D01*
X166239500Y-91844748D01*
X165346121Y-91844748D01*
X165496410Y-91721410D01*
X165627685Y-91561450D01*
X165725232Y-91378954D01*
X165785300Y-91180934D01*
X165805583Y-90975000D01*
X165785300Y-90769066D01*
X165725232Y-90571046D01*
X165627685Y-90388550D01*
X165496410Y-90228590D01*
X165336450Y-90097315D01*
X165153954Y-89999768D01*
X164955934Y-89939700D01*
X164750000Y-89919417D01*
X164544065Y-89939700D01*
X164544064Y-89939700D01*
X164346043Y-89999769D01*
X164163548Y-90097316D01*
X164003590Y-90228590D01*
X163872316Y-90388548D01*
X163774769Y-90571043D01*
X163714700Y-90769064D01*
X163714700Y-90769065D01*
X163714700Y-90769066D01*
X163694417Y-90975000D01*
X124076950Y-90975000D01*
X124122744Y-90721182D01*
X124167422Y-90485061D01*
X124167756Y-90483557D01*
X124192005Y-90388550D01*
X124233887Y-90224458D01*
X124296666Y-89990165D01*
X124297057Y-89988862D01*
X124381162Y-89736167D01*
X124391741Y-89705935D01*
X124461654Y-89506133D01*
X124462119Y-89504913D01*
X124464154Y-89500000D01*
X142144417Y-89500000D01*
X142164700Y-89705934D01*
X142164700Y-89705935D01*
X142189544Y-89787834D01*
X142224768Y-89903954D01*
X142322315Y-90086450D01*
X142453590Y-90246410D01*
X142613550Y-90377685D01*
X142796046Y-90475232D01*
X142994066Y-90535300D01*
X143200000Y-90555583D01*
X143405934Y-90535300D01*
X143603954Y-90475232D01*
X143786450Y-90377685D01*
X143946410Y-90246410D01*
X144077685Y-90086450D01*
X144175232Y-89903954D01*
X144235300Y-89705934D01*
X144255583Y-89500000D01*
X144684417Y-89500000D01*
X144704700Y-89705934D01*
X144704700Y-89705935D01*
X144729544Y-89787834D01*
X144764768Y-89903954D01*
X144862315Y-90086450D01*
X144993590Y-90246410D01*
X145153550Y-90377685D01*
X145336046Y-90475232D01*
X145534066Y-90535300D01*
X145740000Y-90555583D01*
X145945934Y-90535300D01*
X146143954Y-90475232D01*
X146326450Y-90377685D01*
X146486410Y-90246410D01*
X146617685Y-90086450D01*
X146715232Y-89903954D01*
X146775300Y-89705934D01*
X146795583Y-89500000D01*
X147224417Y-89500000D01*
X147244700Y-89705934D01*
X147244700Y-89705935D01*
X147269544Y-89787834D01*
X147304768Y-89903954D01*
X147402315Y-90086450D01*
X147533590Y-90246410D01*
X147693550Y-90377685D01*
X147876046Y-90475232D01*
X148074066Y-90535300D01*
X148280000Y-90555583D01*
X148485934Y-90535300D01*
X148683954Y-90475232D01*
X148866450Y-90377685D01*
X149026410Y-90246410D01*
X149157685Y-90086450D01*
X149255232Y-89903954D01*
X149315300Y-89705934D01*
X149335583Y-89500000D01*
X149764417Y-89500000D01*
X149784700Y-89705934D01*
X149784700Y-89705935D01*
X149809544Y-89787834D01*
X149844768Y-89903954D01*
X149942315Y-90086450D01*
X150073590Y-90246410D01*
X150233550Y-90377685D01*
X150416046Y-90475232D01*
X150614066Y-90535300D01*
X150820000Y-90555583D01*
X151025934Y-90535300D01*
X151223954Y-90475232D01*
X151406450Y-90377685D01*
X151566410Y-90246410D01*
X151697685Y-90086450D01*
X151795232Y-89903954D01*
X151855300Y-89705934D01*
X151875583Y-89500000D01*
X151855300Y-89294066D01*
X151795232Y-89096046D01*
X151697685Y-88913550D01*
X151566410Y-88753590D01*
X151406450Y-88622315D01*
X151223954Y-88524768D01*
X151025934Y-88464700D01*
X150820000Y-88444417D01*
X150614065Y-88464700D01*
X150614064Y-88464700D01*
X150416043Y-88524769D01*
X150233548Y-88622316D01*
X150073590Y-88753590D01*
X149942316Y-88913548D01*
X149844769Y-89096043D01*
X149784700Y-89294064D01*
X149784700Y-89294065D01*
X149764417Y-89499999D01*
X149764417Y-89500000D01*
X149335583Y-89500000D01*
X149315300Y-89294066D01*
X149255232Y-89096046D01*
X149157685Y-88913550D01*
X149026410Y-88753590D01*
X148866450Y-88622315D01*
X148683954Y-88524768D01*
X148485934Y-88464700D01*
X148280000Y-88444417D01*
X148074065Y-88464700D01*
X148074064Y-88464700D01*
X147876043Y-88524769D01*
X147693548Y-88622316D01*
X147533590Y-88753590D01*
X147402316Y-88913548D01*
X147304769Y-89096043D01*
X147244700Y-89294064D01*
X147244700Y-89294065D01*
X147224417Y-89499999D01*
X147224417Y-89500000D01*
X146795583Y-89500000D01*
X146775300Y-89294066D01*
X146715232Y-89096046D01*
X146617685Y-88913550D01*
X146486410Y-88753590D01*
X146326450Y-88622315D01*
X146143954Y-88524768D01*
X145945934Y-88464700D01*
X145740000Y-88444417D01*
X145534065Y-88464700D01*
X145534064Y-88464700D01*
X145336043Y-88524769D01*
X145153548Y-88622316D01*
X144993590Y-88753590D01*
X144862316Y-88913548D01*
X144764769Y-89096043D01*
X144704700Y-89294064D01*
X144704700Y-89294065D01*
X144684417Y-89499999D01*
X144684417Y-89500000D01*
X144255583Y-89500000D01*
X144235300Y-89294066D01*
X144175232Y-89096046D01*
X144077685Y-88913550D01*
X143946410Y-88753590D01*
X143786450Y-88622315D01*
X143603954Y-88524768D01*
X143405934Y-88464700D01*
X143200000Y-88444417D01*
X142994065Y-88464700D01*
X142994064Y-88464700D01*
X142796043Y-88524769D01*
X142613548Y-88622316D01*
X142453590Y-88753590D01*
X142322316Y-88913548D01*
X142224769Y-89096043D01*
X142164700Y-89294064D01*
X142164700Y-89294065D01*
X142144417Y-89499999D01*
X142144417Y-89500000D01*
X124464154Y-89500000D01*
X124563787Y-89259466D01*
X124660194Y-89038499D01*
X124661533Y-89035428D01*
X124662046Y-89034330D01*
X124780788Y-88797115D01*
X124895216Y-88580609D01*
X124895768Y-88579623D01*
X125030988Y-88351722D01*
X125161469Y-88144063D01*
X125162026Y-88143219D01*
X125261464Y-88000000D01*
X132644341Y-88000000D01*
X132664937Y-88235410D01*
X132664938Y-88235416D01*
X132726094Y-88463655D01*
X132726095Y-88463660D01*
X132825963Y-88677827D01*
X132825971Y-88677839D01*
X132961500Y-88871395D01*
X132961506Y-88871402D01*
X133128597Y-89038493D01*
X133128604Y-89038499D01*
X133322160Y-89174028D01*
X133322172Y-89174036D01*
X133536339Y-89273904D01*
X133536344Y-89273905D01*
X133764583Y-89335061D01*
X133764587Y-89335061D01*
X133764592Y-89335063D01*
X133884250Y-89345531D01*
X133941030Y-89350500D01*
X133941034Y-89350500D01*
X134058970Y-89350500D01*
X134111521Y-89345901D01*
X134235408Y-89335063D01*
X134235414Y-89335061D01*
X134235416Y-89335061D01*
X134388420Y-89294064D01*
X134463657Y-89273904D01*
X134463660Y-89273904D01*
X134463660Y-89273903D01*
X134463663Y-89273903D01*
X134677829Y-89174035D01*
X134871401Y-89038495D01*
X135038495Y-88871401D01*
X135061165Y-88839024D01*
X135174029Y-88677840D01*
X135174036Y-88677828D01*
X135219852Y-88579576D01*
X135273903Y-88463663D01*
X135335063Y-88235408D01*
X135355659Y-88000000D01*
X135340764Y-87829748D01*
X142149500Y-87829748D01*
X142161133Y-87888231D01*
X142178882Y-87914795D01*
X142205447Y-87954552D01*
X142232012Y-87972301D01*
X142271769Y-87998867D01*
X142330252Y-88010500D01*
X142330255Y-88010500D01*
X144069745Y-88010500D01*
X144069748Y-88010500D01*
X144128231Y-87998867D01*
X144194552Y-87954552D01*
X144238867Y-87888231D01*
X144250500Y-87829748D01*
X144250500Y-86960000D01*
X144684417Y-86960000D01*
X144704700Y-87165934D01*
X144764768Y-87363954D01*
X144862315Y-87546450D01*
X144993590Y-87706410D01*
X145153550Y-87837685D01*
X145336046Y-87935232D01*
X145534066Y-87995300D01*
X145740000Y-88015583D01*
X145945934Y-87995300D01*
X146143954Y-87935232D01*
X146326450Y-87837685D01*
X146486410Y-87706410D01*
X146617685Y-87546450D01*
X146715232Y-87363954D01*
X146775300Y-87165934D01*
X146795583Y-86960000D01*
X147224417Y-86960000D01*
X147244700Y-87165934D01*
X147304768Y-87363954D01*
X147402315Y-87546450D01*
X147533590Y-87706410D01*
X147693550Y-87837685D01*
X147876046Y-87935232D01*
X148074066Y-87995300D01*
X148280000Y-88015583D01*
X148485934Y-87995300D01*
X148683954Y-87935232D01*
X148866450Y-87837685D01*
X149026410Y-87706410D01*
X149157685Y-87546450D01*
X149255232Y-87363954D01*
X149315300Y-87165934D01*
X149335583Y-86960000D01*
X149764417Y-86960000D01*
X149784700Y-87165934D01*
X149844768Y-87363954D01*
X149942315Y-87546450D01*
X150073590Y-87706410D01*
X150233550Y-87837685D01*
X150416046Y-87935232D01*
X150614066Y-87995300D01*
X150820000Y-88015583D01*
X150978215Y-88000000D01*
X158644341Y-88000000D01*
X158664937Y-88235410D01*
X158664938Y-88235416D01*
X158726094Y-88463655D01*
X158726095Y-88463660D01*
X158825963Y-88677827D01*
X158825971Y-88677839D01*
X158961500Y-88871395D01*
X158961506Y-88871402D01*
X159128597Y-89038493D01*
X159128604Y-89038499D01*
X159322160Y-89174028D01*
X159322172Y-89174036D01*
X159536339Y-89273904D01*
X159536344Y-89273905D01*
X159764583Y-89335061D01*
X159764587Y-89335061D01*
X159764592Y-89335063D01*
X159884250Y-89345531D01*
X159941030Y-89350500D01*
X159941034Y-89350500D01*
X160058970Y-89350500D01*
X160111521Y-89345901D01*
X160235408Y-89335063D01*
X160235414Y-89335061D01*
X160235416Y-89335061D01*
X160388420Y-89294064D01*
X160463657Y-89273904D01*
X160463660Y-89273904D01*
X160463660Y-89273903D01*
X160463663Y-89273903D01*
X160677829Y-89174035D01*
X160871401Y-89038495D01*
X161038495Y-88871401D01*
X161061165Y-88839024D01*
X161174029Y-88677840D01*
X161174036Y-88677828D01*
X161219852Y-88579576D01*
X161273903Y-88463663D01*
X161335063Y-88235408D01*
X161355659Y-88000000D01*
X161335063Y-87764592D01*
X161325198Y-87727776D01*
X161273905Y-87536344D01*
X161273904Y-87536339D01*
X161174036Y-87322172D01*
X161174028Y-87322160D01*
X161038499Y-87128604D01*
X161038493Y-87128597D01*
X160871402Y-86961506D01*
X160871395Y-86961500D01*
X160677839Y-86825971D01*
X160677827Y-86825963D01*
X160463660Y-86726095D01*
X160463655Y-86726094D01*
X160235416Y-86664938D01*
X160235410Y-86664937D01*
X160058970Y-86649500D01*
X160058966Y-86649500D01*
X159941034Y-86649500D01*
X159941030Y-86649500D01*
X159764589Y-86664937D01*
X159764583Y-86664938D01*
X159536344Y-86726094D01*
X159536339Y-86726095D01*
X159322172Y-86825963D01*
X159322160Y-86825971D01*
X159128604Y-86961500D01*
X159128597Y-86961506D01*
X158961506Y-87128597D01*
X158961500Y-87128604D01*
X158825970Y-87322159D01*
X158825963Y-87322171D01*
X158726095Y-87536339D01*
X158726094Y-87536344D01*
X158664938Y-87764583D01*
X158664937Y-87764589D01*
X158644341Y-88000000D01*
X150978215Y-88000000D01*
X151025934Y-87995300D01*
X151223954Y-87935232D01*
X151406450Y-87837685D01*
X151566410Y-87706410D01*
X151697685Y-87546450D01*
X151795232Y-87363954D01*
X151855300Y-87165934D01*
X151875583Y-86960000D01*
X151855300Y-86754066D01*
X151795232Y-86556046D01*
X151697685Y-86373550D01*
X151566410Y-86213590D01*
X151406450Y-86082315D01*
X151223954Y-85984768D01*
X151025934Y-85924700D01*
X150820000Y-85904417D01*
X150614065Y-85924700D01*
X150614064Y-85924700D01*
X150416043Y-85984769D01*
X150233548Y-86082316D01*
X150073590Y-86213590D01*
X149942316Y-86373548D01*
X149844769Y-86556043D01*
X149784700Y-86754064D01*
X149784700Y-86754065D01*
X149772976Y-86873105D01*
X149764417Y-86960000D01*
X149335583Y-86960000D01*
X149315300Y-86754066D01*
X149255232Y-86556046D01*
X149157685Y-86373550D01*
X149026410Y-86213590D01*
X148866450Y-86082315D01*
X148683954Y-85984768D01*
X148485934Y-85924700D01*
X148280000Y-85904417D01*
X148074065Y-85924700D01*
X148074064Y-85924700D01*
X147876043Y-85984769D01*
X147693548Y-86082316D01*
X147533590Y-86213590D01*
X147402316Y-86373548D01*
X147304769Y-86556043D01*
X147244700Y-86754064D01*
X147244700Y-86754065D01*
X147232976Y-86873105D01*
X147224417Y-86960000D01*
X146795583Y-86960000D01*
X146775300Y-86754066D01*
X146715232Y-86556046D01*
X146617685Y-86373550D01*
X146486410Y-86213590D01*
X146326450Y-86082315D01*
X146143954Y-85984768D01*
X145945934Y-85924700D01*
X145740000Y-85904417D01*
X145534065Y-85924700D01*
X145534064Y-85924700D01*
X145336043Y-85984769D01*
X145153548Y-86082316D01*
X144993590Y-86213590D01*
X144862316Y-86373548D01*
X144764769Y-86556043D01*
X144704700Y-86754064D01*
X144704700Y-86754065D01*
X144692976Y-86873105D01*
X144684417Y-86960000D01*
X144250500Y-86960000D01*
X144250500Y-86090252D01*
X144238867Y-86031769D01*
X144207462Y-85984769D01*
X144194552Y-85965447D01*
X144133569Y-85924700D01*
X144128231Y-85921133D01*
X144069748Y-85909500D01*
X142330252Y-85909500D01*
X142271769Y-85921133D01*
X142205447Y-85965447D01*
X142161662Y-86030978D01*
X142161133Y-86031769D01*
X142149500Y-86090252D01*
X142149500Y-87829748D01*
X135340764Y-87829748D01*
X135335063Y-87764592D01*
X135325198Y-87727776D01*
X135273905Y-87536344D01*
X135273904Y-87536339D01*
X135174036Y-87322172D01*
X135174028Y-87322160D01*
X135038499Y-87128604D01*
X135038493Y-87128597D01*
X134871402Y-86961506D01*
X134871395Y-86961500D01*
X134677839Y-86825971D01*
X134677827Y-86825963D01*
X134463660Y-86726095D01*
X134463655Y-86726094D01*
X134235416Y-86664938D01*
X134235410Y-86664937D01*
X134058970Y-86649500D01*
X134058966Y-86649500D01*
X133941034Y-86649500D01*
X133941030Y-86649500D01*
X133764589Y-86664937D01*
X133764583Y-86664938D01*
X133536344Y-86726094D01*
X133536339Y-86726095D01*
X133322172Y-86825963D01*
X133322160Y-86825971D01*
X133128604Y-86961500D01*
X133128597Y-86961506D01*
X132961506Y-87128597D01*
X132961500Y-87128604D01*
X132825970Y-87322159D01*
X132825963Y-87322171D01*
X132726095Y-87536339D01*
X132726094Y-87536344D01*
X132664938Y-87764583D01*
X132664937Y-87764589D01*
X132644341Y-88000000D01*
X125261464Y-88000000D01*
X125313072Y-87925670D01*
X125459113Y-87727792D01*
X125625526Y-87521286D01*
X125786031Y-87334776D01*
X125966728Y-87140694D01*
X126140694Y-86966728D01*
X126334794Y-86786014D01*
X126521286Y-86625526D01*
X126727792Y-86459113D01*
X126925670Y-86313072D01*
X127143219Y-86162026D01*
X127144063Y-86161469D01*
X127351723Y-86030987D01*
X127579623Y-85895768D01*
X127580609Y-85895216D01*
X127797115Y-85780788D01*
X128034328Y-85662047D01*
X128035437Y-85661530D01*
X128259454Y-85563791D01*
X128504913Y-85462119D01*
X128506133Y-85461654D01*
X128736186Y-85381156D01*
X128736225Y-85381143D01*
X128988862Y-85297057D01*
X128990165Y-85296666D01*
X129224479Y-85233881D01*
X129483561Y-85167755D01*
X129485061Y-85167422D01*
X129511613Y-85162397D01*
X129721139Y-85122752D01*
X129986509Y-85074874D01*
X129988025Y-85074652D01*
X130221717Y-85048321D01*
X130494852Y-85018956D01*
X130496476Y-85018838D01*
X130706169Y-85010992D01*
X130998842Y-85000538D01*
X130999996Y-85000538D01*
X130999998Y-85000539D01*
X130999999Y-85000538D01*
X131000457Y-85000538D01*
X131000498Y-85000498D01*
X131000498Y-84990536D01*
X131999442Y-84990536D01*
X131999459Y-84999999D01*
X131999499Y-85000096D01*
X131999616Y-85000380D01*
X131999617Y-85000381D01*
X132000000Y-85000539D01*
X132000002Y-85000537D01*
X132009672Y-85000532D01*
X132009842Y-85000498D01*
X161990030Y-85000498D01*
X161990207Y-85000536D01*
X161990208Y-85000510D01*
X162000000Y-85000541D01*
X162000383Y-85000383D01*
X162000431Y-85000265D01*
X162000501Y-85000098D01*
X162000520Y-85000049D01*
X162000541Y-85000000D01*
X162000540Y-84999997D01*
X162000557Y-84990538D01*
X162000500Y-84990245D01*
X162000500Y-84009843D01*
X162000534Y-84009672D01*
X162000539Y-84000002D01*
X162000541Y-84000000D01*
X162000383Y-83999617D01*
X162000099Y-83999500D01*
X162000000Y-83999459D01*
X161990362Y-83999459D01*
X161990156Y-83999500D01*
X132009844Y-83999500D01*
X132009638Y-83999459D01*
X132000000Y-83999459D01*
X131999901Y-83999500D01*
X131999616Y-83999617D01*
X131999459Y-83999999D01*
X131999465Y-84009672D01*
X131999500Y-84009843D01*
X131999500Y-84990243D01*
X131999442Y-84990536D01*
X131000498Y-84990536D01*
X131000498Y-80844748D01*
X135149500Y-80844748D01*
X135161133Y-80903231D01*
X135175705Y-80925039D01*
X135205447Y-80969552D01*
X135232012Y-80987301D01*
X135271769Y-81013867D01*
X135330252Y-81025500D01*
X135330255Y-81025500D01*
X137069745Y-81025500D01*
X137069748Y-81025500D01*
X137128231Y-81013867D01*
X137194552Y-80969552D01*
X137238867Y-80903231D01*
X137250500Y-80844748D01*
X137250500Y-80225000D01*
X137409363Y-80225000D01*
X137466566Y-80438483D01*
X137466568Y-80438488D01*
X137566398Y-80652577D01*
X137566405Y-80652589D01*
X137701885Y-80846072D01*
X137701891Y-80846079D01*
X137868920Y-81013108D01*
X137868927Y-81013114D01*
X138062410Y-81148594D01*
X138062422Y-81148601D01*
X138276511Y-81248431D01*
X138276516Y-81248433D01*
X138490000Y-81305634D01*
X138490000Y-80410501D01*
X138597685Y-80459680D01*
X138704237Y-80475000D01*
X138775763Y-80475000D01*
X138882315Y-80459680D01*
X138990000Y-80410501D01*
X138990000Y-81305634D01*
X139203483Y-81248433D01*
X139203488Y-81248431D01*
X139417577Y-81148601D01*
X139417589Y-81148594D01*
X139611072Y-81013114D01*
X139611079Y-81013108D01*
X139778108Y-80846079D01*
X139778114Y-80846072D01*
X139913594Y-80652589D01*
X139913601Y-80652577D01*
X140013431Y-80438488D01*
X140013433Y-80438483D01*
X140070636Y-80225000D01*
X139173686Y-80225000D01*
X139199493Y-80184844D01*
X139240000Y-80046889D01*
X139240000Y-79975000D01*
X140224417Y-79975000D01*
X140244700Y-80180934D01*
X140304768Y-80378954D01*
X140402315Y-80561450D01*
X140533590Y-80721410D01*
X140693550Y-80852685D01*
X140876046Y-80950232D01*
X141074066Y-81010300D01*
X141280000Y-81030583D01*
X141485934Y-81010300D01*
X141683954Y-80950232D01*
X141724208Y-80928714D01*
X141761530Y-80925039D01*
X141781955Y-80937281D01*
X142214025Y-81369351D01*
X142215470Y-81370928D01*
X142242544Y-81403193D01*
X142242545Y-81403195D01*
X142266449Y-81416995D01*
X142279029Y-81424258D01*
X142280806Y-81425390D01*
X142315316Y-81449554D01*
X142323128Y-81451646D01*
X142334943Y-81456539D01*
X142341955Y-81460588D01*
X142378419Y-81467017D01*
X142383424Y-81467900D01*
X142385508Y-81468362D01*
X142426193Y-81479264D01*
X142461026Y-81476216D01*
X142468154Y-81475593D01*
X142470290Y-81475500D01*
X155334710Y-81475500D01*
X155336846Y-81475593D01*
X155344900Y-81476297D01*
X155378807Y-81479264D01*
X155419495Y-81468361D01*
X155421574Y-81467900D01*
X155463045Y-81460588D01*
X155470054Y-81456540D01*
X155481871Y-81451646D01*
X155489684Y-81449554D01*
X155524190Y-81425391D01*
X155525965Y-81424260D01*
X155562455Y-81403194D01*
X155589532Y-81370923D01*
X155590965Y-81369359D01*
X161969362Y-74990962D01*
X161970912Y-74989541D01*
X162003194Y-74962455D01*
X162024260Y-74925965D01*
X162025391Y-74924190D01*
X162049554Y-74889684D01*
X162051646Y-74881871D01*
X162056540Y-74870054D01*
X162060588Y-74863045D01*
X162067900Y-74821573D01*
X162068363Y-74819486D01*
X162079264Y-74778807D01*
X162075593Y-74736843D01*
X162075500Y-74734707D01*
X162075500Y-68055001D01*
X163679417Y-68055001D01*
X163699700Y-68260935D01*
X163759768Y-68458955D01*
X163857315Y-68641451D01*
X163988590Y-68801411D01*
X164148550Y-68932686D01*
X164331046Y-69030233D01*
X164529066Y-69090301D01*
X164735000Y-69110584D01*
X164940934Y-69090301D01*
X165138954Y-69030233D01*
X165321450Y-68932686D01*
X165481410Y-68801411D01*
X165612685Y-68641451D01*
X165710232Y-68458955D01*
X165770300Y-68260935D01*
X165790583Y-68055001D01*
X166219417Y-68055001D01*
X166239700Y-68260935D01*
X166299768Y-68458955D01*
X166397315Y-68641451D01*
X166528590Y-68801411D01*
X166688550Y-68932686D01*
X166871046Y-69030233D01*
X167069066Y-69090301D01*
X167275000Y-69110584D01*
X167480934Y-69090301D01*
X167678954Y-69030233D01*
X167861450Y-68932686D01*
X168021410Y-68801411D01*
X168152685Y-68641451D01*
X168250232Y-68458955D01*
X168310300Y-68260935D01*
X168330583Y-68055001D01*
X168310300Y-67849067D01*
X168250232Y-67651047D01*
X168152685Y-67468551D01*
X168021410Y-67308591D01*
X167861450Y-67177316D01*
X167678954Y-67079769D01*
X167480934Y-67019701D01*
X167275000Y-66999418D01*
X167069065Y-67019701D01*
X167069064Y-67019701D01*
X166871043Y-67079770D01*
X166688548Y-67177317D01*
X166528590Y-67308591D01*
X166397316Y-67468549D01*
X166299769Y-67651044D01*
X166299768Y-67651046D01*
X166299768Y-67651047D01*
X166294543Y-67668271D01*
X166239700Y-67849065D01*
X166239700Y-67849066D01*
X166220987Y-68039065D01*
X166219417Y-68055001D01*
X165790583Y-68055001D01*
X165770300Y-67849067D01*
X165710232Y-67651047D01*
X165612685Y-67468551D01*
X165481410Y-67308591D01*
X165321450Y-67177316D01*
X165138954Y-67079769D01*
X164940934Y-67019701D01*
X164735000Y-66999418D01*
X164529065Y-67019701D01*
X164529064Y-67019701D01*
X164331043Y-67079770D01*
X164148548Y-67177317D01*
X163988590Y-67308591D01*
X163857316Y-67468549D01*
X163759769Y-67651044D01*
X163759768Y-67651046D01*
X163759768Y-67651047D01*
X163754543Y-67668271D01*
X163699700Y-67849065D01*
X163699700Y-67849066D01*
X163680987Y-68039065D01*
X163679417Y-68055001D01*
X162075500Y-68055001D01*
X162075500Y-66993421D01*
X162089851Y-66958774D01*
X163598511Y-65450113D01*
X163633158Y-65435762D01*
X163667806Y-65450114D01*
X163682158Y-65484762D01*
X163681922Y-65489564D01*
X163680986Y-65499066D01*
X163679417Y-65515001D01*
X163699700Y-65720935D01*
X163759768Y-65918955D01*
X163857315Y-66101451D01*
X163988590Y-66261411D01*
X164148550Y-66392686D01*
X164331046Y-66490233D01*
X164529066Y-66550301D01*
X164735000Y-66570584D01*
X164940934Y-66550301D01*
X165138954Y-66490233D01*
X165321450Y-66392686D01*
X165481410Y-66261411D01*
X165612685Y-66101451D01*
X165710232Y-65918955D01*
X165770300Y-65720935D01*
X165790583Y-65515001D01*
X166219417Y-65515001D01*
X166239700Y-65720935D01*
X166299768Y-65918955D01*
X166397315Y-66101451D01*
X166528590Y-66261411D01*
X166688550Y-66392686D01*
X166871046Y-66490233D01*
X167069066Y-66550301D01*
X167275000Y-66570584D01*
X167480934Y-66550301D01*
X167678954Y-66490233D01*
X167861450Y-66392686D01*
X168021410Y-66261411D01*
X168152685Y-66101451D01*
X168250232Y-65918955D01*
X168310300Y-65720935D01*
X168330583Y-65515001D01*
X168310300Y-65309067D01*
X168250232Y-65111047D01*
X168152685Y-64928551D01*
X168021410Y-64768591D01*
X167861450Y-64637316D01*
X167678954Y-64539769D01*
X167480934Y-64479701D01*
X167275000Y-64459418D01*
X167069065Y-64479701D01*
X167069064Y-64479701D01*
X166871043Y-64539770D01*
X166688548Y-64637317D01*
X166528590Y-64768591D01*
X166397316Y-64928549D01*
X166299769Y-65111044D01*
X166239700Y-65309065D01*
X166239700Y-65309066D01*
X166220987Y-65499065D01*
X166219417Y-65515001D01*
X165790583Y-65515001D01*
X165770300Y-65309067D01*
X165710232Y-65111047D01*
X165612685Y-64928551D01*
X165481410Y-64768591D01*
X165321450Y-64637316D01*
X165191237Y-64567715D01*
X165167446Y-64538725D01*
X165171122Y-64501402D01*
X165200112Y-64477611D01*
X165214336Y-64475501D01*
X166084710Y-64475501D01*
X166086846Y-64475594D01*
X166094900Y-64476298D01*
X166128807Y-64479265D01*
X166169495Y-64468362D01*
X166171574Y-64467901D01*
X166171614Y-64467894D01*
X166213045Y-64460589D01*
X166220054Y-64456541D01*
X166231871Y-64451647D01*
X166239684Y-64449555D01*
X166274190Y-64425392D01*
X166275965Y-64424261D01*
X166312455Y-64403195D01*
X166339532Y-64370924D01*
X166340965Y-64369360D01*
X166670474Y-64039853D01*
X166705122Y-64025501D01*
X168144745Y-64025501D01*
X168144748Y-64025501D01*
X168203231Y-64013868D01*
X168269552Y-63969553D01*
X168313867Y-63903232D01*
X168325500Y-63844749D01*
X168325500Y-62105253D01*
X168313867Y-62046770D01*
X168282462Y-61999770D01*
X168269552Y-61980448D01*
X168211363Y-61941568D01*
X168203231Y-61936134D01*
X168144748Y-61924501D01*
X166405252Y-61924501D01*
X166346769Y-61936134D01*
X166280447Y-61980448D01*
X166239718Y-62041405D01*
X166236133Y-62046770D01*
X166224500Y-62105253D01*
X166224500Y-62105256D01*
X166224500Y-63544879D01*
X166210148Y-63579527D01*
X165979526Y-63810149D01*
X165944878Y-63824501D01*
X165492740Y-63824501D01*
X165458092Y-63810149D01*
X165443740Y-63775501D01*
X165458092Y-63740853D01*
X165461655Y-63737624D01*
X165472401Y-63728804D01*
X165481410Y-63721411D01*
X165612685Y-63561451D01*
X165710232Y-63378955D01*
X165770300Y-63180935D01*
X165790583Y-62975001D01*
X165770300Y-62769067D01*
X165710232Y-62571047D01*
X165612685Y-62388551D01*
X165481410Y-62228591D01*
X165321450Y-62097316D01*
X165138954Y-61999769D01*
X164940934Y-61939701D01*
X164735000Y-61919418D01*
X164529065Y-61939701D01*
X164529064Y-61939701D01*
X164372392Y-61987227D01*
X164341721Y-61996531D01*
X164331043Y-61999770D01*
X164148548Y-62097317D01*
X163988590Y-62228591D01*
X163857316Y-62388549D01*
X163759769Y-62571044D01*
X163699700Y-62769065D01*
X163699700Y-62769066D01*
X163679417Y-62975000D01*
X163679417Y-62975001D01*
X163699700Y-63180935D01*
X163699700Y-63180936D01*
X163712097Y-63221803D01*
X163759768Y-63378955D01*
X163759771Y-63378960D01*
X163759772Y-63378963D01*
X163781284Y-63419209D01*
X163784960Y-63456531D01*
X163772718Y-63476955D01*
X160965075Y-66284598D01*
X160930427Y-66298950D01*
X160895779Y-66284598D01*
X160881427Y-66249950D01*
X160887211Y-66226855D01*
X160950232Y-66108954D01*
X161010300Y-65910934D01*
X161030583Y-65705000D01*
X161010300Y-65499066D01*
X160950232Y-65301046D01*
X160852685Y-65118550D01*
X160721410Y-64958590D01*
X160561450Y-64827315D01*
X160378954Y-64729768D01*
X160180934Y-64669700D01*
X159975000Y-64649417D01*
X159769065Y-64669700D01*
X159769064Y-64669700D01*
X159571043Y-64729769D01*
X159388548Y-64827316D01*
X159228590Y-64958590D01*
X159097316Y-65118548D01*
X158999769Y-65301043D01*
X158999768Y-65301045D01*
X158999768Y-65301046D01*
X158997335Y-65309066D01*
X158939700Y-65499064D01*
X158939700Y-65499065D01*
X158919417Y-65704999D01*
X158919417Y-65705000D01*
X158939700Y-65910934D01*
X158939700Y-65910935D01*
X158953679Y-65957016D01*
X158999768Y-66108954D01*
X159097315Y-66291450D01*
X159228590Y-66451410D01*
X159388550Y-66582685D01*
X159571046Y-66680232D01*
X159769066Y-66740300D01*
X159975000Y-66760583D01*
X160180934Y-66740300D01*
X160378954Y-66680232D01*
X160561450Y-66582685D01*
X160721410Y-66451410D01*
X160752109Y-66414002D01*
X160785182Y-66396325D01*
X160821070Y-66407211D01*
X160838749Y-66440286D01*
X160838241Y-66453598D01*
X160832102Y-66488411D01*
X160831639Y-66490497D01*
X160820736Y-66531192D01*
X160820736Y-66531193D01*
X160820736Y-66531194D01*
X160821989Y-66545524D01*
X160824407Y-66573153D01*
X160824500Y-66575289D01*
X160824500Y-67487260D01*
X160810148Y-67521908D01*
X160775500Y-67536260D01*
X160740852Y-67521908D01*
X160737623Y-67518345D01*
X160721412Y-67498592D01*
X160709100Y-67488488D01*
X160561450Y-67367315D01*
X160378954Y-67269768D01*
X160180934Y-67209700D01*
X159975000Y-67189417D01*
X159769065Y-67209700D01*
X159769064Y-67209700D01*
X159571043Y-67269769D01*
X159388548Y-67367316D01*
X159228590Y-67498590D01*
X159097316Y-67658548D01*
X158999769Y-67841043D01*
X158999768Y-67841045D01*
X158999768Y-67841046D01*
X158997335Y-67849066D01*
X158939700Y-68039064D01*
X158939700Y-68039065D01*
X158919417Y-68244999D01*
X158919417Y-68245000D01*
X158939700Y-68450934D01*
X158939700Y-68450935D01*
X158954867Y-68500934D01*
X158999768Y-68648954D01*
X159097315Y-68831450D01*
X159228590Y-68991410D01*
X159388550Y-69122685D01*
X159571046Y-69220232D01*
X159769066Y-69280300D01*
X159975000Y-69300583D01*
X160180934Y-69280300D01*
X160378954Y-69220232D01*
X160561450Y-69122685D01*
X160721410Y-68991410D01*
X160724185Y-68988028D01*
X160737622Y-68971656D01*
X160770696Y-68953976D01*
X160806584Y-68964862D01*
X160824264Y-68997936D01*
X160824500Y-69002740D01*
X160824500Y-69637652D01*
X160810148Y-69672300D01*
X160775500Y-69686652D01*
X160747395Y-69677790D01*
X160652589Y-69611405D01*
X160652577Y-69611398D01*
X160438488Y-69511568D01*
X160438483Y-69511566D01*
X160225000Y-69454363D01*
X160225000Y-70349498D01*
X160117315Y-70300320D01*
X160010763Y-70285000D01*
X159939237Y-70285000D01*
X159832685Y-70300320D01*
X159725000Y-70349498D01*
X159725000Y-69454363D01*
X159724999Y-69454363D01*
X159511516Y-69511566D01*
X159511511Y-69511567D01*
X159297423Y-69611398D01*
X159297411Y-69611405D01*
X159103927Y-69746885D01*
X159103920Y-69746891D01*
X158936891Y-69913920D01*
X158936885Y-69913927D01*
X158801405Y-70107411D01*
X158801398Y-70107423D01*
X158701567Y-70321511D01*
X158701566Y-70321516D01*
X158644363Y-70534999D01*
X158644364Y-70535000D01*
X159541314Y-70535000D01*
X159515507Y-70575156D01*
X159475000Y-70713111D01*
X159475000Y-70856889D01*
X159515507Y-70994844D01*
X159541314Y-71035000D01*
X158644363Y-71035000D01*
X158701566Y-71248483D01*
X158701568Y-71248488D01*
X158801398Y-71462577D01*
X158801405Y-71462589D01*
X158936885Y-71656072D01*
X158936891Y-71656079D01*
X159103920Y-71823108D01*
X159103927Y-71823114D01*
X159297410Y-71958594D01*
X159297422Y-71958601D01*
X159511511Y-72058431D01*
X159511516Y-72058433D01*
X159725000Y-72115634D01*
X159725000Y-71220501D01*
X159832685Y-71269680D01*
X159939237Y-71285000D01*
X160010763Y-71285000D01*
X160117315Y-71269680D01*
X160225000Y-71220501D01*
X160225000Y-72115634D01*
X160438483Y-72058433D01*
X160438488Y-72058431D01*
X160652577Y-71958601D01*
X160652583Y-71958597D01*
X160747394Y-71892209D01*
X160784008Y-71884091D01*
X160815638Y-71904241D01*
X160824500Y-71932347D01*
X160824500Y-72225500D01*
X160810148Y-72260148D01*
X160775500Y-72274500D01*
X159105252Y-72274500D01*
X159046769Y-72286133D01*
X158980447Y-72330447D01*
X158936133Y-72396769D01*
X158924500Y-72455252D01*
X158924500Y-74194748D01*
X158936133Y-74253231D01*
X158953882Y-74279795D01*
X158980447Y-74319552D01*
X159007012Y-74337301D01*
X159046769Y-74363867D01*
X159105252Y-74375500D01*
X160695877Y-74375500D01*
X160730525Y-74389852D01*
X160744877Y-74424500D01*
X160730525Y-74459148D01*
X155554526Y-79635148D01*
X155519878Y-79649500D01*
X144855371Y-79649500D01*
X144820723Y-79635148D01*
X144808481Y-79614724D01*
X144795232Y-79571046D01*
X144697685Y-79388550D01*
X144566410Y-79228590D01*
X144406450Y-79097315D01*
X144223954Y-78999768D01*
X144025934Y-78939700D01*
X143820000Y-78919417D01*
X143614065Y-78939700D01*
X143614064Y-78939700D01*
X143416043Y-78999769D01*
X143233548Y-79097316D01*
X143073590Y-79228590D01*
X142942316Y-79388548D01*
X142844769Y-79571043D01*
X142784700Y-79769064D01*
X142784700Y-79769065D01*
X142771498Y-79903111D01*
X142764417Y-79975000D01*
X142784700Y-80180934D01*
X142844768Y-80378954D01*
X142942315Y-80561450D01*
X143073589Y-80721409D01*
X143073592Y-80721412D01*
X143093345Y-80737623D01*
X143111024Y-80770697D01*
X143100137Y-80806585D01*
X143067063Y-80824264D01*
X143062260Y-80824500D01*
X142610122Y-80824500D01*
X142575474Y-80810148D01*
X142242281Y-80476955D01*
X142227929Y-80442307D01*
X142233715Y-80419208D01*
X142255232Y-80378954D01*
X142315300Y-80180934D01*
X142335583Y-79975000D01*
X142315300Y-79769066D01*
X142255232Y-79571046D01*
X142157685Y-79388550D01*
X142026410Y-79228590D01*
X141866450Y-79097315D01*
X141683954Y-78999768D01*
X141485934Y-78939700D01*
X141280000Y-78919417D01*
X141074065Y-78939700D01*
X141074064Y-78939700D01*
X140876043Y-78999769D01*
X140693548Y-79097316D01*
X140533590Y-79228590D01*
X140402316Y-79388548D01*
X140304769Y-79571043D01*
X140244700Y-79769064D01*
X140244700Y-79769065D01*
X140231498Y-79903111D01*
X140224417Y-79975000D01*
X139240000Y-79975000D01*
X139240000Y-79903111D01*
X139199493Y-79765156D01*
X139173686Y-79725000D01*
X140070636Y-79725000D01*
X140070636Y-79724999D01*
X140013433Y-79511516D01*
X140013432Y-79511511D01*
X139913601Y-79297423D01*
X139913594Y-79297411D01*
X139778114Y-79103927D01*
X139778108Y-79103920D01*
X139611079Y-78936891D01*
X139611072Y-78936885D01*
X139417589Y-78801405D01*
X139417577Y-78801398D01*
X139203488Y-78701568D01*
X139203483Y-78701566D01*
X138990000Y-78644363D01*
X138990000Y-79539498D01*
X138882315Y-79490320D01*
X138775763Y-79475000D01*
X138704237Y-79475000D01*
X138597685Y-79490320D01*
X138490000Y-79539498D01*
X138490000Y-78644363D01*
X138489999Y-78644363D01*
X138276516Y-78701566D01*
X138276511Y-78701567D01*
X138062423Y-78801398D01*
X138062411Y-78801405D01*
X137868927Y-78936885D01*
X137868920Y-78936891D01*
X137701891Y-79103920D01*
X137701885Y-79103927D01*
X137566405Y-79297411D01*
X137566398Y-79297423D01*
X137466567Y-79511511D01*
X137466566Y-79511516D01*
X137409363Y-79724999D01*
X137409364Y-79725000D01*
X138306314Y-79725000D01*
X138280507Y-79765156D01*
X138240000Y-79903111D01*
X138240000Y-80046889D01*
X138280507Y-80184844D01*
X138306314Y-80225000D01*
X137409363Y-80225000D01*
X137250500Y-80225000D01*
X137250500Y-79105252D01*
X137238867Y-79046769D01*
X137207462Y-78999769D01*
X137194552Y-78980447D01*
X137133569Y-78939700D01*
X137128231Y-78936133D01*
X137069748Y-78924500D01*
X135330252Y-78924500D01*
X135271769Y-78936133D01*
X135205447Y-78980447D01*
X135161133Y-79046769D01*
X135149500Y-79105252D01*
X135149500Y-80844748D01*
X131000498Y-80844748D01*
X131000498Y-78644363D01*
X131000498Y-73375000D01*
X132969417Y-73375000D01*
X132989700Y-73580934D01*
X133049768Y-73778954D01*
X133147315Y-73961450D01*
X133278590Y-74121410D01*
X133438550Y-74252685D01*
X133621046Y-74350232D01*
X133819066Y-74410300D01*
X134025000Y-74430583D01*
X134230934Y-74410300D01*
X134428954Y-74350232D01*
X134611450Y-74252685D01*
X134771410Y-74121410D01*
X134902685Y-73961450D01*
X135000232Y-73778954D01*
X135060300Y-73580934D01*
X135080583Y-73375000D01*
X135060300Y-73169066D01*
X135000232Y-72971046D01*
X134902685Y-72788550D01*
X134771410Y-72628590D01*
X134611450Y-72497315D01*
X134428954Y-72399768D01*
X134230934Y-72339700D01*
X134025000Y-72319417D01*
X133819065Y-72339700D01*
X133819064Y-72339700D01*
X133646616Y-72392011D01*
X133630933Y-72396769D01*
X133621043Y-72399769D01*
X133438548Y-72497316D01*
X133278590Y-72628590D01*
X133147316Y-72788548D01*
X133049769Y-72971043D01*
X132989700Y-73169064D01*
X132989700Y-73169065D01*
X132989700Y-73169066D01*
X132969417Y-73375000D01*
X131000498Y-73375000D01*
X131000498Y-71008154D01*
X131000539Y-71000003D01*
X131000541Y-71000001D01*
X131000539Y-70999998D01*
X131000540Y-70999997D01*
X131000383Y-70999618D01*
X131000099Y-70999501D01*
X131000000Y-70999460D01*
X130990362Y-70999460D01*
X130990156Y-70999501D01*
X124049500Y-70999501D01*
X124014852Y-70985149D01*
X124000500Y-70950501D01*
X124000500Y-70835000D01*
X132969417Y-70835000D01*
X132989700Y-71040934D01*
X133049768Y-71238954D01*
X133147315Y-71421450D01*
X133278590Y-71581410D01*
X133438550Y-71712685D01*
X133621046Y-71810232D01*
X133819066Y-71870300D01*
X134025000Y-71890583D01*
X134230934Y-71870300D01*
X134428954Y-71810232D01*
X134611450Y-71712685D01*
X134771410Y-71581410D01*
X134902685Y-71421450D01*
X135000232Y-71238954D01*
X135060300Y-71040934D01*
X135080583Y-70835000D01*
X135060300Y-70629066D01*
X135000232Y-70431046D01*
X134902685Y-70248550D01*
X134771410Y-70088590D01*
X134611450Y-69957315D01*
X134428954Y-69859768D01*
X134230934Y-69799700D01*
X134025000Y-69779417D01*
X133819065Y-69799700D01*
X133819064Y-69799700D01*
X133621043Y-69859769D01*
X133438548Y-69957316D01*
X133278590Y-70088590D01*
X133147316Y-70248548D01*
X133049769Y-70431043D01*
X132989700Y-70629064D01*
X132989700Y-70629065D01*
X132989700Y-70629066D01*
X132969417Y-70835000D01*
X124000500Y-70835000D01*
X124000500Y-69369748D01*
X125949500Y-69369748D01*
X125961133Y-69428231D01*
X125978594Y-69454363D01*
X126005447Y-69494552D01*
X126030911Y-69511566D01*
X126071769Y-69538867D01*
X126130252Y-69550500D01*
X126130255Y-69550500D01*
X127869745Y-69550500D01*
X127869748Y-69550500D01*
X127928231Y-69538867D01*
X127994552Y-69494552D01*
X128038867Y-69428231D01*
X128050500Y-69369748D01*
X128050500Y-68295000D01*
X132969417Y-68295000D01*
X132989700Y-68500934D01*
X133049768Y-68698954D01*
X133147315Y-68881450D01*
X133278590Y-69041410D01*
X133438550Y-69172685D01*
X133621046Y-69270232D01*
X133819066Y-69330300D01*
X134025000Y-69350583D01*
X134230934Y-69330300D01*
X134428954Y-69270232D01*
X134611450Y-69172685D01*
X134771410Y-69041410D01*
X134902685Y-68881450D01*
X135000232Y-68698954D01*
X135060300Y-68500934D01*
X135080583Y-68295000D01*
X135060300Y-68089066D01*
X135000232Y-67891046D01*
X134902685Y-67708550D01*
X134771410Y-67548590D01*
X134611450Y-67417315D01*
X134428954Y-67319768D01*
X134230934Y-67259700D01*
X134025000Y-67239417D01*
X133819065Y-67259700D01*
X133819064Y-67259700D01*
X133621043Y-67319769D01*
X133438548Y-67417316D01*
X133278590Y-67548590D01*
X133147316Y-67708548D01*
X133049769Y-67891043D01*
X132989700Y-68089064D01*
X132989700Y-68089065D01*
X132989700Y-68089066D01*
X132969417Y-68295000D01*
X128050500Y-68295000D01*
X128050500Y-67630252D01*
X128038867Y-67571769D01*
X128012301Y-67532012D01*
X127994552Y-67505447D01*
X127952118Y-67477094D01*
X127928231Y-67461133D01*
X127869748Y-67449500D01*
X126130252Y-67449500D01*
X126071829Y-67461121D01*
X126071769Y-67461133D01*
X126005447Y-67505447D01*
X125961133Y-67571769D01*
X125949500Y-67630252D01*
X125949500Y-69369748D01*
X124000500Y-69369748D01*
X124000499Y-66210000D01*
X125669363Y-66210000D01*
X125726566Y-66423483D01*
X125726568Y-66423488D01*
X125826398Y-66637577D01*
X125826405Y-66637589D01*
X125961885Y-66831072D01*
X125961891Y-66831079D01*
X126128920Y-66998108D01*
X126128927Y-66998114D01*
X126322410Y-67133594D01*
X126322422Y-67133601D01*
X126536511Y-67233431D01*
X126536516Y-67233433D01*
X126750000Y-67290634D01*
X126750000Y-66395501D01*
X126857685Y-66444680D01*
X126964237Y-66460000D01*
X127035763Y-66460000D01*
X127142315Y-66444680D01*
X127250000Y-66395501D01*
X127250000Y-67290634D01*
X127463483Y-67233433D01*
X127463488Y-67233431D01*
X127677577Y-67133601D01*
X127677589Y-67133594D01*
X127832675Y-67025000D01*
X139569417Y-67025000D01*
X139589700Y-67230934D01*
X139589700Y-67230935D01*
X139613257Y-67308591D01*
X139649768Y-67428954D01*
X139747315Y-67611450D01*
X139878590Y-67771410D01*
X140038550Y-67902685D01*
X140221046Y-68000232D01*
X140419066Y-68060300D01*
X140625000Y-68080583D01*
X140830934Y-68060300D01*
X141028954Y-68000232D01*
X141211450Y-67902685D01*
X141371410Y-67771410D01*
X141477622Y-67641988D01*
X141510697Y-67624310D01*
X141546585Y-67635196D01*
X141564264Y-67668271D01*
X141564500Y-67673074D01*
X141564500Y-71989628D01*
X141550148Y-72024276D01*
X141529724Y-72036518D01*
X141486048Y-72049767D01*
X141486041Y-72049770D01*
X141303548Y-72147316D01*
X141143590Y-72278590D01*
X141012316Y-72438548D01*
X140914769Y-72621043D01*
X140854700Y-72819064D01*
X140854700Y-72819065D01*
X140841498Y-72953111D01*
X140834417Y-73025000D01*
X140854700Y-73230934D01*
X140914768Y-73428954D01*
X141012315Y-73611450D01*
X141143590Y-73771410D01*
X141303550Y-73902685D01*
X141486046Y-74000232D01*
X141684066Y-74060300D01*
X141890000Y-74080583D01*
X142095934Y-74060300D01*
X142293954Y-74000232D01*
X142476450Y-73902685D01*
X142636410Y-73771410D01*
X142767685Y-73611450D01*
X142865232Y-73428954D01*
X142925300Y-73230934D01*
X142945583Y-73025000D01*
X143374417Y-73025000D01*
X143394700Y-73230934D01*
X143454768Y-73428954D01*
X143552315Y-73611450D01*
X143683590Y-73771410D01*
X143843550Y-73902685D01*
X144026046Y-74000232D01*
X144224066Y-74060300D01*
X144430000Y-74080583D01*
X144635934Y-74060300D01*
X144833954Y-74000232D01*
X145016450Y-73902685D01*
X145176410Y-73771410D01*
X145307685Y-73611450D01*
X145405232Y-73428954D01*
X145465300Y-73230934D01*
X145485583Y-73025000D01*
X145465300Y-72819066D01*
X145405232Y-72621046D01*
X145401523Y-72614108D01*
X145383715Y-72580789D01*
X145380039Y-72543467D01*
X145392279Y-72523045D01*
X147289362Y-70625962D01*
X147290912Y-70624541D01*
X147323194Y-70597455D01*
X147344260Y-70560965D01*
X147345391Y-70559190D01*
X147369554Y-70524684D01*
X147371646Y-70516871D01*
X147376540Y-70505054D01*
X147380588Y-70498045D01*
X147387900Y-70456573D01*
X147388363Y-70454486D01*
X147388440Y-70454202D01*
X147399264Y-70413807D01*
X147395593Y-70371843D01*
X147395500Y-70369707D01*
X147395500Y-67782740D01*
X147409852Y-67748092D01*
X147444500Y-67733740D01*
X147479148Y-67748092D01*
X147482378Y-67751656D01*
X147498585Y-67771405D01*
X147498587Y-67771407D01*
X147498590Y-67771410D01*
X147658550Y-67902685D01*
X147841046Y-68000232D01*
X148039066Y-68060300D01*
X148245000Y-68080583D01*
X148450934Y-68060300D01*
X148648954Y-68000232D01*
X148831450Y-67902685D01*
X148991410Y-67771410D01*
X149087622Y-67654173D01*
X149120697Y-67636495D01*
X149156585Y-67647381D01*
X149174264Y-67680456D01*
X149174500Y-67685259D01*
X149174500Y-70339877D01*
X149160148Y-70374525D01*
X147471954Y-72062718D01*
X147437306Y-72077070D01*
X147414208Y-72071284D01*
X147373962Y-72049772D01*
X147373959Y-72049771D01*
X147373954Y-72049768D01*
X147175934Y-71989700D01*
X146970000Y-71969417D01*
X146764065Y-71989700D01*
X146764064Y-71989700D01*
X146629736Y-72030448D01*
X146566050Y-72049767D01*
X146566043Y-72049769D01*
X146383548Y-72147316D01*
X146223590Y-72278590D01*
X146092316Y-72438548D01*
X145994769Y-72621043D01*
X145934700Y-72819064D01*
X145934700Y-72819065D01*
X145921498Y-72953111D01*
X145914417Y-73025000D01*
X145934700Y-73230934D01*
X145994768Y-73428954D01*
X146092315Y-73611450D01*
X146223590Y-73771410D01*
X146383550Y-73902685D01*
X146566046Y-74000232D01*
X146764066Y-74060300D01*
X146970000Y-74080583D01*
X147175934Y-74060300D01*
X147373954Y-74000232D01*
X147556450Y-73902685D01*
X147716410Y-73771410D01*
X147847685Y-73611450D01*
X147945232Y-73428954D01*
X147991933Y-73275000D01*
X148179363Y-73275000D01*
X148236566Y-73488483D01*
X148236568Y-73488488D01*
X148336398Y-73702577D01*
X148336405Y-73702589D01*
X148471885Y-73896072D01*
X148471891Y-73896079D01*
X148638920Y-74063108D01*
X148638927Y-74063114D01*
X148832410Y-74198594D01*
X148832422Y-74198601D01*
X149046511Y-74298431D01*
X149046516Y-74298433D01*
X149260000Y-74355634D01*
X149260000Y-73460501D01*
X149367685Y-73509680D01*
X149474237Y-73525000D01*
X149545763Y-73525000D01*
X149652315Y-73509680D01*
X149760000Y-73460501D01*
X149760000Y-74355634D01*
X149973483Y-74298433D01*
X149973488Y-74298431D01*
X150187577Y-74198601D01*
X150187589Y-74198594D01*
X150381072Y-74063114D01*
X150381079Y-74063108D01*
X150548108Y-73896079D01*
X150548114Y-73896072D01*
X150549041Y-73894748D01*
X150999500Y-73894748D01*
X151011133Y-73953231D01*
X151016625Y-73961450D01*
X151055447Y-74019552D01*
X151082012Y-74037301D01*
X151121769Y-74063867D01*
X151180252Y-74075500D01*
X151180255Y-74075500D01*
X152919745Y-74075500D01*
X152919748Y-74075500D01*
X152978231Y-74063867D01*
X153044552Y-74019552D01*
X153088867Y-73953231D01*
X153100500Y-73894748D01*
X153100500Y-72155252D01*
X153088867Y-72096769D01*
X153057462Y-72049769D01*
X153044552Y-72030447D01*
X152983569Y-71989700D01*
X152978231Y-71986133D01*
X152919748Y-71974500D01*
X151180252Y-71974500D01*
X151121769Y-71986133D01*
X151055447Y-72030447D01*
X151016715Y-72088415D01*
X151011133Y-72096769D01*
X150999500Y-72155252D01*
X150999500Y-73894748D01*
X150549041Y-73894748D01*
X150683594Y-73702589D01*
X150683601Y-73702577D01*
X150783431Y-73488488D01*
X150783433Y-73488483D01*
X150840636Y-73275000D01*
X149943686Y-73275000D01*
X149969493Y-73234844D01*
X150010000Y-73096889D01*
X150010000Y-72953111D01*
X149969493Y-72815156D01*
X149943686Y-72775000D01*
X150840636Y-72775000D01*
X150840636Y-72774999D01*
X150783433Y-72561516D01*
X150783432Y-72561511D01*
X150683601Y-72347423D01*
X150683594Y-72347411D01*
X150548114Y-72153927D01*
X150548108Y-72153920D01*
X150381079Y-71986891D01*
X150381072Y-71986885D01*
X150187589Y-71851405D01*
X150187577Y-71851398D01*
X149973488Y-71751568D01*
X149973483Y-71751566D01*
X149760000Y-71694363D01*
X149760000Y-72589498D01*
X149652315Y-72540320D01*
X149545763Y-72525000D01*
X149474237Y-72525000D01*
X149367685Y-72540320D01*
X149260000Y-72589498D01*
X149260000Y-71694363D01*
X149259999Y-71694363D01*
X149046516Y-71751566D01*
X149046511Y-71751567D01*
X148832423Y-71851398D01*
X148832411Y-71851405D01*
X148638927Y-71986885D01*
X148638920Y-71986891D01*
X148471891Y-72153920D01*
X148471885Y-72153927D01*
X148336405Y-72347411D01*
X148336398Y-72347423D01*
X148236567Y-72561511D01*
X148236566Y-72561516D01*
X148179363Y-72774999D01*
X148179364Y-72775000D01*
X149076314Y-72775000D01*
X149050507Y-72815156D01*
X149010000Y-72953111D01*
X149010000Y-73096889D01*
X149050507Y-73234844D01*
X149076314Y-73275000D01*
X148179363Y-73275000D01*
X147991933Y-73275000D01*
X148005300Y-73230934D01*
X148025583Y-73025000D01*
X148005300Y-72819066D01*
X147945232Y-72621046D01*
X147941523Y-72614108D01*
X147923715Y-72580789D01*
X147920039Y-72543467D01*
X147932279Y-72523045D01*
X149719368Y-70735957D01*
X149720918Y-70734536D01*
X149753194Y-70707455D01*
X149774254Y-70670976D01*
X149775400Y-70669179D01*
X149780847Y-70661399D01*
X149799554Y-70634684D01*
X149801646Y-70626871D01*
X149806540Y-70615054D01*
X149810588Y-70608045D01*
X149817901Y-70566565D01*
X149818364Y-70564479D01*
X149819785Y-70559179D01*
X149829263Y-70523807D01*
X149825593Y-70481854D01*
X149825500Y-70479718D01*
X149825500Y-68092984D01*
X149839852Y-68058336D01*
X149874500Y-68043984D01*
X149909148Y-68058336D01*
X149913920Y-68063108D01*
X149913927Y-68063114D01*
X150107410Y-68198594D01*
X150107422Y-68198601D01*
X150321511Y-68298431D01*
X150321516Y-68298433D01*
X150535000Y-68355634D01*
X150535000Y-67460501D01*
X150642685Y-67509680D01*
X150749237Y-67525000D01*
X150820763Y-67525000D01*
X150927315Y-67509680D01*
X151035000Y-67460501D01*
X151035000Y-68355634D01*
X151248483Y-68298433D01*
X151248488Y-68298431D01*
X151462577Y-68198601D01*
X151462589Y-68198594D01*
X151656072Y-68063114D01*
X151656079Y-68063108D01*
X151823108Y-67896079D01*
X151823114Y-67896072D01*
X151824041Y-67894748D01*
X152274500Y-67894748D01*
X152286133Y-67953231D01*
X152303882Y-67979795D01*
X152330447Y-68019552D01*
X152357012Y-68037301D01*
X152396769Y-68063867D01*
X152455252Y-68075500D01*
X152455255Y-68075500D01*
X154194745Y-68075500D01*
X154194748Y-68075500D01*
X154253231Y-68063867D01*
X154319552Y-68019552D01*
X154363867Y-67953231D01*
X154375500Y-67894748D01*
X154375500Y-66155252D01*
X154363867Y-66096769D01*
X154332462Y-66049769D01*
X154319552Y-66030447D01*
X154279795Y-66003882D01*
X154253231Y-65986133D01*
X154194748Y-65974500D01*
X152455252Y-65974500D01*
X152400731Y-65985345D01*
X152396769Y-65986133D01*
X152330447Y-66030447D01*
X152286133Y-66096769D01*
X152274500Y-66155252D01*
X152274500Y-67894748D01*
X151824041Y-67894748D01*
X151958594Y-67702589D01*
X151958601Y-67702577D01*
X152058431Y-67488488D01*
X152058433Y-67488483D01*
X152115636Y-67275000D01*
X151218686Y-67275000D01*
X151244493Y-67234844D01*
X151285000Y-67096889D01*
X151285000Y-66953111D01*
X151244493Y-66815156D01*
X151218686Y-66775000D01*
X152115636Y-66775000D01*
X152115636Y-66774999D01*
X152058433Y-66561516D01*
X152058432Y-66561511D01*
X151958601Y-66347423D01*
X151958594Y-66347411D01*
X151823114Y-66153927D01*
X151823108Y-66153920D01*
X151656079Y-65986891D01*
X151656072Y-65986885D01*
X151462589Y-65851405D01*
X151462577Y-65851398D01*
X151248488Y-65751568D01*
X151248483Y-65751566D01*
X151035000Y-65694363D01*
X151035000Y-66589498D01*
X150927315Y-66540320D01*
X150820763Y-66525000D01*
X150749237Y-66525000D01*
X150642685Y-66540320D01*
X150535000Y-66589498D01*
X150535000Y-65694363D01*
X150534999Y-65694363D01*
X150321516Y-65751566D01*
X150321511Y-65751567D01*
X150107423Y-65851398D01*
X150107411Y-65851405D01*
X149913927Y-65986885D01*
X149913920Y-65986891D01*
X149909148Y-65991664D01*
X149874500Y-66006016D01*
X149839852Y-65991664D01*
X149825500Y-65957016D01*
X149825500Y-64651823D01*
X149839851Y-64617176D01*
X151292026Y-63165000D01*
X158919417Y-63165000D01*
X158939700Y-63370934D01*
X158939700Y-63370935D01*
X158954344Y-63419209D01*
X158999768Y-63568954D01*
X159097315Y-63751450D01*
X159228590Y-63911410D01*
X159388550Y-64042685D01*
X159571046Y-64140232D01*
X159769066Y-64200300D01*
X159975000Y-64220583D01*
X160180934Y-64200300D01*
X160378954Y-64140232D01*
X160561450Y-64042685D01*
X160721410Y-63911410D01*
X160852685Y-63751450D01*
X160950232Y-63568954D01*
X161010300Y-63370934D01*
X161030583Y-63165000D01*
X161010300Y-62959066D01*
X160950232Y-62761046D01*
X160852685Y-62578550D01*
X160721410Y-62418590D01*
X160561450Y-62287315D01*
X160378954Y-62189768D01*
X160180934Y-62129700D01*
X159975000Y-62109417D01*
X159769065Y-62129700D01*
X159769064Y-62129700D01*
X159571043Y-62189769D01*
X159388548Y-62287316D01*
X159228590Y-62418590D01*
X159097316Y-62578548D01*
X158999769Y-62761043D01*
X158999768Y-62761045D01*
X158999768Y-62761046D01*
X158997335Y-62769066D01*
X158939700Y-62959064D01*
X158939700Y-62959065D01*
X158919417Y-63164999D01*
X158919417Y-63165000D01*
X151292026Y-63165000D01*
X152214362Y-62242664D01*
X152215912Y-62241243D01*
X152248194Y-62214157D01*
X152269260Y-62177667D01*
X152270391Y-62175892D01*
X152294554Y-62141386D01*
X152296646Y-62133573D01*
X152301540Y-62121756D01*
X152305588Y-62114747D01*
X152312900Y-62073275D01*
X152313363Y-62071188D01*
X152315554Y-62063014D01*
X152324264Y-62030509D01*
X152321575Y-61999769D01*
X152320593Y-61988545D01*
X152320500Y-61986409D01*
X152320500Y-60625000D01*
X158919417Y-60625000D01*
X158939700Y-60830934D01*
X158939700Y-60830935D01*
X158956162Y-60885204D01*
X158999768Y-61028954D01*
X159097315Y-61211450D01*
X159228590Y-61371410D01*
X159388550Y-61502685D01*
X159571046Y-61600232D01*
X159769066Y-61660300D01*
X159975000Y-61680583D01*
X160180934Y-61660300D01*
X160378954Y-61600232D01*
X160561450Y-61502685D01*
X160721410Y-61371410D01*
X160852685Y-61211450D01*
X160950232Y-61028954D01*
X161010300Y-60830934D01*
X161030583Y-60625000D01*
X161010300Y-60419066D01*
X160950232Y-60221046D01*
X160852685Y-60038550D01*
X160721410Y-59878590D01*
X160561450Y-59747315D01*
X160378954Y-59649768D01*
X160180934Y-59589700D01*
X159975000Y-59569417D01*
X159769065Y-59589700D01*
X159769064Y-59589700D01*
X159571043Y-59649769D01*
X159388548Y-59747316D01*
X159228590Y-59878590D01*
X159097316Y-60038548D01*
X158999769Y-60221043D01*
X158939700Y-60419064D01*
X158939700Y-60419065D01*
X158919417Y-60624999D01*
X158919417Y-60625000D01*
X152320500Y-60625000D01*
X152320500Y-60165289D01*
X152320593Y-60163153D01*
X152321053Y-60157885D01*
X152324264Y-60121194D01*
X152322689Y-60115318D01*
X152313363Y-60080513D01*
X152312900Y-60078425D01*
X152312017Y-60073420D01*
X152305588Y-60036956D01*
X152301539Y-60029944D01*
X152296646Y-60018127D01*
X152295934Y-60015470D01*
X152294554Y-60010317D01*
X152270390Y-59975807D01*
X152269258Y-59974030D01*
X152248194Y-59937546D01*
X152215923Y-59910467D01*
X152214349Y-59909024D01*
X151782281Y-59476956D01*
X151767929Y-59442308D01*
X151773715Y-59419209D01*
X151775269Y-59416302D01*
X151795232Y-59378955D01*
X151855300Y-59180935D01*
X151875583Y-58975001D01*
X151874763Y-58966680D01*
X151865547Y-58873105D01*
X151855300Y-58769067D01*
X151795232Y-58571047D01*
X151697685Y-58388551D01*
X151566410Y-58228591D01*
X151406450Y-58097316D01*
X151223954Y-57999769D01*
X151025934Y-57939701D01*
X150820000Y-57919418D01*
X150614065Y-57939701D01*
X150614064Y-57939701D01*
X150416043Y-57999770D01*
X150233548Y-58097317D01*
X150073590Y-58228591D01*
X149942316Y-58388549D01*
X149844769Y-58571044D01*
X149784700Y-58769065D01*
X149784700Y-58769066D01*
X149765237Y-58966680D01*
X149764417Y-58975001D01*
X149784700Y-59180935D01*
X149844768Y-59378955D01*
X149942315Y-59561451D01*
X150073590Y-59721411D01*
X150233550Y-59852686D01*
X150416046Y-59950233D01*
X150614066Y-60010301D01*
X150820000Y-60030584D01*
X151025934Y-60010301D01*
X151223954Y-59950233D01*
X151264208Y-59928715D01*
X151301530Y-59925040D01*
X151321955Y-59937282D01*
X151655148Y-60270475D01*
X151669500Y-60305123D01*
X151669500Y-60757261D01*
X151655148Y-60791909D01*
X151620500Y-60806261D01*
X151585852Y-60791909D01*
X151582623Y-60788346D01*
X151566412Y-60768593D01*
X151531656Y-60740070D01*
X151406450Y-60637316D01*
X151223954Y-60539769D01*
X151025934Y-60479701D01*
X150820000Y-60459418D01*
X150614065Y-60479701D01*
X150614064Y-60479701D01*
X150416043Y-60539770D01*
X150233548Y-60637317D01*
X150073590Y-60768591D01*
X149942316Y-60928549D01*
X149844769Y-61111044D01*
X149784700Y-61309065D01*
X149784700Y-61309066D01*
X149764417Y-61515000D01*
X149764417Y-61515001D01*
X149784700Y-61720935D01*
X149784700Y-61720936D01*
X149789323Y-61736175D01*
X149844768Y-61918955D01*
X149844771Y-61918960D01*
X149844772Y-61918963D01*
X149866284Y-61959209D01*
X149869960Y-61996531D01*
X149857718Y-62016955D01*
X146850648Y-65024026D01*
X146849072Y-65025470D01*
X146816806Y-65052545D01*
X146795743Y-65089025D01*
X146794595Y-65090827D01*
X146770445Y-65125318D01*
X146770444Y-65125318D01*
X146768351Y-65133133D01*
X146763458Y-65144946D01*
X146759414Y-65151951D01*
X146759410Y-65151961D01*
X146752102Y-65193411D01*
X146751639Y-65195498D01*
X146740736Y-65236192D01*
X146740736Y-65236193D01*
X146744407Y-65278153D01*
X146744500Y-65280289D01*
X146744500Y-66545664D01*
X146730148Y-66580312D01*
X146695500Y-66594664D01*
X146660852Y-66580312D01*
X146652286Y-66568763D01*
X146634500Y-66535488D01*
X146582685Y-66438550D01*
X146451410Y-66278590D01*
X146291450Y-66147315D01*
X146108954Y-66049768D01*
X145910934Y-65989700D01*
X145705000Y-65969417D01*
X145499065Y-65989700D01*
X145499064Y-65989700D01*
X145301043Y-66049769D01*
X145118548Y-66147316D01*
X144958590Y-66278590D01*
X144827316Y-66438548D01*
X144729769Y-66621043D01*
X144669700Y-66819064D01*
X144669700Y-66819065D01*
X144649417Y-67024999D01*
X144649417Y-67025000D01*
X144669700Y-67230934D01*
X144669700Y-67230935D01*
X144693257Y-67308591D01*
X144729768Y-67428954D01*
X144827315Y-67611450D01*
X144958590Y-67771410D01*
X145118550Y-67902685D01*
X145301046Y-68000232D01*
X145499066Y-68060300D01*
X145705000Y-68080583D01*
X145910934Y-68060300D01*
X146108954Y-68000232D01*
X146291450Y-67902685D01*
X146451410Y-67771410D01*
X146582685Y-67611450D01*
X146652286Y-67481235D01*
X146681276Y-67457445D01*
X146718599Y-67461121D01*
X146742390Y-67490111D01*
X146744500Y-67504335D01*
X146744500Y-70229877D01*
X146730148Y-70264525D01*
X144931954Y-72062718D01*
X144897306Y-72077070D01*
X144874208Y-72071284D01*
X144833962Y-72049772D01*
X144833959Y-72049771D01*
X144833954Y-72049768D01*
X144635934Y-71989700D01*
X144430000Y-71969417D01*
X144224065Y-71989700D01*
X144224064Y-71989700D01*
X144089736Y-72030448D01*
X144026050Y-72049767D01*
X144026043Y-72049769D01*
X143843548Y-72147316D01*
X143683590Y-72278590D01*
X143552316Y-72438548D01*
X143454769Y-72621043D01*
X143394700Y-72819064D01*
X143394700Y-72819065D01*
X143381498Y-72953111D01*
X143374417Y-73025000D01*
X142945583Y-73025000D01*
X142925300Y-72819066D01*
X142865232Y-72621046D01*
X142767685Y-72438550D01*
X142636410Y-72278590D01*
X142476450Y-72147315D01*
X142310161Y-72058431D01*
X142293958Y-72049770D01*
X142293956Y-72049769D01*
X142293954Y-72049768D01*
X142293951Y-72049767D01*
X142250276Y-72036518D01*
X142221286Y-72012726D01*
X142215500Y-71989628D01*
X142215500Y-67660889D01*
X142229852Y-67626241D01*
X142264500Y-67611889D01*
X142299148Y-67626241D01*
X142302374Y-67629799D01*
X142418590Y-67771410D01*
X142578550Y-67902685D01*
X142761046Y-68000232D01*
X142959066Y-68060300D01*
X143165000Y-68080583D01*
X143370934Y-68060300D01*
X143568954Y-68000232D01*
X143751450Y-67902685D01*
X143911410Y-67771410D01*
X144042685Y-67611450D01*
X144140232Y-67428954D01*
X144200300Y-67230934D01*
X144220583Y-67025000D01*
X144200300Y-66819066D01*
X144140232Y-66621046D01*
X144042685Y-66438550D01*
X143911410Y-66278590D01*
X143751450Y-66147315D01*
X143568954Y-66049768D01*
X143370934Y-65989700D01*
X143165000Y-65969417D01*
X143164999Y-65969417D01*
X143139563Y-65971922D01*
X143103675Y-65961035D01*
X143085997Y-65927960D01*
X143096884Y-65892072D01*
X143100102Y-65888521D01*
X145648773Y-63339852D01*
X145683421Y-63325500D01*
X145901412Y-63325500D01*
X145903548Y-63325593D01*
X145911602Y-63326297D01*
X145945509Y-63329264D01*
X145986197Y-63318361D01*
X145988276Y-63317900D01*
X146029747Y-63310588D01*
X146036756Y-63306540D01*
X146048573Y-63301646D01*
X146056386Y-63299554D01*
X146090892Y-63275391D01*
X146092667Y-63274260D01*
X146129157Y-63253194D01*
X146156234Y-63220923D01*
X146157667Y-63219359D01*
X147219362Y-62157664D01*
X147220912Y-62156243D01*
X147253194Y-62129157D01*
X147274260Y-62092667D01*
X147275387Y-62090897D01*
X147298419Y-62058005D01*
X147330048Y-62037857D01*
X147366662Y-62045975D01*
X147381769Y-62063012D01*
X147402315Y-62101451D01*
X147533590Y-62261411D01*
X147693550Y-62392686D01*
X147876046Y-62490233D01*
X148074066Y-62550301D01*
X148280000Y-62570584D01*
X148485934Y-62550301D01*
X148683954Y-62490233D01*
X148866450Y-62392686D01*
X149026410Y-62261411D01*
X149157685Y-62101451D01*
X149255232Y-61918955D01*
X149315300Y-61720935D01*
X149335583Y-61515001D01*
X149315300Y-61309067D01*
X149255232Y-61111047D01*
X149157685Y-60928551D01*
X149026410Y-60768591D01*
X148866450Y-60637316D01*
X148683954Y-60539769D01*
X148485934Y-60479701D01*
X148280000Y-60459418D01*
X148074065Y-60479701D01*
X148074064Y-60479701D01*
X147876043Y-60539770D01*
X147693548Y-60637317D01*
X147533587Y-60768593D01*
X147412377Y-60916289D01*
X147379303Y-60933968D01*
X147343415Y-60923081D01*
X147325736Y-60890007D01*
X147325500Y-60885204D01*
X147325500Y-60410123D01*
X147339852Y-60375475D01*
X147552174Y-60163153D01*
X147778045Y-59937281D01*
X147812692Y-59922930D01*
X147835791Y-59928716D01*
X147876046Y-59950233D01*
X148074066Y-60010301D01*
X148280000Y-60030584D01*
X148485934Y-60010301D01*
X148683954Y-59950233D01*
X148866450Y-59852686D01*
X149026410Y-59721411D01*
X149157685Y-59561451D01*
X149255232Y-59378955D01*
X149315300Y-59180935D01*
X149335583Y-58975001D01*
X149334763Y-58966680D01*
X149325547Y-58873105D01*
X149315300Y-58769067D01*
X149255232Y-58571047D01*
X149157685Y-58388551D01*
X149026410Y-58228591D01*
X148866450Y-58097316D01*
X148683954Y-57999769D01*
X148485934Y-57939701D01*
X148280000Y-57919418D01*
X148074065Y-57939701D01*
X148074064Y-57939701D01*
X147876043Y-57999770D01*
X147693548Y-58097317D01*
X147533590Y-58228591D01*
X147402316Y-58388549D01*
X147304769Y-58571044D01*
X147244700Y-58769065D01*
X147244700Y-58769066D01*
X147224417Y-58975000D01*
X147224417Y-58975001D01*
X147244700Y-59180935D01*
X147244700Y-59180936D01*
X147304769Y-59378959D01*
X147304770Y-59378960D01*
X147326283Y-59419209D01*
X147329959Y-59456531D01*
X147317717Y-59476955D01*
X146780648Y-60014026D01*
X146779072Y-60015470D01*
X146746806Y-60042545D01*
X146725743Y-60079025D01*
X146724595Y-60080827D01*
X146700445Y-60115318D01*
X146700444Y-60115318D01*
X146698351Y-60123133D01*
X146693458Y-60134946D01*
X146689414Y-60141951D01*
X146689410Y-60141961D01*
X146682102Y-60183411D01*
X146681639Y-60185498D01*
X146670736Y-60226192D01*
X146670736Y-60226193D01*
X146674407Y-60268153D01*
X146674500Y-60270289D01*
X146674500Y-60860834D01*
X146660148Y-60895482D01*
X146625500Y-60909834D01*
X146590852Y-60895482D01*
X146587622Y-60891919D01*
X146565086Y-60864459D01*
X146486410Y-60768591D01*
X146326450Y-60637316D01*
X146143954Y-60539769D01*
X145945934Y-60479701D01*
X145740000Y-60459418D01*
X145534065Y-60479701D01*
X145534064Y-60479701D01*
X145336043Y-60539770D01*
X145153548Y-60637317D01*
X144993590Y-60768591D01*
X144862316Y-60928549D01*
X144764769Y-61111044D01*
X144704700Y-61309065D01*
X144704700Y-61309066D01*
X144684417Y-61515000D01*
X144684417Y-61515001D01*
X144704700Y-61720935D01*
X144704700Y-61720936D01*
X144709323Y-61736175D01*
X144764768Y-61918955D01*
X144862315Y-62101451D01*
X144993590Y-62261411D01*
X145153550Y-62392686D01*
X145336046Y-62490233D01*
X145534066Y-62550301D01*
X145740000Y-62570584D01*
X145765433Y-62568078D01*
X145801320Y-62578963D01*
X145819000Y-62612037D01*
X145808115Y-62647926D01*
X145804888Y-62651486D01*
X145796232Y-62660144D01*
X145761586Y-62674500D01*
X145543589Y-62674500D01*
X145541453Y-62674407D01*
X145510107Y-62671664D01*
X145499492Y-62670736D01*
X145499491Y-62670736D01*
X145499490Y-62670736D01*
X145458796Y-62681639D01*
X145456717Y-62682100D01*
X145446419Y-62683916D01*
X145415259Y-62689410D01*
X145415249Y-62689414D01*
X145408244Y-62693458D01*
X145396431Y-62698351D01*
X145388616Y-62700444D01*
X145388616Y-62700445D01*
X145354125Y-62724595D01*
X145352323Y-62725743D01*
X145315843Y-62746806D01*
X145288766Y-62779074D01*
X145287322Y-62780650D01*
X141670648Y-66397324D01*
X141669072Y-66398768D01*
X141636806Y-66425843D01*
X141615743Y-66462324D01*
X141614594Y-66464127D01*
X141604634Y-66478351D01*
X141573003Y-66498500D01*
X141536389Y-66490382D01*
X141521282Y-66473342D01*
X141502686Y-66438552D01*
X141502686Y-66438551D01*
X141467622Y-66395825D01*
X141371410Y-66278590D01*
X141211450Y-66147315D01*
X141028954Y-66049768D01*
X140830934Y-65989700D01*
X140625000Y-65969417D01*
X140419065Y-65989700D01*
X140419064Y-65989700D01*
X140221043Y-66049769D01*
X140038548Y-66147316D01*
X139878590Y-66278590D01*
X139747316Y-66438548D01*
X139649769Y-66621043D01*
X139589700Y-66819064D01*
X139589700Y-66819065D01*
X139569417Y-67024999D01*
X139569417Y-67025000D01*
X127832675Y-67025000D01*
X127871072Y-66998114D01*
X127871079Y-66998108D01*
X128038108Y-66831079D01*
X128038114Y-66831072D01*
X128173594Y-66637589D01*
X128173601Y-66637577D01*
X128273431Y-66423488D01*
X128273433Y-66423483D01*
X128330636Y-66210000D01*
X127433686Y-66210000D01*
X127459493Y-66169844D01*
X127500000Y-66031889D01*
X127500000Y-65888111D01*
X127460915Y-65755000D01*
X132969417Y-65755000D01*
X132989700Y-65960934D01*
X132989700Y-65960935D01*
X132992273Y-65969417D01*
X133049768Y-66158954D01*
X133147315Y-66341450D01*
X133278590Y-66501410D01*
X133438550Y-66632685D01*
X133621046Y-66730232D01*
X133819066Y-66790300D01*
X134025000Y-66810583D01*
X134230934Y-66790300D01*
X134428954Y-66730232D01*
X134611450Y-66632685D01*
X134771410Y-66501410D01*
X134902685Y-66341450D01*
X135000232Y-66158954D01*
X135060300Y-65960934D01*
X135080583Y-65755000D01*
X135060300Y-65549066D01*
X135000232Y-65351046D01*
X134902685Y-65168550D01*
X134771410Y-65008590D01*
X134611450Y-64877315D01*
X134428954Y-64779768D01*
X134230934Y-64719700D01*
X134025000Y-64699417D01*
X133819065Y-64719700D01*
X133819064Y-64719700D01*
X133621043Y-64779769D01*
X133438548Y-64877316D01*
X133278590Y-65008590D01*
X133147316Y-65168548D01*
X133049769Y-65351043D01*
X132989700Y-65549064D01*
X132989700Y-65549065D01*
X132969417Y-65754999D01*
X132969417Y-65755000D01*
X127460915Y-65755000D01*
X127459493Y-65750156D01*
X127433686Y-65710000D01*
X128330636Y-65710000D01*
X128330636Y-65709999D01*
X128273433Y-65496516D01*
X128273432Y-65496511D01*
X128173601Y-65282423D01*
X128173594Y-65282411D01*
X128038114Y-65088927D01*
X128038108Y-65088920D01*
X127871079Y-64921891D01*
X127871072Y-64921885D01*
X127677589Y-64786405D01*
X127677577Y-64786398D01*
X127463488Y-64686568D01*
X127463483Y-64686566D01*
X127250000Y-64629363D01*
X127250000Y-65524498D01*
X127142315Y-65475320D01*
X127035763Y-65460000D01*
X126964237Y-65460000D01*
X126857685Y-65475320D01*
X126750000Y-65524498D01*
X126750000Y-64629363D01*
X126749999Y-64629363D01*
X126536516Y-64686566D01*
X126536511Y-64686567D01*
X126322423Y-64786398D01*
X126322411Y-64786405D01*
X126128927Y-64921885D01*
X126128920Y-64921891D01*
X125961891Y-65088920D01*
X125961885Y-65088927D01*
X125826405Y-65282411D01*
X125826398Y-65282423D01*
X125726567Y-65496511D01*
X125726566Y-65496516D01*
X125669363Y-65709999D01*
X125669364Y-65710000D01*
X126566314Y-65710000D01*
X126540507Y-65750156D01*
X126500000Y-65888111D01*
X126500000Y-66031889D01*
X126540507Y-66169844D01*
X126566314Y-66210000D01*
X125669363Y-66210000D01*
X124000499Y-66210000D01*
X124000499Y-63999998D01*
X124004335Y-63892589D01*
X124011014Y-63705597D01*
X124012029Y-63678483D01*
X124018837Y-63496505D01*
X124018957Y-63494853D01*
X124022167Y-63465000D01*
X132694363Y-63465000D01*
X132751566Y-63678483D01*
X132751568Y-63678488D01*
X132851398Y-63892577D01*
X132851405Y-63892589D01*
X132986885Y-64086072D01*
X132986891Y-64086079D01*
X133153920Y-64253108D01*
X133153927Y-64253114D01*
X133347410Y-64388594D01*
X133347422Y-64388601D01*
X133561511Y-64488431D01*
X133561516Y-64488433D01*
X133775000Y-64545634D01*
X133775000Y-63650501D01*
X133882685Y-63699680D01*
X133989237Y-63715000D01*
X134060763Y-63715000D01*
X134167315Y-63699680D01*
X134275000Y-63650501D01*
X134275000Y-64545634D01*
X134488483Y-64488433D01*
X134488488Y-64488431D01*
X134702577Y-64388601D01*
X134702589Y-64388594D01*
X134896072Y-64253114D01*
X134896079Y-64253108D01*
X135063108Y-64086079D01*
X135063114Y-64086072D01*
X135198594Y-63892589D01*
X135198601Y-63892577D01*
X135298431Y-63678488D01*
X135298433Y-63678483D01*
X135355636Y-63465000D01*
X134458686Y-63465000D01*
X134484493Y-63424844D01*
X134525000Y-63286889D01*
X134525000Y-63143111D01*
X134484493Y-63005156D01*
X134458686Y-62965000D01*
X135355636Y-62965000D01*
X135355636Y-62964999D01*
X135298433Y-62751516D01*
X135298432Y-62751511D01*
X135198601Y-62537423D01*
X135198594Y-62537411D01*
X135063114Y-62343927D01*
X135063108Y-62343920D01*
X134896079Y-62176891D01*
X134896072Y-62176885D01*
X134702589Y-62041405D01*
X134702577Y-62041398D01*
X134488488Y-61941568D01*
X134488483Y-61941566D01*
X134275000Y-61884363D01*
X134275000Y-62779498D01*
X134167315Y-62730320D01*
X134060763Y-62715000D01*
X133989237Y-62715000D01*
X133882685Y-62730320D01*
X133775000Y-62779498D01*
X133775000Y-61884363D01*
X133774999Y-61884363D01*
X133561516Y-61941566D01*
X133561511Y-61941567D01*
X133347423Y-62041398D01*
X133347411Y-62041405D01*
X133153927Y-62176885D01*
X133153920Y-62176891D01*
X132986891Y-62343920D01*
X132986885Y-62343927D01*
X132851405Y-62537411D01*
X132851398Y-62537423D01*
X132751567Y-62751511D01*
X132751566Y-62751516D01*
X132694363Y-62964999D01*
X132694364Y-62965000D01*
X133591314Y-62965000D01*
X133565507Y-63005156D01*
X133525000Y-63143111D01*
X133525000Y-63286889D01*
X133565507Y-63424844D01*
X133591314Y-63465000D01*
X132694363Y-63465000D01*
X124022167Y-63465000D01*
X124048319Y-63221745D01*
X124074652Y-62988033D01*
X124074875Y-62986506D01*
X124122745Y-62721183D01*
X124130141Y-62682102D01*
X124166445Y-62490231D01*
X124167423Y-62485062D01*
X124167757Y-62483558D01*
X124184339Y-62418590D01*
X124233882Y-62224480D01*
X124296667Y-61990166D01*
X124297058Y-61988863D01*
X124381168Y-61736154D01*
X124388967Y-61713866D01*
X124448143Y-61544748D01*
X132974500Y-61544748D01*
X132986133Y-61603231D01*
X133003882Y-61629795D01*
X133030447Y-61669552D01*
X133057012Y-61687301D01*
X133096769Y-61713867D01*
X133155252Y-61725500D01*
X133155255Y-61725500D01*
X134894745Y-61725500D01*
X134894748Y-61725500D01*
X134953231Y-61713867D01*
X135019552Y-61669552D01*
X135063867Y-61603231D01*
X135075500Y-61544748D01*
X135075500Y-61515001D01*
X142144417Y-61515001D01*
X142164700Y-61720935D01*
X142164700Y-61720936D01*
X142169323Y-61736175D01*
X142224768Y-61918955D01*
X142322315Y-62101451D01*
X142453590Y-62261411D01*
X142613550Y-62392686D01*
X142796046Y-62490233D01*
X142994066Y-62550301D01*
X143200000Y-62570584D01*
X143405934Y-62550301D01*
X143603954Y-62490233D01*
X143786450Y-62392686D01*
X143946410Y-62261411D01*
X144077685Y-62101451D01*
X144175232Y-61918955D01*
X144235300Y-61720935D01*
X144255583Y-61515001D01*
X144235300Y-61309067D01*
X144175232Y-61111047D01*
X144077685Y-60928551D01*
X143946410Y-60768591D01*
X143786450Y-60637316D01*
X143603954Y-60539769D01*
X143405934Y-60479701D01*
X143200000Y-60459418D01*
X142994065Y-60479701D01*
X142994064Y-60479701D01*
X142796043Y-60539770D01*
X142613548Y-60637317D01*
X142453590Y-60768591D01*
X142322316Y-60928549D01*
X142224769Y-61111044D01*
X142164700Y-61309065D01*
X142164700Y-61309066D01*
X142144417Y-61515000D01*
X142144417Y-61515001D01*
X135075500Y-61515001D01*
X135075500Y-59844749D01*
X142149500Y-59844749D01*
X142161133Y-59903232D01*
X142174295Y-59922930D01*
X142205447Y-59969553D01*
X142232012Y-59987302D01*
X142271769Y-60013868D01*
X142330252Y-60025501D01*
X142330255Y-60025501D01*
X144069745Y-60025501D01*
X144069748Y-60025501D01*
X144128231Y-60013868D01*
X144194552Y-59969553D01*
X144238867Y-59903232D01*
X144250500Y-59844749D01*
X144250500Y-58975001D01*
X144684417Y-58975001D01*
X144704700Y-59180935D01*
X144764768Y-59378955D01*
X144862315Y-59561451D01*
X144993590Y-59721411D01*
X145153550Y-59852686D01*
X145336046Y-59950233D01*
X145534066Y-60010301D01*
X145740000Y-60030584D01*
X145945934Y-60010301D01*
X146143954Y-59950233D01*
X146326450Y-59852686D01*
X146486410Y-59721411D01*
X146617685Y-59561451D01*
X146715232Y-59378955D01*
X146775300Y-59180935D01*
X146795583Y-58975001D01*
X146794763Y-58966680D01*
X146785547Y-58873105D01*
X146775300Y-58769067D01*
X146715232Y-58571047D01*
X146617685Y-58388551D01*
X146486410Y-58228591D01*
X146326450Y-58097316D01*
X146143954Y-57999769D01*
X145945934Y-57939701D01*
X145740000Y-57919418D01*
X145534065Y-57939701D01*
X145534064Y-57939701D01*
X145336043Y-57999770D01*
X145153548Y-58097317D01*
X144993590Y-58228591D01*
X144862316Y-58388549D01*
X144764769Y-58571044D01*
X144704700Y-58769065D01*
X144704700Y-58769066D01*
X144685237Y-58966680D01*
X144684417Y-58975001D01*
X144250500Y-58975001D01*
X144250500Y-58105253D01*
X144238867Y-58046770D01*
X144207462Y-57999770D01*
X144194552Y-57980448D01*
X144133569Y-57939701D01*
X144128231Y-57936134D01*
X144069748Y-57924501D01*
X142330252Y-57924501D01*
X142271769Y-57936134D01*
X142205447Y-57980448D01*
X142161133Y-58046770D01*
X142149500Y-58105253D01*
X142149500Y-59844749D01*
X135075500Y-59844749D01*
X135075500Y-59805252D01*
X135063867Y-59746769D01*
X135037301Y-59707012D01*
X135019552Y-59680447D01*
X134973637Y-59649768D01*
X134953231Y-59636133D01*
X134894748Y-59624500D01*
X133155252Y-59624500D01*
X133096769Y-59636133D01*
X133030447Y-59680447D01*
X132998827Y-59727771D01*
X132986133Y-59746769D01*
X132974500Y-59805252D01*
X132974500Y-61544748D01*
X124448143Y-61544748D01*
X124461655Y-61506134D01*
X124462120Y-61504914D01*
X124563788Y-61259467D01*
X124584737Y-61211451D01*
X124661533Y-61035431D01*
X124662050Y-61034325D01*
X124780783Y-60797127D01*
X124895213Y-60580618D01*
X124895784Y-60579597D01*
X125030983Y-60351731D01*
X125161490Y-60144032D01*
X125162030Y-60143214D01*
X125313068Y-59925679D01*
X125459114Y-59727793D01*
X125625527Y-59521287D01*
X125786022Y-59334787D01*
X125966707Y-59140717D01*
X126140717Y-58966707D01*
X126334787Y-58786022D01*
X126521287Y-58625527D01*
X126727793Y-58459114D01*
X126925687Y-58313063D01*
X127143214Y-58162030D01*
X127144032Y-58161490D01*
X127351721Y-58030989D01*
X127579597Y-57895784D01*
X127580629Y-57895207D01*
X127599082Y-57885453D01*
X127797127Y-57780783D01*
X128034324Y-57662051D01*
X128035438Y-57661531D01*
X128259467Y-57563788D01*
X128504914Y-57462120D01*
X128506134Y-57461655D01*
X128736115Y-57381180D01*
X128988863Y-57297058D01*
X128990166Y-57296667D01*
X129224480Y-57233882D01*
X129483562Y-57167756D01*
X129485062Y-57167423D01*
X129511614Y-57162398D01*
X129721140Y-57122753D01*
X129986506Y-57074875D01*
X129988033Y-57074652D01*
X130221731Y-57048320D01*
X130494853Y-57018957D01*
X130496505Y-57018837D01*
X130705617Y-57011012D01*
X130999998Y-57000499D01*
X162979205Y-57000499D01*
X162979208Y-57000501D01*
G37*
%TD.AperFunction*%
%TD*%
M02*
