%TF.GenerationSoftware,KiCad,Pcbnew,7.0.9*%
%TF.CreationDate,2024-02-08T13:35:56-08:00*%
%TF.ProjectId,micromouse,6d696372-6f6d-46f7-9573-652e6b696361,rev?*%
%TF.SameCoordinates,Original*%
%TF.FileFunction,Paste,Top*%
%TF.FilePolarity,Positive*%
%FSLAX46Y46*%
G04 Gerber Fmt 4.6, Leading zero omitted, Abs format (unit mm)*
G04 Created by KiCad (PCBNEW 7.0.9) date 2024-02-08 13:35:56*
%MOMM*%
%LPD*%
G01*
G04 APERTURE LIST*
G04 Aperture macros list*
%AMRoundRect*
0 Rectangle with rounded corners*
0 $1 Rounding radius*
0 $2 $3 $4 $5 $6 $7 $8 $9 X,Y pos of 4 corners*
0 Add a 4 corners polygon primitive as box body*
4,1,4,$2,$3,$4,$5,$6,$7,$8,$9,$2,$3,0*
0 Add four circle primitives for the rounded corners*
1,1,$1+$1,$2,$3*
1,1,$1+$1,$4,$5*
1,1,$1+$1,$6,$7*
1,1,$1+$1,$8,$9*
0 Add four rect primitives between the rounded corners*
20,1,$1+$1,$2,$3,$4,$5,0*
20,1,$1+$1,$4,$5,$6,$7,0*
20,1,$1+$1,$6,$7,$8,$9,0*
20,1,$1+$1,$8,$9,$2,$3,0*%
G04 Aperture macros list end*
%ADD10RoundRect,0.225000X-0.250000X0.225000X-0.250000X-0.225000X0.250000X-0.225000X0.250000X0.225000X0*%
%ADD11RoundRect,0.225000X0.225000X0.250000X-0.225000X0.250000X-0.225000X-0.250000X0.225000X-0.250000X0*%
%ADD12RoundRect,0.225000X0.250000X-0.225000X0.250000X0.225000X-0.250000X0.225000X-0.250000X-0.225000X0*%
%ADD13R,2.000000X1.500000*%
%ADD14R,2.000000X3.800000*%
%ADD15R,1.092200X1.397000*%
%ADD16RoundRect,0.200000X0.275000X-0.200000X0.275000X0.200000X-0.275000X0.200000X-0.275000X-0.200000X0*%
%ADD17RoundRect,0.031500X-0.263500X-0.143500X0.263500X-0.143500X0.263500X0.143500X-0.263500X0.143500X0*%
%ADD18RoundRect,0.031500X0.143500X-0.263500X0.143500X0.263500X-0.143500X0.263500X-0.143500X-0.263500X0*%
%ADD19RoundRect,0.031500X0.263500X0.143500X-0.263500X0.143500X-0.263500X-0.143500X0.263500X-0.143500X0*%
%ADD20RoundRect,0.031500X-0.143500X0.263500X-0.143500X-0.263500X0.143500X-0.263500X0.143500X0.263500X0*%
%ADD21RoundRect,0.200000X-0.275000X0.200000X-0.275000X-0.200000X0.275000X-0.200000X0.275000X0.200000X0*%
%ADD22R,1.600200X1.168400*%
%ADD23R,1.219200X0.508000*%
%ADD24RoundRect,0.200000X0.200000X0.275000X-0.200000X0.275000X-0.200000X-0.275000X0.200000X-0.275000X0*%
%ADD25RoundRect,0.075000X-0.700000X-0.075000X0.700000X-0.075000X0.700000X0.075000X-0.700000X0.075000X0*%
%ADD26RoundRect,0.075000X-0.075000X-0.700000X0.075000X-0.700000X0.075000X0.700000X-0.075000X0.700000X0*%
%ADD27RoundRect,0.218750X0.256250X-0.218750X0.256250X0.218750X-0.256250X0.218750X-0.256250X-0.218750X0*%
%ADD28RoundRect,0.200000X-0.200000X-0.275000X0.200000X-0.275000X0.200000X0.275000X-0.200000X0.275000X0*%
%ADD29RoundRect,0.218750X-0.218750X-0.256250X0.218750X-0.256250X0.218750X0.256250X-0.218750X0.256250X0*%
%ADD30RoundRect,0.218750X0.218750X0.256250X-0.218750X0.256250X-0.218750X-0.256250X0.218750X-0.256250X0*%
%ADD31RoundRect,0.300000X-0.725000X0.000000X-0.725000X0.000000X0.725000X0.000000X0.725000X0.000000X0*%
G04 APERTURE END LIST*
D10*
%TO.C,C13*%
X143250000Y-107975000D03*
X143250000Y-109525000D03*
%TD*%
D11*
%TO.C,C17*%
X156275000Y-112500000D03*
X154725000Y-112500000D03*
%TD*%
D12*
%TO.C,C21*%
X138500000Y-127525000D03*
X138500000Y-125975000D03*
%TD*%
D13*
%TO.C,U4*%
X141100000Y-126450000D03*
X141100000Y-128750000D03*
D14*
X147400000Y-128750000D03*
D13*
X141100000Y-131050000D03*
%TD*%
D15*
%TO.C,Y2*%
X132699900Y-101895100D03*
X132699900Y-104104900D03*
X134300100Y-104104900D03*
X134300100Y-101895100D03*
%TD*%
D11*
%TO.C,C3*%
X138575000Y-94500000D03*
X137025000Y-94500000D03*
%TD*%
D16*
%TO.C,R2*%
X140000000Y-92075000D03*
X140000000Y-90425000D03*
%TD*%
D12*
%TO.C,C22*%
X138500000Y-131275000D03*
X138500000Y-129725000D03*
%TD*%
D11*
%TO.C,C19*%
X139525000Y-117500000D03*
X137975000Y-117500000D03*
%TD*%
D10*
%TO.C,C16*%
X156250000Y-107975000D03*
X156250000Y-109525000D03*
%TD*%
D11*
%TO.C,C7*%
X134525000Y-98500000D03*
X132975000Y-98500000D03*
%TD*%
%TO.C,C9*%
X138575000Y-102750000D03*
X137025000Y-102750000D03*
%TD*%
%TO.C,C6*%
X138525000Y-97250000D03*
X136975000Y-97250000D03*
%TD*%
D17*
%TO.C,U2*%
X145835000Y-108500000D03*
X145835000Y-109000000D03*
X145835000Y-109500000D03*
X145835000Y-110000000D03*
D18*
X146500000Y-110165000D03*
X147000000Y-110165000D03*
X147500000Y-110165000D03*
D19*
X148165000Y-110000000D03*
X148165000Y-109500000D03*
X148165000Y-109000000D03*
X148165000Y-108500000D03*
D20*
X147500000Y-108335000D03*
X147000000Y-108335000D03*
X146500000Y-108335000D03*
%TD*%
D11*
%TO.C,C20*%
X139525000Y-120250000D03*
X137975000Y-120250000D03*
%TD*%
D10*
%TO.C,C12*%
X137750000Y-107975000D03*
X137750000Y-109525000D03*
%TD*%
D11*
%TO.C,C4*%
X156975000Y-95500000D03*
X155425000Y-95500000D03*
%TD*%
D10*
%TO.C,C15*%
X153500000Y-107975000D03*
X153500000Y-109525000D03*
%TD*%
D11*
%TO.C,C5*%
X131275000Y-95750000D03*
X129725000Y-95750000D03*
%TD*%
D21*
%TO.C,R4*%
X140500000Y-107925000D03*
X140500000Y-109575000D03*
%TD*%
D22*
%TO.C,Y1*%
X134000000Y-95922400D03*
X134000000Y-93077600D03*
%TD*%
D10*
%TO.C,C23*%
X151000000Y-134200000D03*
X151000000Y-135750000D03*
%TD*%
D23*
%TO.C,SW2*%
X150186000Y-78190000D03*
X150186000Y-79460000D03*
X150186000Y-80730000D03*
X150186000Y-82000000D03*
X158314000Y-82000000D03*
X158314000Y-80730000D03*
X158314000Y-79460000D03*
X158314000Y-78190000D03*
%TD*%
D11*
%TO.C,C10*%
X156775000Y-105250000D03*
X155225000Y-105250000D03*
%TD*%
%TO.C,C18*%
X156275000Y-115250000D03*
X154725000Y-115250000D03*
%TD*%
D10*
%TO.C,C14*%
X150750000Y-107975000D03*
X150750000Y-109525000D03*
%TD*%
D11*
%TO.C,C11*%
X134525000Y-106750000D03*
X132975000Y-106750000D03*
%TD*%
D24*
%TO.C,R3*%
X157075000Y-92750000D03*
X155425000Y-92750000D03*
%TD*%
D25*
%TO.C,U1*%
X141325000Y-95850000D03*
X141325000Y-96350000D03*
X141325000Y-96850000D03*
X141325000Y-97350000D03*
X141325000Y-97850000D03*
X141325000Y-98350000D03*
X141325000Y-98850000D03*
X141325000Y-99350000D03*
X141325000Y-99850000D03*
X141325000Y-100350000D03*
X141325000Y-100850000D03*
X141325000Y-101350000D03*
X141325000Y-101850000D03*
X141325000Y-102350000D03*
X141325000Y-102850000D03*
X141325000Y-103350000D03*
D26*
X143250000Y-105275000D03*
X143750000Y-105275000D03*
X144250000Y-105275000D03*
X144750000Y-105275000D03*
X145250000Y-105275000D03*
X145750000Y-105275000D03*
X146250000Y-105275000D03*
X147750000Y-105275000D03*
X148250000Y-105275000D03*
X148750000Y-105275000D03*
X149250000Y-105275000D03*
X149750000Y-105275000D03*
X150250000Y-105275000D03*
X150750000Y-105275000D03*
D25*
X152675000Y-103350000D03*
X152675000Y-102850000D03*
X152675000Y-102350000D03*
X152675000Y-101850000D03*
X152675000Y-101350000D03*
X152675000Y-100850000D03*
X152675000Y-100350000D03*
X152675000Y-99850000D03*
X152675000Y-99350000D03*
X152675000Y-98850000D03*
X152675000Y-98350000D03*
X152675000Y-97850000D03*
X152675000Y-97350000D03*
X152675000Y-96850000D03*
X152675000Y-96350000D03*
X152675000Y-95850000D03*
D26*
X150750000Y-93925000D03*
X150250000Y-93925000D03*
X149750000Y-93925000D03*
X149250000Y-93925000D03*
X148750000Y-93925000D03*
X148250000Y-93925000D03*
X147750000Y-93925000D03*
X147250000Y-93925000D03*
X146750000Y-93925000D03*
X146250000Y-93925000D03*
X145750000Y-93925000D03*
X145250000Y-93925000D03*
X144750000Y-93925000D03*
X144250000Y-93925000D03*
X143750000Y-93925000D03*
X143250000Y-93925000D03*
%TD*%
D16*
%TO.C,R5*%
X154000000Y-139325000D03*
X154000000Y-137675000D03*
%TD*%
D27*
%TO.C,D3*%
X157000000Y-139287500D03*
X157000000Y-137712500D03*
%TD*%
D11*
%TO.C,C2*%
X131275000Y-93000000D03*
X129725000Y-93000000D03*
%TD*%
D28*
%TO.C,R1*%
X129675000Y-90250000D03*
X131325000Y-90250000D03*
%TD*%
D29*
%TO.C,D1*%
X128712500Y-87000000D03*
X130287500Y-87000000D03*
%TD*%
D12*
%TO.C,C1*%
X137000000Y-92025000D03*
X137000000Y-90475000D03*
%TD*%
D30*
%TO.C,FB1*%
X134537500Y-109500000D03*
X132962500Y-109500000D03*
%TD*%
D24*
%TO.C,R6*%
X147900000Y-77000000D03*
X146250000Y-77000000D03*
%TD*%
D30*
%TO.C,D2*%
X165287500Y-87000000D03*
X163712500Y-87000000D03*
%TD*%
D31*
%TO.C,U3*%
X142345000Y-112285000D03*
X142345000Y-113555000D03*
X142345000Y-114825000D03*
X142345000Y-116095000D03*
X142345000Y-117365000D03*
X142345000Y-118635000D03*
X142345000Y-119905000D03*
X142345000Y-121175000D03*
X142345000Y-122445000D03*
X142345000Y-123715000D03*
X151655000Y-123715000D03*
X151655000Y-122445000D03*
X151655000Y-121175000D03*
X151655000Y-119905000D03*
X151655000Y-118635000D03*
X151655000Y-117365000D03*
X151655000Y-116095000D03*
X151655000Y-114825000D03*
X151655000Y-113555000D03*
X151655000Y-112285000D03*
%TD*%
D11*
%TO.C,C8*%
X138575000Y-100000000D03*
X137025000Y-100000000D03*
%TD*%
M02*
