%TF.GenerationSoftware,KiCad,Pcbnew,7.0.9*%
%TF.CreationDate,2024-01-17T13:02:15-08:00*%
%TF.ProjectId,micromouse,6d696372-6f6d-46f7-9573-652e6b696361,rev?*%
%TF.SameCoordinates,Original*%
%TF.FileFunction,Legend,Bot*%
%TF.FilePolarity,Positive*%
%FSLAX46Y46*%
G04 Gerber Fmt 4.6, Leading zero omitted, Abs format (unit mm)*
G04 Created by KiCad (PCBNEW 7.0.9) date 2024-01-17 13:02:15*
%MOMM*%
%LPD*%
G01*
G04 APERTURE LIST*
%ADD10C,0.150000*%
%ADD11C,0.508000*%
%ADD12C,0.120000*%
G04 APERTURE END LIST*
D10*
X166814523Y-60099820D02*
X166814523Y-60814105D01*
X166814523Y-60814105D02*
X166862142Y-60956962D01*
X166862142Y-60956962D02*
X166957380Y-61052201D01*
X166957380Y-61052201D02*
X167100237Y-61099820D01*
X167100237Y-61099820D02*
X167195475Y-61099820D01*
X165814523Y-61099820D02*
X166385951Y-61099820D01*
X166100237Y-61099820D02*
X166100237Y-60099820D01*
X166100237Y-60099820D02*
X166195475Y-60242677D01*
X166195475Y-60242677D02*
X166290713Y-60337915D01*
X166290713Y-60337915D02*
X166385951Y-60385534D01*
X164909761Y-60099820D02*
X165385951Y-60099820D01*
X165385951Y-60099820D02*
X165433570Y-60576010D01*
X165433570Y-60576010D02*
X165385951Y-60528391D01*
X165385951Y-60528391D02*
X165290713Y-60480772D01*
X165290713Y-60480772D02*
X165052618Y-60480772D01*
X165052618Y-60480772D02*
X164957380Y-60528391D01*
X164957380Y-60528391D02*
X164909761Y-60576010D01*
X164909761Y-60576010D02*
X164862142Y-60671248D01*
X164862142Y-60671248D02*
X164862142Y-60909343D01*
X164862142Y-60909343D02*
X164909761Y-61004581D01*
X164909761Y-61004581D02*
X164957380Y-61052201D01*
X164957380Y-61052201D02*
X165052618Y-61099820D01*
X165052618Y-61099820D02*
X165290713Y-61099820D01*
X165290713Y-61099820D02*
X165385951Y-61052201D01*
X165385951Y-61052201D02*
X165433570Y-61004581D01*
X140324819Y-59435477D02*
X141039104Y-59435477D01*
X141039104Y-59435477D02*
X141181961Y-59387858D01*
X141181961Y-59387858D02*
X141277200Y-59292620D01*
X141277200Y-59292620D02*
X141324819Y-59149763D01*
X141324819Y-59149763D02*
X141324819Y-59054525D01*
X141324819Y-60435477D02*
X141324819Y-59864049D01*
X141324819Y-60149763D02*
X140324819Y-60149763D01*
X140324819Y-60149763D02*
X140467676Y-60054525D01*
X140467676Y-60054525D02*
X140562914Y-59959287D01*
X140562914Y-59959287D02*
X140610533Y-59864049D01*
X140658152Y-61292620D02*
X141324819Y-61292620D01*
X140277200Y-61054525D02*
X140991485Y-60816430D01*
X140991485Y-60816430D02*
X140991485Y-61435477D01*
X127809523Y-69059820D02*
X127809523Y-69774105D01*
X127809523Y-69774105D02*
X127857142Y-69916962D01*
X127857142Y-69916962D02*
X127952380Y-70012201D01*
X127952380Y-70012201D02*
X128095237Y-70059820D01*
X128095237Y-70059820D02*
X128190475Y-70059820D01*
X126809523Y-70059820D02*
X127380951Y-70059820D01*
X127095237Y-70059820D02*
X127095237Y-69059820D01*
X127095237Y-69059820D02*
X127190475Y-69202677D01*
X127190475Y-69202677D02*
X127285713Y-69297915D01*
X127285713Y-69297915D02*
X127380951Y-69345534D01*
X125952380Y-69059820D02*
X126142856Y-69059820D01*
X126142856Y-69059820D02*
X126238094Y-69107439D01*
X126238094Y-69107439D02*
X126285713Y-69155058D01*
X126285713Y-69155058D02*
X126380951Y-69297915D01*
X126380951Y-69297915D02*
X126428570Y-69488391D01*
X126428570Y-69488391D02*
X126428570Y-69869343D01*
X126428570Y-69869343D02*
X126380951Y-69964581D01*
X126380951Y-69964581D02*
X126333332Y-70012201D01*
X126333332Y-70012201D02*
X126238094Y-70059820D01*
X126238094Y-70059820D02*
X126047618Y-70059820D01*
X126047618Y-70059820D02*
X125952380Y-70012201D01*
X125952380Y-70012201D02*
X125904761Y-69964581D01*
X125904761Y-69964581D02*
X125857142Y-69869343D01*
X125857142Y-69869343D02*
X125857142Y-69631248D01*
X125857142Y-69631248D02*
X125904761Y-69536010D01*
X125904761Y-69536010D02*
X125952380Y-69488391D01*
X125952380Y-69488391D02*
X126047618Y-69440772D01*
X126047618Y-69440772D02*
X126238094Y-69440772D01*
X126238094Y-69440772D02*
X126333332Y-69488391D01*
X126333332Y-69488391D02*
X126380951Y-69536010D01*
X126380951Y-69536010D02*
X126428570Y-69631248D01*
D11*
%TO.C,J13*%
X160881000Y-141250000D02*
G75*
G03*
X160881000Y-141250000I-381000J0D01*
G01*
%TO.C,J9*%
X155381000Y-125500000D02*
G75*
G03*
X155381000Y-125500000I-381000J0D01*
G01*
D12*
%TO.C,J15*%
X168605000Y-69385001D02*
X163405000Y-69385001D01*
X168605000Y-64245001D02*
X168605000Y-69385001D01*
X168605000Y-64245001D02*
X166005000Y-64245001D01*
X168605000Y-62975001D02*
X168605000Y-61645001D01*
X168605000Y-61645001D02*
X167275000Y-61645001D01*
X166005000Y-64245001D02*
X166005000Y-61645001D01*
X166005000Y-61645001D02*
X163405000Y-61645001D01*
X163405000Y-61645001D02*
X163405000Y-69385001D01*
%TO.C,J14*%
X152150000Y-57645001D02*
X152150000Y-62845001D01*
X144470000Y-57645001D02*
X152150000Y-57645001D01*
X144470000Y-57645001D02*
X144470000Y-60245001D01*
X143200000Y-57645001D02*
X141870000Y-57645001D01*
X141870000Y-57645001D02*
X141870000Y-58975001D01*
X144470000Y-60245001D02*
X141870000Y-60245001D01*
X141870000Y-60245001D02*
X141870000Y-62845001D01*
X141870000Y-62845001D02*
X152150000Y-62845001D01*
%TO.C,J16*%
X125670000Y-63405001D02*
X128330000Y-63405001D01*
X125670000Y-66005001D02*
X125670000Y-63405001D01*
X125670000Y-66005001D02*
X128330000Y-66005001D01*
X125670000Y-67275001D02*
X125670000Y-68605001D01*
X125670000Y-68605001D02*
X127000000Y-68605001D01*
X128330000Y-66005001D02*
X128330000Y-63405001D01*
%TD*%
M02*
