%TF.GenerationSoftware,KiCad,Pcbnew,7.0.9*%
%TF.CreationDate,2024-02-08T13:36:01-08:00*%
%TF.ProjectId,micromouse,6d696372-6f6d-46f7-9573-652e6b696361,rev?*%
%TF.SameCoordinates,Original*%
%TF.FileFunction,Drillmap*%
%TF.FilePolarity,Positive*%
%FSLAX45Y45*%
G04 Gerber Fmt 4.5, Leading zero omitted, Abs format (unit mm)*
G04 Created by KiCad (PCBNEW 7.0.9) date 2024-02-08 13:36:01*
%MOMM*%
%LPD*%
G01*
G04 APERTURE LIST*
%ADD10C,0.100000*%
%ADD11C,0.200000*%
%ADD12C,0.220000*%
G04 APERTURE END LIST*
D10*
X13600000Y-8500000D02*
X13700000Y-8500000D01*
X13800000Y-8400000D02*
X13800000Y-8500000D01*
X13700000Y-8400000D02*
X13700000Y-8500000D01*
X17000000Y-6400000D02*
G75*
G03*
X16300000Y-5700000I-700000J0D01*
G01*
X13100000Y-5700000D02*
X16300000Y-5700000D01*
X16200000Y-8400000D02*
X16100000Y-8400000D01*
X16000000Y-8400000D02*
X16000000Y-8500000D01*
X12400000Y-7100000D02*
X12400000Y-6400000D01*
X15100000Y-8500000D02*
X15200000Y-8500000D01*
X15700000Y-8400000D02*
X15700000Y-8500000D01*
X14500000Y-8400000D02*
X14400000Y-8400000D01*
X15100000Y-8400000D02*
X15100000Y-8500000D01*
X14000000Y-8500000D02*
X14100000Y-8500000D01*
X14800000Y-8500000D02*
X14800000Y-8400000D01*
X14600000Y-8400000D02*
X14600000Y-8500000D01*
X13300000Y-8400000D02*
X13200000Y-8400000D01*
X13400000Y-8400000D02*
X13400000Y-8500000D01*
X13200000Y-8500000D02*
X13300000Y-8500000D01*
X13900000Y-8400000D02*
X13900000Y-8500000D01*
X14100000Y-8400000D02*
X14100000Y-8500000D01*
X15800000Y-8400000D02*
X15700000Y-8400000D01*
X14300000Y-8400000D02*
X14300000Y-8500000D01*
X13100000Y-8500000D02*
G75*
G03*
X12400000Y-9200000I0J-700000D01*
G01*
X16300000Y-8500000D02*
X16300000Y-7100000D01*
X15000000Y-8400000D02*
X14900000Y-8400000D01*
X14200000Y-8500000D02*
X14300000Y-8500000D01*
X13600000Y-8500000D02*
X13600000Y-8400000D01*
X15400000Y-8400000D02*
X15300000Y-8400000D01*
X15200000Y-8400000D02*
X15200000Y-8500000D01*
X12400000Y-9900000D02*
X13100000Y-9900000D01*
X13400000Y-8500000D02*
X13500000Y-8500000D01*
X15000000Y-8400000D02*
X15000000Y-8500000D01*
X15700000Y-8500000D02*
X15800000Y-8500000D01*
X14900000Y-8500000D02*
X15000000Y-8500000D01*
X15500000Y-8500000D02*
X15600000Y-8500000D01*
X13800000Y-8500000D02*
X13900000Y-8500000D01*
X12400000Y-7100000D02*
X13100000Y-7100000D01*
X14400000Y-8500000D02*
X14500000Y-8500000D01*
X14500000Y-8400000D02*
X14500000Y-8500000D01*
X15800000Y-8400000D02*
X15800000Y-8500000D01*
X15400000Y-8400000D02*
X15400000Y-8500000D01*
X13200000Y-8400000D02*
X13200000Y-8500000D01*
X13100000Y-14100000D02*
X16300000Y-14100000D01*
X15900000Y-8400000D02*
X15900000Y-8500000D01*
X14600000Y-8500000D02*
X14800000Y-8500000D01*
X15300000Y-8500000D02*
X15400000Y-8500000D01*
X16000000Y-8400000D02*
X15900000Y-8400000D01*
X13500000Y-8500000D02*
X13500000Y-8400000D01*
X15600000Y-8400000D02*
X15600000Y-8500000D01*
X14400000Y-8400000D02*
X14400000Y-8500000D01*
X14000000Y-8400000D02*
X14000000Y-8500000D01*
X13300000Y-8500000D02*
X13300000Y-8400000D01*
X14800000Y-8400000D02*
X14600000Y-8400000D01*
X13900000Y-8400000D02*
X13800000Y-8400000D01*
X16200000Y-8400000D02*
X16200000Y-8500000D01*
X13100000Y-14100000D02*
X13100000Y-9900000D01*
X16100000Y-8400000D02*
X16100000Y-8500000D01*
X17000000Y-9900000D02*
X17000000Y-9200000D01*
X15300000Y-8400000D02*
X15300000Y-8500000D01*
X14300000Y-8400000D02*
X14200000Y-8400000D01*
X15200000Y-8400000D02*
X15100000Y-8400000D01*
X13500000Y-8400000D02*
X13400000Y-8400000D01*
X17000000Y-7100000D02*
X17000000Y-6400000D01*
X14100000Y-8400000D02*
X14000000Y-8400000D01*
X13100000Y-7100000D02*
X13100000Y-8500000D01*
X17000000Y-9900000D02*
X16300000Y-9900000D01*
X16300000Y-9900000D02*
X16300000Y-14100000D01*
X16100000Y-8500000D02*
X16200000Y-8500000D01*
X15500000Y-8500000D02*
X15500000Y-8400000D01*
X12400000Y-9900000D02*
X12400000Y-9200000D01*
X17000000Y-9200000D02*
G75*
G03*
X16300000Y-8500000I-700000J0D01*
G01*
X17000000Y-7100000D02*
X16300000Y-7100000D01*
X15900000Y-8500000D02*
X16000000Y-8500000D01*
X15600000Y-8400000D02*
X15500000Y-8400000D01*
X14900000Y-8400000D02*
X14900000Y-8500000D01*
X13100000Y-5700000D02*
G75*
G03*
X12400000Y-6400000I0J-700000D01*
G01*
X13700000Y-8400000D02*
X13600000Y-8400000D01*
X14200000Y-8400000D02*
X14200000Y-8500000D01*
D11*
D12*
X13290000Y-8690000D02*
X13510000Y-8910000D01*
X13510000Y-8690000D02*
X13290000Y-8910000D01*
X13290000Y-12640000D02*
X13510000Y-12860000D01*
X13510000Y-12640000D02*
X13290000Y-12860000D01*
X15890000Y-8690000D02*
X16110000Y-8910000D01*
X16110000Y-8690000D02*
X15890000Y-8910000D01*
X15890000Y-12640000D02*
X16110000Y-12860000D01*
X16110000Y-12640000D02*
X15890000Y-12860000D01*
D11*
X12655777Y-14416484D02*
X12655777Y-14216484D01*
X12655777Y-14216484D02*
X12703396Y-14216484D01*
X12703396Y-14216484D02*
X12731967Y-14226008D01*
X12731967Y-14226008D02*
X12751015Y-14245055D01*
X12751015Y-14245055D02*
X12760538Y-14264103D01*
X12760538Y-14264103D02*
X12770062Y-14302198D01*
X12770062Y-14302198D02*
X12770062Y-14330769D01*
X12770062Y-14330769D02*
X12760538Y-14368865D01*
X12760538Y-14368865D02*
X12751015Y-14387912D01*
X12751015Y-14387912D02*
X12731967Y-14406960D01*
X12731967Y-14406960D02*
X12703396Y-14416484D01*
X12703396Y-14416484D02*
X12655777Y-14416484D01*
X12855777Y-14416484D02*
X12855777Y-14283150D01*
X12855777Y-14321246D02*
X12865300Y-14302198D01*
X12865300Y-14302198D02*
X12874824Y-14292674D01*
X12874824Y-14292674D02*
X12893872Y-14283150D01*
X12893872Y-14283150D02*
X12912919Y-14283150D01*
X12979586Y-14416484D02*
X12979586Y-14283150D01*
X12979586Y-14216484D02*
X12970062Y-14226008D01*
X12970062Y-14226008D02*
X12979586Y-14235531D01*
X12979586Y-14235531D02*
X12989110Y-14226008D01*
X12989110Y-14226008D02*
X12979586Y-14216484D01*
X12979586Y-14216484D02*
X12979586Y-14235531D01*
X13103396Y-14416484D02*
X13084348Y-14406960D01*
X13084348Y-14406960D02*
X13074824Y-14387912D01*
X13074824Y-14387912D02*
X13074824Y-14216484D01*
X13208157Y-14416484D02*
X13189110Y-14406960D01*
X13189110Y-14406960D02*
X13179586Y-14387912D01*
X13179586Y-14387912D02*
X13179586Y-14216484D01*
X13436729Y-14416484D02*
X13436729Y-14216484D01*
X13436729Y-14216484D02*
X13503396Y-14359341D01*
X13503396Y-14359341D02*
X13570062Y-14216484D01*
X13570062Y-14216484D02*
X13570062Y-14416484D01*
X13751015Y-14416484D02*
X13751015Y-14311722D01*
X13751015Y-14311722D02*
X13741491Y-14292674D01*
X13741491Y-14292674D02*
X13722443Y-14283150D01*
X13722443Y-14283150D02*
X13684348Y-14283150D01*
X13684348Y-14283150D02*
X13665300Y-14292674D01*
X13751015Y-14406960D02*
X13731967Y-14416484D01*
X13731967Y-14416484D02*
X13684348Y-14416484D01*
X13684348Y-14416484D02*
X13665300Y-14406960D01*
X13665300Y-14406960D02*
X13655777Y-14387912D01*
X13655777Y-14387912D02*
X13655777Y-14368865D01*
X13655777Y-14368865D02*
X13665300Y-14349817D01*
X13665300Y-14349817D02*
X13684348Y-14340293D01*
X13684348Y-14340293D02*
X13731967Y-14340293D01*
X13731967Y-14340293D02*
X13751015Y-14330769D01*
X13846253Y-14283150D02*
X13846253Y-14483150D01*
X13846253Y-14292674D02*
X13865300Y-14283150D01*
X13865300Y-14283150D02*
X13903396Y-14283150D01*
X13903396Y-14283150D02*
X13922443Y-14292674D01*
X13922443Y-14292674D02*
X13931967Y-14302198D01*
X13931967Y-14302198D02*
X13941491Y-14321246D01*
X13941491Y-14321246D02*
X13941491Y-14378388D01*
X13941491Y-14378388D02*
X13931967Y-14397436D01*
X13931967Y-14397436D02*
X13922443Y-14406960D01*
X13922443Y-14406960D02*
X13903396Y-14416484D01*
X13903396Y-14416484D02*
X13865300Y-14416484D01*
X13865300Y-14416484D02*
X13846253Y-14406960D01*
X14027205Y-14397436D02*
X14036729Y-14406960D01*
X14036729Y-14406960D02*
X14027205Y-14416484D01*
X14027205Y-14416484D02*
X14017681Y-14406960D01*
X14017681Y-14406960D02*
X14027205Y-14397436D01*
X14027205Y-14397436D02*
X14027205Y-14416484D01*
X14027205Y-14292674D02*
X14036729Y-14302198D01*
X14036729Y-14302198D02*
X14027205Y-14311722D01*
X14027205Y-14311722D02*
X14017681Y-14302198D01*
X14017681Y-14302198D02*
X14027205Y-14292674D01*
X14027205Y-14292674D02*
X14027205Y-14311722D01*
X12195000Y-14645000D02*
X12395000Y-14845000D01*
X12395000Y-14645000D02*
X12195000Y-14845000D01*
X12646253Y-14655531D02*
X12655777Y-14646008D01*
X12655777Y-14646008D02*
X12674824Y-14636484D01*
X12674824Y-14636484D02*
X12722443Y-14636484D01*
X12722443Y-14636484D02*
X12741491Y-14646008D01*
X12741491Y-14646008D02*
X12751015Y-14655531D01*
X12751015Y-14655531D02*
X12760538Y-14674579D01*
X12760538Y-14674579D02*
X12760538Y-14693627D01*
X12760538Y-14693627D02*
X12751015Y-14722198D01*
X12751015Y-14722198D02*
X12636729Y-14836484D01*
X12636729Y-14836484D02*
X12760538Y-14836484D01*
X12846253Y-14817436D02*
X12855777Y-14826960D01*
X12855777Y-14826960D02*
X12846253Y-14836484D01*
X12846253Y-14836484D02*
X12836729Y-14826960D01*
X12836729Y-14826960D02*
X12846253Y-14817436D01*
X12846253Y-14817436D02*
X12846253Y-14836484D01*
X12931967Y-14655531D02*
X12941491Y-14646008D01*
X12941491Y-14646008D02*
X12960538Y-14636484D01*
X12960538Y-14636484D02*
X13008158Y-14636484D01*
X13008158Y-14636484D02*
X13027205Y-14646008D01*
X13027205Y-14646008D02*
X13036729Y-14655531D01*
X13036729Y-14655531D02*
X13046253Y-14674579D01*
X13046253Y-14674579D02*
X13046253Y-14693627D01*
X13046253Y-14693627D02*
X13036729Y-14722198D01*
X13036729Y-14722198D02*
X12922443Y-14836484D01*
X12922443Y-14836484D02*
X13046253Y-14836484D01*
X13170062Y-14636484D02*
X13189110Y-14636484D01*
X13189110Y-14636484D02*
X13208158Y-14646008D01*
X13208158Y-14646008D02*
X13217681Y-14655531D01*
X13217681Y-14655531D02*
X13227205Y-14674579D01*
X13227205Y-14674579D02*
X13236729Y-14712674D01*
X13236729Y-14712674D02*
X13236729Y-14760293D01*
X13236729Y-14760293D02*
X13227205Y-14798388D01*
X13227205Y-14798388D02*
X13217681Y-14817436D01*
X13217681Y-14817436D02*
X13208158Y-14826960D01*
X13208158Y-14826960D02*
X13189110Y-14836484D01*
X13189110Y-14836484D02*
X13170062Y-14836484D01*
X13170062Y-14836484D02*
X13151015Y-14826960D01*
X13151015Y-14826960D02*
X13141491Y-14817436D01*
X13141491Y-14817436D02*
X13131967Y-14798388D01*
X13131967Y-14798388D02*
X13122443Y-14760293D01*
X13122443Y-14760293D02*
X13122443Y-14712674D01*
X13122443Y-14712674D02*
X13131967Y-14674579D01*
X13131967Y-14674579D02*
X13141491Y-14655531D01*
X13141491Y-14655531D02*
X13151015Y-14646008D01*
X13151015Y-14646008D02*
X13170062Y-14636484D01*
X13360538Y-14636484D02*
X13379586Y-14636484D01*
X13379586Y-14636484D02*
X13398634Y-14646008D01*
X13398634Y-14646008D02*
X13408158Y-14655531D01*
X13408158Y-14655531D02*
X13417681Y-14674579D01*
X13417681Y-14674579D02*
X13427205Y-14712674D01*
X13427205Y-14712674D02*
X13427205Y-14760293D01*
X13427205Y-14760293D02*
X13417681Y-14798388D01*
X13417681Y-14798388D02*
X13408158Y-14817436D01*
X13408158Y-14817436D02*
X13398634Y-14826960D01*
X13398634Y-14826960D02*
X13379586Y-14836484D01*
X13379586Y-14836484D02*
X13360538Y-14836484D01*
X13360538Y-14836484D02*
X13341491Y-14826960D01*
X13341491Y-14826960D02*
X13331967Y-14817436D01*
X13331967Y-14817436D02*
X13322443Y-14798388D01*
X13322443Y-14798388D02*
X13312919Y-14760293D01*
X13312919Y-14760293D02*
X13312919Y-14712674D01*
X13312919Y-14712674D02*
X13322443Y-14674579D01*
X13322443Y-14674579D02*
X13331967Y-14655531D01*
X13331967Y-14655531D02*
X13341491Y-14646008D01*
X13341491Y-14646008D02*
X13360538Y-14636484D01*
X13512919Y-14836484D02*
X13512919Y-14703150D01*
X13512919Y-14722198D02*
X13522443Y-14712674D01*
X13522443Y-14712674D02*
X13541491Y-14703150D01*
X13541491Y-14703150D02*
X13570062Y-14703150D01*
X13570062Y-14703150D02*
X13589110Y-14712674D01*
X13589110Y-14712674D02*
X13598634Y-14731722D01*
X13598634Y-14731722D02*
X13598634Y-14836484D01*
X13598634Y-14731722D02*
X13608158Y-14712674D01*
X13608158Y-14712674D02*
X13627205Y-14703150D01*
X13627205Y-14703150D02*
X13655777Y-14703150D01*
X13655777Y-14703150D02*
X13674824Y-14712674D01*
X13674824Y-14712674D02*
X13684348Y-14731722D01*
X13684348Y-14731722D02*
X13684348Y-14836484D01*
X13779586Y-14836484D02*
X13779586Y-14703150D01*
X13779586Y-14722198D02*
X13789110Y-14712674D01*
X13789110Y-14712674D02*
X13808158Y-14703150D01*
X13808158Y-14703150D02*
X13836729Y-14703150D01*
X13836729Y-14703150D02*
X13855777Y-14712674D01*
X13855777Y-14712674D02*
X13865300Y-14731722D01*
X13865300Y-14731722D02*
X13865300Y-14836484D01*
X13865300Y-14731722D02*
X13874824Y-14712674D01*
X13874824Y-14712674D02*
X13893872Y-14703150D01*
X13893872Y-14703150D02*
X13922443Y-14703150D01*
X13922443Y-14703150D02*
X13941491Y-14712674D01*
X13941491Y-14712674D02*
X13951015Y-14731722D01*
X13951015Y-14731722D02*
X13951015Y-14836484D01*
X14341491Y-14626960D02*
X14170062Y-14884103D01*
X14598634Y-14636484D02*
X14617682Y-14636484D01*
X14617682Y-14636484D02*
X14636729Y-14646008D01*
X14636729Y-14646008D02*
X14646253Y-14655531D01*
X14646253Y-14655531D02*
X14655777Y-14674579D01*
X14655777Y-14674579D02*
X14665301Y-14712674D01*
X14665301Y-14712674D02*
X14665301Y-14760293D01*
X14665301Y-14760293D02*
X14655777Y-14798388D01*
X14655777Y-14798388D02*
X14646253Y-14817436D01*
X14646253Y-14817436D02*
X14636729Y-14826960D01*
X14636729Y-14826960D02*
X14617682Y-14836484D01*
X14617682Y-14836484D02*
X14598634Y-14836484D01*
X14598634Y-14836484D02*
X14579586Y-14826960D01*
X14579586Y-14826960D02*
X14570062Y-14817436D01*
X14570062Y-14817436D02*
X14560539Y-14798388D01*
X14560539Y-14798388D02*
X14551015Y-14760293D01*
X14551015Y-14760293D02*
X14551015Y-14712674D01*
X14551015Y-14712674D02*
X14560539Y-14674579D01*
X14560539Y-14674579D02*
X14570062Y-14655531D01*
X14570062Y-14655531D02*
X14579586Y-14646008D01*
X14579586Y-14646008D02*
X14598634Y-14636484D01*
X14751015Y-14817436D02*
X14760539Y-14826960D01*
X14760539Y-14826960D02*
X14751015Y-14836484D01*
X14751015Y-14836484D02*
X14741491Y-14826960D01*
X14741491Y-14826960D02*
X14751015Y-14817436D01*
X14751015Y-14817436D02*
X14751015Y-14836484D01*
X14884348Y-14636484D02*
X14903396Y-14636484D01*
X14903396Y-14636484D02*
X14922443Y-14646008D01*
X14922443Y-14646008D02*
X14931967Y-14655531D01*
X14931967Y-14655531D02*
X14941491Y-14674579D01*
X14941491Y-14674579D02*
X14951015Y-14712674D01*
X14951015Y-14712674D02*
X14951015Y-14760293D01*
X14951015Y-14760293D02*
X14941491Y-14798388D01*
X14941491Y-14798388D02*
X14931967Y-14817436D01*
X14931967Y-14817436D02*
X14922443Y-14826960D01*
X14922443Y-14826960D02*
X14903396Y-14836484D01*
X14903396Y-14836484D02*
X14884348Y-14836484D01*
X14884348Y-14836484D02*
X14865301Y-14826960D01*
X14865301Y-14826960D02*
X14855777Y-14817436D01*
X14855777Y-14817436D02*
X14846253Y-14798388D01*
X14846253Y-14798388D02*
X14836729Y-14760293D01*
X14836729Y-14760293D02*
X14836729Y-14712674D01*
X14836729Y-14712674D02*
X14846253Y-14674579D01*
X14846253Y-14674579D02*
X14855777Y-14655531D01*
X14855777Y-14655531D02*
X14865301Y-14646008D01*
X14865301Y-14646008D02*
X14884348Y-14636484D01*
X15065301Y-14722198D02*
X15046253Y-14712674D01*
X15046253Y-14712674D02*
X15036729Y-14703150D01*
X15036729Y-14703150D02*
X15027205Y-14684103D01*
X15027205Y-14684103D02*
X15027205Y-14674579D01*
X15027205Y-14674579D02*
X15036729Y-14655531D01*
X15036729Y-14655531D02*
X15046253Y-14646008D01*
X15046253Y-14646008D02*
X15065301Y-14636484D01*
X15065301Y-14636484D02*
X15103396Y-14636484D01*
X15103396Y-14636484D02*
X15122443Y-14646008D01*
X15122443Y-14646008D02*
X15131967Y-14655531D01*
X15131967Y-14655531D02*
X15141491Y-14674579D01*
X15141491Y-14674579D02*
X15141491Y-14684103D01*
X15141491Y-14684103D02*
X15131967Y-14703150D01*
X15131967Y-14703150D02*
X15122443Y-14712674D01*
X15122443Y-14712674D02*
X15103396Y-14722198D01*
X15103396Y-14722198D02*
X15065301Y-14722198D01*
X15065301Y-14722198D02*
X15046253Y-14731722D01*
X15046253Y-14731722D02*
X15036729Y-14741246D01*
X15036729Y-14741246D02*
X15027205Y-14760293D01*
X15027205Y-14760293D02*
X15027205Y-14798388D01*
X15027205Y-14798388D02*
X15036729Y-14817436D01*
X15036729Y-14817436D02*
X15046253Y-14826960D01*
X15046253Y-14826960D02*
X15065301Y-14836484D01*
X15065301Y-14836484D02*
X15103396Y-14836484D01*
X15103396Y-14836484D02*
X15122443Y-14826960D01*
X15122443Y-14826960D02*
X15131967Y-14817436D01*
X15131967Y-14817436D02*
X15141491Y-14798388D01*
X15141491Y-14798388D02*
X15141491Y-14760293D01*
X15141491Y-14760293D02*
X15131967Y-14741246D01*
X15131967Y-14741246D02*
X15122443Y-14731722D01*
X15122443Y-14731722D02*
X15103396Y-14722198D01*
X15312920Y-14636484D02*
X15274824Y-14636484D01*
X15274824Y-14636484D02*
X15255777Y-14646008D01*
X15255777Y-14646008D02*
X15246253Y-14655531D01*
X15246253Y-14655531D02*
X15227205Y-14684103D01*
X15227205Y-14684103D02*
X15217682Y-14722198D01*
X15217682Y-14722198D02*
X15217682Y-14798388D01*
X15217682Y-14798388D02*
X15227205Y-14817436D01*
X15227205Y-14817436D02*
X15236729Y-14826960D01*
X15236729Y-14826960D02*
X15255777Y-14836484D01*
X15255777Y-14836484D02*
X15293872Y-14836484D01*
X15293872Y-14836484D02*
X15312920Y-14826960D01*
X15312920Y-14826960D02*
X15322443Y-14817436D01*
X15322443Y-14817436D02*
X15331967Y-14798388D01*
X15331967Y-14798388D02*
X15331967Y-14750769D01*
X15331967Y-14750769D02*
X15322443Y-14731722D01*
X15322443Y-14731722D02*
X15312920Y-14722198D01*
X15312920Y-14722198D02*
X15293872Y-14712674D01*
X15293872Y-14712674D02*
X15255777Y-14712674D01*
X15255777Y-14712674D02*
X15236729Y-14722198D01*
X15236729Y-14722198D02*
X15227205Y-14731722D01*
X15227205Y-14731722D02*
X15217682Y-14750769D01*
X15503396Y-14636484D02*
X15465301Y-14636484D01*
X15465301Y-14636484D02*
X15446253Y-14646008D01*
X15446253Y-14646008D02*
X15436729Y-14655531D01*
X15436729Y-14655531D02*
X15417682Y-14684103D01*
X15417682Y-14684103D02*
X15408158Y-14722198D01*
X15408158Y-14722198D02*
X15408158Y-14798388D01*
X15408158Y-14798388D02*
X15417682Y-14817436D01*
X15417682Y-14817436D02*
X15427205Y-14826960D01*
X15427205Y-14826960D02*
X15446253Y-14836484D01*
X15446253Y-14836484D02*
X15484348Y-14836484D01*
X15484348Y-14836484D02*
X15503396Y-14826960D01*
X15503396Y-14826960D02*
X15512920Y-14817436D01*
X15512920Y-14817436D02*
X15522443Y-14798388D01*
X15522443Y-14798388D02*
X15522443Y-14750769D01*
X15522443Y-14750769D02*
X15512920Y-14731722D01*
X15512920Y-14731722D02*
X15503396Y-14722198D01*
X15503396Y-14722198D02*
X15484348Y-14712674D01*
X15484348Y-14712674D02*
X15446253Y-14712674D01*
X15446253Y-14712674D02*
X15427205Y-14722198D01*
X15427205Y-14722198D02*
X15417682Y-14731722D01*
X15417682Y-14731722D02*
X15408158Y-14750769D01*
X15598634Y-14636484D02*
X15598634Y-14674579D01*
X15674824Y-14636484D02*
X15674824Y-14674579D01*
X15970063Y-14912674D02*
X15960539Y-14903150D01*
X15960539Y-14903150D02*
X15941491Y-14874579D01*
X15941491Y-14874579D02*
X15931967Y-14855531D01*
X15931967Y-14855531D02*
X15922444Y-14826960D01*
X15922444Y-14826960D02*
X15912920Y-14779341D01*
X15912920Y-14779341D02*
X15912920Y-14741246D01*
X15912920Y-14741246D02*
X15922444Y-14693627D01*
X15922444Y-14693627D02*
X15931967Y-14665055D01*
X15931967Y-14665055D02*
X15941491Y-14646008D01*
X15941491Y-14646008D02*
X15960539Y-14617436D01*
X15960539Y-14617436D02*
X15970063Y-14607912D01*
X16131967Y-14703150D02*
X16131967Y-14836484D01*
X16084348Y-14626960D02*
X16036729Y-14769817D01*
X16036729Y-14769817D02*
X16160539Y-14769817D01*
X16389110Y-14836484D02*
X16389110Y-14636484D01*
X16474825Y-14836484D02*
X16474825Y-14731722D01*
X16474825Y-14731722D02*
X16465301Y-14712674D01*
X16465301Y-14712674D02*
X16446253Y-14703150D01*
X16446253Y-14703150D02*
X16417682Y-14703150D01*
X16417682Y-14703150D02*
X16398634Y-14712674D01*
X16398634Y-14712674D02*
X16389110Y-14722198D01*
X16598634Y-14836484D02*
X16579586Y-14826960D01*
X16579586Y-14826960D02*
X16570063Y-14817436D01*
X16570063Y-14817436D02*
X16560539Y-14798388D01*
X16560539Y-14798388D02*
X16560539Y-14741246D01*
X16560539Y-14741246D02*
X16570063Y-14722198D01*
X16570063Y-14722198D02*
X16579586Y-14712674D01*
X16579586Y-14712674D02*
X16598634Y-14703150D01*
X16598634Y-14703150D02*
X16627206Y-14703150D01*
X16627206Y-14703150D02*
X16646253Y-14712674D01*
X16646253Y-14712674D02*
X16655777Y-14722198D01*
X16655777Y-14722198D02*
X16665301Y-14741246D01*
X16665301Y-14741246D02*
X16665301Y-14798388D01*
X16665301Y-14798388D02*
X16655777Y-14817436D01*
X16655777Y-14817436D02*
X16646253Y-14826960D01*
X16646253Y-14826960D02*
X16627206Y-14836484D01*
X16627206Y-14836484D02*
X16598634Y-14836484D01*
X16779587Y-14836484D02*
X16760539Y-14826960D01*
X16760539Y-14826960D02*
X16751015Y-14807912D01*
X16751015Y-14807912D02*
X16751015Y-14636484D01*
X16931968Y-14826960D02*
X16912920Y-14836484D01*
X16912920Y-14836484D02*
X16874825Y-14836484D01*
X16874825Y-14836484D02*
X16855777Y-14826960D01*
X16855777Y-14826960D02*
X16846253Y-14807912D01*
X16846253Y-14807912D02*
X16846253Y-14731722D01*
X16846253Y-14731722D02*
X16855777Y-14712674D01*
X16855777Y-14712674D02*
X16874825Y-14703150D01*
X16874825Y-14703150D02*
X16912920Y-14703150D01*
X16912920Y-14703150D02*
X16931968Y-14712674D01*
X16931968Y-14712674D02*
X16941491Y-14731722D01*
X16941491Y-14731722D02*
X16941491Y-14750769D01*
X16941491Y-14750769D02*
X16846253Y-14769817D01*
X17017682Y-14826960D02*
X17036729Y-14836484D01*
X17036729Y-14836484D02*
X17074825Y-14836484D01*
X17074825Y-14836484D02*
X17093872Y-14826960D01*
X17093872Y-14826960D02*
X17103396Y-14807912D01*
X17103396Y-14807912D02*
X17103396Y-14798388D01*
X17103396Y-14798388D02*
X17093872Y-14779341D01*
X17093872Y-14779341D02*
X17074825Y-14769817D01*
X17074825Y-14769817D02*
X17046253Y-14769817D01*
X17046253Y-14769817D02*
X17027206Y-14760293D01*
X17027206Y-14760293D02*
X17017682Y-14741246D01*
X17017682Y-14741246D02*
X17017682Y-14731722D01*
X17017682Y-14731722D02*
X17027206Y-14712674D01*
X17027206Y-14712674D02*
X17046253Y-14703150D01*
X17046253Y-14703150D02*
X17074825Y-14703150D01*
X17074825Y-14703150D02*
X17093872Y-14712674D01*
X17170063Y-14912674D02*
X17179587Y-14903150D01*
X17179587Y-14903150D02*
X17198634Y-14874579D01*
X17198634Y-14874579D02*
X17208158Y-14855531D01*
X17208158Y-14855531D02*
X17217682Y-14826960D01*
X17217682Y-14826960D02*
X17227206Y-14779341D01*
X17227206Y-14779341D02*
X17227206Y-14741246D01*
X17227206Y-14741246D02*
X17217682Y-14693627D01*
X17217682Y-14693627D02*
X17208158Y-14665055D01*
X17208158Y-14665055D02*
X17198634Y-14646008D01*
X17198634Y-14646008D02*
X17179587Y-14617436D01*
X17179587Y-14617436D02*
X17170063Y-14607912D01*
X17531968Y-14912674D02*
X17522444Y-14903150D01*
X17522444Y-14903150D02*
X17503396Y-14874579D01*
X17503396Y-14874579D02*
X17493872Y-14855531D01*
X17493872Y-14855531D02*
X17484349Y-14826960D01*
X17484349Y-14826960D02*
X17474825Y-14779341D01*
X17474825Y-14779341D02*
X17474825Y-14741246D01*
X17474825Y-14741246D02*
X17484349Y-14693627D01*
X17484349Y-14693627D02*
X17493872Y-14665055D01*
X17493872Y-14665055D02*
X17503396Y-14646008D01*
X17503396Y-14646008D02*
X17522444Y-14617436D01*
X17522444Y-14617436D02*
X17531968Y-14607912D01*
X17608158Y-14703150D02*
X17608158Y-14836484D01*
X17608158Y-14722198D02*
X17617682Y-14712674D01*
X17617682Y-14712674D02*
X17636729Y-14703150D01*
X17636729Y-14703150D02*
X17665301Y-14703150D01*
X17665301Y-14703150D02*
X17684349Y-14712674D01*
X17684349Y-14712674D02*
X17693872Y-14731722D01*
X17693872Y-14731722D02*
X17693872Y-14836484D01*
X17817682Y-14836484D02*
X17798634Y-14826960D01*
X17798634Y-14826960D02*
X17789110Y-14817436D01*
X17789110Y-14817436D02*
X17779587Y-14798388D01*
X17779587Y-14798388D02*
X17779587Y-14741246D01*
X17779587Y-14741246D02*
X17789110Y-14722198D01*
X17789110Y-14722198D02*
X17798634Y-14712674D01*
X17798634Y-14712674D02*
X17817682Y-14703150D01*
X17817682Y-14703150D02*
X17846253Y-14703150D01*
X17846253Y-14703150D02*
X17865301Y-14712674D01*
X17865301Y-14712674D02*
X17874825Y-14722198D01*
X17874825Y-14722198D02*
X17884349Y-14741246D01*
X17884349Y-14741246D02*
X17884349Y-14798388D01*
X17884349Y-14798388D02*
X17874825Y-14817436D01*
X17874825Y-14817436D02*
X17865301Y-14826960D01*
X17865301Y-14826960D02*
X17846253Y-14836484D01*
X17846253Y-14836484D02*
X17817682Y-14836484D01*
X17941491Y-14703150D02*
X18017682Y-14703150D01*
X17970063Y-14636484D02*
X17970063Y-14807912D01*
X17970063Y-14807912D02*
X17979587Y-14826960D01*
X17979587Y-14826960D02*
X17998634Y-14836484D01*
X17998634Y-14836484D02*
X18017682Y-14836484D01*
X18236730Y-14703150D02*
X18236730Y-14903150D01*
X18236730Y-14712674D02*
X18255777Y-14703150D01*
X18255777Y-14703150D02*
X18293872Y-14703150D01*
X18293872Y-14703150D02*
X18312920Y-14712674D01*
X18312920Y-14712674D02*
X18322444Y-14722198D01*
X18322444Y-14722198D02*
X18331968Y-14741246D01*
X18331968Y-14741246D02*
X18331968Y-14798388D01*
X18331968Y-14798388D02*
X18322444Y-14817436D01*
X18322444Y-14817436D02*
X18312920Y-14826960D01*
X18312920Y-14826960D02*
X18293872Y-14836484D01*
X18293872Y-14836484D02*
X18255777Y-14836484D01*
X18255777Y-14836484D02*
X18236730Y-14826960D01*
X18446253Y-14836484D02*
X18427206Y-14826960D01*
X18427206Y-14826960D02*
X18417682Y-14807912D01*
X18417682Y-14807912D02*
X18417682Y-14636484D01*
X18608158Y-14836484D02*
X18608158Y-14731722D01*
X18608158Y-14731722D02*
X18598634Y-14712674D01*
X18598634Y-14712674D02*
X18579587Y-14703150D01*
X18579587Y-14703150D02*
X18541491Y-14703150D01*
X18541491Y-14703150D02*
X18522444Y-14712674D01*
X18608158Y-14826960D02*
X18589111Y-14836484D01*
X18589111Y-14836484D02*
X18541491Y-14836484D01*
X18541491Y-14836484D02*
X18522444Y-14826960D01*
X18522444Y-14826960D02*
X18512920Y-14807912D01*
X18512920Y-14807912D02*
X18512920Y-14788865D01*
X18512920Y-14788865D02*
X18522444Y-14769817D01*
X18522444Y-14769817D02*
X18541491Y-14760293D01*
X18541491Y-14760293D02*
X18589111Y-14760293D01*
X18589111Y-14760293D02*
X18608158Y-14750769D01*
X18674825Y-14703150D02*
X18751015Y-14703150D01*
X18703396Y-14636484D02*
X18703396Y-14807912D01*
X18703396Y-14807912D02*
X18712920Y-14826960D01*
X18712920Y-14826960D02*
X18731968Y-14836484D01*
X18731968Y-14836484D02*
X18751015Y-14836484D01*
X18893872Y-14826960D02*
X18874825Y-14836484D01*
X18874825Y-14836484D02*
X18836730Y-14836484D01*
X18836730Y-14836484D02*
X18817682Y-14826960D01*
X18817682Y-14826960D02*
X18808158Y-14807912D01*
X18808158Y-14807912D02*
X18808158Y-14731722D01*
X18808158Y-14731722D02*
X18817682Y-14712674D01*
X18817682Y-14712674D02*
X18836730Y-14703150D01*
X18836730Y-14703150D02*
X18874825Y-14703150D01*
X18874825Y-14703150D02*
X18893872Y-14712674D01*
X18893872Y-14712674D02*
X18903396Y-14731722D01*
X18903396Y-14731722D02*
X18903396Y-14750769D01*
X18903396Y-14750769D02*
X18808158Y-14769817D01*
X19074825Y-14836484D02*
X19074825Y-14636484D01*
X19074825Y-14826960D02*
X19055777Y-14836484D01*
X19055777Y-14836484D02*
X19017682Y-14836484D01*
X19017682Y-14836484D02*
X18998634Y-14826960D01*
X18998634Y-14826960D02*
X18989111Y-14817436D01*
X18989111Y-14817436D02*
X18979587Y-14798388D01*
X18979587Y-14798388D02*
X18979587Y-14741246D01*
X18979587Y-14741246D02*
X18989111Y-14722198D01*
X18989111Y-14722198D02*
X18998634Y-14712674D01*
X18998634Y-14712674D02*
X19017682Y-14703150D01*
X19017682Y-14703150D02*
X19055777Y-14703150D01*
X19055777Y-14703150D02*
X19074825Y-14712674D01*
X19151015Y-14912674D02*
X19160539Y-14903150D01*
X19160539Y-14903150D02*
X19179587Y-14874579D01*
X19179587Y-14874579D02*
X19189111Y-14855531D01*
X19189111Y-14855531D02*
X19198634Y-14826960D01*
X19198634Y-14826960D02*
X19208158Y-14779341D01*
X19208158Y-14779341D02*
X19208158Y-14741246D01*
X19208158Y-14741246D02*
X19198634Y-14693627D01*
X19198634Y-14693627D02*
X19189111Y-14665055D01*
X19189111Y-14665055D02*
X19179587Y-14646008D01*
X19179587Y-14646008D02*
X19160539Y-14617436D01*
X19160539Y-14617436D02*
X19151015Y-14607912D01*
M02*
